<svg width="129" height="42" viewBox="0 0 129 42" fill="none" xmlns="http://www.w3.org/2000/svg">
<path d="M110.75 30V11.4331H114.676V19.0937H122.645V11.4331H126.561V30H122.645V22.3302H114.676V30H110.75Z" fill="#ade63e"/>
<path d="M92.9902 14.6696V11.4331H108.239V14.6696H102.555V30H98.6745V14.6696H92.9902Z" fill="#ade63e"/>
<path d="M78.0657 30V11.4331H90.5765V14.6696H81.9912V19.0937H89.9329V22.3302H81.9912V26.7634H90.6128V30H78.0657Z" fill="#ade63e"/>
<path d="M55.7931 30L50.4805 11.4331H54.7686L57.8419 24.3338H57.9961L61.3867 11.4331H65.0583L68.4399 24.361H68.6031L71.6764 11.4331H75.9646L70.652 30H66.8262L63.2905 17.8608H63.1455L59.6188 30H55.7931Z" fill="#ade63e"/>
<g clip-path="url(#clip0_254_402)">
<path d="M11.7742 41.6558C22.331 41.6558 22.331 41.4986 24.121 40.9673C26.4602 40.2729 17.5165 34.082 11.7742 34.082C6.03197 34.082 1.37695 35.7775 1.37695 37.8689C1.37695 39.9604 6.0322 41.6558 11.7742 41.6558Z" fill="black"/>
<path d="M35.7456 9.45319L36.2312 9.97646L35.8067 10.5504C22.0387 29.1658 14.1074 37.5943 10.7423 36.4639C8.69257 35.7753 6.637 33.7045 4.58138 30.6976C3.85883 29.6407 3.18034 28.5277 2.56325 27.4201C2.15233 26.6826 1.80452 26.01 1.62393 25.6311C1.39356 25.1478 1.2963 24.8501 1.21914 24.4591C1.21443 24.4351 1.21443 24.4351 1.20996 24.4121C1.17775 24.2461 1.16661 24.1936 1.14254 24.1029C0.72825 22.5415 0.516357 20.9238 0.516357 19.2789C0.516357 8.91677 8.91652 0.516602 19.2787 0.516602C22.525 0.516602 25.6533 1.3428 28.4258 2.89372L28.4974 2.93851C30.7673 4.51887 33.1818 6.6904 35.7456 9.45319ZM27.5487 4.37546C25.0405 2.9805 22.2145 2.23791 19.2787 2.23791C9.86718 2.23791 2.23767 9.86742 2.23767 19.2789C2.23767 20.7744 2.43013 22.2437 2.80628 23.6614C2.84348 23.8016 2.8603 23.8808 2.89976 24.0842C2.9039 24.1055 2.9039 24.1055 2.90788 24.1258C2.95768 24.3781 3.01022 24.539 3.17775 24.8904C3.34249 25.2361 3.67356 25.8763 4.06692 26.5823C4.66002 27.6468 5.31179 28.716 6.00238 29.7262C7.8596 32.4429 9.70148 34.2984 11.2904 34.8322C13.4096 35.5441 21.3876 27.0988 33.9957 10.1034C31.7067 7.6873 29.5564 5.77796 27.5487 4.37546Z" fill="black"/>
<path d="M27.5488 4.37583C25.0407 2.98087 22.2146 2.23828 19.2788 2.23828C9.8673 2.23828 2.23779 9.86779 2.23779 19.2793C2.23779 20.7748 2.43025 22.2441 2.8064 23.6618C2.8436 23.802 2.86042 23.8812 2.89988 24.0846C2.90402 24.1059 2.90402 24.1059 2.90801 24.1262C2.95781 24.3785 3.01035 24.5394 3.17787 24.8908C3.34262 25.2364 3.67368 25.8767 4.06704 26.5827C4.66014 27.6472 5.31191 28.7163 6.0025 29.7265C7.85972 32.4432 9.70161 34.2988 11.2906 34.8325C13.4098 35.5444 21.3878 27.0992 33.9958 10.1038C31.7068 7.68766 29.5565 5.77833 27.5488 4.37583Z" fill="#EC1C79"/>
<path d="M22.7213 41.4841C12.3592 41.4841 3.95898 33.0839 3.95898 22.7218C3.95898 12.3596 12.3592 3.95947 22.7213 3.95947C33.0834 3.95947 41.4836 12.3596 41.4836 22.7218C41.4836 33.0839 33.0834 41.4841 22.7213 41.4841ZM22.7213 39.7628C32.1328 39.7628 39.7623 32.1332 39.7623 22.7218C39.7623 13.3103 32.1328 5.68078 22.7213 5.68078C13.3098 5.68078 5.6803 13.3103 5.6803 22.7218C5.6803 32.1332 13.3098 39.7628 22.7213 39.7628Z" fill="black"/>
<path d="M22.7214 39.7621C32.1329 39.7621 39.7624 32.1326 39.7624 22.7212C39.7624 13.3097 32.1329 5.68018 22.7214 5.68018C13.3099 5.68018 5.68042 13.3097 5.68042 22.7212C5.68042 32.1326 13.3099 39.7621 22.7214 39.7621Z" fill="white"/>
<path fill-rule="evenodd" clip-rule="evenodd" d="M9.97411 26.212L7.71851 19.4163H9.69457L10.8706 23.3202L12.1719 19.397H13.7817L15.083 23.3202L16.259 19.4163H18.1965L15.9409 26.212H14.3118L12.9527 22.3273L11.6032 26.212H9.97411ZM18.9387 26.1638V19.4163H24.3657V21.0067H20.7895V22.0285H24.0283V23.5033H20.7895V24.5733H24.4139V26.1638H18.9387ZM27.0165 26.1638V21.0549H24.9922V19.4163H30.9108V21.0549H28.8865V26.1638H27.0165ZM31.7301 26.1638V19.4163H33.6001V21.9418H36.0003V19.4163H37.8704V26.1638H36.0003V23.5997H33.6001V26.1638H31.7301Z" fill="black"/>
<path d="M1.63462 17.3869C1.15846 17.1488 0.965457 16.5698 1.20354 16.0936C1.44162 15.6174 2.02063 15.4244 2.49679 15.6625L5.25089 17.0396C5.72705 17.2777 5.92006 17.8567 5.68198 18.3328C5.44389 18.809 4.86488 19.002 4.38872 18.7639L1.63462 17.3869Z" fill="black"/>
<path d="M1.31732 21.9532C0.83395 21.7301 0.622943 21.1574 0.846025 20.674C1.06911 20.1906 1.6418 19.9796 2.12517 20.2027L4.87927 21.4738C5.36264 21.6968 5.57365 22.2695 5.35057 22.7529C5.12749 23.2363 4.55479 23.4473 4.07142 23.2242L1.31732 21.9532Z" fill="black"/>
</g>
<defs>
<clipPath id="clip0_254_402">
<rect width="42" height="42" fill="white"/>
</clipPath>
</defs>
</svg>
