<svg xmlns="http://www.w3.org/2000/svg" width="150" height="42" viewBox="0 0 150 42" fill="none">
  <path fill-rule="evenodd" clip-rule="evenodd" d="M20.5185 0.000233034C31.9057 0.000233034 41.0906 9.1852 41.0906 20.6261C41.0906 31.9059 31.7983 41.1983 20.3573 41.1446C9.29239 41.0372 0 31.9059 0 20.5724C0 9.1852 9.13126 -0.0534802 20.5185 0.000233034ZM4.88791 31.3151C4.88791 31.5299 4.99533 31.6373 5.10276 31.7985C5.90846 32.9265 6.82158 34.0007 7.89585 34.9139C8.37927 35.3436 8.86269 35.7733 9.39982 36.1493C10.9038 37.1161 12.4615 38.0292 14.1803 38.6201C15.5768 39.1035 17.0271 39.4795 18.4774 39.6406C19.6053 39.748 20.787 39.8018 21.915 39.6406C22.5596 39.5332 23.2578 39.5332 23.9024 39.2646C24.0098 39.3183 24.0635 39.2109 24.1173 39.2109C25.4601 38.9961 26.7492 38.5663 28.0383 38.0292C32.228 36.203 35.397 33.2487 37.4381 29.1665C39.2644 25.5677 39.8552 21.7541 39.2644 17.7793C38.7273 13.9657 37.1159 10.6355 34.5376 7.84237C31.1 3.9213 26.6955 1.8802 21.4853 1.55792C19.1756 1.39678 16.866 1.71906 14.6637 2.47104C11.0649 3.65273 8.1107 5.69384 5.69361 8.64807C2.95423 12.032 1.6114 15.8994 1.45026 20.1964C1.39654 21.2707 1.50397 22.2912 1.66511 23.3655C1.98739 25.7826 2.79309 28.0923 4.02849 30.1871C4.35077 30.5094 4.56563 30.9391 4.88791 31.3151Z" fill="#ade63e"/>
  <path fill-rule="evenodd" clip-rule="evenodd" d="M23.9024 39.2108C23.2579 39.5331 22.5596 39.5331 21.915 39.5868C20.7871 39.7479 19.6054 39.6942 18.4774 39.5868C17.0271 39.4256 15.5769 39.0496 14.1803 38.5662C12.4615 37.9754 10.9038 37.0622 9.39985 36.0954C8.86272 35.7194 8.3793 35.2897 7.89588 34.86C6.82162 33.9469 5.90849 32.8726 5.10279 31.7446C4.99536 31.5835 4.88794 31.4224 4.88794 31.2612C6.17706 28.3607 6.66048 25.299 6.92904 22.1837C7.03647 20.7334 7.09018 19.2832 7.35875 17.8329C7.62731 16.1678 8.27187 14.6638 9.45357 13.3747C10.5278 12.2467 11.8707 11.4947 13.3209 10.9576C14.5026 10.4742 15.738 10.0445 17.0808 9.99076C18.3163 9.93705 19.4979 10.0982 20.6796 10.3668C22.4522 10.7965 24.2247 11.3336 25.8898 12.1393C27.2327 12.6764 28.6292 13.2136 30.0257 13.6433C31.476 14.073 32.9263 14.5564 34.1617 15.4695C35.7193 16.6512 36.1491 18.1552 35.4508 19.9814C35.0211 21.1094 34.2154 21.9688 33.4097 22.8282C31.9594 24.3322 30.4017 25.7287 29.0052 27.2864C27.3938 29.1664 25.9435 31.1001 24.923 33.356C24.0636 35.236 23.5802 37.1697 23.9024 39.2108ZM34.2691 21.5391C34.2154 21.5391 34.1617 21.5391 34.108 21.5928C34.0542 21.5928 34.0005 21.6465 34.0005 21.7003C34.0005 21.7003 34.0005 21.7003 34.0005 21.754C34.0542 21.754 34.108 21.7003 34.108 21.6465L34.2691 21.5391C34.3765 21.5391 34.3228 21.5391 34.2691 21.5391ZM17.8328 12.193C15.7917 12.193 14.1266 13.8581 14.1266 15.8455C14.1266 17.8866 15.7917 19.498 17.7791 19.5517C19.8202 19.5517 21.4316 17.8866 21.4853 15.8455C21.4853 13.8044 19.8739 12.193 17.8328 12.193ZM20.8408 23.4728C21.1631 23.9562 21.7539 24.3859 22.4522 24.6008C23.8487 25.0842 25.2453 25.0842 26.6418 24.8156C29.1126 24.3322 31.4223 23.4728 33.5171 22.0762C33.6245 21.9688 33.8394 21.9688 33.8931 21.754C33.7857 21.7003 33.732 21.754 33.6782 21.8077C32.98 22.2374 32.228 22.5597 31.476 22.8819C29.5423 23.6876 27.5012 24.2248 25.3527 24.3322C23.795 24.4396 22.2373 24.3322 20.8408 23.4728ZM30.9926 20.3037C31.4223 20.3037 31.7983 19.9277 31.7983 19.4443C31.7983 19.0146 31.4223 18.6386 30.9389 18.6923C30.5092 18.6923 30.1869 19.0683 30.1869 19.498C30.1869 19.9814 30.5092 20.3037 30.9926 20.3037Z" fill="#ade63e"/>
  <path d="M24.0636 10.3669C22.9356 9.93721 21.754 10.0446 20.626 10.3669C22.4522 10.7966 24.2248 11.3338 25.8362 12.1932C25.5676 11.28 24.923 10.6892 24.0636 10.3669Z" fill="#DBB710"/>
  <path fill-rule="evenodd" clip-rule="evenodd" d="M20.6261 10.3668C19.4444 10.152 18.2627 9.93712 17.0273 9.99083C15.6845 10.0445 14.5028 10.4743 13.2674 10.9577C11.8172 11.4948 10.4743 12.2468 9.40006 13.3748C8.21837 14.6102 7.57381 16.1141 7.30524 17.833C7.09039 19.2832 7.03668 20.7335 6.87554 22.1837C6.60697 25.2991 6.12355 28.4145 4.83443 31.2613C4.45844 30.939 4.24358 30.4556 4.02873 30.0796C2.79333 27.9848 1.98763 25.6751 1.66535 23.258C1.50421 22.1837 1.39678 21.1632 1.4505 20.0889C1.61164 15.7919 2.95447 11.9245 5.69384 8.54057C8.05723 5.58634 11.0652 3.54524 14.664 2.36355C16.8662 1.66528 19.1759 1.343 21.4855 1.45042C26.642 1.7727 31.0465 3.86752 34.5379 7.68116C37.1161 10.528 38.6738 13.8582 39.2646 17.6181C39.8555 21.5929 39.2646 25.4065 37.4384 29.0053C35.3973 33.0875 32.2282 36.0418 28.0386 37.868C26.8032 38.4052 25.514 38.8349 24.1175 39.0497C24.0101 39.0497 23.9564 39.2108 23.9026 39.1034C23.5804 37.0623 24.0638 35.1286 24.8695 33.2487C25.89 30.9927 27.3403 29.059 28.9517 27.1791C30.2945 25.6214 31.8522 24.1711 33.3562 22.7209C34.2156 21.8615 34.9676 21.002 35.3973 19.8741C36.1493 18.0478 35.7196 16.5438 34.1082 15.3622C32.8727 14.449 31.4225 13.9656 29.9722 13.5359C28.5757 13.1062 27.1791 12.5691 25.8363 12.0319C25.5677 11.1188 24.9232 10.528 24.0638 10.2057C22.9358 9.93712 21.8078 10.0445 20.6261 10.3668ZM38.1904 21.8077H38.2978C38.5126 21.0558 38.5126 20.2501 38.5126 19.4444C38.5126 18.5312 38.4052 17.6181 38.2441 16.705C37.6532 13.7508 36.3104 11.1725 34.2156 8.97028C32.9265 7.62745 31.4762 6.49947 30.0259 5.31778C28.7368 4.24351 27.3403 3.43781 25.7289 3.00811C24.1712 2.63211 22.6672 2.41726 21.0558 2.68583C20.9484 2.68583 20.841 2.68583 20.841 2.79326C20.841 2.90068 20.9484 2.90068 21.0558 2.90068C23.4192 3.33039 25.6752 4.08237 27.8774 4.94179C30.0259 5.8012 31.8522 7.0366 33.195 8.97028C34.1082 10.3131 34.9676 11.7097 35.6658 13.2136C36.579 15.2547 37.2772 17.3495 37.7069 19.4981C37.9218 20.3575 38.0829 21.0558 38.1904 21.8077Z" fill="#151515"/>
  <path fill-rule="evenodd" clip-rule="evenodd" d="M17.8329 12.1929C19.874 12.1929 21.4854 13.858 21.4854 15.8454C21.4854 17.8865 19.8203 19.4979 17.7792 19.5516C15.7381 19.5516 14.1267 17.8865 14.1267 15.8454C14.1267 13.8043 15.7918 12.1929 17.8329 12.1929ZM20.4112 15.8991C20.4112 14.4488 19.2832 13.3208 17.8329 13.3208C16.3827 13.3208 15.2547 14.4488 15.2547 15.8991C15.2547 17.2956 16.3827 18.4773 17.7792 18.4773H17.8329C19.2295 18.4773 20.3574 17.3493 20.4112 15.8991Z" fill="#FCFDFB"/>
  <path fill-rule="evenodd" clip-rule="evenodd" d="M20.8408 23.473C22.2374 24.3324 23.7951 24.4398 25.3527 24.3861C27.5013 24.2787 29.5424 23.7953 31.476 22.9359C32.228 22.6136 32.98 22.2913 33.6783 21.8616C33.732 21.8079 33.7857 21.7542 33.8931 21.8079C33.8394 21.969 33.6783 22.0227 33.5171 22.1302C31.4223 23.5267 29.1127 24.3861 26.6419 24.8696C25.2453 25.1381 23.795 25.1381 22.4522 24.6547C21.7539 24.3861 21.1094 23.9564 20.8408 23.473Z" fill="#151515"/>
  <path fill-rule="evenodd" clip-rule="evenodd" d="M30.9927 20.3038C30.563 20.3038 30.187 19.9278 30.187 19.4981C30.187 19.0684 30.5093 18.6924 30.939 18.6924C31.3687 18.6924 31.7447 19.0147 31.7984 19.4444C31.7447 19.9278 31.4224 20.3038 30.9927 20.3038Z" fill="#151515"/>
  <path fill-rule="evenodd" clip-rule="evenodd" d="M34.1079 21.647C34.1079 21.7007 34.0542 21.7544 34.0005 21.7544C34.0005 21.647 34.0542 21.5933 34.1079 21.647ZM34.2691 21.5396L34.1079 21.647L34.0542 21.5933C34.1616 21.5396 34.2153 21.5396 34.2691 21.5396Z" fill="#A9ACBF"/>
  <path fill-rule="evenodd" clip-rule="evenodd" d="M38.1902 21.8079C38.0291 21.0559 37.8679 20.3576 37.7605 19.6057C37.3308 17.4034 36.5788 15.3086 35.7194 13.3212C35.0748 11.8172 34.2154 10.4207 33.2486 9.07786C31.9058 7.14418 30.1332 5.90878 27.931 5.04936C25.675 4.18995 23.4728 3.38425 21.1094 3.00826C21.002 3.00826 20.8945 3.00826 20.8945 2.90083C20.8945 2.79341 21.002 2.79341 21.1094 2.79341C22.6671 2.52484 24.2248 2.68598 25.7824 3.11569C27.3938 3.54539 28.7904 4.4048 30.0795 5.42536C31.5298 6.60705 32.98 7.73503 34.2691 9.07786C36.364 11.2801 37.7068 13.8583 38.2976 16.8126C38.4588 17.7257 38.5662 18.6388 38.5662 19.5519C38.5662 20.3039 38.5662 21.1096 38.3513 21.9153L38.1902 21.8079Z" fill="#ade63e"/>
  <path fill-rule="evenodd" clip-rule="evenodd" d="M20.4111 15.899C20.4111 17.2956 19.2831 18.4773 17.8866 18.4773H17.8329C16.4363 18.4773 15.2546 17.3493 15.2546 15.899V15.8453C15.2546 14.3951 16.4363 13.2671 17.8329 13.2671C19.2294 13.2671 20.4111 14.4488 20.4111 15.899Z" fill="#151515"/>
  <path fill-rule="evenodd" clip-rule="evenodd" d="M101.894 26.266C101.84 26.3197 101.787 26.3197 101.733 26.3735C100.068 28.2534 97.9731 28.5757 95.7172 27.9849C92.9241 27.2866 91.4201 25.2992 90.8292 22.5598C90.4532 20.7873 90.5607 19.0147 91.2589 17.3496C92.4944 14.3954 95.2874 12.784 98.4565 13.2137C99.9068 13.4286 101.25 13.912 102.27 14.9862C103.022 15.7919 103.452 16.7588 103.613 17.833C103.667 18.0479 103.559 18.1016 103.398 18.1016C102.754 18.1016 102.055 18.1016 101.411 18.1016C101.25 18.1016 101.196 18.0479 101.142 17.8868C100.82 16.4365 99.8531 15.6308 98.4565 15.3622C96.8451 15.04 95.4486 15.3622 94.3743 16.6514C93.4075 17.833 93.1389 19.2833 93.1389 20.7873C93.1389 21.9153 93.3538 22.9895 93.8372 23.9564C94.9652 26.1049 97.7583 26.8569 99.8531 25.6215C101.035 24.9232 101.411 23.7952 101.518 22.5061C101.518 22.2375 101.357 22.2912 101.196 22.2912C100.122 22.2912 99.1011 22.2912 98.0268 22.2912C97.7045 22.2912 97.6508 22.1838 97.6508 21.9153C97.6508 21.4855 97.6508 21.1096 97.6508 20.6798C97.6508 20.4113 97.7583 20.3576 97.9731 20.3576C99.7994 20.3576 101.679 20.3576 103.506 20.3576C103.72 20.3576 103.828 20.4113 103.828 20.6261C103.828 22.9895 103.828 25.2992 103.828 27.6626C103.828 27.8774 103.774 27.9311 103.559 27.9311C103.13 27.9311 102.592 28.0386 102.27 27.8774C101.948 27.6626 102.055 27.1254 101.948 26.6957C101.948 26.5346 101.894 26.3735 101.894 26.266ZM59.3533 18.1016C59.031 18.1016 58.7087 18.1016 58.3327 18.1016C58.1179 18.1016 58.0642 18.0479 58.0104 17.833C57.5807 16.3291 56.6139 15.416 55.0562 15.2548C53.3374 15.0937 51.8871 15.6308 51.0277 17.1885C49.7386 19.5519 49.7923 21.969 51.0814 24.2786C51.9408 25.8363 53.8208 26.5346 55.5396 26.0512C57.0436 25.6215 57.7419 24.4935 58.0642 23.0432C58.1716 22.4524 58.1716 22.4524 58.7624 22.4524C59.2996 22.4524 59.8367 22.4524 60.3738 22.4524C60.5887 22.4524 60.6424 22.5061 60.5887 22.721C60.3201 25.5678 58.4939 27.77 55.7008 28.1997C51.6723 28.8443 48.3421 26.3735 47.6975 22.345C47.4289 20.5724 47.5901 18.8536 48.2883 17.1885C49.5237 14.3954 52.2631 12.8914 55.3248 13.2674C56.775 13.4823 58.1179 13.9657 59.1921 15.04C59.9441 15.8457 60.3738 16.8125 60.535 17.8868C60.5887 18.1016 60.535 18.1553 60.3201 18.1553C60.0515 18.0479 59.6756 18.1016 59.3533 18.1016ZM138.419 27.8774C137.506 27.8774 136.7 27.8774 135.841 27.8774C135.626 27.8774 135.519 27.77 135.465 27.6089C134.552 26.1049 133.585 24.6546 132.672 23.1507C132.511 22.8821 132.457 22.8821 132.188 23.0969C131.275 23.7415 130.899 24.6009 131.06 25.7289C131.168 26.3197 131.06 26.9643 131.06 27.6089C131.06 27.8774 130.953 27.9311 130.738 27.9311C130.201 27.9311 129.664 27.9311 129.127 27.9311C128.858 27.9311 128.805 27.8237 128.805 27.5551C128.805 25.3529 128.805 23.1507 128.805 20.8947C128.805 18.585 128.805 16.2754 128.805 13.912C128.805 13.536 128.912 13.4286 129.288 13.4823C129.771 13.536 130.255 13.536 130.738 13.4823C131.06 13.4823 131.114 13.5897 131.114 13.8583C131.114 16.2754 131.114 18.6925 131.114 21.1096V21.5393L131.222 21.593C131.383 21.3781 131.598 21.1633 131.759 20.9484C132.833 19.8204 133.907 18.7462 135.035 17.6182C135.143 17.5108 135.25 17.4033 135.411 17.4033C136.271 17.4033 137.13 17.4033 137.989 17.4033C137.989 17.5645 137.828 17.6182 137.775 17.7256C136.647 18.7999 135.572 19.8741 134.391 20.9484C134.122 21.1633 134.122 21.3244 134.337 21.6467C135.626 23.5804 136.915 25.514 138.204 27.4477C138.204 27.6089 138.312 27.7163 138.419 27.8774ZM111.885 23.2581C110.703 23.2581 109.575 23.2581 108.393 23.2581C108.125 23.2581 108.071 23.3118 108.071 23.5804C108.179 25.6752 110.112 26.9643 112.046 26.1586C112.583 25.9438 113.013 25.514 113.228 24.9232C113.335 24.6546 113.496 24.6009 113.711 24.6009C114.195 24.6009 114.732 24.6009 115.215 24.6009C115.484 24.6009 115.537 24.6546 115.43 24.9232C114.839 26.8032 113.55 27.8237 111.616 28.0923C109.897 28.3608 108.286 27.9849 107.051 26.6957C106.191 25.7826 105.815 24.6009 105.708 23.3655C105.6 21.8615 105.815 20.4113 106.782 19.1222C108.017 17.5108 109.683 16.9199 111.616 17.2422C113.657 17.6182 114.893 18.9073 115.484 20.841C115.698 21.5393 115.752 22.2375 115.698 22.9895C115.698 23.2581 115.591 23.3118 115.376 23.3118C114.248 23.2581 113.067 23.2581 111.885 23.2581ZM110.757 21.7541C111.563 21.7541 112.368 21.7541 113.12 21.7541C113.389 21.7541 113.443 21.7004 113.389 21.4318C113.174 20.0353 112.153 19.0147 110.811 18.961C109.414 18.9073 108.286 19.8742 108.071 21.3244C108.017 21.593 108.071 21.7004 108.393 21.7004C109.199 21.7541 109.951 21.7541 110.757 21.7541ZM62.1464 22.6672C62.1464 22.0227 62.2538 21.3244 62.4149 20.6798C63.1132 18.4239 65.1006 17.0273 67.5714 17.1885C69.4514 17.2959 71.0091 17.9405 71.9222 19.6056C72.9964 21.6467 72.9964 23.7952 71.8685 25.7826C70.8479 27.6626 69.0754 28.2534 67.0343 28.146C63.9726 27.9849 62.1464 25.89 62.1464 22.6672ZM64.456 22.6672C64.456 23.5804 64.6172 24.3861 65.1543 25.1381C66.0137 26.3735 67.6788 26.7494 68.9142 25.89C69.1828 25.6752 69.4514 25.4603 69.6662 25.1918C70.5793 23.8489 70.6331 21.593 69.6662 20.1964C68.5382 18.585 66.1749 18.585 65.1006 20.2501C64.6172 20.9484 64.456 21.8078 64.456 22.6672ZM139.01 22.721C139.01 21.217 139.332 19.8742 140.353 18.7462C141.373 17.5645 142.77 17.1348 144.274 17.1348C145.778 17.1348 147.174 17.5645 148.249 18.7462C149.377 20.0353 149.645 21.593 149.538 23.2581C149.484 23.8489 149.377 24.4398 149.162 24.9769C148.356 27.0717 146.422 28.2534 143.952 28.0923C141.051 27.9311 139.225 26.0512 139.064 23.1507C139.064 23.0432 139.01 22.8284 139.01 22.721ZM147.228 22.8284C147.228 21.7541 146.96 20.841 146.584 20.1964C145.778 18.9073 144.059 18.585 142.824 19.3907C142.501 19.6056 142.233 19.8741 142.018 20.1964C141.105 21.5393 141.159 23.7952 142.018 25.0843C142.877 26.3197 144.542 26.6957 145.778 25.8363C146.1 25.6215 146.315 25.4066 146.53 25.0843C147.067 24.3861 147.228 23.5267 147.228 22.8284ZM81.5906 18.9073C82.2351 18.1016 82.9871 17.5108 84.0077 17.2422C84.9208 17.0273 85.8339 17.0811 86.6933 17.4571C87.9824 17.9942 88.5196 19.1222 88.5733 20.465C88.627 22.8284 88.5733 25.1918 88.5733 27.5551C88.5733 27.8237 88.5196 27.8774 88.251 27.8774C87.7139 27.8774 87.1767 27.8774 86.6396 27.8774C86.371 27.8774 86.2636 27.8237 86.2636 27.5014C86.2636 25.514 86.2636 23.4729 86.2636 21.4855C86.2636 21.0558 86.2099 20.6261 86.1025 20.2501C85.7802 19.1759 84.7596 18.7462 83.5242 19.0685C82.45 19.3907 81.7517 20.3576 81.7517 21.593C81.7517 23.5267 81.7517 25.514 81.7517 27.4477C81.7517 27.77 81.698 27.9311 81.322 27.8774C80.8386 27.8237 80.3014 27.8237 79.818 27.8774C79.5495 27.8774 79.442 27.8237 79.442 27.5014C79.442 25.9975 79.442 24.5472 79.442 23.0432C79.442 21.3244 79.442 19.6056 79.442 17.8868C79.442 17.5108 79.5495 17.4033 79.9254 17.4571C80.4089 17.5108 80.8386 17.4571 81.322 17.4571C81.5906 17.4571 81.698 17.5108 81.6443 17.7793C81.5906 18.1553 81.5906 18.5313 81.5906 18.9073ZM125.635 20.9484C125.582 20.9484 125.528 20.9484 125.474 20.9484C124.883 21.0021 124.507 20.9484 124.239 20.2501C123.594 18.6387 121.016 18.585 119.942 20.089C119.566 20.5724 119.405 21.1633 119.297 21.8078C119.19 22.8284 119.19 23.8489 119.62 24.8158C120.157 25.9975 121.124 26.5346 122.359 26.3735C123.379 26.2123 124.078 25.5678 124.346 24.4398C124.4 24.1175 124.561 24.0101 124.883 24.0638C125.421 24.0638 125.904 24.0638 126.441 24.0638C126.71 24.0638 126.763 24.1712 126.71 24.3861C126.173 26.9643 124.346 28.4146 121.661 28.2534C118.975 28.0923 117.202 26.3197 116.988 23.5804C116.88 22.3987 116.988 21.217 117.471 20.089C118.277 18.209 120.103 17.1348 122.252 17.2422C123.541 17.2959 124.722 17.6182 125.689 18.5313C126.28 19.1222 126.602 19.8741 126.763 20.6798C126.817 20.9484 126.71 21.0558 126.441 21.0021C126.226 20.9484 125.958 20.9484 125.635 20.9484ZM76.9175 22.721C76.9175 24.2786 76.9175 25.8363 76.9175 27.394C76.9175 27.8237 76.8101 27.9311 76.4341 27.8774C75.9507 27.8237 75.521 27.8237 75.0375 27.8774C74.7153 27.8774 74.6078 27.8237 74.6078 27.4477C74.6078 24.6546 74.6078 21.8615 74.6078 19.0685C74.6078 18.6387 74.6078 18.209 74.6078 17.7793C74.6078 17.5108 74.6616 17.4571 74.9301 17.4571C75.4673 17.4571 76.0044 17.4571 76.5415 17.4571C76.8638 17.4571 76.9712 17.5108 76.9712 17.8868C76.9175 19.4982 76.9175 21.1096 76.9175 22.721ZM75.8432 13.4823C76.1655 13.536 76.6489 13.3211 76.8638 13.536C77.0786 13.7508 76.9175 14.2343 76.9175 14.6103C76.9175 14.9325 77.0786 15.3622 76.8638 15.5771C76.6489 15.7919 76.2192 15.6308 75.897 15.6308C75.4672 15.6308 74.9301 15.7919 74.6616 15.5771C74.4467 15.3085 74.6078 14.7714 74.6078 14.3954C74.6078 13.4823 74.6078 13.4823 75.521 13.4823H75.8432Z" fill="#ade63e"/>
</svg>
