<svg xmlns="http://www.w3.org/2000/svg" width="200px" height="38px" viewBox="0 0 142 36" fill="none">
  <g clip-path="url(#clip0_254_355)">
    <mask id="mask0_254_355" style="mask-type:luminance" maskUnits="userSpaceOnUse" x="0" y="0" width="142" height="36">
      <path d="M141.623 0H0.106689V35.8539H141.623V0Z" fill="white"/>
    </mask>
    <g mask="url(#mask0_254_355)">
      <path d="M15.6314 0L0.106689 8.96348V26.8905L15.6314 35.8539L31.1563 26.8905V8.96348L15.6314 0ZM24.5791 23.0914L15.6343 28.2558L6.68947 23.0914V12.7626L15.6343 7.59817L24.5791 12.7626V23.0914Z" fill="#ade63e"/>
      <path d="M48.1895 26.9091C46.6478 26.9091 45.2668 26.5563 44.0506 25.8464C42.8329 25.1379 41.872 24.1153 41.168 22.7758C40.4639 21.4363 40.1125 19.8243 40.1125 17.9384C40.1125 16.0525 40.4682 14.4147 41.1752 13.0709C41.8837 11.7285 42.8473 10.7045 44.0692 10.0004C45.2899 9.29619 46.6637 8.94482 48.1911 8.94482C49.1836 8.94482 50.11 9.08681 50.9619 9.3679C51.8153 9.649 52.5738 10.0577 53.2393 10.5941C53.9046 11.1305 54.4454 11.7859 54.8655 12.5603C55.2843 13.3348 55.5555 14.2154 55.6817 15.2035H52.2182C52.1393 14.703 51.9874 14.2555 51.7606 13.8582C51.5327 13.4639 51.2459 13.1268 50.8987 12.8486C50.5503 12.5704 50.1543 12.3596 49.7142 12.2147C49.271 12.0699 48.7892 11.9981 48.2641 11.9981C47.3407 11.9981 46.5275 12.229 45.8218 12.6908C45.1178 13.1526 44.5669 13.8253 44.1725 14.7101C43.7768 15.5936 43.5787 16.6721 43.5787 17.9384C43.5787 19.2048 43.7781 20.3048 44.1768 21.1854C44.577 22.0659 45.1249 22.7299 45.8261 23.1803C46.5275 23.6306 47.3362 23.8558 48.2498 23.8558C48.7589 23.8558 49.2322 23.7869 49.6696 23.6492C50.107 23.513 50.5014 23.3122 50.8499 23.0498C51.197 22.7887 51.4897 22.4675 51.7247 22.0874C51.96 21.7074 52.1249 21.2714 52.2182 20.7795H55.6817C55.5799 21.5998 55.3361 22.38 54.9489 23.1157C54.5617 23.85 54.0454 24.5026 53.3984 25.0691C52.753 25.637 51.9929 26.083 51.121 26.4143C50.2475 26.7428 49.271 26.9077 48.1924 26.9077V26.912L48.1895 26.9091Z" fill="#ade63e"/>
      <path d="M60.8934 19.0356V26.6668H57.5359V9.17285H60.8002V15.8288H60.9651C61.2689 15.0701 61.7481 14.4706 62.3977 14.0318C63.046 13.5944 63.8735 13.3735 64.8745 13.3735C65.7823 13.3735 66.5783 13.5685 67.2566 13.9601C67.9378 14.3516 68.4671 14.9152 68.8413 15.6509C69.2171 16.3852 69.4035 17.2758 69.4035 18.317V26.6639H66.0333V18.8807C66.0333 18.0345 65.8181 17.3762 65.3879 16.9015C64.9576 16.4283 64.3497 16.1916 63.5681 16.1916C63.0431 16.1916 62.5812 16.3049 62.1826 16.5329C61.7826 16.761 61.4684 17.0837 61.2376 17.501C61.0065 17.9212 60.8918 18.4289 60.8918 19.0341V19.037L60.8934 19.0356Z" fill="#ade63e"/>
      <path d="M75.3714 26.9264C74.5337 26.9264 73.785 26.7771 73.124 26.4803C72.463 26.182 71.9421 25.7417 71.5621 25.1594C71.182 24.5772 70.9927 23.8544 70.9927 22.9939C70.9927 22.2596 71.1276 21.6472 71.3988 21.161C71.6696 20.6748 72.0369 20.2833 72.5031 19.9821C72.9692 19.681 73.4953 19.453 74.0878 19.3009C74.6785 19.1489 75.2997 19.0413 75.948 18.9782C76.7152 18.8993 77.3332 18.8277 77.8036 18.7617C78.2739 18.6957 78.6152 18.5896 78.8303 18.4447C79.0455 18.2999 79.153 18.0862 79.153 17.8051V17.7463C79.153 17.1583 78.9724 16.7022 78.6139 16.3781C78.254 16.054 77.7404 15.8905 77.0751 15.8905C76.3708 15.8905 75.8114 16.0439 75.3955 16.3552C74.9812 16.6635 74.7045 17.0378 74.5624 17.4752L71.4389 17.1339C71.6338 16.3365 71.9897 15.6567 72.5015 15.0974C73.0135 14.5381 73.6575 14.1107 74.432 13.8167C75.2064 13.5227 76.0869 13.375 77.0735 13.375C77.7547 13.375 78.419 13.4553 79.0643 13.6159C79.7097 13.7751 80.2919 14.0304 80.814 14.3803C81.3332 14.7288 81.7504 15.1892 82.0572 15.76C82.3655 16.3322 82.522 17.0278 82.522 17.851V26.6669H79.3065V24.8468H79.2133C79.0083 25.2369 78.7371 25.5912 78.3916 25.9052C78.0474 26.2193 77.6243 26.466 77.124 26.6509C76.6233 26.8361 76.0396 26.9277 75.3743 26.9277H75.3698L75.3714 26.9264ZM76.2847 24.5313C76.8642 24.5313 77.3691 24.4165 77.7993 24.1856C78.2296 23.9548 78.5666 23.6464 78.8091 23.2592C79.0513 22.872 79.1732 22.4431 79.1732 21.9742V20.5056C79.0643 20.5845 78.9023 20.6548 78.6928 20.7179C78.4806 20.781 78.2426 20.8383 77.9757 20.8885C77.7104 20.9387 77.4464 20.9832 77.1882 21.0233C76.9301 21.0621 76.6993 21.0936 76.4956 21.1166C76.0497 21.1797 75.6566 21.2815 75.3153 21.4206C74.9741 21.5626 74.7058 21.7533 74.5109 21.9957C74.3157 22.2381 74.2169 22.5435 74.2169 22.9121C74.2169 23.4442 74.4105 23.8472 74.7977 24.1225C75.1849 24.3965 75.6797 24.5327 76.2821 24.5327H76.2834L76.2847 24.5313Z" fill="#ade63e"/>
      <path d="M84.7278 26.6679V13.5425H88.0853V26.6679H84.7278Z" fill="#ade63e"/>
      <path d="M93.651 19.0356V26.6669H90.2937V13.5399H93.5923V15.8288H93.7341C94.031 15.0773 94.503 14.4807 95.1483 14.0376C95.7937 13.5944 96.6053 13.375 97.5848 13.375C98.4926 13.375 99.2859 13.57 99.9612 13.9615C100.638 14.3516 101.163 14.9181 101.536 15.6567C101.907 16.3967 102.094 17.2831 102.094 18.3156V26.6624H98.7364V18.8793C98.7364 18.0417 98.5199 17.3834 98.0854 16.9073C97.6523 16.4312 97.0542 16.1902 96.2941 16.1902C95.7778 16.1902 95.3204 16.3035 94.926 16.5316C94.53 16.7596 94.2204 17.0823 93.9922 17.4996C93.7644 17.9198 93.6523 18.4275 93.6523 19.0327V19.0356H93.651Z" fill="#ade63e"/>
      <path d="M107.657 8.31201V26.6678H104.3V8.31201H107.657Z" fill="#ade63e"/>
      <path d="M109.864 26.6679V13.5425H113.221V26.6679H109.864Z" fill="#ade63e"/>
      <path d="M118.786 19.0356V26.6669H115.429V13.5399H118.727V15.8288H118.869C119.166 15.0773 119.638 14.4807 120.283 14.0376C120.929 13.5944 121.74 13.375 122.72 13.375C123.628 13.375 124.421 13.57 125.098 13.9615C125.775 14.3516 126.3 14.9181 126.671 15.6567C127.042 16.3967 127.229 17.2831 127.229 18.3156V26.6624H123.872V18.8793C123.872 18.0417 123.655 17.3834 123.22 16.9073C122.787 16.4312 122.189 16.1902 121.429 16.1902C120.913 16.1902 120.455 16.3035 120.061 16.5316C119.665 16.7596 119.355 17.0823 119.128 17.4996C118.899 17.9198 118.786 18.4275 118.786 19.0327V19.0356Z" fill="#ade63e"/>
      <path d="M137.643 26.6682H141.624L136.382 19.2263L141.353 13.5413H137.456L133.004 18.6727H132.795V9.17285H129.436V26.6682H132.795V22.3829L133.848 21.2155L137.643 26.6668V26.6682Z" fill="#ade63e"/>
      <path d="M88.1139 8.31201H84.7563V11.6694H88.1139V8.31201Z" fill="#ade63e"/>
      <path d="M113.25 8.31201H109.893V11.6694H113.25V8.31201Z" fill="#ade63e"/>
    </g>
  </g>
  <defs>
    <clipPath id="clip0_254_355">
      <rect width="141.822" height="35.8539" fill="white"/>
    </clipPath>
  </defs>
</svg> 
