<svg xmlns="http://www.w3.org/2000/svg" width="130" height="43" viewBox="0 0 130 43" fill="none">
  <path d="M64.4283 30.2855H60.2099L56.7155 18.3311H56.6406L53.1461 30.2855H48.9028L43.8857 12.6118H48.4785L51.2741 24.3682H51.3489L54.494 12.6118H58.9369L62.1069 24.3682H62.1818L65.0273 12.6118H69.4703L64.4283 30.2855Z" fill="#ade63e"/>
  <path d="M86.2186 25.142C86.2186 26.1094 86.0273 26.9209 85.6446 27.5765C85.2739 28.2209 84.7512 28.7648 84.122 29.1607C83.4577 29.574 82.7252 29.8659 81.9587 30.0226C81.1439 30.1982 80.3128 30.2863 79.4793 30.2855H72.4404V12.6118H79.4793C80.1835 12.6143 80.8857 12.6856 81.576 12.8248C82.2611 12.9549 82.9193 13.1996 83.5229 13.5487C84.1026 13.8877 84.591 14.3629 84.9457 14.9331C85.3118 15.5172 85.4948 16.2644 85.4948 17.1546C85.4948 18.1375 85.2285 18.949 84.6961 19.5891C84.145 20.2428 83.417 20.7235 82.5994 20.9736V21.0235C83.0905 21.1053 83.5663 21.2613 84.0105 21.4861C84.6876 21.8243 85.2547 22.348 85.6457 22.9962C86.0366 23.6443 86.2353 24.3903 86.2186 25.147V25.142ZM81.3713 17.7287C81.3713 17.1297 81.1428 16.6931 80.6857 16.4191C80.2287 16.1451 79.5503 16.0076 78.6506 16.0064H76.5539V19.6507H78.8503C79.649 19.6507 80.2692 19.4887 80.7107 19.1648C81.1522 18.8409 81.3724 18.3622 81.3713 17.7287ZM81.9454 24.7426C81.9454 24.0127 81.6681 23.5051 81.1134 23.22C80.5643 22.9388 79.8321 22.7957 78.9169 22.7957H76.5589V26.8393H78.9551C79.3025 26.8384 79.6491 26.8094 79.9918 26.7528C80.3304 26.6998 80.6588 26.5948 80.9653 26.4416C81.2526 26.2933 81.4972 26.0739 81.6758 25.8043C81.871 25.4856 81.9666 25.116 81.9504 24.7426H81.9454Z" fill="#ade63e"/>
  <path d="M97.7506 16.2561V30.2855H93.4823V16.2561H88.4902V12.6118H102.743V16.2561H97.7506Z" fill="#ade63e"/>
  <path d="M117.744 29.9726C116.493 30.5174 115.139 30.7853 113.775 30.758C112.483 30.7712 111.201 30.5426 109.993 30.0841C108.869 29.6608 107.844 29.0101 106.983 28.1726C106.122 27.335 105.443 26.3288 104.989 25.2168C104.495 24.0135 104.249 22.7232 104.265 21.4228C104.246 20.1053 104.496 18.7978 105.001 17.5805C105.464 16.4689 106.158 15.468 107.036 14.6435C107.917 13.8271 108.952 13.1947 110.081 12.7831C111.289 12.3438 112.565 12.124 113.85 12.1341C115.107 12.1371 116.353 12.3624 117.531 12.7997C118.656 13.1864 119.665 13.8516 120.465 14.7333L117.569 17.6288C117.17 17.0816 116.625 16.6577 115.997 16.4057C115.363 16.1434 114.685 16.0078 114 16.0063C113.292 15.9983 112.59 16.1389 111.94 16.419C111.331 16.6833 110.784 17.0695 110.331 17.5539C109.873 18.0506 109.517 18.6316 109.282 19.2645C109.026 19.9567 108.899 20.6899 108.908 21.4278C108.899 22.1765 109.026 22.9207 109.282 23.6243C109.514 24.2561 109.869 24.8358 110.326 25.3299C110.771 25.8072 111.311 26.1859 111.911 26.4415C112.551 26.7119 113.239 26.8473 113.933 26.8392C114.703 26.858 115.467 26.6866 116.155 26.34C116.758 26.0339 117.28 25.589 117.677 25.042L120.643 27.8376C119.842 28.7501 118.853 29.4784 117.744 29.9726Z" fill="#ade63e"/>
  <path d="M24.26 18.9036C24.26 20.8239 21.2647 20.5909 20.3146 20.5909V17.2079C21.2664 17.2079 24.26 16.9067 24.26 18.9036ZM25.0421 24.1553C25.0421 26.2536 21.4544 26.014 20.3112 26.014V22.2982C21.4544 22.2982 25.0421 21.9654 25.0421 24.1636M27.405 18.1548C27.2137 16.1413 25.4897 15.4757 23.3082 15.266V12.5054H21.6325V15.2111C21.1882 15.2111 20.7356 15.2111 20.2846 15.2277V12.5054H18.6006V15.2826H15.1843V17.0898C15.1843 17.0898 16.429 17.0682 16.4107 17.0898C16.6354 17.0651 16.8608 17.1287 17.0394 17.2672C17.218 17.4057 17.3356 17.6082 17.3676 17.832V25.4383C17.3629 25.5165 17.3428 25.5931 17.3085 25.6636C17.2742 25.7341 17.2262 25.7972 17.1675 25.8491C17.1088 25.9011 17.0403 25.9409 16.9661 25.9663C16.892 25.9918 16.8135 26.0023 16.7352 25.9974C16.7569 26.0173 15.5088 25.9974 15.5088 25.9974L15.176 28.0159H18.579V30.8447H20.2646V28.0575H21.6109V30.8264H23.2965V28.0358C26.1437 27.8694 28.1222 27.1589 28.3785 24.4881C28.5798 22.3365 27.5714 21.378 25.959 20.9936C26.9391 20.4944 27.5548 19.6141 27.4084 18.1498" fill="#ade63e"/>
  <path d="M12.159 11.1574C13.8676 9.61173 15.9419 8.52687 18.186 8.00514C20.4301 7.48341 22.7702 7.54201 24.9854 8.17541L25.1784 8.23033C25.2749 8.25862 25.3698 8.28857 25.4646 8.32019C25.6011 8.36345 25.7375 8.41004 25.8707 8.4583L26.0038 8.50656C26.1852 8.57312 26.3665 8.64467 26.5446 8.71955L26.5662 8.72954C27.9856 9.33978 29.3046 10.1611 30.4784 11.1657L31.2205 10.3636C31.1207 10.2638 31.0175 10.1723 30.916 10.0774C28.3465 7.85149 25.0856 6.58381 21.6873 6.48975C21.5059 6.48975 21.3245 6.48975 21.1431 6.48975H21.1049C20.0026 6.50501 18.9053 6.63891 17.8317 6.88911L17.6121 6.94236L17.429 6.99062C16.3593 7.27744 15.3254 7.68439 14.3472 8.2037C13.2761 8.77877 12.3009 9.517 11.4568 10.3919L12.159 11.1574Z" fill="#ade63e"/>
  <path d="M11.219 12.0913L10.4036 11.3774C4.87234 17.1749 5.67774 26.6084 10.4036 31.1046L11.2356 30.4539C8.93531 27.9505 7.65755 24.6754 7.65478 21.2755C7.65201 17.8757 8.92442 14.5985 11.2206 12.0913H11.219Z" fill="#ade63e"/>
  <path d="M32.557 11.738C32.4289 11.6049 32.2991 11.4734 32.1643 11.3486L31.4504 12.1307C35.6438 16.8949 36.5291 24.4579 31.5819 30.2804L32.2775 31.1207C34.6542 28.4674 35.9921 25.0446 36.0447 21.4829C36.0973 17.9211 34.861 14.4603 32.5637 11.738H32.557Z" fill="#ade63e"/>
  <path d="M30.5319 31.394C30.0493 31.7551 29.57 32.0863 29.0891 32.3925C27.344 33.6259 25.3317 34.4287 23.2168 34.7354C22.1347 34.908 21.0342 34.9337 19.9453 34.812C17.2024 34.546 14.6059 33.45 12.502 31.6703C12.3922 31.5904 12.284 31.5122 12.1692 31.429L11.4021 32.1162C14.0862 34.767 17.7654 36.0417 21.3863 36.04C21.4662 36.04 21.5527 36.04 21.6259 36.04H21.6642C25.0324 35.9522 28.2684 34.711 30.8314 32.5239C30.9479 32.4141 31.066 32.3059 31.1775 32.1911L30.5319 31.394Z" fill="#ade63e"/>
  <path d="M21.2997 5.11697C24.5023 5.11566 27.6332 6.0642 30.2966 7.84261C32.9599 9.62102 35.036 12.1494 36.2622 15.1079C37.4883 18.0664 37.8095 21.3221 37.185 24.4631C36.5606 27.6042 35.0186 30.4895 32.754 32.754C30.4895 35.0185 27.6042 36.5606 24.4631 37.185C21.3221 37.8095 18.0664 37.4883 15.1079 36.2622C12.1494 35.036 9.62102 32.9599 7.84261 30.2966C6.0642 27.6332 5.11566 24.5023 5.11698 21.2997C5.12358 17.0098 6.83066 12.8975 9.86409 9.86408C12.8975 6.83066 17.0098 5.12358 21.2997 5.11697ZM21.2997 3.95215C17.8674 3.95347 14.5125 4.97256 11.6594 6.88056C8.8062 8.78856 6.58291 11.4998 5.27062 14.6714C3.95834 17.8429 3.616 21.3324 4.28691 24.6985C4.95782 28.0647 6.61184 31.1563 9.0398 33.5824C11.4678 36.0085 14.5606 37.6601 17.9273 38.3284C21.2939 38.9968 24.7831 38.6518 27.9537 37.337C31.1243 36.0223 33.8338 33.797 35.7396 30.9423C37.6454 28.0877 38.6619 24.7321 38.6606 21.2997C38.6597 19.0207 38.21 16.7642 37.3371 14.6591C36.4641 12.5539 35.1851 10.6412 33.573 9.03038C31.9609 7.41951 30.0473 6.14194 27.9414 5.27061C25.8356 4.39929 23.5787 3.95128 21.2997 3.95215Z" fill="#ade63e"/>
</svg>
