<svg width="124" height="166" viewBox="0 0 124 166" fill="none" xmlns="http://www.w3.org/2000/svg">
<g style="mix-blend-mode:multiply">
<path d="M35.9715 53.4887L27.1734 64.8388H35.9715V121.404C35.9715 127.152 31.7595 133.3 26.6122 135.07L0.5 144.037V52.6821C0.5 46.9343 4.71199 40.7856 9.86083 39.0176L35.9715 30.0493V53.4887Z" fill="#487CFF"/>
<path d="M124 21.9634V113.319C124 119.067 119.789 125.214 114.639 126.984L88.5298 135.951V114.864H97.3279L88.5298 103.514V44.5961C88.5298 38.8484 92.7418 32.6996 97.8891 30.9317L124 21.9634Z" fill="#487CFF"/>
<path d="M35.9712 64.8379V68.7105H27.1731L30.1753 64.8379H35.9712Z" fill="#3050CE"/>
<path d="M97.3279 118.737H88.5298V114.865H94.3257L97.3279 118.737Z" fill="#3050CE"/>
<path d="M79.9848 103.515L71.1867 114.864H79.9848V142.701C79.9848 148.449 75.7728 154.598 70.6255 156.365L44.5149 165.334V64.838H53.313L44.5149 53.4879V23.2982C44.5149 17.5505 48.7269 11.4032 53.8757 9.63376L79.9848 0.666992V103.515Z" fill="#487CFF"/>
<path d="M53.313 68.7105H44.5149V64.8379H50.3108L53.313 68.7105Z" fill="#3050CE"/>
<path d="M79.9851 114.865V118.737H71.187L74.1892 114.865H79.9851Z" fill="#3050CE"/>
</g>
</svg>
