<svg xmlns="http://www.w3.org/2000/svg" width="139" height="139" viewBox="0 0 139 139" fill="none">
  <path d="M35.9171 0C38.5363 0.362938 41.0898 1.17553 43.4938 2.27077C43.4183 2.53736 43.3332 2.80233 43.2481 3.0657C42.6844 3.99071 41.8365 4.79689 40.7573 5.05062C39.0229 5.57094 37.0428 4.6925 36.2174 3.093C35.6762 2.15354 35.8063 1.0294 35.9171 0Z" fill="#ba66d3" fill-opacity="0.16"/>
  <path d="M94.3389 2.50196C96.7253 1.36497 99.2594 0.544341 101.858 0.0673828C102.243 1.40512 101.957 2.95001 100.967 3.95692C100.056 4.95741 98.5994 5.39744 97.2841 5.10676C95.9175 4.85624 94.811 3.78348 94.3389 2.50196Z" fill="#ba66d3" fill-opacity="0.16"/>
  <path d="M113.771 0.151367C116.372 0.649203 118.898 1.51961 121.272 2.68872C120.838 3.5784 120.186 4.39582 119.268 4.81175C117.798 5.52799 115.881 5.22126 114.76 4.01521C113.74 3.03881 113.4 1.49552 113.771 0.151367Z" fill="#ba66d3" fill-opacity="0.16"/>
  <path d="M16.6348 2.91197C18.9923 1.71877 21.4943 0.766455 24.0943 0.273438C24.3079 1.57584 24.0622 3.01474 23.097 3.97508C21.8669 5.32888 19.6635 5.57779 18.1347 4.59176C17.4971 4.17422 16.9977 3.57842 16.6348 2.91197Z" fill="#ba66d3" fill-opacity="0.16"/>
  <path d="M10.4489 7.05176C11.6437 7.05979 12.8369 7.58171 13.5724 8.53563C14.6035 9.79307 14.7207 11.6881 13.8615 13.0675C13.2464 14.1371 12.087 14.7409 10.9034 14.9513C9.58334 14.9995 8.19743 14.4888 7.39286 13.4048C6.85809 12.7383 6.6156 11.8904 6.56421 11.0473C7.72529 9.59393 9.04375 8.26905 10.4489 7.05176Z" fill="#ba66d3" fill-opacity="0.16"/>
  <path d="M26.6784 8.85204C27.4492 7.646 28.9154 6.93778 30.3383 7.08713C31.8189 7.19313 33.1374 8.23055 33.6641 9.60682C33.7461 9.91998 33.8215 10.2363 33.9115 10.5479C33.9147 10.8771 33.9131 11.2063 33.905 11.5355C33.8376 11.7523 33.775 11.9723 33.7171 12.1924C33.6658 12.3465 33.6144 12.5023 33.5662 12.6597C33.0716 13.6473 32.1996 14.4262 31.1461 14.7699C30.8715 14.8196 30.5984 14.8742 30.3319 14.9513C29.8292 14.9513 29.3346 14.8566 28.8384 14.7859C27.8812 14.4406 27.0076 13.8079 26.5226 12.8958C25.8224 11.656 25.8947 10.0356 26.6784 8.85204Z" fill="#ba66d3" fill-opacity="0.16"/>
  <path d="M45.7309 9.61278C46.3091 8.18351 47.7078 7.10754 49.2704 7.07542C50.9421 6.9614 52.532 8.0727 53.1423 9.60635C53.1888 9.77176 53.237 9.93717 53.2884 10.1026C53.4105 10.6711 53.3864 11.2572 53.3237 11.8322C53.2177 12.1132 53.115 12.3942 53.0122 12.6753C52.972 12.7588 52.895 12.9242 52.8564 13.0077C52.3152 13.8235 51.5315 14.4594 50.6033 14.7774C48.8866 15.2977 46.9498 14.5205 46.0232 12.9965C45.9847 12.9146 45.906 12.7491 45.8674 12.6672C45.7647 12.3846 45.6619 12.1004 45.5575 11.8177C45.4451 11.0774 45.5173 10.329 45.7309 9.61278Z" fill="#ba66d3" fill-opacity="0.16"/>
  <path d="M87.1012 7.30972C89.0701 6.49391 91.5175 7.7658 92.1101 9.78765C92.6368 11.3679 92.0426 13.2581 90.6567 14.2007C90.1107 14.6134 89.4394 14.7885 88.7858 14.9411C88.5112 14.9427 88.2398 14.9411 87.9684 14.9394C86.939 14.7564 85.9193 14.3003 85.2817 13.4427C84.445 12.3844 84.1865 10.8379 84.7373 9.59655C85.423 8.74541 86.2212 7.96012 87.1012 7.30972Z" fill="#ba66d3" fill-opacity="0.16"/>
  <path d="M107.019 7.14807C108.964 6.69681 111.086 7.96388 111.599 9.89259C112.165 11.6864 111.23 13.8014 109.505 14.5626C107.797 15.4073 105.545 14.7634 104.533 13.1526C103.798 12.0397 103.703 10.5494 104.26 9.34176C104.773 8.23528 105.821 7.39217 107.019 7.14807Z" fill="#ba66d3" fill-opacity="0.16"/>
  <path d="M123.734 9.26141C124.511 7.75988 126.303 6.74012 127.986 7.1689C129.043 7.96543 129.929 8.97074 130.845 9.92466C131.365 10.392 131.259 11.1307 131.166 11.7474C130.859 13.2634 129.636 14.5642 128.097 14.842C127.461 15.0411 126.798 14.8998 126.162 14.7858C124.98 14.3891 123.954 13.4834 123.565 12.2805C123.21 11.2993 123.337 10.2105 123.734 9.26141Z" fill="#ba66d3" fill-opacity="0.16"/>
  <path d="M16.4389 19.7428C16.9031 17.7418 19.1449 16.3591 21.1379 16.9051C22.5993 17.2086 23.7282 18.4532 24.1056 19.868C24.226 20.7545 24.1458 21.6586 23.7973 22.4873C23.3894 23.1971 22.808 23.7961 22.1094 24.2233L22.042 24.2554C21.7513 24.3598 21.4639 24.469 21.1796 24.5862C20.2129 24.7002 19.1835 24.6842 18.3243 24.1671C16.7938 23.3432 15.9491 21.4226 16.4389 19.7428Z" fill="#ba66d3" fill-opacity="0.16"/>
  <path d="M38.1606 17.0885C39.1258 16.7368 40.1985 16.6677 41.1605 17.0724C42.0421 17.4064 42.7311 18.105 43.2129 18.8999C43.3172 19.1778 43.4281 19.454 43.5453 19.727C43.6208 20.3726 43.6192 21.0246 43.563 21.6718C43.2273 22.8537 42.3714 23.859 41.2536 24.3697C41.0401 24.4404 40.8281 24.5094 40.6193 24.5881C40.0219 24.6524 39.4213 24.6491 38.8239 24.5962C38.0065 24.3633 37.2806 23.9088 36.7009 23.2889C36.3572 22.8409 36.097 22.3366 35.8867 21.8147C35.8112 21.1145 35.8047 20.4079 35.885 19.7077C35.9669 19.499 36.0456 19.287 36.1243 19.0766C36.5595 18.2046 37.287 17.514 38.1606 17.0885Z" fill="#ba66d3" fill-opacity="0.16"/>
  <path d="M97.636 16.7963C97.9443 16.785 98.2559 16.785 98.5658 16.7914C100.167 17.0307 101.604 18.256 101.927 19.8652C102.375 21.6445 101.376 23.6054 99.7044 24.3345C99.4876 24.4148 99.2724 24.4951 99.0621 24.5818C98.4213 24.6556 97.7741 24.6524 97.135 24.5866C96.1666 24.2526 95.2544 23.6744 94.7309 22.7703C93.8123 21.2688 94.0484 19.1457 95.3492 17.9381C95.9418 17.2845 96.7913 16.9713 97.636 16.7963Z" fill="#ba66d3" fill-opacity="0.16"/>
  <path d="M117.074 16.7964C118.847 16.5989 120.628 17.6925 121.256 19.3611C121.304 19.5345 121.357 19.7096 121.417 19.8814C121.535 20.755 121.498 21.6752 121.091 22.4734C120.726 23.2442 120.066 23.8352 119.343 24.2656C119.057 24.3651 118.776 24.4711 118.499 24.5852C117.578 24.6879 116.6 24.6976 115.767 24.2335C114.163 23.4449 113.257 21.4713 113.756 19.7449C114.122 18.192 115.524 17.0437 117.074 16.7964Z" fill="#ba66d3" fill-opacity="0.16"/>
  <path d="M55.32 19.8351C55.691 18.483 56.7316 17.3572 58.0742 16.9316C58.2187 16.914 58.5094 16.8786 58.6555 16.8594C59.7957 19.1125 60.6276 21.5133 61.18 23.9752C61.1495 24.0395 61.0869 24.1663 61.0564 24.2306C60.7175 24.3478 60.3803 24.4698 60.0462 24.5967C59.4504 24.6529 58.8514 24.6513 58.2572 24.5887C57.9794 24.4779 57.6968 24.3751 57.4141 24.2771C56.775 23.919 56.2482 23.3971 55.8066 22.8173C55.7665 22.7306 55.6846 22.5572 55.6428 22.4705C55.5368 22.2007 55.434 21.9309 55.3248 21.6627C55.2638 21.054 55.2654 20.4422 55.32 19.8351Z" fill="#ba66d3" fill-opacity="0.16"/>
  <path d="M79.6577 16.9199C81.1496 17.331 82.3556 18.6559 82.5403 20.2056C82.8053 21.8405 81.869 23.4849 80.4397 24.2606C79.587 24.6524 78.6411 24.7119 77.7225 24.585C77.5202 24.5111 77.3162 24.4437 77.1155 24.3778C77.5989 21.7859 78.5046 19.2854 79.6577 16.9199Z" fill="#ba66d3" fill-opacity="0.16"/>
  <path d="M133.523 18.8857C134.005 18.0683 134.736 17.4355 135.589 17.0244C136.801 19.3546 137.628 21.8839 138.137 24.4582C137.532 24.7826 136.791 24.5995 136.135 24.5963C135.317 24.3619 134.596 23.901 134.012 23.2891C133.666 22.8427 133.419 22.3368 133.204 21.8181C133.099 20.8337 133.056 19.793 133.523 18.8857Z" fill="#ba66d3" fill-opacity="0.16"/>
  <path d="M2.64894 17.2344C3.36839 17.721 4.05091 18.3344 4.38494 19.1567C5.01446 20.5875 4.71094 22.3942 3.58358 23.4927C3.09699 24.0355 2.41287 24.3213 1.75283 24.5863C1.2277 24.6329 0.69935 24.6505 0.172607 24.6296C0.675261 22.073 1.48786 19.5694 2.64894 17.2344Z" fill="#ba66d3" fill-opacity="0.16"/>
  <path d="M9.63137 26.5959C10.2031 26.5252 10.7844 26.5188 11.3561 26.5927C11.6404 26.6987 11.9262 26.8031 12.2137 26.8994C13.2848 27.4647 14.152 28.478 14.3544 29.6953C14.751 31.3735 13.8276 33.1802 12.3293 33.9848C11.9182 34.1421 11.4958 34.269 11.0767 34.3991C10.6977 34.4055 10.3171 34.4055 9.9381 34.3894C9.66991 34.3075 9.39851 34.2385 9.12711 34.171C8.19246 33.7808 7.37505 33.087 6.95269 32.1524C6.26375 30.7167 6.55443 28.8699 7.68018 27.7361C8.19728 27.1644 8.91834 26.8496 9.63137 26.5959Z" fill="#ba66d3" fill-opacity="0.16"/>
  <path d="M29.0761 26.6136C29.8678 26.461 30.6804 26.5381 31.4448 26.7838C32.2542 27.166 32.9463 27.765 33.4169 28.5294C33.4586 28.6129 33.5405 28.78 33.5823 28.8635C33.7011 29.2344 33.8023 29.6086 33.9131 29.9828C33.9163 30.312 33.9147 30.6412 33.9115 30.972C33.6915 32.2487 32.9014 33.3713 31.7708 34.004C31.0449 34.2931 30.2741 34.4778 29.4888 34.4023C29.1788 34.314 28.8673 34.2353 28.5573 34.1534C27.5344 33.7439 26.733 32.9281 26.293 31.9244C25.8851 30.7424 25.9622 29.3725 26.6784 28.3239C27.1024 27.6044 27.8154 27.1243 28.5606 26.7822C28.7324 26.7276 28.9042 26.6714 29.0761 26.6136Z" fill="#ba66d3" fill-opacity="0.16"/>
  <path d="M47.7962 26.8685C48.7742 26.4606 49.871 26.4349 50.8731 26.7722C51.8913 27.2154 52.7022 28.0248 53.1439 29.0446C53.3446 29.7223 53.4313 30.4289 53.3494 31.1339C53.2659 31.3956 53.1937 31.6622 53.1198 31.9272C52.7167 32.8667 51.9764 33.6166 51.0706 34.0791C50.7687 34.1642 50.4652 34.2478 50.1601 34.3168L50.1617 34.3939C49.7072 34.4019 49.2543 34.4067 48.8015 34.3875C48.4674 34.2734 48.1318 34.1675 47.7962 34.0647C47.0671 33.6937 46.4568 33.1284 46.0152 32.4395C45.975 32.3576 45.8947 32.1906 45.8546 32.1071C45.7438 31.7811 45.641 31.4535 45.5286 31.1291C45.5077 30.6971 45.5077 30.2635 45.5286 29.8331C45.6137 29.5681 45.6876 29.2983 45.7679 29.0317C46.1485 28.081 46.8904 27.3311 47.7962 26.8685Z" fill="#ba66d3" fill-opacity="0.16"/>
  <path d="M87.5106 26.589C88.0871 26.5232 88.6701 26.5232 89.2466 26.5922C90.7433 27.0034 92.0233 28.2431 92.2433 29.8137C92.5901 31.6236 91.4756 33.5234 89.7605 34.1658C89.4875 34.238 89.2161 34.3071 88.9495 34.3906C88.5705 34.405 88.1931 34.405 87.8174 34.3922C87.5877 34.3215 87.3548 34.2637 87.122 34.2139C86.1793 33.8671 85.349 33.2006 84.8865 32.3013C84.1205 30.8383 84.371 28.8903 85.5578 27.7228C86.0749 27.1495 86.796 26.8363 87.5106 26.589Z" fill="#ba66d3" fill-opacity="0.16"/>
  <path d="M106.949 26.5969C107.52 26.5231 108.1 26.5182 108.673 26.5921C108.956 26.6965 109.242 26.7993 109.531 26.8956C110.642 27.4834 111.53 28.5562 111.697 29.8264C112.025 31.4789 111.1 33.1957 109.645 33.989C109.231 34.1448 108.807 34.27 108.386 34.3985C108.002 34.4033 107.62 34.4033 107.239 34.3921C106.229 34.1512 105.234 33.6534 104.638 32.7733C103.618 31.389 103.663 29.3334 104.76 28.0069C105.298 27.2923 106.118 26.8748 106.949 26.5969Z" fill="#ba66d3" fill-opacity="0.16"/>
  <path d="M126.367 26.652C126.889 26.5026 127.437 26.5283 127.973 26.5621C128.299 26.6697 128.629 26.7756 128.955 26.8913C129.038 26.9314 129.205 27.0133 129.289 27.0535C129.87 27.4421 130.355 27.9512 130.745 28.5309C130.941 29.0047 131.09 29.4961 131.229 29.9923C131.229 30.3135 131.227 30.6363 131.222 30.9591C131.156 31.1807 131.1 31.4055 131.049 31.632C130.968 31.8359 130.895 32.0431 130.817 32.2486C130.414 32.9793 129.806 33.5751 129.089 33.9975C128.714 34.1324 128.335 34.2544 127.959 34.3845C127.504 34.407 127.05 34.4038 126.595 34.3974L126.605 34.2978C126.364 34.2641 126.13 34.2303 125.892 34.1902C125.055 33.771 124.249 33.2042 123.828 32.3386C123.09 31.0249 123.231 29.2953 124.143 28.1021C124.594 27.4566 125.29 27.0422 125.996 26.7291C126.09 26.7098 126.276 26.6713 126.367 26.652Z" fill="#ba66d3" fill-opacity="0.16"/>
  <path d="M36.1404 38.5166C36.6783 37.4695 37.6483 36.6345 38.8078 36.3711C39.5048 36.2683 40.2226 36.2828 40.9132 36.4289C41.2183 36.5734 41.5266 36.7164 41.835 36.8609C42.283 37.2287 42.6877 37.643 43.0619 38.0862C43.6625 39.0803 43.7155 40.2767 43.5003 41.3928C43.1325 42.3419 42.4629 43.1497 41.5941 43.6829C41.358 43.7776 41.1235 43.8788 40.8907 43.9864C40.6257 44.0313 40.3591 44.0699 40.0941 44.1084C39.8404 44.0988 39.5899 44.0956 39.3377 44.102C39.1129 44.0731 38.8881 44.0458 38.6633 44.0201C38.3935 43.9093 38.1253 43.8017 37.8555 43.6973C36.9546 43.1754 36.2929 42.3403 35.9123 41.3784C35.7967 40.638 35.8015 39.8849 35.8882 39.1413C35.9749 38.9341 36.0585 38.7254 36.1404 38.5166Z" fill="#ba66d3" fill-opacity="0.16"/>
  <path d="M58.0966 36.418C59.3219 36.137 60.7222 36.3152 61.6826 37.1808C61.9684 37.3687 61.8753 37.7397 61.901 38.0288C61.8914 39.5833 61.9042 41.1394 61.8962 42.6956C61.9588 43.2303 61.3566 43.4279 61.0161 43.7073C60.7479 43.8085 60.4814 43.9128 60.2164 44.022C59.9899 44.0493 59.7635 44.075 59.5403 44.1056C59.2849 44.1007 59.0296 44.1007 58.7759 44.1088C58.5029 44.0686 58.2315 44.0285 57.9617 43.9867C56.6882 43.5033 55.6716 42.4258 55.3199 41.1009C55.2653 40.5035 55.2621 39.9013 55.3263 39.3055C55.3842 39.1336 55.4404 38.9618 55.4934 38.79C55.9607 37.6738 56.9178 36.7392 58.0966 36.418Z" fill="#ba66d3" fill-opacity="0.16"/>
  <path d="M97.122 36.3643C97.7676 36.2937 98.418 36.2953 99.0652 36.3611C99.2803 36.443 99.4987 36.5185 99.7188 36.5956C100.747 37.1063 101.604 38.0248 101.885 39.157C102.25 40.4658 101.896 41.9738 100.92 42.9341C100.138 43.7917 98.9351 44.2221 97.7884 44.1289C96.4475 44.0358 95.2125 43.1975 94.6039 42.0043C94.0274 40.885 94.0338 39.4943 94.6151 38.3781C95.015 37.5928 95.7072 36.9906 96.486 36.5956C96.698 36.5201 96.91 36.4446 97.122 36.3643Z" fill="#ba66d3" fill-opacity="0.16"/>
  <path d="M116.56 36.3661C117.207 36.2986 117.859 36.2906 118.508 36.3596C118.715 36.4367 118.927 36.509 119.141 36.5781C119.979 36.9795 120.657 37.6588 121.116 38.4618C121.482 39.3788 121.619 40.413 121.31 41.3669C120.967 42.5987 119.934 43.5188 118.781 43.9942C118.047 44.1178 117.299 44.1098 116.562 44.0392C116.284 43.9251 116.006 43.8143 115.728 43.7083C114.749 43.1366 113.946 42.202 113.727 41.0682C113.342 39.5683 114.015 37.9431 115.222 37.0117C115.457 36.8816 115.69 36.7483 115.929 36.6214C116.138 36.5363 116.348 36.4528 116.56 36.3661Z" fill="#ba66d3" fill-opacity="0.16"/>
  <path d="M135.865 36.3985C136.642 36.2732 137.435 36.2957 138.218 36.3873C137.814 39.0145 136.939 41.5615 135.802 43.9592C134.842 43.6235 134.045 42.933 133.533 42.0594C133.429 41.7896 133.319 41.5198 133.213 41.2532C133.181 41.0284 133.152 40.8051 133.122 40.5819C133.074 40.325 133.074 40.0632 133.125 39.8063C133.154 39.5798 133.181 39.3518 133.212 39.1237C133.445 38.4878 133.79 37.9016 134.238 37.391C134.721 36.9718 135.283 36.6619 135.865 36.3985Z" fill="#ba66d3" fill-opacity="0.16"/>
  <path d="M0.0905762 36.3275C0.641407 36.2986 1.19545 36.3083 1.74467 36.3613C1.96147 36.4416 2.18149 36.517 2.4015 36.5925C3.99457 37.3377 5.0063 39.1636 4.64497 40.9092C4.45708 42.1651 3.56097 43.1832 2.485 43.7967C1.33195 41.4392 0.569141 38.9034 0.0905762 36.3275Z" fill="#ba66d3" fill-opacity="0.16"/>
  <path d="M19.2414 36.3664C20.176 36.2829 21.1781 36.2106 22.0277 36.6892C22.7905 37.0698 23.367 37.7427 23.8006 38.4637C24.3033 39.665 24.3081 41.1055 23.6159 42.2345C23.0603 43.0936 22.2059 43.7954 21.1942 44.0283C20.547 44.1359 19.8854 44.0925 19.235 44.0331C19.0262 43.9512 18.8174 43.8757 18.6071 43.8018C17.5231 43.2606 16.643 42.265 16.407 41.0589C16.0247 39.5638 16.7008 37.945 17.9021 37.0136C18.1365 36.8835 18.371 36.7518 18.6087 36.6266C18.819 36.5399 19.0326 36.4563 19.2414 36.3664Z" fill="#ba66d3" fill-opacity="0.16"/>
  <path d="M77.6904 36.3561C78.3327 36.2951 78.9799 36.2967 79.6239 36.3609C79.8953 36.4766 80.1699 36.589 80.4461 36.6998C80.5248 36.7431 80.6806 36.8283 80.7593 36.87C82.1211 37.7501 82.8775 39.4877 82.476 41.0743C82.2367 42.2772 81.3503 43.2584 80.2791 43.8076C80.0671 43.8766 79.8552 43.9473 79.6464 44.0228C79.4216 44.0501 79.1967 44.0758 78.9735 44.1031C78.7198 44.124 78.466 44.1464 78.2139 44.1256C77.6004 44.0372 77.0159 43.8237 76.4763 43.5201C76.4474 41.3088 76.4442 39.0974 76.4779 36.8877C76.669 36.7897 76.8601 36.6918 77.0528 36.5954C77.2632 36.5167 77.4784 36.438 77.6904 36.3561Z" fill="#ba66d3" fill-opacity="0.16"/>
  <path d="M9.13363 46.2285C9.75994 46.0631 10.4039 45.9458 11.0543 46.0101C11.3257 46.0952 11.6003 46.161 11.8749 46.2333C13.1484 46.7247 14.1698 47.8761 14.3689 49.2444C14.7287 50.9499 13.749 52.7357 12.2186 53.5129C11.3546 53.7972 10.1711 54.2308 9.45 53.4455C8.45914 52.461 7.4169 51.4991 6.61715 50.3493C6.36181 48.5972 7.50844 46.8564 9.13363 46.2285Z" fill="#ba66d3" fill-opacity="0.16"/>
  <path d="M29.503 46.005C29.8339 46.0002 30.1647 46.0018 30.4971 46.005C31.7561 46.2379 32.8964 47.0055 33.497 48.1489C33.5757 48.3496 33.6511 48.552 33.7314 48.7543C33.7828 48.9792 33.8406 49.204 33.9049 49.4272C33.9129 49.7564 33.9161 50.0856 33.9161 50.4165C33.7941 50.8404 33.672 51.266 33.5339 51.6851C33.0553 52.5331 32.3343 53.2204 31.443 53.6219C30.3975 53.9864 29.2413 53.9463 28.2312 53.4918C27.1584 52.9281 26.3859 51.91 26.0921 50.7376C25.9973 49.9748 26.0455 49.2008 26.2944 48.4717C26.7152 47.537 27.4443 46.771 28.3677 46.323C28.745 46.2138 29.1256 46.111 29.503 46.005Z" fill="#ba66d3" fill-opacity="0.16"/>
  <path d="M47.6789 46.3916C48.0949 46.2471 48.5172 46.1266 48.9396 46.0046C49.2704 45.9998 49.6028 45.9998 49.9353 46.0046C50.3127 46.1138 50.6933 46.2198 51.0707 46.3306C51.9057 46.761 52.5995 47.4371 53.0331 48.2738C53.1343 48.6046 53.2403 48.9322 53.3495 49.2614C53.3848 49.7962 53.4041 50.339 53.2724 50.8641C53.2274 51.0247 53.184 51.1885 53.1407 51.3507C52.6364 52.5857 51.5444 53.4994 50.2532 53.8206C49.6671 53.88 49.0729 53.8897 48.4915 53.7772C48.3968 53.7483 48.2105 53.6889 48.1158 53.66C47.0494 53.2553 46.1854 52.4186 45.7615 51.3603C45.6844 51.0921 45.6105 50.8224 45.527 50.559C45.5077 50.1286 45.5077 49.6982 45.5302 49.2694C45.6442 48.9386 45.7502 48.6062 45.853 48.2738C46.2641 47.4804 46.9097 46.8365 47.6789 46.3916Z" fill="#ba66d3" fill-opacity="0.16"/>
  <path d="M87.8205 46.0117C88.4693 45.9474 89.1101 46.0582 89.7364 46.2237C91.1159 46.7697 92.1758 48.0769 92.2818 49.5752C92.4649 51.1876 91.5158 52.7678 90.0977 53.5033C89.0764 53.9513 87.9169 53.977 86.8682 53.6125C85.4984 52.983 84.4577 51.6099 84.4577 50.0698C84.3517 48.4061 85.4518 46.813 87.0015 46.2381C87.2729 46.1626 87.5475 46.0936 87.8205 46.0117Z" fill="#ba66d3" fill-opacity="0.16"/>
  <path d="M105.25 46.9608C106.101 46.2301 107.26 45.9025 108.37 46.0133C108.593 46.0775 108.823 46.1353 109.053 46.1867C110.398 46.6412 111.487 47.8328 111.691 49.2556C112.062 51.0382 110.972 52.8914 109.334 53.6109C108.282 53.9802 107.119 53.9513 106.098 53.5001C105.182 52.991 104.403 52.1848 104.095 51.1667C103.599 49.6989 104.068 47.9661 105.25 46.9608Z" fill="#ba66d3" fill-opacity="0.16"/>
  <path d="M125.672 46.3274C126.36 46.1026 127.073 45.9259 127.803 46.011C128.025 46.0785 128.25 46.1283 128.479 46.1781C129.486 46.5041 130.305 47.2428 130.822 48.1566C130.975 48.5725 131.095 48.9981 131.225 49.4236C131.229 49.7528 131.23 50.0837 131.234 50.4161C131.086 51.3957 130.328 52.0734 129.631 52.6997C129.249 53.1317 128.839 53.6103 128.258 53.7596C127.355 53.9989 126.398 53.8479 125.547 53.4914C124.192 52.7864 123.255 51.2993 123.363 49.7544C123.385 48.2802 124.367 46.9553 125.672 46.3274Z" fill="#ba66d3" fill-opacity="0.16"/>
  <path d="M18.8703 55.9759C19.0454 55.9245 19.2204 55.8715 19.3939 55.8137C20.2049 55.6997 21.0367 55.7527 21.8076 56.0417C22.7262 56.4914 23.5307 57.2382 23.8921 58.2129C24.2759 59.1283 24.2132 60.1658 23.929 61.1004C21.3451 60.5447 18.8479 59.6181 16.5 58.4105C16.8951 57.304 17.7783 56.4063 18.8703 55.9759Z" fill="#ba66d3" fill-opacity="0.16"/>
  <path d="M38.1959 56.0142C39.2559 55.6464 40.4266 55.6769 41.4576 56.1186C42.267 56.5795 42.9334 57.2684 43.3542 58.1003C43.6529 58.9241 43.6497 59.8122 43.5469 60.673C43.4569 60.8833 43.3766 61.0969 43.298 61.3105C43.147 61.5402 43.0731 61.924 42.715 61.8421C40.6145 61.8501 38.5107 61.8581 36.4102 61.8356C36.3138 61.6574 36.2191 61.4823 36.1259 61.3057C36.0456 61.1001 35.9653 60.8962 35.8834 60.6922C35.824 60.0611 35.7855 59.4203 35.8738 58.7892C35.9926 58.1645 36.3331 57.6089 36.7121 57.1094C37.1473 56.6694 37.6387 56.2872 38.1959 56.0142Z" fill="#ba66d3" fill-opacity="0.16"/>
  <path d="M76.8393 56.1282C77.6824 55.7926 78.593 55.6769 79.4939 55.807C80.9039 56.178 82.1501 57.2829 82.4617 58.7378C82.7475 59.7897 82.4986 60.9203 81.9446 61.8405C80.1186 61.8453 78.2911 61.8694 76.4652 61.8276C76.4555 60.1045 76.4539 58.3797 76.462 56.6549C76.4154 56.3916 76.6804 56.2792 76.8393 56.1282Z" fill="#ba66d3" fill-opacity="0.16"/>
  <path d="M94.2538 58.8875C94.5573 57.1595 96.1793 55.7784 97.933 55.7575C99.6208 55.6387 101.289 56.7757 101.813 58.3816C102.221 59.525 102.023 60.8146 101.4 61.8424C99.1984 61.8536 96.9983 61.8536 94.7982 61.8408C94.2795 60.9591 94.0274 59.8976 94.2538 58.8875Z" fill="#ba66d3" fill-opacity="0.16"/>
  <path d="M116.194 55.9756C116.367 55.9242 116.542 55.8712 116.716 55.8118C117.967 55.6062 119.338 55.8969 120.257 56.8123C120.803 57.2973 121.145 57.9605 121.365 58.6478C119.016 59.8314 116.502 60.6842 113.926 61.2109C113.604 60.3469 113.502 59.3898 113.801 58.5033C114.143 57.3438 115.081 56.4156 116.194 55.9756Z" fill="#ba66d3" fill-opacity="0.16"/>
  <path d="M57.4236 56.1207C58.2523 55.761 59.1612 55.6935 60.0509 55.8075C60.7158 56.0195 61.3501 56.3295 61.8785 56.7936C61.9186 58.4734 61.8929 60.1532 61.8929 61.833C59.9867 61.8651 58.0788 61.8458 56.171 61.8458C55.9382 61.8795 55.8097 61.6659 55.6603 61.5343C55.2781 60.6494 55.1946 59.681 55.3311 58.7335C55.4098 58.5216 55.4853 58.308 55.5592 58.096C55.943 57.2497 56.6303 56.5848 57.4236 56.1207Z" fill="#ba66d3" fill-opacity="0.16"/>
  <path d="M35.8224 79.2909C35.7453 78.2487 36.0858 77.131 36.8887 76.4324C38.7805 76.3794 40.6787 76.4163 42.5721 76.4163C42.8082 76.7086 43.025 77.0153 43.2337 77.3301C43.3365 77.6095 43.4425 77.8874 43.5549 78.1652C43.6192 78.8092 43.6208 79.4563 43.5549 80.1019C43.4393 80.3781 43.3301 80.6576 43.2289 80.9418C42.5689 82.1302 41.3291 82.9958 39.9528 83.0536C37.8603 83.2399 35.7485 81.4348 35.8224 79.2909Z" fill="#ba66d3" fill-opacity="0.16"/>
  <path d="M56.3091 76.4159C58.1703 76.3998 60.0316 76.4111 61.8929 76.4111C61.9009 78.123 61.8977 79.8349 61.8993 81.5484C61.9828 82.2004 61.2441 82.4766 60.7768 82.7255C58.9283 83.5895 56.5725 82.7368 55.6603 80.9269C55.5543 80.6443 55.4483 80.3648 55.3327 80.0886C55.2604 79.4511 55.2604 78.8087 55.3295 78.1727C55.4435 77.8933 55.5559 77.6139 55.6571 77.3312C55.8642 77.0181 56.0794 76.713 56.3091 76.4159Z" fill="#ba66d3" fill-opacity="0.16"/>
  <path d="M76.4586 76.4083C78.1465 76.4485 79.8503 76.3329 81.5301 76.4646C82.4327 77.4056 82.7892 78.8333 82.4567 80.0939C82.1195 81.512 80.9022 82.6859 79.4713 82.9701C78.4628 83.1917 77.3563 83.0022 76.4972 82.4289C76.4072 80.4264 76.4843 78.4141 76.4586 76.4083Z" fill="#ba66d3" fill-opacity="0.16"/>
  <path d="M95.2206 76.4194C97.1413 76.4017 99.0619 76.4033 100.983 76.4194C101.847 77.4086 102.251 78.8026 101.908 80.0889C101.485 81.9614 99.5277 83.3168 97.623 83.031C95.94 82.8607 94.4754 81.4636 94.2313 79.7902C94.0017 78.5842 94.4257 77.3332 95.2206 76.4194Z" fill="#ba66d3" fill-opacity="0.16"/>
  <path d="M16.3699 79.9265C18.6952 78.7188 21.1684 77.7424 23.7443 77.2285C24.1763 78.2772 24.3433 79.4848 23.9049 80.5608C23.2962 82.2117 21.4767 83.2925 19.7343 83.0259C18.0978 82.846 16.7168 81.5195 16.3699 79.9265Z" fill="#ba66d3" fill-opacity="0.16"/>
  <path d="M114.146 77.1099C116.689 77.6141 119.154 78.499 121.468 79.6617C121.294 80.6606 120.798 81.6097 119.981 82.2295C118.76 83.2204 116.928 83.3232 115.579 82.5315C114.631 81.9533 113.893 80.9962 113.703 79.8897C113.472 78.9438 113.737 77.9658 114.146 77.1099Z" fill="#ba66d3" fill-opacity="0.16"/>
  <path d="M9.67159 85.0221C10.7957 84.7748 12.0275 85.0462 12.9332 85.7608C13.8245 86.4305 14.34 87.5113 14.4396 88.6097C14.5118 89.9844 13.8534 91.4121 12.6682 92.1492C11.1651 93.1593 8.97623 92.9361 7.71558 91.6337C6.73597 90.6621 6.33609 89.1461 6.72794 87.8228C7.02664 87.2415 7.54535 86.8111 7.95486 86.3101C8.46073 85.8074 8.90717 85.1201 9.67159 85.0221Z" fill="#ba66d3" fill-opacity="0.16"/>
  <path d="M26.4054 87.1406C27.0494 85.933 28.2779 85.0256 29.667 84.9469C31.395 84.7735 33.0812 85.8912 33.6915 87.4987C33.8537 88.1234 33.9741 88.7626 33.905 89.4114C33.8231 89.6748 33.7573 89.9462 33.6866 90.2144C33.0973 91.8283 31.403 92.946 29.6799 92.7678C28.2795 92.7099 27.0478 91.7865 26.4022 90.5741C25.9284 89.4837 25.9333 88.2294 26.4054 87.1406Z" fill="#ba66d3" fill-opacity="0.16"/>
  <path d="M47.9825 85.2102C49.4166 84.6305 51.1783 84.9822 52.251 86.1047C52.7858 86.6154 53.0781 87.3108 53.3206 87.9949C53.3896 88.5666 53.3912 89.1431 53.3206 89.7149C53.1953 90.0392 53.0765 90.3685 52.9512 90.6961C52.4775 91.4733 51.8062 92.1639 50.9422 92.4979C49.4904 93.0841 47.6902 92.7516 46.611 91.5938C46.0457 91.0494 45.7615 90.3026 45.5302 89.5719C45.5045 89.0982 45.5029 88.626 45.5399 88.1539C45.5977 87.9724 45.6507 87.7894 45.7021 87.6063C46.0891 86.5367 46.9081 85.6165 47.9825 85.2102Z" fill="#ba66d3" fill-opacity="0.16"/>
  <path d="M87.562 85.0176C89.5164 84.5567 91.6683 85.8543 92.1549 87.8039C92.6527 89.4885 91.8626 91.4445 90.3113 92.2812C88.6588 93.2399 86.3334 92.7854 85.2189 91.2164C84.2875 89.9847 84.1943 88.1973 84.9796 86.8708C85.524 85.9217 86.4892 85.2296 87.562 85.0176Z" fill="#ba66d3" fill-opacity="0.16"/>
  <path d="M106.994 85.0237C108.116 84.7732 109.346 85.0462 110.251 85.7608C111.066 86.3855 111.598 87.3523 111.725 88.3704C111.942 89.9009 111.145 91.5293 109.783 92.2728C108.227 93.1818 106.064 92.8429 104.884 91.4715C104 90.4967 103.69 89.0626 104.042 87.8019C104.407 86.4224 105.595 85.3047 106.994 85.0237Z" fill="#ba66d3" fill-opacity="0.16"/>
  <path d="M123.485 87.8522C123.856 86.3828 125.16 85.2008 126.661 84.9872C128.105 84.7303 129.661 85.3726 130.493 86.5835C130.915 87.1183 131.065 87.7944 131.237 88.4384C131.265 89.039 131.151 89.6299 131.01 90.2113C130.633 91.0994 130.006 91.9007 129.133 92.3391C127.75 93.065 125.927 92.89 124.745 91.8574C124.254 91.4607 123.915 90.9211 123.621 90.3735C123.364 89.5625 123.249 88.6808 123.485 87.8522Z" fill="#ba66d3" fill-opacity="0.16"/>
  <path d="M19.8082 94.6802C21.1187 94.5277 22.4821 95.0833 23.3011 96.1207C24.5232 97.5773 24.4365 99.9364 23.1004 101.293C22.1224 102.36 20.5245 102.771 19.145 102.36C17.5487 101.928 16.3507 100.388 16.3009 98.7368C16.1965 96.7422 17.8201 94.8633 19.8082 94.6802Z" fill="#ba66d3" fill-opacity="0.16"/>
  <path d="M39.0006 94.7269C40.6691 94.3769 42.426 95.2922 43.2209 96.7761C43.3253 97.0507 43.4345 97.3253 43.5501 97.5983C43.6192 98.2471 43.6256 98.9023 43.5534 99.5511C43.4715 99.7599 43.3992 99.9719 43.3285 100.185C42.654 101.632 41.1011 102.639 39.4856 102.509C37.8828 102.458 36.4889 101.297 35.9349 99.8257C35.8642 99.307 35.7165 98.7899 35.7807 98.2648C35.8578 97.8103 35.9493 97.3558 36.142 96.9351C36.1517 96.8901 36.1725 96.8018 36.1822 96.7584L36.2496 96.6894C36.847 95.6937 37.8363 94.91 39.0006 94.7269Z" fill="#ba66d3" fill-opacity="0.16"/>
  <path d="M58.1366 94.8005C59.3314 94.4569 60.682 94.7443 61.6456 95.5232C61.9796 95.7304 61.8784 96.1543 61.9009 96.4835C61.8816 98.1473 61.9266 99.8126 61.8752 101.476C60.78 102.461 59.1436 102.804 57.7641 102.26C56.5612 101.826 55.7021 100.747 55.3263 99.5508C55.2653 98.9101 55.2588 98.2645 55.3359 97.627C55.4258 97.4037 55.5093 97.1805 55.5945 96.9589C56.0859 95.9231 57.0141 95.08 58.1366 94.8005Z" fill="#ba66d3" fill-opacity="0.16"/>
  <path d="M76.4684 95.2922C77.3115 94.7847 78.3329 94.5262 79.3109 94.7173C80.9072 94.9662 82.2642 96.3168 82.5163 97.9147C82.8022 99.3777 82.1357 100.95 80.9152 101.798C79.6337 102.742 77.8431 102.704 76.4877 101.928C76.4283 99.7165 76.4636 97.5036 76.4684 95.2922Z" fill="#ba66d3" fill-opacity="0.16"/>
  <path d="M97.6921 94.6769C98.9592 94.5404 100.278 95.0559 101.089 96.0468C102.407 97.5114 102.316 99.9909 100.893 101.356C99.8039 102.499 97.9924 102.829 96.5519 102.204C95.0231 101.574 94.0162 99.9074 94.188 98.2597C94.302 96.429 95.8662 94.8359 97.6921 94.6769Z" fill="#ba66d3" fill-opacity="0.16"/>
  <path d="M116.722 94.7542C118.105 94.4234 119.639 94.9453 120.546 96.0373C120.991 96.5159 121.219 97.1358 121.426 97.746C121.538 98.6662 121.492 99.641 121.017 100.463C120.194 102.069 118.174 102.895 116.457 102.357C114.601 101.865 113.311 99.845 113.681 97.9548C113.909 96.4003 115.184 95.0625 116.722 94.7542Z" fill="#ba66d3" fill-opacity="0.16"/>
  <path d="M133.408 96.9624C133.949 95.9201 134.882 95.0915 136.021 94.7671C137.127 97.1615 137.89 99.7133 138.327 102.315C136.91 102.768 135.224 102.445 134.207 101.319C133.477 100.653 133.184 99.6716 133.046 98.7241C133.128 98.1283 133.21 97.5309 133.408 96.9624Z" fill="#ba66d3" fill-opacity="0.16"/>
  <path d="M0.000732422 102.464C0.431119 99.8674 1.16342 97.3092 2.27472 94.918C3.36674 95.4399 4.303 96.3938 4.58082 97.5983C4.94697 98.9536 4.52461 100.495 3.48398 101.448C2.57984 102.344 1.23729 102.655 0.000732422 102.464Z" fill="#ba66d3" fill-opacity="0.16"/>
  <path d="M7.36075 105.967C8.13159 104.921 9.43721 104.304 10.7348 104.399C12.4242 104.446 13.9659 105.758 14.3224 107.402C14.7143 108.881 14.112 110.561 12.8803 111.467C12.0902 112.071 11.0672 112.302 10.0844 112.268C9.06142 112.055 8.02882 111.605 7.39929 110.735C6.32815 109.389 6.30887 107.327 7.36075 105.967Z" fill="#ba66d3" fill-opacity="0.16"/>
  <path d="M26.5145 106.458C27.1954 105.141 28.6873 104.305 30.1664 104.398C31.7081 104.433 33.1165 105.495 33.6641 106.924C33.7476 107.239 33.8231 107.558 33.913 107.874C33.9146 108.197 33.913 108.522 33.9034 108.848C33.8391 109.073 33.7829 109.301 33.7347 109.532C33.2915 110.831 32.1754 111.902 30.8088 112.156C30.16 112.355 29.4855 112.231 28.8383 112.103C27.9277 111.78 27.0959 111.194 26.598 110.352C25.8882 109.19 25.8529 107.65 26.5145 106.458Z" fill="#ba66d3" fill-opacity="0.16"/>
  <path d="M45.7453 106.921C46.3299 105.442 47.8234 104.359 49.4325 104.393C51.0529 104.349 52.5512 105.442 53.1502 106.927C53.3558 107.605 53.4281 108.313 53.3478 109.021C53.237 109.349 53.131 109.68 53.025 110.01C52.6058 110.789 51.9731 111.448 51.1862 111.86C50.9855 111.937 50.7847 112.015 50.5872 112.096C48.7613 112.668 46.6768 111.713 45.861 109.996C45.7646 109.707 45.6634 109.423 45.5558 109.14C45.5044 108.668 45.4996 108.192 45.5269 107.719C45.6056 107.454 45.6747 107.187 45.7453 106.921Z" fill="#ba66d3" fill-opacity="0.16"/>
  <path d="M87.3468 104.522C88.7841 104.128 90.4301 104.618 91.3728 105.785C92.5965 107.173 92.5981 109.436 91.3985 110.841C90.7626 111.647 89.7798 112.069 88.7953 112.262C88.5175 112.262 88.2413 112.262 87.9651 112.264C87.0127 112.082 86.0637 111.695 85.4245 110.937C84.363 109.76 84.1542 107.929 84.8737 106.527C85.3715 105.556 86.2853 104.795 87.3468 104.522Z" fill="#ba66d3" fill-opacity="0.16"/>
  <path d="M107.013 104.47C108.961 104.014 111.095 105.289 111.601 107.226C112.168 109.034 111.208 111.162 109.459 111.904C107.785 112.701 105.601 112.095 104.583 110.547C103.803 109.426 103.689 107.894 104.264 106.661C104.774 105.556 105.82 104.717 107.013 104.47Z" fill="#ba66d3" fill-opacity="0.16"/>
  <path d="M125.418 104.863C126.841 104.068 128.739 104.296 129.939 105.401C130.355 105.767 130.636 106.254 130.911 106.729C131.017 107.11 131.119 107.492 131.233 107.874C131.264 108.428 131.164 108.976 131.062 109.521C130.607 110.823 129.491 111.904 128.115 112.157C127.474 112.358 126.804 112.233 126.167 112.101C125.902 111.99 125.637 111.883 125.372 111.78C124.289 111.122 123.461 109.989 123.374 108.702C123.207 107.165 124.047 105.581 125.418 104.863Z" fill="#ba66d3" fill-opacity="0.16"/>
  <path d="M0.296143 114.109C0.610903 114.106 0.925663 114.107 1.24042 114.115C2.84474 114.347 4.28686 115.575 4.61125 117.188C5.00792 118.801 4.23707 120.563 2.83189 121.429C1.69008 119.108 0.769889 116.656 0.296143 114.109Z" fill="#ba66d3" fill-opacity="0.16"/>
  <path d="M18.7224 114.422C20.0762 113.823 21.6998 114.128 22.824 115.063C24.1489 116.228 24.5214 118.215 23.7956 119.81C23.333 120.603 22.665 121.287 21.8219 121.672C21.6083 121.746 21.3947 121.822 21.1827 121.905C20.3364 121.987 19.4419 122.034 18.655 121.652C17.0427 120.971 16.0213 119.114 16.3682 117.391C16.5705 116.082 17.5068 114.928 18.7224 114.422Z" fill="#ba66d3" fill-opacity="0.16"/>
  <path d="M38.1622 114.409C39.0069 114.109 39.9142 114.014 40.7878 114.257C40.9918 114.332 41.199 114.408 41.4077 114.483C42.4387 115.007 43.1887 115.951 43.5516 117.041C43.6271 117.857 43.6689 118.702 43.3991 119.492C42.9574 120.489 42.1432 121.323 41.1283 121.74C40.9549 121.79 40.783 121.845 40.6128 121.907C40.0202 121.97 39.4212 121.973 38.8286 121.909C38.6536 121.848 38.4785 121.792 38.3019 121.74C37.6852 121.496 37.1681 121.072 36.7056 120.605C36.5466 120.383 36.3892 120.162 36.2351 119.939C36.1226 119.664 36.007 119.394 35.8882 119.126C35.8063 118.426 35.8095 117.721 35.8818 117.022C36.2511 115.88 37.0685 114.915 38.1622 114.409Z" fill="#ba66d3" fill-opacity="0.16"/>
  <path d="M58.7549 114.13C59.4213 114.035 60.0749 114.213 60.7061 114.411C60.8024 114.461 60.9935 114.562 61.0899 114.613C60.5358 117.155 59.5867 119.598 58.4096 121.914C56.9161 121.641 55.7309 120.427 55.323 118.989C55.1994 117.937 55.2523 116.81 55.8787 115.914C56.3909 115.122 57.1891 114.554 58.0788 114.257C58.3036 114.216 58.53 114.176 58.7549 114.13Z" fill="#ba66d3" fill-opacity="0.16"/>
  <path d="M77.2456 114.356C77.8462 114.157 78.487 114.073 79.1197 114.115C80.3932 114.332 81.5736 115.104 82.1533 116.277C82.8711 117.662 82.6608 119.469 81.6137 120.633C81.1657 121.176 80.5378 121.513 79.913 121.809C79.5501 121.117 79.1856 120.421 78.9366 119.679C78.4324 118.679 78.1 117.603 77.7643 116.538C77.5716 115.817 77.3082 115.104 77.2456 114.356Z" fill="#ba66d3" fill-opacity="0.16"/>
  <path d="M97.6375 114.115C97.9442 114.106 98.2525 114.106 98.5609 114.115C99.563 114.3 100.522 114.767 101.154 115.586C102.14 116.762 102.295 118.538 101.58 119.888C101.219 120.618 100.583 121.165 99.8954 121.576C99.6127 121.677 99.3349 121.785 99.0603 121.902C98.4195 121.975 97.7724 121.973 97.1332 121.901C96.9164 121.811 96.698 121.726 96.4828 121.645C95.4422 121.159 94.5991 120.229 94.3148 119.106C93.9278 117.727 94.3485 116.142 95.4261 115.183C96.0091 114.57 96.8313 114.289 97.6375 114.115Z" fill="#ba66d3" fill-opacity="0.16"/>
  <path d="M113.756 117.065C114.19 115.201 116.112 113.934 117.993 114.109C119.438 114.321 120.727 115.305 121.253 116.677C121.302 116.855 121.357 117.033 121.418 117.212C121.53 118.045 121.503 118.92 121.135 119.693C120.782 120.512 120.096 121.138 119.34 121.589C119.057 121.687 118.776 121.792 118.5 121.904C117.655 121.988 116.759 122.034 115.975 121.65C114.251 120.932 113.229 118.87 113.756 117.065Z" fill="#ba66d3" fill-opacity="0.16"/>
  <path d="M135.475 114.409C136.111 114.232 136.768 114.014 137.436 114.149C137.638 114.184 137.842 114.213 138.051 114.247C137.5 116.823 136.612 119.334 135.386 121.668C134.588 121.221 133.891 120.582 133.463 119.768C133.381 119.556 133.3 119.346 133.218 119.138C133.186 118.912 133.157 118.689 133.127 118.467C133.09 118.212 133.071 117.958 133.079 117.704C133.146 117.435 133.194 117.163 133.254 116.895C133.313 116.73 133.373 116.566 133.434 116.404C133.87 115.528 134.6 114.836 135.475 114.409Z" fill="#ba66d3" fill-opacity="0.16"/>
  <path d="M9.63307 123.915C10.163 123.85 10.6978 123.846 11.2294 123.887C11.5554 123.998 11.883 124.109 12.2106 124.215C13.3299 124.804 14.2116 125.885 14.3802 127.16C14.7784 129.163 13.3042 131.31 11.2807 131.636C11.2743 131.671 11.2599 131.744 11.2518 131.779C9.48372 130.565 7.99503 128.957 6.65088 127.297C6.72796 125.657 8.10584 124.34 9.63307 123.915Z" fill="#ba66d3" fill-opacity="0.16"/>
  <path d="M48.7791 123.882C49.4857 123.802 50.1923 123.892 50.8732 124.091C51.5027 124.399 52.0873 124.806 52.553 125.336C52.7537 125.668 52.9464 126.005 53.1279 126.351C53.1986 126.616 53.2676 126.882 53.3511 127.147C53.3768 127.586 53.3736 128.027 53.3575 128.47C53.2259 128.938 53.0235 129.395 52.6509 129.721C51.8978 130.434 51.1783 131.223 50.2421 131.7C49.7603 131.724 49.2769 131.73 48.7935 131.71C48.4739 131.596 48.1495 131.493 47.8284 131.385C47.7127 131.329 47.5971 131.278 47.4831 131.226C46.7909 130.785 46.2272 130.173 45.8499 129.444C45.7455 129.111 45.6411 128.779 45.5287 128.45C45.5062 128.019 45.5046 127.587 45.5271 127.158C45.6138 126.89 45.6877 126.617 45.768 126.349C46.1534 125.406 46.8857 124.652 47.7914 124.195C48.1206 124.091 48.4498 123.988 48.7791 123.882Z" fill="#ba66d3" fill-opacity="0.16"/>
  <path d="M87.5187 123.916C88.0888 123.839 88.6685 123.84 89.2402 123.918C89.5646 124.043 89.8922 124.163 90.2182 124.293C91.3649 124.939 92.1983 126.135 92.2851 127.463C92.4649 129.191 91.352 130.89 89.7397 131.499C89.4763 131.563 89.2113 131.631 88.9528 131.711C88.5545 131.697 88.0936 131.838 87.758 131.557C86.7607 130.8 85.8871 129.896 85.007 129.011C84.7726 128.751 84.461 128.498 84.453 128.119C84.302 126.517 85.2351 124.931 86.6676 124.219C86.9518 124.121 87.2344 124.02 87.5187 123.916Z" fill="#ba66d3" fill-opacity="0.16"/>
  <path d="M106.944 123.92C107.517 123.844 108.099 123.838 108.675 123.915C108.956 124.018 109.24 124.119 109.526 124.217C110.638 124.801 111.524 125.869 111.696 127.136C112.027 128.787 111.108 130.509 109.651 131.305C109.237 131.464 108.812 131.591 108.389 131.721C108.007 131.726 107.626 131.724 107.247 131.708C106.982 131.626 106.716 131.561 106.449 131.496C105.558 131.111 104.757 130.473 104.329 129.587C103.586 128.167 103.828 126.304 104.925 125.135C105.45 124.523 106.197 124.18 106.944 123.92Z" fill="#ba66d3" fill-opacity="0.16"/>
  <path d="M126.38 123.953C126.902 123.831 127.442 123.847 127.973 123.886C128.232 123.971 128.495 124.049 128.757 124.138C128.932 124.213 129.109 124.293 129.289 124.372C130.326 125.023 131.015 126.102 131.221 127.303C131.225 127.441 131.235 127.716 131.24 127.852C130.133 129.209 128.855 130.417 127.516 131.539C127.272 131.779 126.909 131.697 126.602 131.74L126.608 131.621C126.364 131.586 126.125 131.551 125.887 131.509C125.5 131.292 125.121 131.067 124.746 130.834C123.915 130.049 123.316 128.959 123.36 127.79C123.321 126.18 124.403 124.684 125.883 124.094C126.046 124.046 126.213 124 126.38 123.953Z" fill="#ba66d3" fill-opacity="0.16"/>
  <path d="M28.5638 124.091C29.2848 123.866 30.0428 123.796 30.7896 123.91C31.0096 123.982 31.2312 124.056 31.4544 124.126C32.3859 124.523 33.123 125.268 33.5839 126.163C33.6963 126.542 33.8007 126.922 33.9099 127.305C33.9147 127.634 33.9147 127.961 33.9131 128.294C33.7782 128.784 33.6208 129.265 33.4265 129.736C33.0363 130.319 32.5384 130.822 31.9619 131.225C31.5701 131.38 31.1734 131.53 30.7783 131.681C30.3094 131.729 29.8357 131.731 29.3651 131.708C29.0985 131.621 28.8288 131.549 28.559 131.475C27.4974 131.05 26.6672 130.182 26.248 129.124C25.8899 127.971 25.9895 126.656 26.6784 125.644C27.1024 124.918 27.8267 124.451 28.5638 124.091Z" fill="#ba66d3" fill-opacity="0.16"/>
  <path d="M19.2396 133.688C19.8868 133.616 20.5404 133.611 21.1892 133.683C21.3996 133.759 21.6131 133.829 21.8267 133.9C23.3813 134.613 24.3673 136.317 24.1537 138.027C21.6276 137.481 19.1497 136.646 16.8596 135.442C17.3253 134.819 17.9019 134.277 18.6053 133.937C18.8172 133.855 19.0292 133.773 19.2396 133.688Z" fill="#ba66d3" fill-opacity="0.16"/>
  <path d="M36.2287 135.651C36.9369 134.474 38.2168 133.55 39.638 133.629C40.8329 133.524 41.9554 134.133 42.7423 134.995C42.9768 135.33 43.1871 135.678 43.3702 136.044C40.9902 137.144 38.4481 137.87 35.8657 138.307C35.8497 138.169 35.8336 138.032 35.8192 137.899C35.8224 137.644 35.816 137.388 35.8127 137.138C35.8449 136.87 35.8834 136.606 35.93 136.344C36.0328 136.113 36.1323 135.882 36.2287 135.651Z" fill="#ba66d3" fill-opacity="0.16"/>
  <path d="M97.1221 133.684C97.7709 133.614 98.4245 133.616 99.0733 133.684C99.3479 133.793 99.6258 133.899 99.9052 134.001C101.397 134.804 102.272 136.537 101.988 138.217C99.409 137.755 96.8909 136.955 94.5173 135.843C94.9606 135.018 95.6383 134.327 96.4878 133.921C96.6998 133.842 96.9102 133.765 97.1221 133.684Z" fill="#ba66d3" fill-opacity="0.16"/>
  <path d="M116.568 133.685C117.378 133.614 118.221 133.556 119 133.846C119.085 133.882 119.256 133.958 119.343 133.995C119.995 134.356 120.507 134.905 120.973 135.479C120.978 135.538 120.989 135.655 120.994 135.713C118.701 136.818 116.265 137.615 113.771 138.125C113.732 138.085 113.655 138.003 113.616 137.963C113.52 136.577 114.105 135.175 115.227 134.339C115.402 134.236 115.574 134.13 115.751 134.027C116.022 133.911 116.295 133.801 116.568 133.685Z" fill="#ba66d3" fill-opacity="0.16"/>
  <path d="M37.4248 3.13574C39.9253 3.48222 42.3629 4.25797 44.658 5.30354C44.5859 5.55803 44.5046 5.81099 44.4234 6.06242C43.8853 6.94548 43.0758 7.71509 42.0456 7.95732C40.3898 8.45405 38.4995 7.61544 37.7115 6.08848C37.1949 5.19162 37.319 4.11846 37.4248 3.13574Z" fill="#ba66d3"/>
  <path d="M93.1973 5.52437C95.4754 4.43894 97.8947 3.65552 100.375 3.2002C100.743 4.47726 100.47 5.9521 99.5243 6.91335C98.6551 7.86847 97.2646 8.28853 96.009 8.01104C94.7043 7.77188 93.648 6.74777 93.1973 5.52437Z" fill="#ba66d3"/>
  <path d="M111.748 3.2793C114.231 3.75456 116.643 4.58549 118.909 5.70159C118.495 6.55092 117.872 7.33126 116.995 7.72834C115.593 8.4121 113.762 8.11927 112.692 6.96792C111.719 6.0358 111.394 4.5625 111.748 3.2793Z" fill="#ba66d3"/>
  <path d="M19.0171 5.91536C21.2677 4.77627 23.6562 3.86714 26.1383 3.39648C26.3422 4.63982 26.1076 6.01347 25.1863 6.93027C24.0119 8.22266 21.9085 8.46029 20.449 7.51897C19.8404 7.12037 19.3636 6.55159 19.0171 5.91536Z" fill="#ba66d3"/>
  <path d="M13.1114 9.86719C14.252 9.87485 15.3911 10.3731 16.0933 11.2838C17.0775 12.4842 17.1894 14.2932 16.3692 15.6102C15.782 16.6312 14.6751 17.2076 13.5453 17.4085C12.285 17.4545 10.962 16.9669 10.1939 15.9321C9.68339 15.2959 9.45189 14.4864 9.40283 13.6815C10.5113 12.2941 11.7699 11.0293 13.1114 9.86719Z" fill="#ba66d3"/>
  <path d="M28.605 11.5865C29.3409 10.4352 30.7406 9.75909 32.099 9.90167C33.5125 10.0029 34.7711 10.9932 35.274 12.3071C35.3522 12.606 35.4242 12.9081 35.5101 13.2055C35.5132 13.5198 35.5116 13.8341 35.504 14.1483C35.4396 14.3553 35.3798 14.5653 35.3246 14.7754C35.2755 14.9226 35.2265 15.0713 35.1805 15.2215C34.7083 16.1644 33.8758 16.9079 32.8701 17.236C32.608 17.2835 32.3473 17.3356 32.0928 17.4092C31.613 17.4092 31.1408 17.3188 30.6671 17.2513C29.7533 16.9217 28.9193 16.3177 28.4563 15.4469C27.7879 14.2633 27.8569 12.7164 28.605 11.5865Z" fill="#ba66d3"/>
  <path d="M46.7937 12.3128C47.3456 10.9483 48.6809 9.92115 50.1726 9.89049C51.7686 9.78164 53.2863 10.8425 53.8689 12.3066C53.9134 12.4646 53.9594 12.6225 54.0084 12.7804C54.1249 13.3231 54.1019 13.8827 54.0422 14.4315C53.941 14.6998 53.8428 14.9681 53.7447 15.2364C53.7064 15.3161 53.6328 15.474 53.596 15.5537C53.0794 16.3325 52.3312 16.9397 51.4451 17.2432C49.8062 17.7399 47.9573 16.9979 47.0727 15.543C47.0359 15.4648 46.9608 15.3069 46.924 15.2287C46.8259 14.9589 46.7278 14.6875 46.6281 14.4177C46.5208 13.711 46.5898 12.9965 46.7937 12.3128Z" fill="#ba66d3"/>
  <path d="M86.2877 10.1138C88.1673 9.33499 90.5037 10.5492 91.0694 12.4794C91.5723 13.9879 91.005 15.7924 89.682 16.6923C89.1607 17.0863 88.5199 17.2534 87.8959 17.3991C87.6338 17.4006 87.3747 17.3991 87.1156 17.3975C86.1328 17.2228 85.1593 16.7874 84.5507 15.9687C83.752 14.9584 83.5051 13.482 84.031 12.2969C84.6856 11.4844 85.4476 10.7347 86.2877 10.1138Z" fill="#ba66d3"/>
  <path d="M105.303 9.95936C107.159 9.52856 109.184 10.7382 109.675 12.5794C110.215 14.2919 109.322 16.311 107.676 17.0377C106.045 17.8441 103.895 17.2293 102.929 15.6916C102.227 14.6292 102.137 13.2065 102.669 12.0536C103.158 10.9973 104.159 10.1924 105.303 9.95936Z" fill="#ba66d3"/>
  <path d="M121.259 11.9775C122.001 10.544 123.712 9.57052 125.319 9.97986C126.327 10.7403 127.174 11.7 128.047 12.6106C128.544 13.0568 128.443 13.762 128.354 14.3507C128.061 15.7979 126.893 17.0398 125.424 17.305C124.817 17.4951 124.184 17.3602 123.577 17.2513C122.449 16.8726 121.469 16.008 121.098 14.8597C120.759 13.923 120.88 12.8835 121.259 11.9775Z" fill="#ba66d3"/>
  <path d="M18.8298 21.9836C19.2729 20.0734 21.4131 18.7534 23.3157 19.2747C24.7108 19.5644 25.7886 20.7526 26.1488 22.1032C26.2638 22.9495 26.1872 23.8126 25.8545 24.6037C25.4651 25.2813 24.9101 25.8532 24.2432 26.261L24.1788 26.2916C23.9013 26.3913 23.6269 26.4955 23.3555 26.6075C22.4326 26.7163 21.4499 26.701 20.6297 26.2073C19.1687 25.4208 18.3623 23.5873 18.8298 21.9836Z" fill="#ba66d3"/>
  <path d="M39.5665 19.4492C40.4879 19.1135 41.512 19.0476 42.4304 19.4339C43.272 19.7528 43.9297 20.4197 44.3897 21.1786C44.4893 21.4438 44.5951 21.7075 44.707 21.9681C44.7791 22.5844 44.7775 23.2068 44.7239 23.8247C44.4035 24.953 43.5863 25.9127 42.5193 26.4003C42.3154 26.4677 42.113 26.5337 41.9137 26.6088C41.3434 26.6701 40.77 26.667 40.1997 26.6164C39.4194 26.3941 38.7264 25.9603 38.173 25.3685C37.8449 24.9408 37.5965 24.4594 37.3957 23.9611C37.3236 23.2927 37.3175 22.6181 37.3941 21.9497C37.4723 21.7504 37.5475 21.548 37.6226 21.3472C38.0381 20.5147 38.7325 19.8555 39.5665 19.4492Z" fill="#ba66d3"/>
  <path d="M96.3446 19.1699C96.639 19.1591 96.9364 19.1591 97.2323 19.1653C98.7608 19.3937 100.133 20.5635 100.441 22.0996C100.869 23.7983 99.9152 25.6702 98.3192 26.3662C98.1123 26.4429 97.9068 26.5195 97.706 26.6023C97.0943 26.6728 96.4765 26.6698 95.8663 26.6069C94.9418 26.288 94.071 25.7361 93.5712 24.873C92.6943 23.4395 92.9197 21.4128 94.1615 20.2599C94.7272 19.6359 95.5382 19.337 96.3446 19.1699Z" fill="#ba66d3"/>
  <path d="M114.901 19.1704C116.594 18.9818 118.294 20.0259 118.893 21.6187C118.939 21.7843 118.99 21.9514 119.047 22.1155C119.16 22.9495 119.125 23.8279 118.736 24.5899C118.388 25.3258 117.757 25.8899 117.068 26.3008C116.795 26.3959 116.526 26.497 116.261 26.6059C115.383 26.704 114.449 26.7132 113.653 26.2702C112.122 25.5174 111.257 23.6332 111.734 21.9852C112.083 20.5026 113.422 19.4065 114.901 19.1704Z" fill="#ba66d3"/>
  <path d="M55.9478 22.0713C56.3019 20.7804 57.2954 19.7057 58.577 19.2995C58.715 19.2826 58.9925 19.2489 59.132 19.2305C60.2205 21.3814 61.0147 23.6734 61.5421 26.0236C61.5129 26.0849 61.4531 26.206 61.424 26.2674C61.1005 26.3793 60.7786 26.4958 60.4597 26.6169C59.8909 26.6706 59.3191 26.669 58.7518 26.6093C58.4866 26.5035 58.2168 26.4054 57.9469 26.3118C57.3368 25.97 56.8339 25.4717 56.4123 24.9182C56.374 24.8355 56.2958 24.6699 56.2559 24.5871C56.1548 24.3295 56.0566 24.072 55.9524 23.816C55.8941 23.2349 55.8957 22.6508 55.9478 22.0713Z" fill="#ba66d3"/>
  <path d="M79.1818 19.2881C80.606 19.6806 81.7574 20.9454 81.9337 22.4248C82.1866 23.9855 81.2928 25.5554 79.9284 26.2959C79.1143 26.6699 78.2113 26.7267 77.3344 26.6055C77.1412 26.535 76.9465 26.4706 76.7549 26.4078C77.2163 23.9334 78.081 21.5463 79.1818 19.2881Z" fill="#ba66d3"/>
  <path d="M130.605 21.1646C131.065 20.3842 131.762 19.7802 132.576 19.3877C133.734 21.6122 134.524 24.0268 135.009 26.4844C134.432 26.7941 133.725 26.6193 133.098 26.6162C132.317 26.3924 131.629 25.9524 131.071 25.3683C130.741 24.9421 130.505 24.4592 130.3 23.964C130.2 23.0242 130.159 22.0307 130.605 21.1646Z" fill="#ba66d3"/>
  <path d="M5.6653 19.5889C6.35213 20.0534 7.00369 20.639 7.32257 21.424C7.92355 22.79 7.63379 24.5147 6.55756 25.5633C6.09303 26.0815 5.43994 26.3544 4.80983 26.6074C4.30851 26.6518 3.80412 26.6687 3.30127 26.6488C3.78113 24.2081 4.55687 21.818 5.6653 19.5889Z" fill="#ba66d3"/>
  <path d="M12.3313 28.525C12.877 28.4576 13.432 28.4514 13.9778 28.5219C14.2492 28.6231 14.522 28.7228 14.7965 28.8148C15.819 29.3544 16.6469 30.3218 16.8401 31.4839C17.2188 33.086 16.3372 34.8107 14.9069 35.5788C14.5144 35.729 14.1112 35.8501 13.711 35.9743C13.3492 35.9804 12.9859 35.9804 12.6241 35.9651C12.368 35.8869 12.109 35.821 11.8499 35.7566C10.9576 35.3841 10.1773 34.7218 9.77405 33.8295C9.11635 32.4589 9.39385 30.6959 10.4685 29.6135C10.9622 29.0677 11.6506 28.7672 12.3313 28.525Z" fill="#ba66d3"/>
  <path d="M30.894 28.5417C31.6498 28.396 32.4255 28.4696 33.1553 28.7042C33.928 29.069 34.5887 29.6409 35.0379 30.3706C35.0778 30.4504 35.156 30.6098 35.1958 30.6895C35.3093 31.0437 35.4059 31.4009 35.5117 31.7581C35.5147 32.0724 35.5132 32.3867 35.5101 32.7025C35.3001 33.9213 34.5458 34.9929 33.4665 35.597C32.7735 35.8729 32.0377 36.0492 31.288 35.9772C30.9921 35.8928 30.6947 35.8177 30.3988 35.7395C29.4222 35.3486 28.6572 34.5698 28.2371 33.6116C27.8477 32.4832 27.9213 31.1755 28.6051 30.1744C29.0098 29.4876 29.6905 29.0292 30.4019 28.7026C30.5659 28.6505 30.7299 28.5968 30.894 28.5417Z" fill="#ba66d3"/>
  <path d="M48.7651 28.7862C49.6988 28.3968 50.7459 28.3723 51.7025 28.6942C52.6745 29.1174 53.4487 29.89 53.8703 30.8636C54.062 31.5105 54.1447 32.1851 54.0666 32.8581C53.9868 33.108 53.9179 33.3625 53.8473 33.6155C53.4625 34.5123 52.7558 35.2283 51.8911 35.6698C51.6029 35.7511 51.3131 35.8308 51.0218 35.8967L51.0234 35.9703C50.5895 35.978 50.1572 35.9826 49.7248 35.9642C49.406 35.8553 49.0855 35.7541 48.7651 35.656C48.0691 35.3019 47.4865 34.7622 47.0649 34.1045C47.0266 34.0263 46.9499 33.8669 46.9116 33.7872C46.8058 33.476 46.7077 33.1632 46.6004 32.8535C46.5805 32.4411 46.5805 32.0272 46.6004 31.6163C46.6817 31.3634 46.7522 31.1058 46.8288 30.8513C47.1922 29.9437 47.9005 29.2278 48.7651 28.7862Z" fill="#ba66d3"/>
  <path d="M86.6787 28.5194C87.2291 28.4566 87.7856 28.4566 88.336 28.5225C89.7648 28.915 90.9867 30.0985 91.1967 31.5979C91.5278 33.3257 90.4639 35.1393 88.8265 35.7526C88.5659 35.8216 88.3068 35.8875 88.0523 35.9672C87.6905 35.981 87.3302 35.981 86.9715 35.9687C86.7523 35.9013 86.53 35.8461 86.3077 35.7986C85.4077 35.4674 84.6151 34.8312 84.1736 33.9726C83.4423 32.576 83.6815 30.7163 84.8144 29.6018C85.3081 29.0545 85.9964 28.7555 86.6787 28.5194Z" fill="#ba66d3"/>
  <path d="M105.235 28.5269C105.781 28.4564 106.334 28.4518 106.882 28.5223C107.152 28.622 107.424 28.7201 107.7 28.8121C108.761 29.3732 109.609 30.3973 109.769 31.61C110.081 33.1875 109.198 34.8264 107.809 35.5838C107.414 35.7325 107.009 35.8521 106.607 35.9747C106.241 35.9793 105.876 35.9793 105.513 35.9686C104.548 35.7386 103.598 35.2633 103.029 34.4232C102.056 33.1017 102.098 31.1393 103.146 29.873C103.659 29.1908 104.443 28.7922 105.235 28.5269Z" fill="#ba66d3"/>
  <path d="M123.773 28.5794C124.272 28.4368 124.794 28.4613 125.306 28.4935C125.618 28.5962 125.932 28.6974 126.243 28.8078C126.323 28.8461 126.482 28.9243 126.562 28.9626C127.117 29.3336 127.58 29.8196 127.953 30.3731C128.14 30.8253 128.282 31.2945 128.414 31.7682C128.414 32.0748 128.412 32.383 128.408 32.6911C128.345 32.9027 128.291 33.1173 128.242 33.3335C128.166 33.5282 128.095 33.726 128.021 33.9222C127.637 34.6197 127.056 35.1885 126.372 35.5917C126.013 35.7205 125.651 35.837 125.293 35.9612C124.859 35.9827 124.425 35.9796 123.991 35.9735L124 35.8784C123.77 35.8462 123.546 35.814 123.319 35.7757C122.521 35.3756 121.751 34.8344 121.349 34.008C120.644 32.754 120.779 31.1028 121.65 29.9637C122.081 29.3474 122.745 28.9519 123.419 28.6529C123.508 28.6345 123.686 28.5978 123.773 28.5794Z" fill="#ba66d3"/>
  <path d="M37.638 39.9056C38.1516 38.906 39.0776 38.1088 40.1845 37.8573C40.8498 37.7592 41.5351 37.773 42.1943 37.9125C42.4856 38.0505 42.78 38.187 43.0743 38.3249C43.5021 38.676 43.8884 39.0716 44.2456 39.4947C44.819 40.4437 44.8696 41.5858 44.6642 42.6513C44.3131 43.5574 43.6738 44.3285 42.8444 44.8375C42.619 44.928 42.3952 45.0246 42.1729 45.1273C41.9199 45.1702 41.6654 45.207 41.4125 45.2438C41.1702 45.2346 40.9311 45.2315 40.6904 45.2377C40.4757 45.2101 40.2611 45.184 40.0465 45.1595C39.7889 45.0537 39.5329 44.951 39.2753 44.8513C38.4153 44.3531 37.7836 43.5559 37.4203 42.6375C37.3099 41.9308 37.3145 41.2118 37.3973 40.5019C37.4801 40.3042 37.5598 40.1049 37.638 39.9056Z" fill="#ba66d3"/>
  <path d="M58.5984 37.9017C59.7682 37.6334 61.105 37.8036 62.0218 38.6299C62.2947 38.8093 62.2058 39.1634 62.2303 39.4394C62.2211 40.9234 62.2334 42.409 62.2257 43.8946C62.2855 44.4051 61.7106 44.5936 61.3856 44.8604C61.1295 44.957 60.8751 45.0566 60.6221 45.1609C60.4059 45.187 60.1898 45.2115 59.9767 45.2406C59.7329 45.236 59.4891 45.236 59.2469 45.2437C58.9863 45.2053 58.7272 45.167 58.4696 45.1272C57.2539 44.6657 56.2834 43.637 55.9477 42.3722C55.8956 41.8019 55.8925 41.227 55.9538 40.6582C56.009 40.4942 56.0627 40.3301 56.1133 40.1661C56.5594 39.1006 57.4731 38.2083 58.5984 37.9017Z" fill="#ba66d3"/>
  <path d="M95.8541 37.8512C96.4704 37.7837 97.0913 37.7853 97.7091 37.8481C97.9146 37.9263 98.1231 37.9984 98.3331 38.0719C99.3143 38.5595 100.133 39.4364 100.401 40.5172C100.749 41.7667 100.412 43.2063 99.4798 44.1231C98.7332 44.9417 97.5849 45.3526 96.4903 45.2637C95.2102 45.1748 94.0312 44.3745 93.4502 43.2354C92.8998 42.1668 92.9059 40.8392 93.4609 39.7737C93.8427 39.024 94.5034 38.4491 95.247 38.0719C95.4493 37.9999 95.6517 37.9278 95.8541 37.8512Z" fill="#ba66d3"/>
  <path d="M114.411 37.8529C115.028 37.7885 115.651 37.7808 116.27 37.8467C116.468 37.9203 116.67 37.9893 116.874 38.0552C117.675 38.4385 118.322 39.087 118.76 39.8535C119.11 40.7289 119.24 41.7163 118.946 42.6269C118.617 43.8028 117.632 44.6813 116.531 45.135C115.83 45.2531 115.116 45.2454 114.412 45.178C114.147 45.0691 113.882 44.9633 113.617 44.8622C112.681 44.3164 111.915 43.4241 111.706 42.3418C111.338 40.9098 111.981 39.3584 113.134 38.4692C113.357 38.345 113.58 38.2177 113.808 38.0966C114.007 38.0154 114.208 37.9356 114.411 37.8529Z" fill="#ba66d3"/>
  <path d="M132.84 37.8828C133.582 37.7633 134.34 37.7847 135.086 37.8721C134.701 40.3802 133.866 42.8117 132.78 45.1006C131.864 44.7802 131.103 44.121 130.614 43.287C130.514 43.0294 130.41 42.7719 130.309 42.5174C130.278 42.3027 130.251 42.0896 130.222 41.8765C130.176 41.6312 130.176 41.3814 130.225 41.1361C130.252 40.9199 130.278 40.7022 130.307 40.4845C130.53 39.8774 130.859 39.3178 131.287 38.8303C131.749 38.4301 132.285 38.1343 132.84 37.8828Z" fill="#ba66d3"/>
  <path d="M3.22314 37.8161C3.749 37.7885 4.27791 37.7977 4.80223 37.8483C5.0092 37.9249 5.21923 37.997 5.42927 38.069C6.9501 38.7804 7.91595 40.5235 7.571 42.19C7.39163 43.3889 6.53616 44.3609 5.50899 44.9465C4.40823 42.6959 3.68001 40.2752 3.22314 37.8161Z" fill="#ba66d3"/>
  <path d="M21.5052 37.8529C22.3975 37.7732 23.3541 37.7042 24.1651 38.1611C24.8934 38.5244 25.4437 39.1668 25.8577 39.8551C26.3375 41.0019 26.3421 42.3771 25.6814 43.4548C25.1509 44.2751 24.3353 44.945 23.3695 45.1673C22.7516 45.27 22.12 45.2286 21.4991 45.1719C21.2998 45.0937 21.1005 45.0217 20.8997 44.9511C19.8648 44.4345 19.0247 43.484 18.7993 42.3326C18.4344 40.9053 19.0799 39.3599 20.2266 38.4708C20.4505 38.3466 20.6743 38.2209 20.9012 38.1013C21.102 38.0185 21.3059 37.9388 21.5052 37.8529Z" fill="#ba66d3"/>
  <path d="M77.3037 37.8434C77.917 37.7851 78.5348 37.7866 79.1496 37.848C79.4087 37.9583 79.6708 38.0657 79.9345 38.1714C80.0096 38.2128 80.1583 38.2941 80.2335 38.3339C81.5335 39.1741 82.2556 40.8329 81.8723 42.3476C81.6439 43.4959 80.7976 44.4326 79.7751 44.9569C79.5727 45.0228 79.3703 45.0903 79.171 45.1623C78.9564 45.1884 78.7418 45.2129 78.5287 45.239C78.2864 45.2589 78.0442 45.2804 77.8035 45.2605C77.2179 45.1761 76.6598 44.9722 76.1447 44.6825C76.1171 42.5714 76.114 40.4603 76.1462 38.3508C76.3287 38.2573 76.5111 38.1638 76.6951 38.0718C76.8959 37.9967 77.1014 37.9215 77.3037 37.8434Z" fill="#ba66d3"/>
  <path d="M11.856 47.2676C12.4539 47.1096 13.0687 46.9977 13.6896 47.0591C13.9487 47.1403 14.2109 47.2032 14.473 47.2722C15.6888 47.7413 16.6638 48.8405 16.8539 50.1467C17.1973 51.7749 16.2621 53.4797 14.8011 54.2217C13.9763 54.493 12.8464 54.907 12.1581 54.1573C11.2121 53.2175 10.2172 52.2992 9.45367 51.2015C9.20991 49.5289 10.3045 47.867 11.856 47.2676Z" fill="#ba66d3"/>
  <path d="M31.3016 47.0547C31.6174 47.0501 31.9333 47.0516 32.2506 47.0547C33.4526 47.277 34.5411 48.0098 35.1144 49.1013C35.1896 49.293 35.2616 49.4861 35.3383 49.6793C35.3873 49.894 35.4425 50.1086 35.5038 50.3217C35.5115 50.636 35.5146 50.9503 35.5146 51.2661C35.3981 51.6708 35.2815 52.0771 35.1497 52.4772C34.6928 53.2867 34.0045 53.9429 33.1536 54.3261C32.1556 54.6741 31.0517 54.6358 30.0874 54.2019C29.0633 53.6638 28.3259 52.6918 28.0453 51.5727C27.9549 50.8445 28.0009 50.1055 28.2385 49.4095C28.6402 48.5172 29.3362 47.7859 30.2177 47.3582C30.578 47.254 30.9414 47.1558 31.3016 47.0547Z" fill="#ba66d3"/>
  <path d="M48.6532 47.4237C49.0503 47.2857 49.4535 47.1707 49.8567 47.0542C50.1725 47.0496 50.4899 47.0496 50.8072 47.0542C51.1675 47.1585 51.5309 47.2597 51.8911 47.3654C52.6883 47.7763 53.3506 48.4217 53.7646 49.2205C53.8612 49.5363 53.9623 49.8491 54.0666 50.1633C54.1003 50.6739 54.1187 51.192 53.993 51.6934C53.9501 51.8467 53.9087 52.0031 53.8673 52.1579C53.3859 53.3368 52.3434 54.2092 51.1108 54.5158C50.5512 54.5725 49.984 54.5817 49.429 54.4744C49.3385 54.4468 49.1607 54.3901 49.0702 54.3625C48.0523 53.9761 47.2275 53.1774 46.8227 52.1671C46.7491 51.9111 46.6786 51.6535 46.5989 51.4021C46.5805 50.9912 46.5805 50.5803 46.602 50.171C46.7108 49.8552 46.812 49.5378 46.9101 49.2205C47.3026 48.4631 47.9189 47.8484 48.6532 47.4237Z" fill="#ba66d3"/>
  <path d="M86.9744 47.0606C87.5937 46.9993 88.2054 47.1051 88.8033 47.263C90.1203 47.7843 91.1321 49.0322 91.2333 50.4626C91.4081 52.0018 90.502 53.5104 89.1483 54.2125C88.1732 54.6403 87.0663 54.6648 86.0652 54.3168C84.7575 53.7158 83.7641 52.405 83.7641 50.9348C83.6629 49.3465 84.713 47.8256 86.1925 47.2768C86.4516 47.2047 86.7137 47.1388 86.9744 47.0606Z" fill="#ba66d3"/>
  <path d="M103.613 47.9666C104.426 47.2691 105.532 46.9563 106.592 47.0621C106.805 47.1234 107.024 47.1786 107.243 47.2277C108.528 47.6616 109.568 48.7991 109.762 50.1574C110.116 51.8592 109.075 53.6284 107.512 54.3152C106.507 54.6678 105.398 54.6402 104.422 54.2094C103.549 53.7234 102.805 52.9538 102.511 51.9818C102.037 50.5806 102.485 48.9264 103.613 47.9666Z" fill="#ba66d3"/>
  <path d="M123.11 47.3629C123.766 47.1482 124.446 46.9796 125.144 47.0608C125.356 47.1252 125.57 47.1727 125.789 47.2203C126.751 47.5315 127.533 48.2367 128.026 49.109C128.172 49.5061 128.287 49.9124 128.411 50.3187C128.414 50.6329 128.416 50.9488 128.419 51.2661C128.278 52.2013 127.554 52.8483 126.889 53.4462C126.524 53.8586 126.133 54.3154 125.578 54.458C124.716 54.6864 123.803 54.5423 122.99 54.202C121.696 53.529 120.802 52.1093 120.905 50.6345C120.926 49.2271 121.863 47.9623 123.11 47.3629Z" fill="#ba66d3"/>
  <path d="M21.151 56.5734C21.3181 56.5244 21.4852 56.4738 21.6508 56.4186C22.425 56.3097 23.2192 56.3603 23.9551 56.6363C24.832 57.0656 25.6001 57.7784 25.945 58.709C26.3114 59.5829 26.2516 60.5733 25.9803 61.4655C23.5135 60.9351 21.1296 60.0505 18.8882 58.8976C19.2653 57.8413 20.1085 56.9843 21.151 56.5734Z" fill="#ba66d3"/>
  <path d="M39.6002 56.6101C40.6121 56.259 41.7297 56.2882 42.714 56.7098C43.4866 57.1498 44.1229 57.8075 44.5245 58.6016C44.8097 59.3881 44.8066 60.2359 44.7085 61.0576C44.6227 61.2584 44.546 61.4624 44.4709 61.6663C44.3268 61.8855 44.2563 62.2519 43.9144 62.1737C41.9091 62.1814 39.9007 62.189 37.8954 62.1676C37.8035 61.9974 37.713 61.8303 37.6241 61.6617C37.5474 61.4654 37.4708 61.2707 37.3926 61.076C37.3359 60.4735 37.2991 59.8618 37.3834 59.2593C37.4968 58.6629 37.8219 58.1325 38.1837 57.6557C38.5991 57.2356 39.0683 56.8707 39.6002 56.6101Z" fill="#ba66d3"/>
  <path d="M76.4912 56.7187C77.296 56.3983 78.1653 56.2879 79.0254 56.4121C80.3714 56.7662 81.5611 57.821 81.8585 59.21C82.1314 60.2141 81.8938 61.2934 81.3649 62.1719C79.6217 62.1765 77.8771 62.1995 76.134 62.1596C76.1248 60.5146 76.1232 58.8681 76.1309 57.2215C76.0864 56.9701 76.3394 56.8628 76.4912 56.7187Z" fill="#ba66d3"/>
  <path d="M93.116 59.3526C93.4058 57.703 94.9542 56.3845 96.6283 56.3646C98.2396 56.2511 99.8325 57.3366 100.332 58.8697C100.722 59.9612 100.533 61.1923 99.9383 62.1735C97.8364 62.1842 95.7361 62.1842 93.6357 62.1719C93.1405 61.3303 92.8998 60.3169 93.116 59.3526Z" fill="#ba66d3"/>
  <path d="M114.061 56.5727C114.227 56.5237 114.394 56.4731 114.559 56.4164C115.754 56.2201 117.063 56.4976 117.94 57.3715C118.461 57.8345 118.788 58.4676 118.998 59.1238C116.755 60.2537 114.356 61.0678 111.896 61.5706C111.588 60.7458 111.492 59.8321 111.777 58.9858C112.103 57.8789 112.999 56.9928 114.061 56.5727Z" fill="#ba66d3"/>
  <path d="M57.9561 56.7116C58.7472 56.3682 59.6149 56.3038 60.4642 56.4127C61.0989 56.615 61.7045 56.9109 62.2089 57.354C62.2472 58.9576 62.2227 60.5612 62.2227 62.1648C60.4029 62.1955 58.5816 62.1771 56.7603 62.1771C56.538 62.2093 56.4153 62.0054 56.2727 61.8797C55.9079 61.0349 55.8282 60.1105 55.9585 59.206C56.0336 59.0036 56.1056 58.7997 56.1762 58.5973C56.5426 57.7894 57.1987 57.1547 57.9561 56.7116Z" fill="#ba66d3"/>
  <path d="M37.3344 78.8304C37.2608 77.8354 37.5858 76.7684 38.3523 76.1015C40.1583 76.0509 41.9705 76.0862 43.778 76.0862C44.0033 76.3652 44.2103 76.658 44.4096 76.9585C44.5077 77.2253 44.6089 77.4905 44.7162 77.7557C44.7775 78.3705 44.7791 78.9883 44.7162 79.6046C44.6058 79.8683 44.5016 80.1351 44.405 80.4064C43.7749 81.5409 42.5914 82.3673 41.2775 82.4225C39.2799 82.6003 37.2639 80.8771 37.3344 78.8304Z" fill="#ba66d3"/>
  <path d="M56.892 76.0864C58.6688 76.071 60.4457 76.0818 62.2225 76.0818C62.2302 77.7161 62.2271 79.3503 62.2287 80.9861C62.3084 81.6086 61.6032 81.8723 61.157 82.1099C59.3924 82.9347 57.1434 82.1206 56.2726 80.3928C56.1714 80.123 56.0702 79.8563 55.9598 79.5926C55.8909 78.9839 55.8909 78.3707 55.9568 77.7636C56.0656 77.4968 56.1729 77.2301 56.2695 76.9602C56.4673 76.6613 56.6727 76.37 56.892 76.0864Z" fill="#ba66d3"/>
  <path d="M76.1278 76.0788C77.739 76.1172 79.3657 76.0068 80.9693 76.1325C81.8309 77.0309 82.1712 78.3938 81.8539 79.5973C81.5319 80.951 80.3698 82.0717 79.0039 82.3431C78.0411 82.5546 76.9848 82.3737 76.1646 81.8264C76.0787 79.9146 76.1523 77.9937 76.1278 76.0788Z" fill="#ba66d3"/>
  <path d="M94.0389 76.0892C95.8725 76.0724 97.706 76.0739 99.5396 76.0892C100.364 77.0336 100.751 78.3643 100.423 79.5923C100.019 81.3799 98.1506 82.6739 96.3324 82.401C94.7257 82.2385 93.3275 80.9047 93.0945 79.3072C92.8752 78.1558 93.28 76.9616 94.0389 76.0892Z" fill="#ba66d3"/>
  <path d="M18.7639 79.4379C20.9838 78.285 23.3448 77.3529 25.8039 76.8623C26.2163 77.8634 26.3757 79.0163 25.9572 80.0435C25.3762 81.6195 23.6392 82.6513 21.9757 82.3968C20.4135 82.2251 19.0951 80.9587 18.7639 79.4379Z" fill="#ba66d3"/>
  <path d="M112.106 76.7485C114.533 77.2299 116.887 78.0747 119.096 79.1846C118.93 80.1382 118.457 81.0443 117.676 81.636C116.511 82.582 114.762 82.6801 113.474 81.9243C112.569 81.3723 111.864 80.4586 111.683 79.4023C111.463 78.4993 111.716 77.5657 112.106 76.7485Z" fill="#ba66d3"/>
  <path d="M12.3695 84.3022C13.4426 84.0661 14.6185 84.3252 15.4832 85.0074C16.3341 85.6467 16.8262 86.6785 16.9212 87.7272C16.9902 89.0395 16.3617 90.4024 15.2302 91.1061C13.7953 92.0704 11.7057 91.8573 10.5022 90.614C9.56699 89.6864 9.18525 88.2392 9.55932 86.9759C9.84448 86.421 10.3397 86.0101 10.7306 85.5318C11.2135 85.0519 11.6397 84.3957 12.3695 84.3022Z" fill="#ba66d3"/>
  <path d="M28.3443 86.3245C28.9591 85.1716 30.1319 84.3054 31.458 84.2303C33.1076 84.0647 34.7174 85.1318 35.3 86.6664C35.4548 87.2628 35.5698 87.8729 35.5039 88.4923C35.4257 88.7437 35.3628 89.0028 35.2954 89.2589C34.7327 90.7996 33.1153 91.8666 31.4703 91.6965C30.1334 91.6413 28.9575 90.7598 28.3412 89.6023C27.889 88.5613 27.8936 87.3639 28.3443 86.3245Z" fill="#ba66d3"/>
  <path d="M48.9429 84.4819C50.312 83.9285 51.9938 84.2642 53.0179 85.3359C53.5284 85.8234 53.8074 86.4872 54.0389 87.1403C54.1049 87.6861 54.1064 88.2365 54.0389 88.7822C53.9194 89.0919 53.8059 89.4062 53.6863 89.719C53.2341 90.461 52.5932 91.1202 51.7684 91.4391C50.3825 91.9987 48.6639 91.6813 47.6337 90.576C47.094 90.0563 46.8227 89.3434 46.6019 88.6458C46.5774 88.1935 46.5758 87.7428 46.6111 87.2921C46.6663 87.1188 46.7169 86.9441 46.7659 86.7693C47.1354 85.7483 47.9173 84.8698 48.9429 84.4819Z" fill="#ba66d3"/>
  <path d="M86.7277 84.2975C88.5935 83.8575 90.6478 85.0963 91.1123 86.9575C91.5876 88.5657 90.8333 90.433 89.3523 91.2317C87.7748 92.147 85.5549 91.7131 84.4909 90.2153C83.6017 89.0394 83.5128 87.3331 84.2625 86.0667C84.7822 85.1607 85.7036 84.4999 86.7277 84.2975Z" fill="#ba66d3"/>
  <path d="M105.278 84.3037C106.35 84.0646 107.524 84.3252 108.387 85.0074C109.166 85.6038 109.673 86.5267 109.795 87.4987C110.001 88.9597 109.241 90.5143 107.941 91.2241C106.455 92.0919 104.39 91.7684 103.264 90.4591C102.42 89.5285 102.124 88.1595 102.46 86.956C102.808 85.6391 103.943 84.572 105.278 84.3037Z" fill="#ba66d3"/>
  <path d="M121.021 87.0034C121.376 85.6006 122.62 84.4723 124.054 84.2684C125.432 84.0231 126.918 84.6363 127.712 85.7923C128.115 86.3028 128.258 86.9482 128.422 87.563C128.449 88.1364 128.34 88.7005 128.205 89.2555C127.845 90.1033 127.247 90.8683 126.413 91.2869C125.093 91.9798 123.353 91.8127 122.225 90.8269C121.756 90.4483 121.432 89.9332 121.152 89.4104C120.906 88.6362 120.796 87.7945 121.021 87.0034Z" fill="#ba66d3"/>
  <path d="M22.0464 93.5223C23.2974 93.3767 24.599 93.9071 25.3809 94.8975C26.5476 96.288 26.4648 98.5402 25.1893 99.8356C24.2556 100.854 22.7302 101.246 21.4133 100.854C19.8894 100.441 18.7457 98.971 18.6982 97.3949C18.5985 95.4908 20.1485 93.6971 22.0464 93.5223Z" fill="#ba66d3"/>
  <path d="M40.3685 93.5668C41.9614 93.2326 43.6386 94.1065 44.3975 95.5231C44.4971 95.7852 44.6014 96.0474 44.7117 96.308C44.7777 96.9274 44.7838 97.5529 44.7148 98.1722C44.6366 98.3715 44.5676 98.5739 44.5002 98.7778C43.8563 100.159 42.3738 101.12 40.8315 100.996C39.3014 100.947 37.9707 99.8387 37.4418 98.4344C37.3744 97.9392 37.2333 97.4456 37.2946 96.9442C37.3682 96.5104 37.4556 96.0765 37.6396 95.6748C37.6488 95.6319 37.6687 95.5476 37.6779 95.5062L37.7423 95.4403C38.3126 94.4897 39.257 93.7416 40.3685 93.5668Z" fill="#ba66d3"/>
  <path d="M58.6367 93.6373C59.7773 93.3092 61.0667 93.5836 61.9865 94.3272C62.3054 94.525 62.2088 94.9297 62.2303 95.244C62.2119 96.8323 62.2548 98.4221 62.2057 100.01C61.1602 100.95 59.5979 101.278 58.281 100.759C57.1327 100.345 56.3125 99.3143 55.9538 98.1722C55.8955 97.5605 55.8894 96.9442 55.963 96.3355C56.0488 96.1224 56.1286 95.9093 56.2098 95.6978C56.6789 94.7089 57.5651 93.9041 58.6367 93.6373Z" fill="#ba66d3"/>
  <path d="M76.1369 94.1065C76.9418 93.6221 77.9169 93.3753 78.8505 93.5577C80.3744 93.7953 81.6699 95.0847 81.9106 96.6101C82.1835 98.0067 81.5472 99.5076 80.3821 100.317C79.1587 101.219 77.4493 101.182 76.1553 100.441C76.0986 98.3302 76.1323 96.2176 76.1369 94.1065Z" fill="#ba66d3"/>
  <path d="M96.3983 93.5192C97.6079 93.3889 98.8666 93.881 99.6408 94.8269C100.899 96.2251 100.812 98.5922 99.4538 99.8953C98.4143 100.987 96.685 101.301 95.3098 100.705C93.8503 100.104 92.8891 98.5125 93.0531 96.9395C93.1619 95.1918 94.6552 93.671 96.3983 93.5192Z" fill="#ba66d3"/>
  <path d="M114.566 93.593C115.886 93.2772 117.35 93.7754 118.216 94.8179C118.641 95.2748 118.858 95.8666 119.056 96.4491C119.163 97.3276 119.119 98.2582 118.665 99.0431C117.88 100.576 115.952 101.364 114.313 100.851C112.54 100.382 111.309 98.4529 111.662 96.6484C111.88 95.1644 113.097 93.8873 114.566 93.593Z" fill="#ba66d3"/>
  <path d="M130.494 95.7007C131.011 94.7057 131.902 93.9147 132.989 93.605C134.045 95.8908 134.773 98.3269 135.19 100.811C133.838 101.243 132.228 100.935 131.258 99.86C130.56 99.2238 130.281 98.2871 130.149 97.3825C130.228 96.8137 130.306 96.2434 130.494 95.7007Z" fill="#ba66d3"/>
  <path d="M3.13721 100.954C3.54808 98.4745 4.24717 96.0323 5.30807 93.7495C6.35057 94.2478 7.24437 95.1584 7.50959 96.3082C7.85914 97.6022 7.45593 99.0739 6.46249 99.9831C5.59936 100.839 4.31769 101.136 3.13721 100.954Z" fill="#ba66d3"/>
  <path d="M10.1634 104.297C10.8993 103.299 12.1457 102.71 13.3844 102.801C14.9973 102.845 16.469 104.098 16.8094 105.668C17.1834 107.079 16.6085 108.683 15.4327 109.548C14.6784 110.124 13.7018 110.345 12.7635 110.313C11.787 110.109 10.8012 109.68 10.2002 108.849C9.17763 107.564 9.15923 105.595 10.1634 104.297Z" fill="#ba66d3"/>
  <path d="M28.4486 104.766C29.0986 103.509 30.5229 102.71 31.9349 102.799C33.4066 102.833 34.7512 103.846 35.274 105.211C35.3537 105.511 35.4257 105.816 35.5116 106.118C35.5131 106.427 35.5116 106.736 35.5024 107.047C35.4411 107.262 35.3874 107.48 35.3414 107.701C34.9183 108.941 33.8528 109.963 32.5481 110.206C31.9287 110.396 31.2848 110.278 30.667 110.155C29.7977 109.847 29.0036 109.287 28.5283 108.484C27.8507 107.374 27.817 105.904 28.4486 104.766Z" fill="#ba66d3"/>
  <path d="M46.8074 105.208C47.3655 103.796 48.7913 102.762 50.3274 102.795C51.8743 102.753 53.3047 103.796 53.8765 105.214C54.0728 105.861 54.1418 106.537 54.0651 107.213C53.9593 107.526 53.8581 107.842 53.757 108.157C53.3568 108.901 52.7528 109.53 52.0016 109.924C51.8099 109.997 51.6183 110.071 51.4297 110.149C49.6866 110.695 47.6966 109.782 46.9178 108.144C46.8258 107.868 46.7292 107.596 46.6265 107.326C46.5775 106.876 46.5729 106.422 46.5989 105.97C46.6741 105.717 46.74 105.462 46.8074 105.208Z" fill="#ba66d3"/>
  <path d="M86.5221 102.917C87.8942 102.541 89.4656 103.009 90.3656 104.123C91.5338 105.448 91.5353 107.608 90.3901 108.95C89.783 109.719 88.8447 110.122 87.9049 110.306C87.6397 110.306 87.376 110.306 87.1123 110.308C86.2032 110.135 85.2972 109.765 84.687 109.042C83.6736 107.918 83.4743 106.17 84.1611 104.832C84.6364 103.904 85.5087 103.177 86.5221 102.917Z" fill="#ba66d3"/>
  <path d="M105.296 102.868C107.156 102.433 109.194 103.65 109.676 105.499C110.218 107.225 109.301 109.257 107.631 109.965C106.034 110.725 103.949 110.147 102.977 108.67C102.232 107.599 102.123 106.137 102.672 104.959C103.159 103.905 104.157 103.104 105.296 102.868Z" fill="#ba66d3"/>
  <path d="M122.867 103.244C124.226 102.485 126.038 102.703 127.183 103.757C127.58 104.107 127.848 104.571 128.11 105.025C128.212 105.389 128.31 105.753 128.419 106.118C128.448 106.647 128.353 107.17 128.255 107.69C127.821 108.933 126.755 109.965 125.441 110.207C124.83 110.399 124.19 110.279 123.582 110.153C123.329 110.048 123.076 109.945 122.823 109.847C121.789 109.218 120.998 108.137 120.916 106.908C120.756 105.441 121.558 103.929 122.867 103.244Z" fill="#ba66d3"/>
  <path d="M3.41919 112.07C3.71968 112.067 4.02016 112.068 4.32065 112.076C5.85221 112.297 7.22893 113.47 7.53861 115.009C7.91729 116.55 7.1814 118.231 5.83995 119.058C4.74992 116.842 3.87145 114.501 3.41919 112.07Z" fill="#ba66d3"/>
  <path d="M21.0101 112.369C22.3025 111.797 23.8524 112.088 24.9256 112.98C26.1904 114.093 26.5461 115.99 25.8531 117.512C25.4116 118.27 24.7738 118.923 23.9689 119.291C23.765 119.361 23.5611 119.433 23.3588 119.513C22.5508 119.591 21.6969 119.636 20.9457 119.271C19.4065 118.621 18.4314 116.848 18.7626 115.203C18.9557 113.954 19.8495 112.852 21.0101 112.369Z" fill="#ba66d3"/>
  <path d="M39.568 112.357C40.3744 112.07 41.2406 111.979 42.0746 112.211C42.2693 112.283 42.4671 112.355 42.6664 112.427C43.6506 112.927 44.3666 113.828 44.7131 114.869C44.7851 115.648 44.825 116.455 44.5674 117.209C44.1458 118.161 43.3685 118.957 42.3996 119.355C42.234 119.403 42.07 119.455 41.9075 119.515C41.3418 119.574 40.7699 119.578 40.2042 119.516C40.0371 119.458 39.87 119.404 39.7014 119.355C39.1127 119.122 38.619 118.717 38.1775 118.271C38.0257 118.06 37.8755 117.848 37.7283 117.635C37.621 117.373 37.5106 117.115 37.3971 116.859C37.3189 116.191 37.322 115.518 37.391 114.851C37.7436 113.761 38.524 112.84 39.568 112.357Z" fill="#ba66d3"/>
  <path d="M59.2269 112.089C59.8632 111.999 60.4871 112.169 61.0896 112.358C61.1816 112.405 61.3641 112.502 61.456 112.551C60.9271 114.978 60.0211 117.31 58.8973 119.52C57.4715 119.26 56.3401 118.101 55.9507 116.729C55.8327 115.724 55.8832 114.648 56.4811 113.793C56.9702 113.037 57.7322 112.494 58.5815 112.211C58.7961 112.172 59.0123 112.134 59.2269 112.089Z" fill="#ba66d3"/>
  <path d="M76.8789 112.306C77.4523 112.116 78.064 112.036 78.668 112.076C79.8838 112.283 81.0106 113.02 81.564 114.139C82.2493 115.463 82.0485 117.187 81.0489 118.299C80.6212 118.817 80.0218 119.139 79.4254 119.421C79.0789 118.76 78.7309 118.096 78.4933 117.388C78.0119 116.433 77.6945 115.406 77.3741 114.389C77.1901 113.701 76.9387 113.02 76.8789 112.306Z" fill="#ba66d3"/>
  <path d="M96.3463 112.076C96.6392 112.067 96.9335 112.067 97.2279 112.076C98.1845 112.252 99.0998 112.698 99.7038 113.48C100.645 114.602 100.792 116.298 100.11 117.587C99.7651 118.283 99.158 118.806 98.5019 119.199C98.232 119.295 97.9668 119.398 97.7047 119.51C97.093 119.579 96.4751 119.577 95.8649 119.508C95.658 119.422 95.4495 119.341 95.244 119.264C94.2506 118.8 93.4457 117.912 93.1744 116.841C92.8049 115.524 93.2066 114.011 94.2353 113.095C94.7918 112.51 95.5767 112.241 96.3463 112.076Z" fill="#ba66d3"/>
  <path d="M111.734 114.892C112.148 113.112 113.983 111.902 115.778 112.07C117.158 112.272 118.389 113.212 118.89 114.521C118.938 114.691 118.99 114.861 119.048 115.032C119.156 115.827 119.13 116.663 118.778 117.4C118.441 118.182 117.787 118.78 117.064 119.211C116.795 119.304 116.526 119.404 116.263 119.511C115.456 119.591 114.601 119.635 113.853 119.269C112.206 118.584 111.231 116.615 111.734 114.892Z" fill="#ba66d3"/>
  <path d="M132.468 112.356C133.075 112.188 133.702 111.979 134.339 112.108C134.533 112.142 134.727 112.169 134.927 112.201C134.401 114.661 133.553 117.058 132.383 119.286C131.621 118.86 130.956 118.249 130.547 117.472C130.468 117.27 130.392 117.069 130.314 116.871C130.283 116.655 130.255 116.442 130.226 116.23C130.191 115.987 130.173 115.744 130.18 115.502C130.245 115.245 130.291 114.986 130.347 114.73C130.404 114.572 130.461 114.415 130.519 114.26C130.936 113.425 131.632 112.764 132.468 112.356Z" fill="#ba66d3"/>
  <path d="M12.3328 121.431C12.8387 121.369 13.3492 121.365 13.8567 121.405C14.1679 121.51 14.4807 121.616 14.7934 121.717C15.862 122.28 16.7036 123.312 16.8646 124.529C17.2448 126.441 15.8374 128.491 13.9057 128.802C13.8996 128.836 13.8858 128.905 13.8782 128.938C12.1902 127.779 10.769 126.245 9.48584 124.659C9.55943 123.094 10.8748 121.837 12.3328 121.431Z" fill="#ba66d3"/>
  <path d="M49.7034 121.4C50.3779 121.323 51.0525 121.409 51.7025 121.599C52.3035 121.894 52.8615 122.282 53.3061 122.787C53.4978 123.105 53.6817 123.427 53.855 123.756C53.9224 124.009 53.9884 124.264 54.0681 124.517C54.0926 124.935 54.0895 125.357 54.0742 125.78C53.9485 126.226 53.7553 126.663 53.3997 126.974C52.6806 127.655 51.9938 128.408 51.1 128.863C50.6401 128.886 50.1786 128.892 49.7172 128.872C49.4121 128.763 49.1024 128.665 48.7958 128.563C48.6854 128.509 48.575 128.46 48.4662 128.411C47.8054 127.989 47.2673 127.405 46.907 126.709C46.8073 126.392 46.7077 126.074 46.6004 125.76C46.5789 125.349 46.5774 124.937 46.5988 124.528C46.6816 124.271 46.7522 124.011 46.8288 123.755C47.1968 122.855 47.8958 122.134 48.7605 121.699C49.0748 121.599 49.3891 121.501 49.7034 121.4Z" fill="#ba66d3"/>
  <path d="M86.6863 121.432C87.2306 121.359 87.784 121.36 88.3298 121.434C88.6395 121.553 88.9522 121.668 89.2634 121.793C90.3581 122.409 91.1537 123.551 91.2365 124.819C91.4082 126.469 90.3458 128.091 88.8066 128.672C88.5552 128.733 88.3022 128.797 88.0554 128.874C87.6752 128.86 87.2352 128.995 86.9147 128.727C85.9627 128.005 85.1287 127.142 84.2885 126.297C84.0647 126.049 83.7673 125.806 83.7596 125.444C83.6155 123.916 84.5063 122.401 85.8738 121.722C86.1451 121.629 86.415 121.532 86.6863 121.432Z" fill="#ba66d3"/>
  <path d="M105.231 121.435C105.778 121.363 106.333 121.357 106.883 121.431C107.151 121.529 107.423 121.626 107.696 121.719C108.757 122.277 109.603 123.297 109.767 124.506C110.083 126.082 109.206 127.726 107.815 128.486C107.42 128.638 107.013 128.759 106.61 128.883C106.245 128.888 105.882 128.886 105.52 128.871C105.267 128.793 105.013 128.73 104.758 128.669C103.907 128.301 103.142 127.692 102.735 126.846C102.025 125.49 102.256 123.712 103.303 122.596C103.805 122.012 104.518 121.684 105.231 121.435Z" fill="#ba66d3"/>
  <path d="M123.786 121.468C124.284 121.351 124.799 121.367 125.306 121.403C125.553 121.485 125.805 121.56 126.054 121.644C126.222 121.716 126.39 121.793 126.562 121.868C127.552 122.489 128.21 123.519 128.406 124.666C128.411 124.798 128.42 125.06 128.425 125.19C127.368 126.486 126.148 127.638 124.869 128.71C124.636 128.938 124.29 128.86 123.997 128.902L124.003 128.788C123.77 128.754 123.542 128.721 123.315 128.681C122.945 128.474 122.584 128.259 122.225 128.037C121.432 127.287 120.86 126.246 120.902 125.13C120.865 123.594 121.898 122.165 123.31 121.603C123.467 121.557 123.626 121.512 123.786 121.468Z" fill="#ba66d3"/>
  <path d="M30.4049 121.6C31.0932 121.385 31.8169 121.317 32.5298 121.426C32.7398 121.495 32.9514 121.566 33.1645 121.633C34.0536 122.012 34.7573 122.723 35.1973 123.577C35.3047 123.939 35.4043 124.302 35.5086 124.667C35.5132 124.982 35.5132 125.294 35.5116 125.612C35.3828 126.079 35.2326 126.539 35.0471 126.988C34.6745 127.545 34.1993 128.025 33.6489 128.41C33.2748 128.558 32.8962 128.701 32.519 128.845C32.0714 128.891 31.6191 128.892 31.1699 128.871C30.9154 128.788 30.6578 128.719 30.4003 128.649C29.3869 128.242 28.5943 127.415 28.1942 126.404C27.8523 125.303 27.9473 124.048 28.605 123.082C29.0098 122.389 29.7012 121.943 30.4049 121.6Z" fill="#ba66d3"/>
  <path d="M21.5037 130.761C22.1216 130.692 22.7455 130.688 23.3649 130.757C23.5657 130.829 23.7696 130.896 23.9736 130.963C25.4576 131.644 26.3989 133.271 26.195 134.904C23.7834 134.382 21.4179 133.585 19.2317 132.435C19.6763 131.84 20.2267 131.324 20.8982 130.999C21.1005 130.921 21.3029 130.842 21.5037 130.761Z" fill="#ba66d3"/>
  <path d="M37.7223 132.635C38.3984 131.511 39.6202 130.629 40.977 130.704C42.1176 130.605 43.1893 131.186 43.9405 132.009C44.1643 132.328 44.3652 132.661 44.5399 133.01C42.2679 134.06 39.841 134.753 37.3758 135.17C37.3605 135.039 37.3451 134.908 37.3313 134.781C37.3344 134.537 37.3283 134.293 37.3252 134.054C37.3559 133.798 37.3927 133.547 37.4371 133.297C37.5352 133.076 37.6303 132.855 37.7223 132.635Z" fill="#ba66d3"/>
  <path d="M95.8541 130.756C96.4735 130.69 97.0974 130.692 97.7168 130.756C97.979 130.861 98.2442 130.962 98.511 131.06C99.9352 131.826 100.771 133.481 100.499 135.084C98.0372 134.643 95.6333 133.879 93.3674 132.818C93.7906 132.03 94.4375 131.371 95.2485 130.983C95.4509 130.908 95.6517 130.835 95.8541 130.756Z" fill="#ba66d3"/>
  <path d="M114.418 130.758C115.191 130.691 115.996 130.635 116.74 130.911C116.821 130.947 116.985 131.019 117.068 131.054C117.69 131.399 118.179 131.923 118.624 132.47C118.628 132.527 118.639 132.639 118.644 132.694C116.454 133.749 114.129 134.509 111.748 134.997C111.711 134.959 111.637 134.88 111.601 134.842C111.509 133.519 112.067 132.181 113.138 131.382C113.305 131.284 113.469 131.183 113.638 131.085C113.897 130.974 114.158 130.868 114.418 130.758Z" fill="#ba66d3"/>
</svg>