<svg xmlns="http://www.w3.org/2000/svg" width="152" height="152" viewBox="0 0 152 152" fill="none">
  <path d="M75.2548 0.543167C76.5753 0.345601 78.0663 0.549921 79.0136 1.5749C80.3121 2.64378 80.7275 4.5654 80.096 6.10541C79.4003 7.98144 77.2 9.15501 75.2598 8.61466C73.4834 8.20771 72.1005 6.48365 72.1275 4.65321C72.0515 3.08619 73.0157 1.61374 74.3716 0.880886C74.6671 0.772816 74.9626 0.664746 75.2548 0.543167Z" fill="#ba66d3" fill-opacity="0.16"/>
  <path d="M64.7718 10.859C65.5064 10.707 66.2713 10.5871 67.0008 10.8252C68.789 11.2187 70.1753 12.9461 70.1449 14.7816C70.1753 15.4334 69.971 16.0582 69.7481 16.661C69.0203 18.0355 67.5445 19.0098 65.9673 18.9575C64.3581 18.9845 62.8772 17.941 62.2068 16.504C62.0903 16.1038 61.9823 15.7019 61.8657 15.3017C61.8337 14.7141 61.9383 14.1349 62.0481 13.5607C62.4888 12.2994 63.5037 11.2828 64.7718 10.859Z" fill="#ba66d3" fill-opacity="0.16"/>
  <path d="M83.4562 11.995C84.3225 11.0409 85.6548 10.6154 86.9212 10.6779C88.2704 10.8872 89.4744 11.7197 90.1465 12.9068C90.7138 13.9926 90.7577 15.3316 90.2799 16.4579C89.6855 17.8544 88.2789 18.8844 86.7507 18.9503C85.3779 19.0651 83.9831 18.4201 83.1709 17.3107C81.9855 15.769 82.102 13.3982 83.4562 11.995Z" fill="#ba66d3" fill-opacity="0.16"/>
  <path d="M54.306 21.1981C55.8021 20.6307 57.6376 20.9887 58.7301 22.1826C59.2012 22.6098 59.4832 23.1839 59.7416 23.753C59.7922 24.0333 59.8378 24.3153 59.8902 24.5956C60.0337 25.2896 59.8041 25.9785 59.6285 26.6438C59.0543 27.8917 57.9044 28.9049 56.5231 29.1227C54.767 29.4891 52.918 28.5283 52.0872 26.9647C51.9774 26.6692 51.8609 26.377 51.7393 26.0883C51.665 25.4095 51.6617 24.7256 51.7359 24.0468C51.8221 23.8273 51.8981 23.6044 51.9791 23.3832C52.4536 22.4055 53.2726 21.5696 54.306 21.1981Z" fill="#ba66d3" fill-opacity="0.16"/>
  <path d="M72.4482 23.4271C72.9852 22.1252 74.2415 21.1644 75.6363 20.9753C76.8757 20.7997 78.208 21.1813 79.0979 22.0779C80.1736 23.0607 80.6379 24.6598 80.2563 26.0664C79.9 27.554 78.6319 28.7918 77.129 29.094C75.7579 29.4115 74.2331 28.964 73.274 27.9289C72.7167 27.3919 72.4128 26.6658 72.1781 25.9431C72.0919 25.0988 72.0852 24.214 72.4482 23.4271Z" fill="#ba66d3" fill-opacity="0.16"/>
  <path d="M96.1156 20.9732C98.5522 20.5392 101.009 22.7766 100.834 25.2335C100.79 27.1315 99.2682 28.8623 97.3888 29.1359C95.7644 29.4415 94.0487 28.631 93.1893 27.2345C92.5527 26.1944 92.4007 24.8705 92.7992 23.7172C93.272 22.2751 94.6094 21.1657 96.1156 20.9732Z" fill="#ba66d3" fill-opacity="0.16"/>
  <path d="M41.7934 33.4915C42.4722 32.1609 43.8534 31.1967 45.3681 31.1713C47.0094 31.0616 48.5832 32.0578 49.3026 33.5151C49.4072 33.8106 49.5103 34.1078 49.6217 34.4016C49.6909 34.9403 49.6926 35.4874 49.647 36.0294C49.5862 36.2202 49.5305 36.4127 49.4799 36.6069C48.9699 38.0709 47.6292 39.2175 46.074 39.383C44.3921 39.6329 42.6579 38.7109 41.8677 37.2182C41.7782 37.0105 41.692 36.8011 41.6026 36.5951C41.5806 36.5005 41.5384 36.3131 41.5164 36.2202C41.3526 35.6259 41.3949 35.0045 41.4641 34.3999C41.5823 34.0994 41.687 33.7954 41.7934 33.4915Z" fill="#ba66d3" fill-opacity="0.16"/>
  <path d="M64.1809 31.5808C65.8003 30.7754 67.9347 31.1654 69.1133 32.5551C70.2396 33.7608 70.4186 35.625 69.7601 37.1059C69.1032 38.3183 67.8975 39.2572 66.4994 39.3889C64.6352 39.654 62.7591 38.4652 62.1057 36.7175C61.8034 35.7871 61.8017 34.7959 62.1006 33.8638C62.516 32.8996 63.21 32.0283 64.1809 31.5808Z" fill="#ba66d3" fill-opacity="0.16"/>
  <path d="M85.4706 31.2863C86.6543 31.0009 87.9714 31.2322 88.9474 31.9752C89.915 32.6794 90.5415 33.8293 90.6006 35.0248C90.7019 36.3588 90.1007 37.7148 89.0437 38.5321C87.7958 39.5452 85.9468 39.6972 84.5334 38.9441C82.9124 38.12 82.014 36.1258 82.4581 34.3663C82.7621 32.8719 83.988 31.6291 85.4706 31.2863Z" fill="#ba66d3" fill-opacity="0.16"/>
  <path d="M105.906 31.2904C107.117 31.0033 108.523 31.2042 109.462 32.0739C109.962 32.5382 110.475 33.0313 110.741 33.673C111.291 35.0019 111.119 36.6179 110.244 37.7695C109.342 39.0123 107.696 39.6405 106.193 39.35C104.935 39.1406 103.812 38.2947 103.242 37.1565C102.659 36.0066 102.659 34.5848 103.236 33.4332C103.757 32.3744 104.761 31.574 105.906 31.2904Z" fill="#ba66d3" fill-opacity="0.16"/>
  <path d="M32.6192 42.3813C33.8502 41.2837 35.7617 41.0844 37.2156 41.8477C37.9872 42.2276 38.5681 42.8963 39.0055 43.6224C39.1135 43.9145 39.2233 44.2049 39.3466 44.492C39.4242 45.1708 39.4242 45.8547 39.3499 46.5318C39.2604 46.753 39.1811 46.9793 39.1 47.2022C38.4026 48.7338 36.7546 49.7722 35.0643 49.6405C33.3892 49.5797 31.9201 48.3724 31.346 46.829C31.2953 46.5504 31.2481 46.2701 31.1923 45.9915C31.1501 45.6706 31.1518 45.3481 31.1569 45.0256C31.3629 44.0192 31.8036 43.0398 32.6192 42.3813Z" fill="#ba66d3" fill-opacity="0.16"/>
  <path d="M53.6441 41.9726C55.1554 41.0506 57.2679 41.2313 58.5546 42.4639C59.5357 43.3217 60.071 44.698 59.8818 45.988C59.8345 46.2667 59.7923 46.5487 59.7434 46.829C59.1777 48.3183 57.7947 49.5071 56.177 49.627C54.4361 49.833 52.7019 48.7844 51.9843 47.2038C51.9015 46.9792 51.8238 46.7547 51.736 46.5335C51.6617 45.8496 51.6685 45.1623 51.7343 44.4784C52.089 43.4703 52.7002 42.518 53.6441 41.9726Z" fill="#ba66d3" fill-opacity="0.16"/>
  <path d="M95.4453 41.5834C97.4057 40.9063 99.7292 41.9802 100.508 43.8951C101.158 45.4013 100.829 47.2976 99.6296 48.4357C98.5219 49.5958 96.705 49.9538 95.2224 49.3746C93.4882 48.7464 92.3484 46.8451 92.6101 45.0197C92.7739 43.451 93.9424 42.0478 95.4453 41.5834Z" fill="#ba66d3" fill-opacity="0.16"/>
  <path d="M116.009 41.5538C117.206 41.2178 118.621 41.3832 119.584 42.214C120.168 42.7544 120.798 43.3217 121.048 44.1053C121.586 45.5777 121.22 47.3541 120.082 48.4483C118.991 49.5746 117.221 49.9394 115.757 49.4024C113.923 48.7742 112.713 46.7344 113.091 44.8246C113.326 43.2947 114.521 41.9675 116.009 41.5538Z" fill="#ba66d3" fill-opacity="0.16"/>
  <path d="M106.085 51.7027C107.058 51.5102 108.106 51.647 108.969 52.1468C110.153 52.8071 110.979 54.0904 111.036 55.4514C111.19 57.037 110.317 58.658 108.9 59.3892C107.257 60.3112 105.04 59.8958 103.816 58.4757C102.992 57.5402 102.64 56.2197 102.873 54.9972C103.142 53.3829 104.478 52.0117 106.085 51.7027Z" fill="#ba66d3" fill-opacity="0.16"/>
  <path d="M41.645 54.2977C42.2765 52.6732 43.9482 51.5132 45.7077 51.6212C47.3558 51.6499 48.8384 52.783 49.4412 54.2943C49.4868 54.4682 49.5324 54.6421 49.5797 54.8161C49.7232 55.3885 49.6759 55.9829 49.6591 56.5671L49.5814 56.5722C49.5037 56.8947 49.4142 57.2139 49.3163 57.5313C48.705 58.639 47.6682 59.5627 46.3916 59.7839C44.5646 60.2331 42.599 59.1861 41.7784 57.5263C41.6669 57.1801 41.5538 56.8356 41.4356 56.4928C41.4018 55.9339 41.3664 55.3632 41.5082 54.8144C41.5538 54.6421 41.5994 54.4699 41.645 54.2977Z" fill="#ba66d3" fill-opacity="0.16"/>
  <path d="M13.783 61.9842C15.1929 61.5772 16.8089 62.0331 17.8035 63.1122C18.6377 63.9311 19.0412 65.1351 18.9518 66.2935C18.869 67.9247 17.6904 69.4241 16.1318 69.9054C15.4293 70.162 14.6712 70.1013 13.9417 70.0455C12.937 69.7551 11.9998 69.181 11.4122 68.2995C10.7502 67.3303 10.5273 66.0655 10.8431 64.9325C11.1943 63.5191 12.3679 62.3388 13.783 61.9842Z" fill="#ba66d3" fill-opacity="0.16"/>
  <path d="M75.1179 61.9996C76.5195 61.5792 78.1422 62.0013 79.1587 63.0567C80.2175 64.0715 80.6464 65.6926 80.2293 67.0992C79.9017 68.3724 78.8835 69.3788 77.6897 69.8769C76.3827 70.2856 74.8714 70.1488 73.7671 69.2961C72.4702 68.3538 71.891 66.6551 72.1899 65.0982C72.2507 64.9142 72.303 64.7284 72.3554 64.5427C72.84 63.3471 73.8532 62.3323 75.1179 61.9996Z" fill="#ba66d3" fill-opacity="0.16"/>
  <path d="M137.216 61.8359C138.234 61.8004 139.345 62.0031 140.105 62.7325C140.652 63.2594 141.257 63.7913 141.503 64.5343C141.826 65.3026 141.741 66.157 141.684 66.9658C141.564 67.2546 141.459 67.5484 141.355 67.8422C140.914 68.6224 140.255 69.2691 139.475 69.7081C139.173 69.8128 138.874 69.9192 138.579 70.0357C137.956 70.1066 137.329 70.1049 136.708 70.0425C135.855 69.7942 135.09 69.3299 134.484 68.6831C134.151 68.2509 133.886 67.7747 133.675 67.2732C133.609 66.9878 133.572 66.6974 133.496 66.417C133.493 66.1502 133.466 65.8851 133.474 65.6183C133.57 65.2029 133.677 64.7909 133.793 64.3823C134.404 63.0078 135.725 62.0284 137.216 61.8359Z" fill="#ba66d3" fill-opacity="0.16"/>
  <path d="M3.68012 72.1535C4.60209 71.9981 5.54771 72.0944 6.41058 72.4591C7.56727 73.0923 8.50444 74.2102 8.67668 75.5459C9.06168 77.5013 7.7851 79.5546 5.90231 80.1608C5.66084 80.2132 5.42106 80.2756 5.18466 80.3449C4.50078 80.4175 3.82365 80.2993 3.1651 80.1186C1.71628 79.5462 0.605184 78.1683 0.497114 76.5962C0.302926 74.9076 1.29582 73.2426 2.79023 72.4777C3.08742 72.373 3.38462 72.2666 3.68012 72.1535Z" fill="#ba66d3" fill-opacity="0.16"/>
  <path d="M22.5974 72.8979C23.7355 72.0249 25.2839 71.8797 26.6179 72.3441C27.2697 72.6852 27.9148 73.0904 28.3504 73.6983C28.8249 74.2826 29.0259 75.0205 29.2167 75.7331C29.2825 77.0063 28.8773 78.347 27.9131 79.2183C27.3052 79.8465 26.4592 80.1386 25.6335 80.3548C24.9428 80.4071 24.259 80.299 23.5987 80.1032C22.3069 79.5865 21.3411 78.4517 20.9983 77.1093C20.7129 75.5473 21.2921 73.8368 22.5974 72.8979Z" fill="#ba66d3" fill-opacity="0.16"/>
  <path d="M64.4629 72.3446C65.2734 72.0795 66.1329 72.0204 66.9755 72.1571C67.9937 72.4898 68.9731 73.0808 69.5219 74.0315C70.1129 74.9349 70.2362 76.0477 70.0859 77.0963C69.7448 78.4404 68.7874 79.5887 67.4888 80.0986C66.8286 80.2962 66.1447 80.4059 65.4541 80.357C64.6706 80.1442 63.8583 79.8842 63.2623 79.305C62.6898 78.8187 62.3217 78.1534 62.0448 77.4678C61.9401 76.8937 61.8303 76.3162 61.8675 75.7302C61.9857 75.33 62.0938 74.9264 62.212 74.5262C62.6881 73.5604 63.4835 72.7904 64.4629 72.3446Z" fill="#ba66d3" fill-opacity="0.16"/>
  <path d="M84.6787 72.4553C85.8286 71.9605 87.1508 71.9622 88.2956 72.4722C89.5587 73.1459 90.5161 74.4292 90.5938 75.8848C90.7762 77.6849 89.6212 79.4798 87.9275 80.1012C87.6421 80.1789 87.3568 80.2532 87.0765 80.3444C86.6847 80.3579 86.2929 80.3596 85.9029 80.3461C85.6243 80.26 85.344 80.1907 85.0636 80.1215C83.7077 79.6014 82.6186 78.3755 82.4142 76.9182C82.0546 75.13 83.0795 73.2726 84.6787 72.4553Z" fill="#ba66d3" fill-opacity="0.16"/>
  <path d="M126.441 72.1554C127.361 72.0034 128.307 72.0861 129.172 72.4475C130.051 72.9119 130.759 73.6447 131.205 74.5346C131.821 76.0358 131.563 77.873 130.409 79.0482C129.783 79.771 128.869 80.1289 127.964 80.3518C127.61 80.3552 127.258 80.3603 126.907 80.3552C126.58 80.2606 126.249 80.1796 125.923 80.0901C125.023 79.7102 124.215 79.0736 123.763 78.1938C122.903 76.6724 123.18 74.6224 124.396 73.3695C124.937 72.765 125.69 72.4222 126.441 72.1554Z" fill="#ba66d3" fill-opacity="0.16"/>
  <path d="M146.892 72.1705C147.728 72.0101 148.589 72.081 149.399 72.336C150.385 72.878 151.236 73.7037 151.746 74.7135C151.819 74.9972 151.893 75.2826 151.983 75.5646C152.006 76.0171 152.005 76.4696 151.983 76.9239C151.863 77.265 151.75 77.6078 151.635 77.9522C151.594 78.0383 151.512 78.2123 151.47 78.2984C150.789 79.3926 149.659 80.1322 148.393 80.3534C148.043 80.3602 147.696 80.3551 147.348 80.3534C146.902 80.2251 146.459 80.1001 146.02 79.9532C145.207 79.4838 144.526 78.8067 144.094 77.9708C143.981 77.6263 143.871 77.2785 143.759 76.9357C143.452 75.0394 144.55 73.0469 146.353 72.3512C146.53 72.2921 146.711 72.233 146.892 72.1705Z" fill="#ba66d3" fill-opacity="0.16"/>
  <path d="M13.7746 82.4333C14.1765 82.3979 14.575 82.3574 14.9718 82.2915C15.3501 82.3726 15.7351 82.4165 16.1167 82.4772C17.7226 83.0666 18.9806 84.6218 18.962 86.3712C19.0515 88.281 17.6077 90.1165 15.7385 90.493C15.0917 90.5893 14.4349 90.5437 13.7864 90.4863C13.5669 90.3985 13.3474 90.3174 13.1262 90.2364C11.9357 89.6572 10.9918 88.5393 10.7791 87.2138C10.4008 85.4593 11.3633 83.6137 12.9151 82.766C13.2022 82.6562 13.4893 82.5448 13.7746 82.4333Z" fill="#ba66d3" fill-opacity="0.16"/>
  <path d="M75.9639 82.2935C76.1733 82.3205 76.3827 82.3407 76.5921 82.3829C76.8302 82.4015 77.0683 82.4049 77.3081 82.4285C77.5225 82.513 77.7454 82.589 77.9649 82.6666C79.0963 83.2408 80.0267 84.2759 80.2766 85.5423C80.7393 87.3356 79.7684 89.2826 78.1608 90.1437C77.8721 90.2501 77.5867 90.3649 77.303 90.4865C76.4401 90.5726 75.5486 90.6115 74.7161 90.3278C73.6776 89.8499 72.7657 89.0039 72.3807 87.9097C71.8151 86.4086 72.1832 84.5612 73.3922 83.4755C74.0592 82.7561 75.0183 82.437 75.9639 82.2935Z" fill="#ba66d3" fill-opacity="0.16"/>
  <path d="M136.416 82.457C137.238 82.3286 138.077 82.332 138.9 82.4637C139.389 82.7018 139.87 82.9602 140.316 83.2793C140.804 83.7758 141.242 84.3279 141.519 84.973C141.777 85.7582 141.768 86.5923 141.682 87.4062C141.618 87.5835 141.557 87.7625 141.503 87.9449C141.243 88.5984 140.792 89.1404 140.303 89.6335C139.789 90.0084 139.229 90.3377 138.606 90.4812C137.883 90.5943 137.145 90.5538 136.424 90.4559C135.12 89.9678 134.033 88.9344 133.629 87.5819C133.591 87.3488 133.569 87.1141 133.531 86.8845C133.493 86.6059 133.477 86.3255 133.469 86.0469C133.697 84.4056 134.854 83.0024 136.416 82.457Z" fill="#ba66d3" fill-opacity="0.16"/>
  <path d="M44.7839 92.5601C45.2618 92.5517 45.7396 92.5466 46.2175 92.5719C46.5671 92.6901 46.9183 92.7999 47.2729 92.9063C48.2151 93.3875 48.9851 94.1744 49.3988 95.1521C49.4833 95.4341 49.5626 95.7161 49.6555 95.9964C49.6791 96.4473 49.6808 96.8981 49.6572 97.3507C49.5694 97.6293 49.4934 97.9113 49.414 98.195C49.23 98.5563 49.0257 98.9075 48.8196 99.2588C48.3384 99.8228 47.7187 100.245 47.0584 100.573C46.0757 100.902 45.0152 100.895 44.0308 100.576C42.9754 100.105 42.1109 99.2706 41.6667 98.1966C41.5908 97.913 41.5182 97.6276 41.4303 97.3507C41.405 96.8998 41.405 96.4489 41.4287 95.9998C41.5452 95.6502 41.6549 95.3007 41.763 94.9495C42.2105 94.063 42.9383 93.3554 43.818 92.8995C44.1372 92.8016 44.458 92.7138 44.7856 92.6462L44.7839 92.5601Z" fill="#ba66d3" fill-opacity="0.16"/>
  <path d="M106.331 92.5648C106.725 92.5479 107.122 92.5462 107.519 92.5631C107.794 92.6442 108.074 92.7134 108.356 92.781C109.756 93.3297 110.872 94.6283 111.019 96.1514C111.291 97.894 110.288 99.6637 108.728 100.44C108.427 100.543 108.126 100.65 107.831 100.763C107.23 100.839 106.622 100.839 106.022 100.758C105.725 100.643 105.426 100.537 105.129 100.434C103.854 99.7768 102.904 98.4817 102.819 97.0311C102.627 95.2243 103.788 93.4361 105.477 92.7995C105.761 92.7202 106.048 92.6526 106.331 92.5648Z" fill="#ba66d3" fill-opacity="0.16"/>
  <path d="M33.8452 103.043C34.0276 102.987 34.21 102.931 34.3906 102.869C35.0171 102.801 35.647 102.808 36.2734 102.872C36.5622 102.99 36.8594 103.09 37.1532 103.2C37.9975 103.674 38.7033 104.393 39.1238 105.27C39.1964 105.496 39.2656 105.724 39.3517 105.949C39.4885 107.023 39.4396 108.174 38.8232 109.105C38.4585 109.726 37.8827 110.175 37.3018 110.585C36.4524 110.942 35.5034 111.231 34.5815 110.994C33.1968 110.781 32.0452 109.772 31.4626 108.524C31.3579 108.117 31.2499 107.71 31.1367 107.308C31.1502 107.031 31.1739 106.757 31.2043 106.486C31.2397 106.246 31.2718 106.006 31.3039 105.77C31.7075 104.547 32.6446 103.519 33.8452 103.043Z" fill="#ba66d3" fill-opacity="0.16"/>
  <path d="M93.5136 104.294C94.0674 103.588 94.878 103.169 95.7071 102.874C96.8013 102.732 97.9715 102.796 98.9171 103.428C100.374 104.318 101.136 106.168 100.734 107.828C100.396 109.525 98.8833 110.819 97.1964 111.067C96.8688 111.075 96.5429 111.075 96.217 111.069C95.0772 110.873 94.0185 110.282 93.3447 109.331C92.2741 107.864 92.3349 105.682 93.5136 104.294Z" fill="#ba66d3" fill-opacity="0.16"/>
  <path d="M114.207 104.035C115.2 102.967 116.743 102.632 118.147 102.877C118.371 102.961 118.599 103.042 118.829 103.124C119.808 103.586 120.646 104.4 121.019 105.43C121.601 106.925 121.238 108.77 120.05 109.869C119.19 110.785 117.885 111.153 116.657 111.067C115.605 110.861 114.599 110.366 113.934 109.503C112.638 107.951 112.755 105.449 114.207 104.035Z" fill="#ba66d3" fill-opacity="0.16"/>
  <path d="M54.8243 102.874C55.8813 102.74 57.0144 102.791 57.933 103.392C58.5426 103.777 59.0255 104.331 59.4291 104.924C59.5338 105.167 59.6317 105.415 59.7465 105.658C59.831 106.202 59.9897 106.749 59.9069 107.305C59.8546 107.536 59.8191 107.774 59.7803 108.012C59.7043 108.225 59.6351 108.443 59.5642 108.659C59.0914 109.572 58.3332 110.309 57.4095 110.758C56.4673 111.082 55.4339 111.21 54.4798 110.854C53.4937 110.56 52.7287 109.814 52.1597 108.983C51.6649 108.048 51.5957 106.979 51.7341 105.947C51.8118 105.726 51.8878 105.505 51.957 105.283C52.4096 104.339 53.1813 103.556 54.1303 103.112C54.3616 103.032 54.5929 102.955 54.8243 102.874Z" fill="#ba66d3" fill-opacity="0.16"/>
  <path d="M44.3315 113.181C44.8533 113.105 45.375 113.012 45.9036 112.997C46.4726 113.149 47.0636 113.264 47.5803 113.559C48.3284 113.971 48.8924 114.645 49.3061 115.38C49.4074 115.685 49.507 115.991 49.6235 116.293C49.7485 117.073 49.6691 117.865 49.4429 118.62C49.0241 119.561 48.347 120.408 47.3997 120.856C46.0251 121.557 44.2639 121.4 43.0414 120.456C42.3997 120.003 41.981 119.319 41.6466 118.625C41.4136 117.869 41.341 117.073 41.4592 116.288C41.5757 115.996 41.6753 115.701 41.7834 115.407C41.8256 115.319 41.9083 115.142 41.9489 115.052C42.5196 114.189 43.3504 113.521 44.3315 113.181Z" fill="#ba66d3" fill-opacity="0.16"/>
  <path d="M65.6382 113.01C67.4146 112.902 69.1809 113.936 69.8648 115.594C69.9222 115.773 69.9813 115.952 70.0438 116.132C70.2464 117.092 70.135 118.089 69.7483 118.989C69.0222 120.366 67.5447 121.347 65.9641 121.288C64.284 121.313 62.7237 120.178 62.131 118.621C62.0415 118.287 61.9638 117.951 61.871 117.62C61.8676 117.281 61.8693 116.943 61.8794 116.607C61.9638 116.328 62.0297 116.041 62.1023 115.761C62.5498 114.554 63.5545 113.598 64.777 113.198C65.0658 113.142 65.3545 113.086 65.6382 113.01Z" fill="#ba66d3" fill-opacity="0.16"/>
  <path d="M86.0685 113.039C87.1746 112.921 88.3228 113.308 89.1739 114.019C90.209 114.89 90.751 116.298 90.5788 117.639C90.4471 119.012 89.5437 120.255 88.3178 120.869C87.2641 121.389 85.9841 121.43 84.895 120.989C83.6437 120.472 82.6745 119.307 82.4364 117.97C82.1257 116.572 82.6424 115.033 83.7062 114.081C84.3546 113.483 85.204 113.157 86.0685 113.039Z" fill="#ba66d3" fill-opacity="0.16"/>
  <path d="M106.663 113.019C108.039 112.953 109.467 113.571 110.269 114.711C110.919 115.587 111.176 116.73 111.004 117.804C110.822 119.17 109.867 120.383 108.618 120.945C107.137 121.604 105.271 121.315 104.104 120.174C102.691 118.9 102.394 116.617 103.397 115.01C104.069 113.853 105.347 113.142 106.663 113.019Z" fill="#ba66d3" fill-opacity="0.16"/>
  <path d="M52.072 125.499C52.8403 124.096 54.3955 123.145 56.0131 123.272C57.6882 123.324 59.1556 124.533 59.7365 126.073C59.7905 126.355 59.8378 126.641 59.8969 126.924C60.0202 127.618 59.8074 128.307 59.6284 128.971C59.0594 130.216 57.9162 131.22 56.5467 131.45C54.7231 131.842 52.766 130.798 52.0095 129.108C51.9234 128.878 51.8322 128.65 51.741 128.426C51.6633 127.747 51.6633 127.063 51.7326 126.386C51.8558 126.092 51.9622 125.795 52.072 125.499Z" fill="#ba66d3" fill-opacity="0.16"/>
  <path d="M96.1173 123.306C97.3837 123.125 98.7397 123.545 99.6313 124.478C100.8 125.592 101.144 127.428 100.548 128.915C99.8795 130.681 97.8903 131.826 96.0261 131.468C94.0285 131.186 92.4699 129.253 92.5797 127.243C92.6067 125.302 94.1872 123.537 96.1173 123.306Z" fill="#ba66d3" fill-opacity="0.16"/>
  <path d="M73.3315 124.456C74.8006 122.929 77.4804 122.864 79.0136 124.331C80.15 125.312 80.6499 126.955 80.2564 128.404C80.0183 129.446 79.304 130.332 78.4226 130.911C76.9282 131.854 74.8225 131.7 73.5189 130.494C72.8418 129.927 72.4331 129.12 72.1832 128.287C71.9587 126.921 72.3065 125.428 73.3315 124.456Z" fill="#ba66d3" fill-opacity="0.16"/>
  <path d="M62.131 136.204C62.5987 134.834 63.8584 133.782 65.287 133.559C66.5635 133.333 67.9516 133.72 68.8769 134.643C69.76 135.461 70.2244 136.687 70.1383 137.884C70.0724 139.371 69.0998 140.754 67.7557 141.372C66.3778 142.007 64.6537 141.83 63.4616 140.881C62.8351 140.423 62.4282 139.743 62.1073 139.052C61.8203 138.124 61.7578 137.119 62.131 136.204Z" fill="#ba66d3" fill-opacity="0.16"/>
  <path d="M85.4739 133.617C86.6948 133.316 88.0592 133.583 89.042 134.38C90.1024 135.192 90.6985 136.555 90.6005 137.887C90.5397 139.083 89.9133 140.228 88.9491 140.933C87.7721 141.833 86.0987 141.994 84.7563 141.383C83.4932 140.825 82.5696 139.581 82.399 138.213C82.0444 136.192 83.4594 134.051 85.4739 133.617Z" fill="#ba66d3" fill-opacity="0.16"/>
  <path d="M75.15 143.865C77.2185 143.238 79.5927 144.549 80.1939 146.614C80.6616 148.039 80.2631 149.719 79.1706 150.758C77.9885 152.011 75.9825 152.321 74.4442 151.573C72.9819 150.891 72.0227 149.282 72.1274 147.669C72.1612 145.922 73.4563 144.292 75.15 143.865Z" fill="#ba66d3" fill-opacity="0.16"/>
  <path d="M75.3196 5.53773C76.5529 5.3532 77.9456 5.54404 78.8303 6.50137C80.0432 7.49972 80.4312 9.29452 79.8413 10.7329C79.1915 12.4851 77.1365 13.5812 75.3243 13.0766C73.6652 12.6965 72.3735 11.0862 72.3987 9.37654C72.3277 7.91293 73.2283 6.53765 74.4947 5.85316C74.7707 5.75222 75.0467 5.65129 75.3196 5.53773Z" fill="#ba66d3"/>
  <path d="M65.5284 15.1731C66.2144 15.0311 66.9289 14.9191 67.6102 15.1415C69.2804 15.509 70.5753 17.1224 70.5469 18.8368C70.5753 19.4456 70.3844 20.0291 70.1763 20.5922C69.4965 21.876 68.1181 22.786 66.645 22.7371C65.142 22.7623 63.7588 21.7877 63.1327 20.4455C63.0238 20.0717 62.9229 19.6964 62.8141 19.3226C62.7841 18.7737 62.8819 18.2327 62.9844 17.6965C63.3961 16.5184 64.3439 15.5689 65.5284 15.1731Z" fill="#ba66d3"/>
  <path d="M82.9798 16.2338C83.7889 15.3427 85.0332 14.9453 86.2161 15.0036C87.4762 15.1992 88.6008 15.9767 89.2285 17.0855C89.7584 18.0996 89.7994 19.3503 89.3531 20.4023C88.7979 21.7066 87.4841 22.6686 86.0568 22.7301C84.7746 22.8374 83.4718 22.2349 82.7132 21.1987C81.6061 19.7588 81.7149 17.5444 82.9798 16.2338Z" fill="#ba66d3"/>
  <path d="M55.7532 24.8292C57.1505 24.2992 58.8649 24.6336 59.8853 25.7486C60.3254 26.1477 60.5887 26.6839 60.83 27.2154C60.8774 27.4772 60.9199 27.7406 60.9688 28.0024C61.1029 28.6506 60.8884 29.2941 60.7244 29.9155C60.1881 31.081 59.1141 32.0273 57.824 32.2308C56.1837 32.573 54.4568 31.6756 53.6808 30.2152C53.5783 29.9392 53.4695 29.6663 53.3559 29.3966C53.2865 28.7626 53.2833 28.1238 53.3527 27.4898C53.4332 27.2848 53.5041 27.0766 53.5798 26.87C54.023 25.9568 54.788 25.1761 55.7532 24.8292Z" fill="#ba66d3"/>
  <path d="M72.6982 26.911C73.1997 25.695 74.3731 24.7976 75.6758 24.621C76.8335 24.4569 78.0779 24.8134 78.909 25.6508C79.9137 26.5687 80.3474 28.0623 79.991 29.3761C79.6582 30.7656 78.4737 31.9216 77.0701 32.2039C75.7894 32.5004 74.3652 32.0825 73.4694 31.1157C72.9489 30.6142 72.6651 29.936 72.4458 29.261C72.3654 28.4724 72.3591 27.6459 72.6982 26.911Z" fill="#ba66d3"/>
  <path d="M94.8036 24.62C97.0795 24.2147 99.3742 26.3044 99.2102 28.5992C99.1692 30.3719 97.7482 31.9885 95.9928 32.244C94.4756 32.5295 92.8732 31.7724 92.0704 30.4681C91.4758 29.4966 91.3339 28.2601 91.7061 27.1829C92.1477 25.836 93.3968 24.7998 94.8036 24.62Z" fill="#ba66d3"/>
  <path d="M44.0664 36.3114C44.7004 35.0686 45.9906 34.1681 47.4053 34.1444C48.9383 34.0419 50.4082 34.9724 51.08 36.3335C51.1778 36.6095 51.274 36.8871 51.3781 37.1615C51.4428 37.6646 51.4444 38.1756 51.4018 38.6819C51.345 38.8601 51.293 39.0399 51.2456 39.2213C50.7693 40.5887 49.5171 41.6596 48.0645 41.8141C46.4937 42.0476 44.8739 41.1864 44.1358 39.7922C44.0522 39.5982 43.9718 39.4027 43.8882 39.2103C43.8677 39.1219 43.8283 38.9469 43.8078 38.8601C43.6548 38.305 43.6942 37.7246 43.7589 37.16C43.8693 36.8792 43.9671 36.5953 44.0664 36.3114Z" fill="#ba66d3"/>
  <path d="M64.9764 34.5271C66.4889 33.7748 68.4825 34.1391 69.5833 35.4371C70.6353 36.5632 70.8025 38.3044 70.1874 39.6876C69.5739 40.82 68.4478 41.6969 67.1419 41.8199C65.4007 42.0675 63.6485 40.9572 63.0381 39.3248C62.7558 38.4558 62.7542 37.53 63.0334 36.6594C63.4214 35.7588 64.0696 34.945 64.9764 34.5271Z" fill="#ba66d3"/>
  <path d="M84.8612 34.2511C85.9668 33.9846 87.197 34.2007 88.1086 34.8946C89.0123 35.5523 89.5975 36.6263 89.6527 37.743C89.7473 38.9889 89.1858 40.2554 88.1985 41.0187C87.033 41.965 85.306 42.107 83.9859 41.4035C82.4719 40.6339 81.6328 38.7713 82.0476 37.1279C82.3315 35.7321 83.4765 34.5713 84.8612 34.2511Z" fill="#ba66d3"/>
  <path d="M103.948 34.2559C105.079 33.9878 106.393 34.1755 107.27 34.9877C107.737 35.4214 108.216 35.882 108.464 36.4813C108.978 37.7225 108.817 39.2319 108 40.3075C107.158 41.4683 105.62 42.055 104.216 41.7837C103.041 41.5881 101.993 40.798 101.459 39.735C100.915 38.6609 100.915 37.3329 101.455 36.2573C101.94 35.2684 102.879 34.5209 103.948 34.2559Z" fill="#ba66d3"/>
  <path d="M35.4979 44.6146C36.6476 43.5895 38.433 43.4034 39.7909 44.1163C40.5116 44.4711 41.0542 45.0957 41.4627 45.7739C41.5636 46.0467 41.6661 46.318 41.7813 46.5861C41.8538 47.2201 41.8538 47.8589 41.7844 48.4913C41.7008 48.6979 41.6267 48.9092 41.551 49.1174C40.8996 50.5479 39.3603 51.5179 37.7816 51.3949C36.217 51.3381 34.8449 50.2104 34.3087 48.7689C34.2614 48.5087 34.2172 48.2468 34.1652 47.9866C34.1257 47.687 34.1273 47.3857 34.132 47.0845C34.3245 46.1445 34.7361 45.2297 35.4979 44.6146Z" fill="#ba66d3"/>
  <path d="M55.1351 44.233C56.5466 43.3719 58.5196 43.5406 59.7214 44.6919C60.6378 45.4931 61.1377 46.7785 60.9611 47.9835C60.9169 48.2437 60.8775 48.5071 60.8318 48.7689C60.3034 50.1599 59.0117 51.2703 57.5008 51.3822C55.8747 51.5747 54.255 50.5952 53.5847 49.119C53.5074 48.9093 53.4349 48.6995 53.3529 48.4929C53.2835 47.8541 53.2898 47.2122 53.3513 46.5735C53.6825 45.6319 54.2534 44.7424 55.1351 44.233Z" fill="#ba66d3"/>
  <path d="M94.1776 43.8688C96.0086 43.2364 98.1788 44.2394 98.9059 46.0279C99.5131 47.4347 99.2055 49.2059 98.0858 50.2689C97.0511 51.3524 95.3541 51.6868 93.9694 51.1458C92.3496 50.5591 91.285 48.7832 91.5295 47.0783C91.6825 45.6131 92.7739 44.3025 94.1776 43.8688Z" fill="#ba66d3"/>
  <path d="M113.384 43.8418C114.502 43.528 115.824 43.6826 116.723 44.4585C117.269 44.9632 117.857 45.4931 118.09 46.2249C118.594 47.6002 118.251 49.2594 117.188 50.2814C116.17 51.3334 114.517 51.674 113.149 51.1725C111.436 50.5858 110.306 48.6806 110.659 46.8968C110.878 45.4679 111.995 44.2283 113.384 43.8418Z" fill="#ba66d3"/>
  <path d="M104.115 53.3212C105.024 53.1414 106.003 53.2692 106.809 53.736C107.915 54.3527 108.686 55.5513 108.739 56.8225C108.883 58.3035 108.068 59.8175 106.744 60.5005C105.21 61.3616 103.139 60.9736 101.996 59.6472C101.226 58.7735 100.898 57.5401 101.116 56.3983C101.366 54.8905 102.614 53.6098 104.115 53.3212Z" fill="#ba66d3"/>
  <path d="M43.9277 55.7456C44.5176 54.2283 46.079 53.1448 47.7224 53.2458C49.2617 53.2726 50.6464 54.3309 51.2095 55.7424C51.2521 55.9049 51.2946 56.0673 51.3388 56.2298C51.4729 56.7644 51.4287 57.3196 51.4129 57.8653L51.3404 57.87C51.2678 58.1712 51.1842 58.4693 51.0928 58.7658C50.5218 59.8004 49.5535 60.6631 48.3611 60.8698C46.6546 61.2893 44.8188 60.3114 44.0523 58.7611C43.9482 58.4378 43.8426 58.116 43.7322 57.7959C43.7006 57.2738 43.6675 56.7408 43.8 56.2282C43.8426 56.0673 43.8852 55.9064 43.9277 55.7456Z" fill="#ba66d3"/>
  <path d="M17.9046 62.9246C19.2215 62.5446 20.7308 62.9704 21.6598 63.9782C22.4389 64.7431 22.8158 65.8676 22.7322 66.9496C22.655 68.4731 21.5541 69.8736 20.0984 70.3231C19.4423 70.5628 18.7341 70.5061 18.0528 70.454C17.1144 70.1827 16.2391 69.6465 15.6902 68.8232C15.072 67.9179 14.8638 66.7366 15.1587 65.6784C15.4868 64.3583 16.5829 63.2559 17.9046 62.9246Z" fill="#ba66d3"/>
  <path d="M75.1918 62.9382C76.5009 62.5455 78.0165 62.9398 78.966 63.9255C79.9548 64.8734 80.3554 66.3875 79.9659 67.7013C79.6599 68.8904 78.7089 69.8304 77.5938 70.2957C76.3731 70.6774 74.9616 70.5496 73.9301 69.7531C72.7188 68.8731 72.1779 67.2865 72.457 65.8323C72.5138 65.6604 72.5627 65.4869 72.6116 65.3134C73.0642 64.1968 74.0105 63.2489 75.1918 62.9382Z" fill="#ba66d3"/>
  <path d="M133.192 62.7858C134.143 62.7527 135.181 62.942 135.89 63.6233C136.401 64.1154 136.966 64.6122 137.196 65.3061C137.497 66.0237 137.419 66.8218 137.365 67.5772C137.253 67.8469 137.155 68.1214 137.057 68.3958C136.646 69.1244 136.031 69.7285 135.302 70.1385C135.02 70.2363 134.741 70.3357 134.465 70.4445C133.883 70.5107 133.297 70.5092 132.717 70.4508C131.921 70.219 131.206 69.7853 130.64 69.1812C130.329 68.7775 130.082 68.3327 129.885 67.8643C129.823 67.5977 129.788 67.3265 129.717 67.0647C129.714 66.8155 129.689 66.5678 129.697 66.3187C129.787 65.9307 129.886 65.5459 129.995 65.1642C130.566 63.8804 131.799 62.9656 133.192 62.7858Z" fill="#ba66d3"/>
  <path d="M8.46846 72.4222C9.32959 72.2771 10.2128 72.367 11.0187 72.7077C12.0991 73.2991 12.9744 74.3432 13.1353 75.5907C13.4949 77.4171 12.3025 79.3349 10.544 79.9011C10.3185 79.95 10.0945 80.0083 9.87371 80.073C9.23496 80.1408 8.60252 80.0304 7.98743 79.8617C6.63423 79.327 5.59645 78.04 5.49552 76.5717C5.31414 74.9946 6.24151 73.4395 7.6373 72.725C7.91488 72.6272 8.19246 72.5279 8.46846 72.4222Z" fill="#ba66d3"/>
  <path d="M26.1373 73.1177C27.2003 72.3023 28.6466 72.1667 29.8925 72.6004C30.5013 72.919 31.1038 73.2975 31.5107 73.8653C31.9539 74.411 32.1415 75.1002 32.3198 75.7658C32.3813 76.9549 32.0027 78.2072 31.1022 79.021C30.5344 79.6077 29.7443 79.8806 28.973 80.0824C28.328 80.1313 27.6892 80.0304 27.0726 79.8475C25.866 79.3648 24.9639 78.305 24.6437 77.0512C24.3772 75.5923 24.9182 73.9946 26.1373 73.1177Z" fill="#ba66d3"/>
  <path d="M65.2398 72.6C65.9969 72.3524 66.7996 72.2972 67.5866 72.4249C68.5377 72.7356 69.4524 73.2876 69.965 74.1756C70.517 75.0193 70.6321 76.0587 70.4918 77.0381C70.1732 78.2935 69.2789 79.366 68.0661 79.8423C67.4494 80.0268 66.8107 80.1293 66.1656 80.0836C65.4338 79.8849 64.6752 79.642 64.1185 79.101C63.5838 78.6468 63.24 78.0254 62.9813 77.3851C62.8836 76.8488 62.781 76.3094 62.8157 75.7622C62.9261 75.3884 63.0271 75.0114 63.1375 74.6377C63.5822 73.7355 64.3251 73.0163 65.2398 72.6Z" fill="#ba66d3"/>
  <path d="M84.1216 72.7044C85.1957 72.2423 86.4306 72.2439 87.4999 72.7202C88.6796 73.3495 89.5739 74.5481 89.6464 75.9076C89.8167 77.5889 88.738 79.2654 87.1561 79.8458C86.8895 79.9183 86.623 79.9877 86.3612 80.0729C85.9953 80.0855 85.6294 80.0871 85.2651 80.0745C85.0048 79.994 84.743 79.9294 84.4812 79.8647C83.2148 79.3789 82.1975 78.2339 82.0067 76.8728C81.6707 75.2026 82.6281 73.4677 84.1216 72.7044Z" fill="#ba66d3"/>
  <path d="M123.128 72.4231C123.987 72.2811 124.871 72.3584 125.678 72.6959C126.5 73.1296 127.161 73.8141 127.577 74.6453C128.153 76.0474 127.911 77.7633 126.834 78.861C126.249 79.5361 125.396 79.8704 124.55 80.0786C124.219 80.0818 123.891 80.0865 123.563 80.0817C123.257 79.9934 122.948 79.9177 122.644 79.8341C121.803 79.4793 121.049 78.8847 120.627 78.063C119.824 76.642 120.082 74.7273 121.218 73.557C121.723 72.9924 122.426 72.6723 123.128 72.4231Z" fill="#ba66d3"/>
  <path d="M142.229 72.4373C143.01 72.2875 143.814 72.3537 144.571 72.5918C145.492 73.0981 146.287 73.8694 146.763 74.8125C146.831 75.0775 146.901 75.344 146.984 75.6074C147.006 76.0301 147.005 76.4527 146.984 76.877C146.872 77.1956 146.766 77.5157 146.659 77.8375C146.621 77.9179 146.544 78.0804 146.505 78.1608C145.869 79.1828 144.814 79.8736 143.631 80.0802C143.305 80.0865 142.98 80.0818 142.655 80.0802C142.238 79.9603 141.825 79.8436 141.415 79.7064C140.655 79.268 140.019 78.6355 139.616 77.8548C139.51 77.5331 139.407 77.2082 139.303 76.888C139.016 75.1169 140.041 73.2558 141.726 72.606C141.891 72.5508 142.06 72.4956 142.229 72.4373Z" fill="#ba66d3"/>
  <path d="M17.8967 82.0236C18.2721 81.9905 18.6443 81.9526 19.0149 81.8911C19.3682 81.9668 19.7278 82.0078 20.0842 82.0646C21.5841 82.615 22.7591 84.0676 22.7417 85.7015C22.8253 87.4853 21.4769 89.1997 19.7309 89.5514C19.1269 89.6413 18.5134 89.5987 17.9077 89.5451C17.7027 89.4631 17.4977 89.3873 17.2911 89.3116C16.1792 88.7707 15.2975 87.7266 15.0988 86.4885C14.7455 84.8499 15.6445 83.126 17.0939 82.3343C17.362 82.2318 17.6302 82.1277 17.8967 82.0236Z" fill="#ba66d3"/>
  <path d="M75.9818 81.8926C76.1774 81.9178 76.373 81.9367 76.5685 81.9762C76.7909 81.9935 77.0133 81.9967 77.2372 82.0187C77.4375 82.0976 77.6457 82.1686 77.8508 82.2411C78.9075 82.7774 79.7765 83.7442 80.0099 84.927C80.442 86.602 79.5352 88.4204 78.0337 89.2248C77.764 89.3242 77.4975 89.4314 77.2325 89.5449C76.4266 89.6254 75.5938 89.6617 74.8163 89.3967C73.8464 88.9504 72.9947 88.1602 72.6351 87.1382C72.1067 85.7361 72.4506 84.0107 73.5798 82.9966C74.2028 82.3247 75.0986 82.0266 75.9818 81.8926Z" fill="#ba66d3"/>
  <path d="M132.444 82.046C133.212 81.9261 133.996 81.9293 134.764 82.0523C135.222 82.2747 135.671 82.516 136.088 82.814C136.543 83.2777 136.952 83.7935 137.21 84.3959C137.452 85.1293 137.444 85.9084 137.363 86.6686C137.304 86.8342 137.247 87.0014 137.196 87.1717C136.953 87.7821 136.532 88.2884 136.075 88.7489C135.595 89.099 135.072 89.4066 134.49 89.5406C133.815 89.6463 133.126 89.6084 132.452 89.517C131.235 89.0612 130.219 88.096 129.842 86.8327C129.806 86.615 129.785 86.3958 129.75 86.1813C129.714 85.9211 129.7 85.6592 129.692 85.399C129.905 83.866 130.985 82.5554 132.444 82.046Z" fill="#ba66d3"/>
  <path d="M46.8597 91.482C47.306 91.4741 47.7523 91.4694 48.1987 91.4931C48.5251 91.6035 48.8532 91.706 49.1844 91.8053C50.0644 92.2548 50.7836 92.9898 51.17 93.903C51.2489 94.1663 51.323 94.4297 51.4098 94.6915C51.4318 95.1126 51.4334 95.5337 51.4113 95.9564C51.3293 96.2166 51.2584 96.48 51.1842 96.745C51.0123 97.0825 50.8215 97.4106 50.6291 97.7386C50.1796 98.2654 49.6008 98.6597 48.9841 98.9656C48.0662 99.2732 47.0757 99.2669 46.1562 98.9688C45.1705 98.5288 44.363 97.7496 43.9482 96.7466C43.8772 96.4816 43.8094 96.2151 43.7274 95.9564C43.7038 95.5353 43.7038 95.1142 43.7258 94.6947C43.8347 94.3682 43.9372 94.0417 44.0381 93.7137C44.4561 92.8857 45.1358 92.2249 45.9575 91.799C46.2556 91.7076 46.5553 91.6255 46.8612 91.5625L46.8597 91.482Z" fill="#ba66d3"/>
  <path d="M104.346 91.4868C104.713 91.471 105.084 91.4694 105.454 91.4852C105.711 91.5609 105.973 91.6256 106.237 91.6886C107.544 92.2012 108.587 93.4141 108.724 94.8367C108.978 96.4643 108.041 98.1171 106.584 98.8426C106.303 98.9388 106.022 99.0382 105.746 99.1439C105.185 99.2149 104.617 99.2148 104.057 99.1391C103.779 99.0319 103.5 98.9325 103.223 98.8363C102.032 98.2228 101.144 97.0131 101.065 95.6584C100.885 93.9708 101.97 92.3006 103.548 91.706C103.813 91.6319 104.081 91.5688 104.346 91.4868Z" fill="#ba66d3"/>
  <path d="M36.6428 101.273C36.8131 101.221 36.9835 101.169 37.1522 101.111C37.7373 101.047 38.3256 101.054 38.9108 101.114C39.1805 101.224 39.458 101.317 39.7325 101.42C40.521 101.863 41.1803 102.535 41.573 103.353C41.6408 103.565 41.7055 103.778 41.7859 103.987C41.9137 104.99 41.8679 106.066 41.2923 106.935C40.9516 107.515 40.4138 107.935 39.8712 108.318C39.0779 108.651 38.1916 108.921 37.3304 108.7C36.0372 108.501 34.9615 107.558 34.4174 106.392C34.3196 106.012 34.2187 105.632 34.113 105.257C34.1257 104.998 34.1477 104.743 34.1761 104.489C34.2092 104.265 34.2392 104.041 34.2692 103.82C34.6461 102.678 35.5214 101.718 36.6428 101.273Z" fill="#ba66d3"/>
  <path d="M92.3733 102.442C92.8906 101.782 93.6477 101.391 94.4221 101.115C95.4441 100.983 96.537 101.043 97.4203 101.633C98.7813 102.464 99.4926 104.192 99.1173 105.743C98.8018 107.328 97.3887 108.536 95.8131 108.768C95.5072 108.776 95.2028 108.776 94.8984 108.769C93.8338 108.586 92.8449 108.034 92.2156 107.146C91.2157 105.776 91.2725 103.738 92.3733 102.442Z" fill="#ba66d3"/>
  <path d="M111.701 102.2C112.629 101.202 114.07 100.89 115.381 101.119C115.591 101.197 115.803 101.273 116.018 101.349C116.933 101.781 117.715 102.541 118.064 103.503C118.608 104.899 118.269 106.623 117.158 107.65C116.355 108.504 115.136 108.848 113.99 108.768C113.007 108.575 112.067 108.113 111.446 107.307C110.236 105.858 110.345 103.521 111.701 102.2Z" fill="#ba66d3"/>
  <path d="M56.2375 101.115C57.2248 100.991 58.2831 101.038 59.1411 101.6C59.7104 101.959 60.1615 102.476 60.5384 103.03C60.6362 103.257 60.7277 103.489 60.835 103.716C60.9138 104.224 61.0621 104.735 60.9848 105.254C60.9359 105.47 60.9028 105.692 60.8665 105.915C60.7955 106.113 60.7309 106.317 60.6646 106.519C60.223 107.372 59.5149 108.06 58.6522 108.479C57.7721 108.782 56.8069 108.902 55.9158 108.569C54.9947 108.295 54.2803 107.597 53.7488 106.821C53.2867 105.948 53.222 104.949 53.3513 103.986C53.4239 103.779 53.4949 103.573 53.5595 103.366C53.9822 102.484 54.703 101.752 55.5893 101.338C55.8054 101.264 56.0215 101.191 56.2375 101.115Z" fill="#ba66d3"/>
  <path d="M46.4371 110.742C46.9244 110.671 47.4118 110.585 47.9054 110.57C48.4369 110.712 48.9889 110.82 49.4715 111.096C50.1702 111.48 50.697 112.11 51.0834 112.796C51.178 113.081 51.2711 113.367 51.3799 113.649C51.4966 114.378 51.4225 115.117 51.2111 115.822C50.82 116.701 50.1875 117.492 49.3028 117.91C48.019 118.565 46.374 118.418 45.2321 117.537C44.6328 117.114 44.2417 116.475 43.9294 115.827C43.7117 115.12 43.6439 114.378 43.7543 113.644C43.8631 113.371 43.9562 113.095 44.0571 112.821C44.0966 112.739 44.1738 112.573 44.2117 112.49C44.7448 111.684 45.5207 111.059 46.4371 110.742Z" fill="#ba66d3"/>
  <path d="M66.3375 110.583C67.9967 110.482 69.6464 111.447 70.2851 112.996C70.3388 113.163 70.394 113.33 70.4523 113.499C70.6416 114.395 70.5375 115.327 70.1763 116.168C69.4981 117.453 68.1181 118.369 66.6419 118.314C65.0726 118.338 63.6153 117.278 63.0617 115.824C62.9782 115.512 62.9056 115.198 62.8189 114.889C62.8157 114.572 62.8173 114.256 62.8267 113.942C62.9056 113.682 62.9671 113.414 63.0349 113.152C63.4529 112.024 64.3913 111.132 65.5331 110.758C65.8028 110.706 66.0725 110.654 66.3375 110.583Z" fill="#ba66d3"/>
  <path d="M85.4196 110.61C86.4527 110.499 87.5251 110.86 88.32 111.524C89.2868 112.338 89.7931 113.653 89.6322 114.906C89.5092 116.188 88.6654 117.349 87.5204 117.923C86.5362 118.409 85.3408 118.446 84.3235 118.035C83.1548 117.552 82.2495 116.464 82.0272 115.215C81.737 113.909 82.2196 112.472 83.2132 111.583C83.8188 111.024 84.6121 110.72 85.4196 110.61Z" fill="#ba66d3"/>
  <path d="M104.655 110.591C105.94 110.529 107.274 111.107 108.023 112.171C108.631 112.99 108.87 114.057 108.709 115.061C108.539 116.336 107.648 117.469 106.481 117.994C105.098 118.609 103.355 118.339 102.265 117.273C100.945 116.084 100.667 113.952 101.604 112.45C102.232 111.37 103.426 110.706 104.655 110.591Z" fill="#ba66d3"/>
  <path d="M53.6666 122.248C54.3842 120.937 55.8367 120.049 57.3477 120.167C58.9122 120.216 60.2827 121.345 60.8253 122.784C60.8758 123.047 60.9199 123.314 60.9751 123.579C61.0903 124.227 60.8915 124.87 60.7244 125.49C60.1929 126.653 59.1251 127.591 57.846 127.805C56.1427 128.171 54.3148 127.197 53.6082 125.618C53.5278 125.403 53.4426 125.191 53.3574 124.981C53.2849 124.347 53.2849 123.708 53.3496 123.076C53.4647 122.801 53.5641 122.524 53.6666 122.248Z" fill="#ba66d3"/>
  <path d="M94.8053 120.199C95.9882 120.03 97.2547 120.423 98.0874 121.294C99.1788 122.334 99.5005 124.049 98.9438 125.438C98.3193 127.088 96.4614 128.157 94.7202 127.823C92.8544 127.56 91.3987 125.754 91.5012 123.877C91.5264 122.063 93.0027 120.415 94.8053 120.199Z" fill="#ba66d3"/>
  <path d="M73.5231 121.273C74.8952 119.847 77.3982 119.786 78.8303 121.156C79.8917 122.073 80.3585 123.607 79.991 124.96C79.7687 125.934 79.1015 126.762 78.2783 127.303C76.8825 128.183 74.9158 128.039 73.6982 126.913C73.0657 126.383 72.6841 125.629 72.4507 124.852C72.2409 123.576 72.5658 122.182 73.5231 121.273Z" fill="#ba66d3"/>
  <path d="M63.0618 132.245C63.4987 130.966 64.6753 129.983 66.0095 129.775C67.2019 129.564 68.4983 129.925 69.3626 130.788C70.1874 131.551 70.6211 132.696 70.5407 133.814C70.4792 135.204 69.5708 136.496 68.3153 137.073C67.0284 137.666 65.4181 137.5 64.3046 136.614C63.7195 136.186 63.3394 135.551 63.0397 134.906C62.7716 134.038 62.7133 133.1 63.0618 132.245Z" fill="#ba66d3"/>
  <path d="M84.8643 129.829C86.0046 129.548 87.279 129.797 88.1969 130.542C89.1873 131.3 89.7441 132.573 89.6526 133.818C89.5958 134.934 89.0107 136.004 88.1101 136.663C87.0109 137.503 85.4479 137.653 84.194 137.082C83.0143 136.562 82.1516 135.4 81.9923 134.122C81.6611 132.234 82.9828 130.234 84.8643 129.829Z" fill="#ba66d3"/>
  <path d="M75.2218 139.401C77.1538 138.816 79.3713 140.04 79.9327 141.969C80.3696 143.3 79.9974 144.869 78.977 145.839C77.873 147.009 75.9993 147.299 74.5625 146.601C73.1967 145.963 72.3009 144.46 72.3986 142.954C72.4302 141.322 73.6399 139.8 75.2218 139.401Z" fill="#ba66d3"/>
</svg>