<svg width="139" height="36" viewBox="0 0 139 36" fill="none" xmlns="http://www.w3.org/2000/svg">
<path d="M31.2444 10.659L28.0737 8.20126L28.0737 10.659L12.2722 10.659C10.6665 10.659 8.94886 9.4824 8.45456 8.04449L5.94967 0.749999L31.4697 0.75C33.0754 0.75 34.793 1.92663 35.2869 3.36497L37.7922 10.659L31.2444 10.659Z" fill="#487CFF"/>
<path d="M40.0508 35.25L14.5303 35.25C12.9246 35.25 11.2074 34.0738 10.7131 32.6351L8.20822 25.3414L14.0988 25.3414L14.0988 27.7992L17.2695 25.3414L33.7283 25.3414C35.3339 25.3414 37.0516 26.5181 37.5455 27.956L40.0508 35.25Z" fill="#487CFF"/>
<path d="M28.0737 10.6591L26.9919 10.6591L26.9919 8.20129L28.0737 9.03997L28.0737 10.6591Z" fill="#3050CE"/>
<path d="M13.017 27.7992L13.017 25.3414L14.0989 25.3414L14.0989 26.9605L13.017 27.7992Z" fill="#3050CE"/>
<path d="M17.2691 22.9544L14.0988 20.4966L14.0988 22.9544L6.32251 22.9544C4.71687 22.9544 2.99919 21.7778 2.50531 20.3398L0 13.0458L28.0737 13.0458L28.0737 15.5035L31.2444 13.0458L39.6779 13.0458C41.2836 13.0458 43.0008 14.2224 43.4951 15.6607L46 22.9544L17.2691 22.9544Z" fill="#487CFF"/>
<path d="M26.9919 15.5035L26.9919 13.0458L28.0737 13.0458L28.0737 14.6649L26.9919 15.5035Z" fill="#3050CE"/>
<path d="M14.0989 22.9542L13.017 22.9542L13.017 20.4965L14.0989 21.3351L14.0989 22.9542Z" fill="#3050CE"/>
<path d="M135.614 10.2307H139V29.5986H135.614V10.2307Z" fill="#DEF6FF"/>
<path d="M120.691 10.2307H128.725V13.6165H120.921C117.851 13.6165 116.933 15.0798 116.933 16.8875V18.7239H128.611V21.9375H116.933V29.5986H113.547V16.9162C113.547 13.0426 115.555 10.2307 120.691 10.2307Z" fill="#DEF6FF"/>
<path d="M102.78 10.2307H106.165V29.5986H102.78V10.2307Z" fill="#DEF6FF"/>
<path d="M85.4725 14.0182L79.3322 29.5985H75.6021L82.4023 12.3827C83.1196 10.575 84.4395 9.88635 86.4767 9.88635C88.4853 9.88635 89.8051 10.575 90.4938 12.3827L97.0358 29.5985H93.277L87.3949 14.0182C87.2228 13.5591 86.9071 13.3582 86.448 13.3582C85.989 13.3582 85.6733 13.5591 85.4725 14.0182Z" fill="#DEF6FF"/>
<path d="M54 10.2307H64.5017C68.863 10.2307 70.7281 12.9279 70.7281 16.0267C70.7281 18.4369 69.5804 21.0193 66.625 21.8514L71.1298 29.5986H67.371L62.9523 22.1097H57.9023C57.5866 22.1097 57.4145 22.2531 57.4145 22.5974V29.5986H54.0287V21.9375C54.0287 19.7568 54.9469 18.8673 57.0702 18.8673H64.6165C66.5389 18.8673 67.3136 17.5475 67.3136 16.1702C67.3136 14.7929 66.4815 13.6165 64.6165 13.6165H54V10.2307Z" fill="#DEF6FF"/>
</svg>
