<svg width="626" height="284" viewBox="0 0 626 284" fill="none" xmlns="http://www.w3.org/2000/svg">
<path d="M338.535 78.6024C166.299 8.5852 15.2092 -19.9713 1.06616 14.8192C-9.76013 41.4532 62.8111 97.4905 174.71 153.717C174.828 153.403 174.948 153.09 175.069 152.778C136.322 133.306 102.305 113.861 74.8523 95.661C48.9799 78.5089 28.9812 62.4912 16.3445 48.6278C10.0245 41.6944 5.58588 35.3421 3.15991 29.6952C0.735168 24.051 0.360596 19.2105 1.99292 15.1952C3.62524 11.18 7.27087 7.97338 12.946 5.62197C18.6238 3.26957 26.2355 1.81688 35.6003 1.25967C54.3257 0.145589 79.8283 2.6246 110.33 8.38955C171.317 19.9164 252.083 44.5379 338.158 79.5292C424.233 114.521 499.27 153.236 551.001 187.531C576.873 204.683 596.872 220.701 609.509 234.564C615.829 241.498 620.268 247.85 622.694 253.497C625.119 259.141 625.493 263.982 623.861 267.997C622.229 272.012 618.582 275.219 612.907 277.57C607.229 279.923 599.617 281.375 590.252 281.933C571.526 283.047 546.025 280.568 515.523 274.803C480.439 268.172 438.81 257.206 393.389 242.427C393.256 242.734 393.12 243.04 392.984 243.346C517.502 283.871 613.644 295.783 624.787 268.374L624.945 267.964C637.826 233.195 512.095 149.67 342.563 80.246L338.535 78.6024Z" fill="#898989"/>
</svg>
