<svg width="784" height="188" viewBox="0 0 784 188" fill="none" xmlns="http://www.w3.org/2000/svg">
<path d="M392.805 50.1678C604.477 5.40023 778.272 -12.5738 783.127 10.0716L783.178 10.3434C786.028 29.0131 675.731 68.9565 520.129 107.915L519.976 106.923C579.331 92.0604 632.083 77.0594 674.46 63.1512C709.061 51.7955 736.714 41.1807 755.395 31.9823C764.742 27.3795 771.792 23.1563 776.336 19.401C778.61 17.5223 780.212 15.7967 781.168 14.2405C782.121 12.689 782.387 11.385 782.15 10.2807C781.913 9.1766 781.136 8.09613 779.631 7.07168C778.121 6.04413 775.953 5.12687 773.11 4.34493C767.425 2.7818 759.264 1.81815 748.851 1.45021C728.042 0.714949 698.467 2.36463 662.252 6.18567C589.833 13.8265 490.994 30.1336 382.907 53.298C274.82 76.4625 177.979 102.092 108.79 124.8C74.1894 136.156 46.5361 146.77 27.8556 155.969C18.508 160.572 11.4588 164.796 6.91433 168.551C4.64101 170.43 3.0395 172.154 2.08316 173.711C1.12999 175.262 0.863883 176.565 1.10025 177.669C1.33691 178.774 2.11387 179.855 3.61928 180.879C5.12934 181.907 7.2972 182.824 10.1407 183.606C15.825 185.169 23.9862 186.133 34.3992 186.501C55.2086 187.236 84.7833 185.587 120.999 181.765C164.713 177.153 218.054 169.38 277.245 158.85L277.717 159.783C121.033 187.671 5.21252 196.254 0.187979 178.148L0.122815 177.88C-4.80532 154.874 166.479 98.6591 382.698 52.3205L392.805 50.1678Z" fill="#898989"/>
</svg>
