<svg width="211" height="50" viewBox="0 0 211 50" fill="none" xmlns="http://www.w3.org/2000/svg">
	<path d="M48.9327 14.2502L44.3729 10.7157L44.3729 14.2502L21.6487 14.2502C19.3397 14.2502 16.8695 12.5581 16.1586 10.4902L12.5563 -2.00167e-06L49.2567 -3.97441e-07C51.5658 -2.96508e-07 54.036 1.69211 54.7462 3.76058L58.3491 14.2502L48.9327 14.2502Z" fill="#487CFF"/>
	<path d="M61.5972 49.6143L24.8962 49.6143C22.5871 49.6143 20.1175 47.9228 19.4067 45.8537L15.8044 35.3647L24.2757 35.3647L24.2757 38.8993L28.8354 35.3647L52.5048 35.3647C54.8138 35.3647 57.284 37.0569 57.9943 39.1247L61.5972 49.6143Z" fill="#487CFF"/>
	<path d="M44.3728 14.2501L42.817 14.2501L42.817 10.7156L44.3728 11.9217L44.3728 14.2501Z" fill="#3050CE"/>
	<path d="M22.7199 38.8993L22.7199 35.3647L24.2756 35.3647L24.2756 37.6932L22.7199 38.8993Z" fill="#3050CE"/>
	<path d="M28.8347 31.9319L24.2756 28.3974L24.2756 31.9319L13.0924 31.9319C10.7833 31.9319 8.31313 30.2398 7.60289 28.172L4 17.6824L44.3728 17.6824L44.3728 21.2169L48.9325 17.6824L61.0608 17.6824C63.3699 17.6824 65.8395 19.3745 66.5503 21.443L70.1526 31.9319L28.8347 31.9319Z" fill="#487CFF"/>
	<path d="M42.817 21.2169L42.817 17.6824L44.3728 17.6824L44.3728 20.0108L42.817 21.2169Z" fill="#3050CE"/>
	<path d="M24.2756 31.932L22.7199 31.932L22.7199 28.3975L24.2756 29.6036L24.2756 31.932Z" fill="#3050CE"/>
	<path d="M201.369 9.67969H206.238V37.5326H201.369V9.67969Z" fill="#DEF6FF"/>
	<path d="M179.909 9.67969H191.462V14.5488H180.239C175.824 14.5488 174.503 16.6532 174.503 19.2528V21.8937H191.297V26.5152H174.503V37.5326H169.634V19.2941C169.634 13.7235 172.522 9.67969 179.909 9.67969Z" fill="#DEF6FF"/>
	<path d="M154.15 9.67969H159.019V37.5326H154.15V9.67969Z" fill="#DEF6FF"/>
	<path d="M129.261 15.1263L120.43 37.5324H115.066L124.845 12.7743C125.877 10.1747 127.775 9.18433 130.705 9.18433C133.593 9.18433 135.491 10.1747 136.482 12.7743L145.89 37.5324H140.484L132.025 15.1263C131.778 14.4661 131.324 14.1772 130.664 14.1772C130.003 14.1772 129.549 14.4661 129.261 15.1263Z" fill="#DEF6FF"/>
	<path d="M84 9.67969H99.1025C105.375 9.67969 108.057 13.5585 108.057 18.0149C108.057 21.4811 106.406 25.1948 102.156 26.3914L108.634 37.5326H103.229L96.8742 26.7628H89.6118C89.1579 26.7628 88.9104 26.9691 88.9104 27.4643V37.5326H84.0413V26.5152C84.0413 23.3792 85.3617 22.1 88.4152 22.1H99.2675C102.032 22.1 103.146 20.2019 103.146 18.2212C103.146 16.2406 101.95 14.5488 99.2675 14.5488H84V9.67969Z" fill="#DEF6FF"/>
</svg>
