<svg xmlns="http://www.w3.org/2000/svg" width="135" height="165" viewBox="0 0 135 165" fill="none">
  <path d="M64.3569 0.723924C65.4579 0.498466 66.5458 0.176695 67.6578 0.0322266C68.6472 0.264252 69.6825 0.373697 70.6237 0.765513C70.9521 1.2624 71.1338 1.8337 71.3351 2.38969C71.3351 2.82747 71.3439 3.26525 71.3373 3.70304C71.1797 4.15614 71.0199 4.60706 70.8711 5.06235C70.3808 5.71684 69.8029 6.31222 69.0959 6.7325C68.7872 6.84194 68.4808 6.95139 68.1787 7.06959C67.6074 7.11337 67.0339 7.11337 66.4648 7.07616C66.062 6.91855 65.6637 6.76314 65.2587 6.6143C64.7137 6.16338 64.2168 5.65555 63.7615 5.11708C63.6192 4.70994 63.4616 4.30718 63.304 3.90661C63.2756 3.37032 63.2712 2.83404 63.2887 2.29994C63.5601 1.74615 63.6236 0.861825 64.3569 0.723924Z" fill="#ade63e" fill-opacity="0.16"/>
  <path d="M43.9473 5.27268C46.4974 4.70356 49.0409 4.07534 51.6107 3.60254C51.545 3.66821 51.4093 3.79954 51.3436 3.8674C51.232 4.27672 51.1006 4.68386 50.9737 5.08881C50.5184 5.64918 50.0106 6.16357 49.4502 6.61668C49.054 6.76333 48.66 6.91875 48.2682 7.07416C47.6947 7.11356 47.1212 7.11356 46.5499 7.06978C46.2456 6.95596 45.9392 6.85527 45.6327 6.75239C44.9892 6.35619 44.4704 5.80678 43.9473 5.27268Z" fill="#ade63e" fill-opacity="0.16"/>
  <path d="M83.1443 3.45605C85.6681 4.04925 88.216 4.55051 90.7355 5.17654C90.2692 5.68218 89.7855 6.1725 89.2579 6.61247C88.3561 7.02618 87.3733 7.22537 86.3839 7.07433C86.13 6.98678 85.8782 6.90579 85.6221 6.83355C84.7006 6.35856 83.9476 5.58368 83.4485 4.67747C83.35 4.27033 83.2362 3.86538 83.1443 3.45605Z" fill="#ade63e" fill-opacity="0.16"/>
  <path d="M35.7567 9.33081C37 8.86895 38.4009 8.94337 39.5851 9.53876C40.0645 9.91963 40.5023 10.3487 40.8831 10.828C41.0276 11.1148 41.1786 11.3993 41.3362 11.6795C41.4654 12.5726 41.4676 13.481 41.3406 14.3763C40.8218 15.486 39.9375 16.3835 38.8212 16.8979C38.4644 16.9439 38.1076 16.9745 37.7508 17.0095C37.5428 17.0073 37.3349 17.0051 37.127 17.003C36.7767 16.9789 36.4287 16.922 36.0806 16.8913C35.1066 16.4141 34.2682 15.6896 33.7582 14.7221C33.4452 13.8509 33.4277 12.9206 33.5284 12.0079C33.651 11.7102 33.7735 11.4125 33.8961 11.1148C34.3251 10.3421 34.9949 9.75984 35.7567 9.33081Z" fill="#ade63e" fill-opacity="0.16"/>
  <path d="M95.4788 9.31553C96.3653 8.99376 97.3131 8.99595 98.2412 9.09445C98.8694 9.39433 99.5326 9.67232 100.025 10.1845C100.537 10.688 100.809 11.3644 101.098 12.0079C101.157 12.6755 101.159 13.3475 101.102 14.0151C100.721 15.149 99.9814 16.1428 98.9066 16.6987C98.3331 16.8914 97.729 17.0139 97.138 17.0993C96.7286 17.1562 96.3784 16.8585 95.9669 16.9023C95.7392 16.8257 95.5138 16.7403 95.2949 16.6462C94.3011 16.0355 93.4453 15.103 93.2132 13.9276C92.701 12.0911 93.8218 10.132 95.4788 9.31553Z" fill="#ade63e" fill-opacity="0.16"/>
  <path d="M55.6689 9.32168C57.1924 8.76132 59.0464 8.96708 60.2131 10.1622C61.3382 11.2457 61.5833 12.9465 61.1718 14.4043C61.0536 14.6604 60.9332 14.9166 60.8194 15.1727C60.2788 15.9103 59.5564 16.4772 58.7465 16.8953C57.8337 17.0267 56.9056 17.0332 55.995 16.8953C54.8765 16.3831 53.9878 15.4835 53.4778 14.3671C53.3443 13.3449 53.2874 12.2789 53.6617 11.2983C54.1301 10.4599 54.8262 9.78135 55.6689 9.32168Z" fill="#ade63e" fill-opacity="0.16"/>
  <path d="M75.6254 9.31922C76.4769 8.97118 77.4072 9.01277 78.3047 9.08719C78.9416 9.38707 79.6246 9.65631 80.1259 10.1729C80.6271 10.672 80.8985 11.3418 81.194 11.9722C81.3057 12.9419 81.2685 13.9378 80.8985 14.8528C80.5067 15.4679 80.0252 16.0217 79.4342 16.4529C79.1627 16.5952 78.8935 16.7418 78.6286 16.8951C77.7202 17.0242 76.7987 17.0351 75.8903 16.8994C74.7893 16.3763 73.9006 15.4963 73.3862 14.3909C73.2767 13.314 73.1016 12.1276 73.6751 11.147C73.9925 10.4859 74.5682 10.0065 75.1286 9.55562C75.2533 9.49652 75.5007 9.37832 75.6254 9.31922Z" fill="#ade63e" fill-opacity="0.16"/>
  <path d="M13.6219 12.017C15.9159 11.4654 18.2296 10.9839 20.5301 10.4629C20.6199 10.5089 20.7972 10.6008 20.8847 10.6468C21.0533 10.9817 21.2262 11.3144 21.4035 11.6449C21.4998 12.26 21.6027 12.8729 21.653 13.4945C21.4298 14.3198 21.0905 15.1143 20.563 15.7929C20.0508 16.2154 19.497 16.5809 18.9169 16.9005C17.8859 17.034 16.809 17.0997 15.8174 16.7166C14.7054 16.0993 13.8233 15.0377 13.6066 13.7616C13.53 13.1815 13.5825 12.5971 13.6219 12.017Z" fill="#ade63e" fill-opacity="0.16"/>
  <path d="M113.104 13.919C112.756 12.6713 113.244 11.3864 113.94 10.3555C116.304 10.7757 118.635 11.3624 120.977 11.8855C121.102 12.8727 121.133 13.919 120.653 14.823C120.292 15.657 119.563 16.224 118.824 16.7033C117.898 17.0689 116.891 17.036 115.919 16.9419C115.621 16.8062 115.317 16.6771 115.019 16.5479C114.113 15.9153 113.316 15.0376 113.104 13.919Z" fill="#ade63e" fill-opacity="0.16"/>
  <path d="M26.8499 18.9557C27.2833 18.9426 27.7167 18.9426 28.1501 18.947C28.5966 19.1067 29.0453 19.2578 29.4919 19.4176C29.783 19.6408 30.0632 19.8772 30.3434 20.1158C30.6454 20.4507 30.9147 20.8119 31.1686 21.1862C31.278 21.497 31.3897 21.8057 31.5101 22.1143C31.5473 22.6812 31.5495 23.2504 31.5101 23.8195C31.3962 24.1237 31.2912 24.4324 31.1883 24.7432C30.768 25.4393 30.177 26.0128 29.54 26.5097C29.1832 26.6519 28.833 26.8052 28.485 26.9628C27.9202 27.0022 27.3555 27.0153 26.7908 27.0022C25.3176 26.6191 23.9736 25.5246 23.6234 23.999C23.2841 23.0555 23.5512 22.0574 23.8883 21.1578C23.9583 21.0483 24.094 20.8294 24.1619 20.7222C24.326 20.5164 24.4946 20.3128 24.6653 20.1115C25.0987 19.7547 25.565 19.4395 26.0662 19.1834C26.3289 19.1133 26.5916 19.0389 26.8499 18.9557Z" fill="#ade63e" fill-opacity="0.16"/>
  <path d="M66.6464 18.9441C67.0864 18.9397 67.5264 18.9441 67.9663 18.955C68.2684 19.0557 68.5749 19.1433 68.8835 19.2286C69.5774 19.5854 70.1421 20.1261 70.6828 20.6777C70.9258 21.2052 71.1337 21.7481 71.3373 22.2931C71.3395 22.7309 71.3395 23.1709 71.3329 23.6108C71.2497 23.8538 71.1709 24.099 71.0987 24.3441C70.9564 24.6528 70.8141 24.9614 70.6718 25.2722C70.245 25.7056 69.8072 26.1325 69.3344 26.5177C68.3888 26.9642 67.3513 27.1153 66.3159 26.9621C65.9722 26.8023 65.6264 26.6469 65.2784 26.5024C64.7114 26.0777 64.2167 25.5655 63.7702 25.0205C63.6214 24.609 63.4637 24.204 63.2996 23.7991C63.2711 23.2453 63.2733 22.6893 63.3018 22.1355C63.4659 21.7437 63.6214 21.3475 63.7768 20.9513C64.0066 20.6602 64.243 20.3778 64.486 20.0976C65.077 19.5044 65.8628 19.1936 66.6464 18.9441Z" fill="#ade63e" fill-opacity="0.16"/>
  <path d="M6.89794 18.9513C7.34885 18.9404 7.80196 18.9404 8.25287 18.9426C9.54433 19.2315 10.6235 20.0742 11.2911 21.2037C11.3874 21.5036 11.4881 21.7991 11.5953 22.0946C11.6523 22.6768 11.6501 23.2635 11.6041 23.8479C11.4487 24.2397 11.2977 24.6359 11.1466 25.0299C10.6891 25.5684 10.1901 26.074 9.64065 26.5206C9.23132 26.6672 8.82418 26.8226 8.42142 26.9846C7.91359 27.0065 7.40358 27.0109 6.89575 27.0021C5.18401 26.6059 3.8444 25.1722 3.56641 23.4364C3.57297 23.1343 3.57954 22.8323 3.5883 22.5302C3.66928 22.2172 3.74152 21.8998 3.80719 21.5824C4.0611 21.0636 4.37412 20.5755 4.73748 20.1268C5.35475 19.5664 6.10555 19.1943 6.89794 18.9513Z" fill="#ade63e" fill-opacity="0.16"/>
  <path d="M44.5539 20.1172C45.1602 19.5327 45.9351 19.1913 46.7296 18.9483C47.1784 18.9352 47.6293 18.9483 48.0802 18.9461C48.75 19.1694 49.4089 19.4321 49.9911 19.8392C50.6894 20.5112 51.1797 21.3517 51.438 22.2842C51.5409 23.2145 51.3286 24.1229 50.963 24.9722C50.731 25.2589 50.4968 25.5435 50.256 25.8215C49.0762 27.0495 47.1915 27.3209 45.6527 26.662C45.2762 26.395 44.9041 26.1236 44.5582 25.8215C44.3175 25.5413 44.0832 25.2589 43.8578 24.9678C43.698 24.5235 43.5426 24.0769 43.3828 23.6326C43.3828 23.1817 43.3697 22.7329 43.3828 22.2842C43.6236 21.4918 43.9716 20.7213 44.5539 20.1172Z" fill="#ade63e" fill-opacity="0.16"/>
  <path d="M86.5569 18.9442C87.0078 18.9442 87.4609 18.9398 87.914 18.9508C88.7239 19.196 89.4857 19.5812 90.1139 20.1547C90.7093 20.8267 91.0267 21.6694 91.2674 22.5209C91.2674 23.4687 91.0135 24.3902 90.5998 25.2352C89.8972 26.0735 88.9975 26.728 87.9272 26.9994C87.4215 27.0104 86.9159 27.006 86.4146 26.9797C86.1016 26.8659 85.7842 26.7696 85.4712 26.6667C84.6788 26.1852 84.0046 25.5197 83.5165 24.7317C83.418 24.4296 83.3217 24.1254 83.2122 23.8277C83.1663 23.2542 83.1641 22.6763 83.2188 22.1028C83.3217 21.8073 83.4224 21.5074 83.5187 21.2098C84.1907 20.0825 85.2632 19.231 86.5569 18.9442Z" fill="#ade63e" fill-opacity="0.16"/>
  <path d="M105.123 19.404C105.581 19.2574 106.036 19.0998 106.493 18.9443C106.933 18.9422 107.376 18.94 107.82 18.9487C108.452 19.1829 109.079 19.4434 109.654 19.8002C109.702 19.8746 109.799 20.0235 109.847 20.0979C111.517 21.4879 111.537 24.3072 109.967 25.7781C109.413 26.4195 108.619 26.7391 107.835 26.9995C107.325 27.0083 106.815 27.0083 106.307 26.9864C105.9 26.8288 105.493 26.6734 105.086 26.5267C104.385 25.9138 103.593 25.301 103.304 24.375C102.923 23.4032 103.039 22.324 103.352 21.3521C103.775 20.5685 104.429 19.9469 105.123 19.404Z" fill="#ade63e" fill-opacity="0.16"/>
  <path d="M126.439 18.9424C126.863 18.9424 127.288 18.9446 127.717 18.9577C128.015 19.0693 128.321 19.1678 128.625 19.2707C128.943 19.459 129.258 19.6516 129.575 19.8442C129.619 19.9143 129.705 20.0544 129.748 20.1244C131.445 21.5012 131.414 24.4081 129.79 25.8331C129.26 26.4482 128.498 26.7524 127.748 26.9976C127.24 27.0085 126.732 27.0063 126.229 26.9845C125.927 26.8772 125.624 26.7853 125.322 26.6955C123.989 25.9338 122.882 24.5723 122.958 22.9612C122.893 21.3721 123.983 20.0347 125.294 19.2751C125.675 19.1678 126.058 19.0606 126.439 18.9424Z" fill="#ade63e" fill-opacity="0.16"/>
  <path d="M15.835 29.232C16.8069 28.8577 17.8641 28.9015 18.8798 29.0394C19.983 29.545 20.9024 30.4031 21.408 31.5151C21.4518 31.8128 21.4956 32.1083 21.5371 32.4081C21.5787 32.6643 21.6181 32.9225 21.6532 33.183C21.5459 33.5661 21.4693 33.9579 21.3817 34.3475C20.9111 35.4639 19.9743 36.2891 18.9017 36.8122C17.8773 36.9414 16.8135 36.9917 15.8328 36.6174C14.7624 36.0549 14.0138 35.0786 13.6176 33.9513C13.5629 33.2706 13.5651 32.5876 13.6155 31.9091C14.016 30.7796 14.7581 29.7902 15.835 29.232Z" fill="#ade63e" fill-opacity="0.16"/>
  <path d="M35.7457 29.2256C36.7285 28.8623 37.8011 28.882 38.8189 29.068C39.0838 29.2081 39.3486 29.346 39.6179 29.4795C40.3643 30.0115 40.9225 30.7469 41.3362 31.559C41.4675 32.463 41.4697 33.3824 41.334 34.2842C40.9268 35.1051 40.3643 35.8405 39.6157 36.3746C39.3508 36.5016 39.0925 36.6351 38.8342 36.773C37.812 36.9744 36.7351 36.9831 35.7479 36.6242C34.8767 36.1185 34.0843 35.4115 33.7297 34.4418C33.2897 33.378 33.4364 32.1588 33.8107 31.0972C34.2857 30.3157 34.9511 29.6765 35.7457 29.2256Z" fill="#ade63e" fill-opacity="0.16"/>
  <path d="M75.912 29.04C76.9824 28.8956 78.1009 28.8583 79.1166 29.2918C79.8061 29.7383 80.4234 30.3052 80.8283 31.0319C80.9465 31.334 81.0713 31.6383 81.1961 31.9403C81.3843 33.199 81.1917 34.5517 80.3358 35.5411C79.8915 36.0949 79.2392 36.4101 78.6657 36.8041C77.7529 36.9201 76.8336 36.9464 75.923 36.8085C74.8263 36.2941 73.9004 35.4426 73.4123 34.3219C73.1693 33.396 73.1737 32.4547 73.4123 31.5288C73.9026 30.4103 74.8219 29.5632 75.912 29.04Z" fill="#ade63e" fill-opacity="0.16"/>
  <path d="M55.9688 29.0834C56.8772 28.8733 57.814 28.939 58.7334 29.0353C59.5214 29.484 60.281 30.0115 60.8085 30.7667C60.9289 31.0294 61.0558 31.2899 61.185 31.5503C61.4323 32.566 61.4126 33.6495 61.0536 34.6367C60.5918 35.4838 59.8891 36.1689 59.0486 36.6352L58.8209 36.6899C57.9235 37.0204 56.9494 36.911 56.0213 36.8059C55.0297 36.3331 54.1783 35.6042 53.6507 34.6323C53.5282 34.1748 53.4121 33.7174 53.3552 33.2489C53.3749 32.6886 53.4143 32.1304 53.4778 31.5766C53.8937 30.7558 54.4497 30.0028 55.2114 29.4731C55.4632 29.3439 55.7171 29.2148 55.9688 29.0834Z" fill="#ade63e" fill-opacity="0.16"/>
  <path d="M95.8313 29.0375C97.0133 28.8623 98.2588 28.8623 99.327 29.4709C100.33 30.202 101.087 31.3314 101.15 32.5944C101.31 34.2186 100.382 35.9106 98.8739 36.5695C97.9436 37.0708 96.847 36.9 95.8423 36.8147C94.5421 36.2171 93.3907 35.1051 93.1718 33.6364C92.7318 31.686 94.0758 29.7839 95.8313 29.0375Z" fill="#ade63e" fill-opacity="0.16"/>
  <path d="M115.737 29.0373C116.759 28.906 117.83 28.8534 118.808 29.243C119.612 29.7531 120.384 30.3922 120.737 31.3072C121.406 32.8132 121.039 34.7153 119.839 35.8492C119.36 36.3067 118.743 36.5737 118.152 36.8561C117.35 36.9218 116.545 36.9196 115.75 36.8145C114.463 36.2257 113.318 35.1378 113.078 33.6909C112.624 31.7231 113.949 29.7815 115.737 29.0373Z" fill="#ade63e" fill-opacity="0.16"/>
  <path d="M132.988 32.1433C133.168 30.9394 134.037 30.0135 134.991 29.335C135.004 31.7296 135.002 34.1243 134.993 36.5212C133.553 35.604 132.585 33.8682 132.988 32.1433Z" fill="#ade63e" fill-opacity="0.16"/>
  <path d="M0.166733 29.6484C1.20647 30.675 2.00104 32.1526 1.64644 33.6476C1.49978 34.6611 0.836541 35.4666 0.164544 36.1955C0.0988762 34.0153 0.0966878 31.8286 0.166733 29.6484Z" fill="#ade63e" fill-opacity="0.16"/>
  <path d="M3.78517 41.5077C4.33677 40.2666 5.39402 39.1721 6.7796 38.9423L6.77742 38.8481C7.32027 38.8416 7.86093 38.8394 8.40378 38.8635C8.81092 39.0211 9.22243 39.1743 9.63614 39.3209C10.1812 39.7697 10.6846 40.2709 11.1377 40.816C11.1968 40.9451 11.3172 41.2056 11.3763 41.3369C11.6696 42.1074 11.6872 42.937 11.604 43.7491C11.4442 44.1497 11.2844 44.5481 11.1334 44.953C10.4088 45.9052 9.43695 46.6429 8.25056 46.9099C7.81715 46.9099 7.38375 46.9033 6.95034 46.888C6.6417 46.7851 6.33088 46.6998 6.01786 46.6122C5.57132 46.3452 5.14667 46.0453 4.73735 45.7257C3.6801 44.605 3.33425 42.9721 3.78517 41.5077Z" fill="#ade63e" fill-opacity="0.16"/>
  <path d="M24.1378 40.5886C24.8207 39.7743 25.6941 39.1483 26.7251 38.8572C27.2548 38.8397 27.7889 38.8419 28.3208 38.8659C28.6338 38.9907 28.9534 39.0936 29.2708 39.2096C30.0588 39.6737 30.7155 40.3391 31.1948 41.1162C31.2911 41.4226 31.4006 41.7247 31.51 42.0311C31.5472 42.5959 31.5472 43.1628 31.5144 43.7297C31.3502 44.1215 31.1926 44.5177 31.0372 44.9139C30.8096 45.1963 30.571 45.4699 30.3302 45.7413C30.0588 45.9799 29.7808 46.2098 29.4962 46.4308C29.0475 46.5863 28.5988 46.7395 28.1522 46.8993C27.7057 46.908 27.2614 46.9036 26.817 46.9015C26.0224 46.6541 25.2541 46.3039 24.6522 45.7173C24.488 45.5203 24.3216 45.3254 24.1575 45.1306C24.0874 45.0146 23.9495 44.787 23.8795 44.671C23.5971 43.9048 23.4023 43.1015 23.4723 42.2785C23.5621 42.0202 23.6453 41.7619 23.7241 41.5036C23.862 41.1971 23.9977 40.8907 24.1378 40.5886Z" fill="#ade63e" fill-opacity="0.16"/>
  <path d="M45.4029 39.3216C46.0486 39.1005 46.6921 38.794 47.3926 38.8313C48.104 38.794 48.7628 39.0961 49.4217 39.3216C49.7041 39.5536 49.9821 39.79 50.2535 40.0374C50.4986 40.311 50.735 40.589 50.9671 40.8757C51.3326 41.7294 51.5318 42.6444 51.4399 43.5768C51.1663 44.645 50.5293 45.5469 49.6975 46.2539C49.1678 46.4947 48.6249 46.7026 48.0799 46.9062C47.6312 46.9105 47.1803 46.9062 46.7315 46.9018C45.3569 46.5647 44.1464 45.6344 43.6189 44.2992C43.5467 44.0431 43.4722 43.787 43.3912 43.5331C43.3781 43.0887 43.3737 42.6422 43.3781 42.1978C43.6233 41.412 43.9494 40.6305 44.5448 40.0439C44.825 39.7966 45.1117 39.5558 45.4029 39.3216Z" fill="#ade63e" fill-opacity="0.16"/>
  <path d="M65.2893 39.3119C65.8541 39.1193 66.4232 38.942 66.9989 38.7734C65.9591 40.9098 64.9413 43.0593 63.8184 45.1541C63.7877 45.0097 63.7243 44.7207 63.6914 44.5784C63.5667 44.3574 63.4441 44.1363 63.3237 43.9174C63.269 43.2366 63.2558 42.5537 63.3325 41.8751C63.4879 41.5293 63.6411 41.1812 63.7856 40.831C64.2211 40.2641 64.7355 39.7606 65.2893 39.3119Z" fill="#ade63e" fill-opacity="0.16"/>
  <path d="M85.1778 39.3258C85.5894 39.1791 85.9987 39.0259 86.4036 38.8639C86.9355 38.8421 87.4674 38.8399 87.9994 38.8574C89.3324 39.2514 90.5757 40.1882 90.9982 41.5563C91.5673 42.9682 91.0879 44.6164 90.081 45.7043C89.7592 45.967 89.4287 46.2165 89.096 46.466C88.691 46.6018 88.2905 46.7528 87.8899 46.8973C87.4521 46.9016 87.0122 46.9104 86.5766 46.9016C86.1344 46.7462 85.6922 46.5952 85.2523 46.4398C85.0399 46.2844 84.8298 46.1311 84.6219 45.9735C84.3088 45.6299 83.9827 45.2994 83.6806 44.9448C83.5274 44.5507 83.372 44.1567 83.2144 43.7649C83.0699 42.7558 83.2166 41.7424 83.6565 40.8252C84.1228 40.2845 84.6262 39.7767 85.1778 39.3258Z" fill="#ade63e" fill-opacity="0.16"/>
  <path d="M126.231 38.8659C126.723 38.8419 127.218 38.8397 127.713 38.8572C127.967 38.9469 128.225 39.0279 128.488 39.1045C128.855 39.3015 129.217 39.5095 129.576 39.7262C129.622 39.7962 129.711 39.9385 129.755 40.0086C131.427 41.4007 131.449 44.3601 129.74 45.7304C129.698 45.7982 129.615 45.934 129.571 46.0018C129.236 46.2141 128.904 46.4265 128.571 46.6366C127.866 46.8095 127.155 46.9606 126.428 46.9212C125.977 46.7614 125.524 46.6081 125.075 46.4527C124.858 46.2951 124.644 46.1397 124.434 45.9799C123.414 45.1109 122.79 43.7844 122.985 42.4295C123.07 40.9892 124.143 39.8641 125.318 39.1527C125.625 39.0629 125.929 38.971 126.231 38.8659Z" fill="#ade63e" fill-opacity="0.16"/>
  <path d="M68.251 38.9209C68.61 39.0588 68.9711 39.2011 69.3323 39.3346C69.8117 39.7199 70.2516 40.1489 70.685 40.5845C70.928 41.1142 71.136 41.6614 71.3395 42.2087C71.3395 42.6333 71.3373 43.0601 71.3264 43.487C71.217 43.8394 71.1272 44.2006 71.0418 44.5617C70.0743 42.7012 69.1506 40.8143 68.251 38.9209Z" fill="#ade63e" fill-opacity="0.16"/>
  <path d="M105.395 39.1876C105.697 39.0825 106.001 38.9774 106.305 38.8658C106.813 38.8439 107.321 38.8395 107.831 38.8505C109.908 39.3058 111.524 41.4553 111.055 43.5895C110.871 44.9532 109.816 45.9645 108.691 46.6387C107.967 46.8072 107.238 46.9582 106.491 46.921C104.913 46.5445 103.453 45.3516 103.138 43.7033C102.814 42.2389 103.398 40.7154 104.532 39.7633C104.815 39.5641 105.099 39.3715 105.395 39.1876Z" fill="#ade63e" fill-opacity="0.16"/>
  <path d="M15.8153 49.129C16.264 48.9911 16.7215 48.8904 17.1878 48.8291C17.4745 48.84 17.7635 48.8488 18.0502 48.8554C18.3413 48.8838 18.6325 48.9188 18.9258 48.9561C20.3245 49.569 21.3511 50.8298 21.6444 52.3314C21.6488 52.6597 21.6138 52.988 21.6116 53.3164C21.5306 53.6294 21.4452 53.9424 21.3774 54.262C20.9658 55.201 20.2391 55.9496 19.3701 56.4794C18.4573 56.8405 17.4701 56.8646 16.5048 56.7617C15.8635 56.4575 15.1827 56.1817 14.6815 55.6607C14.1824 55.1573 13.9131 54.4918 13.6198 53.8614C13.5651 53.1829 13.5585 52.5021 13.6155 51.8235C14.0007 50.6897 14.7515 49.7047 15.8153 49.129Z" fill="#ade63e" fill-opacity="0.16"/>
  <path d="M75.8772 48.9697C76.4222 48.8996 76.965 48.8121 77.5057 48.6982L77.4707 48.8427C77.8603 48.8712 78.2521 48.9106 78.6418 48.9609C79.537 49.4337 80.4235 50.0466 80.8482 51.0032C81.3429 51.8765 81.2663 52.9032 81.2006 53.8663C80.8942 54.5032 80.6249 55.1862 80.1061 55.6874C79.6114 56.1931 78.9416 56.4601 78.3134 56.7556C77.9019 56.7819 77.4904 56.8082 77.0789 56.8279C76.0216 54.7265 74.9797 52.6186 73.9465 50.5041C74.1413 50.2786 74.334 50.051 74.5244 49.8233C74.9534 49.506 75.4109 49.2301 75.8772 48.9697Z" fill="#ade63e" fill-opacity="0.16"/>
  <path d="M35.7325 49.1208C36.317 48.9457 36.9189 48.8559 37.5143 48.7246C37.9521 48.8275 38.3965 48.9085 38.843 48.9807C39.9637 49.4601 40.8218 50.3772 41.3362 51.4717C41.3821 51.8416 41.4084 52.2116 41.4347 52.5859C41.4828 52.6975 41.5791 52.9251 41.6273 53.0368L41.4456 53.0149C41.4062 53.4089 41.38 53.8051 41.3274 54.1991C40.6883 55.5912 39.3771 56.7798 37.7836 56.8105C36.9233 56.9068 36.0937 56.6572 35.3254 56.2939C34.8307 55.9086 34.3842 55.4665 33.9989 54.974C33.3707 53.7963 33.3094 52.3867 33.756 51.1368C34.2112 50.2875 34.9051 49.6067 35.7325 49.1208Z" fill="#ade63e" fill-opacity="0.16"/>
  <path d="M55.993 48.9544C56.9036 48.8143 57.8317 48.8143 58.7423 48.9566C59.5675 49.3615 60.2724 49.9547 60.8371 50.6771C60.8656 50.7843 60.9181 50.9967 60.9444 51.1039C60.0031 53.0039 59.0728 54.9061 58.1119 56.7951C57.2363 56.8717 56.3608 56.7754 55.5334 56.4865C54.7585 55.9962 54.1084 55.3395 53.6575 54.5405C53.2897 53.5555 53.3423 52.4895 53.4802 51.4673C53.9945 50.3597 54.8789 49.4622 55.993 48.9544Z" fill="#ade63e" fill-opacity="0.16"/>
  <path d="M95.9975 48.9129C96.9694 48.8232 97.9829 48.7641 98.9088 49.1384C99.9748 49.7031 100.712 50.6925 101.1 51.822C101.233 52.9186 101.17 54.0941 100.524 55.0309C100.023 55.8977 99.1102 56.3749 98.2259 56.7602C97.3043 56.8499 96.3609 56.8565 95.481 56.5347C93.9706 55.7905 93.025 54.2035 93.06 52.5246C93.2636 51.1369 94.0713 49.8914 95.3015 49.2019C95.5335 49.1077 95.7655 49.0114 95.9975 48.9129Z" fill="#ade63e" fill-opacity="0.16"/>
  <path d="M113.119 51.8787C113.439 50.48 114.575 49.3199 115.947 48.9281C116.899 48.7727 117.902 48.7989 118.817 49.1404C120.496 50.0138 121.474 52.0538 120.923 53.8969C120.599 55.2781 119.432 56.2609 118.154 56.7556C117.037 56.8695 115.825 56.8913 114.864 56.215C113.456 55.3219 112.677 53.5029 113.119 51.8787Z" fill="#ade63e" fill-opacity="0.16"/>
  <path d="M132.979 53.5777C132.598 51.8615 133.546 50.1301 134.995 49.2305C135 51.6273 135.004 54.0242 134.993 56.4232C134.041 55.7228 133.161 54.7947 132.979 53.5777Z" fill="#ade63e" fill-opacity="0.16"/>
  <path d="M0.175599 49.5127C0.278478 49.6418 0.379166 49.771 0.482045 49.9001C1.46487 50.9158 2.00772 52.4349 1.58307 53.8249C1.39701 54.7289 0.770983 55.425 0.158087 56.0729C0.109931 53.8883 0.0836641 51.6972 0.175599 49.5127Z" fill="#ade63e" fill-opacity="0.16"/>
  <path d="M6.52574 58.8159C7.15833 58.7393 7.79749 58.7196 8.43228 58.7743C8.68401 58.8596 8.93792 58.9428 9.19183 59.0194C10.1221 59.4988 10.8817 60.2781 11.3807 61.193C11.7594 62.2787 11.7266 63.4629 11.3085 64.5311C10.4745 66.0065 8.85255 66.9542 7.14082 66.8229C6.77308 66.7025 6.40097 66.5996 6.03104 66.488C5.70927 66.3085 5.39188 66.1203 5.07448 65.9342C5.02414 65.862 4.92126 65.7153 4.86873 65.6409C3.87496 64.8638 3.5904 63.568 3.54443 62.3685C3.79397 61.5082 4.03256 60.5779 4.73958 59.965C5.21895 59.42 5.88438 59.1179 6.52574 58.8159Z" fill="#ade63e" fill-opacity="0.16"/>
  <path d="M25.4468 59.2509C25.8474 59.0998 26.2436 58.9357 26.6398 58.7759C27.2111 58.7386 27.7846 58.7386 28.3559 58.7693C28.7564 58.9313 29.1614 59.0867 29.5685 59.2377C30.1004 59.6952 30.6017 60.1877 31.0548 60.724C31.2015 61.1268 31.3525 61.5295 31.5145 61.9301C31.5582 62.5671 31.5473 63.2062 31.4794 63.841C30.941 65.336 29.6736 66.4808 28.1151 66.8223C27.3884 66.8442 26.677 66.6975 25.9721 66.5465C25.5125 66.2685 25.0681 65.9686 24.65 65.6315C24.2889 65.185 23.9737 64.7034 23.7022 64.2C23.5687 63.5236 23.4396 62.8429 23.4658 62.1512C23.6738 61.5952 23.8795 61.0414 24.1247 60.5007C24.5493 60.0673 24.9827 59.6427 25.4468 59.2509Z" fill="#ade63e" fill-opacity="0.16"/>
  <path d="M46.5433 58.7827C47.1277 58.7345 47.7144 58.7389 48.301 58.7739C49.3714 59.0804 50.2075 59.8027 50.9036 60.6432C48.4433 61.0766 45.9435 61.2955 43.4941 61.7946C43.7765 60.617 44.6411 59.7129 45.6437 59.0869C45.9435 58.9884 46.2456 58.8899 46.5433 58.7827Z" fill="#ade63e" fill-opacity="0.16"/>
  <path d="M86.3881 58.7766C86.9551 58.7328 87.5242 58.7372 88.0933 58.7832C88.402 58.9035 88.715 59.0217 89.0302 59.1378C89.9845 59.7156 90.7266 60.589 91.1271 61.6331C88.6646 61.3114 86.2021 60.9764 83.7549 60.554C84.3021 60.033 84.8099 59.4595 85.471 59.0743C85.7774 58.9802 86.0817 58.8817 86.3881 58.7766Z" fill="#ade63e" fill-opacity="0.16"/>
  <path d="M105.552 58.997C106.399 58.7037 107.303 58.684 108.185 58.8175C109.483 59.321 110.672 60.3388 110.985 61.7485C111.344 62.9305 111 64.2132 110.32 65.2135C110.061 65.4456 109.814 65.6907 109.586 65.9512C108.995 66.3627 108.319 66.6144 107.632 66.8114C107.251 66.8092 106.87 66.8092 106.491 66.8071C105.314 66.5291 104.252 65.8439 103.604 64.813C102.855 63.5521 102.88 61.8754 103.661 60.6365C104.169 59.9689 104.804 59.3866 105.552 58.997Z" fill="#ade63e" fill-opacity="0.16"/>
  <path d="M123.49 60.7507C124.23 59.6168 125.46 58.7128 126.863 58.7303C128.004 58.6471 129.09 59.1746 129.891 59.9583C131.066 61.1578 131.346 63.0994 130.591 64.5944C130.335 65.1263 129.862 65.5006 129.499 65.9537C128.906 66.3521 128.234 66.6016 127.555 66.8118C127.172 66.8118 126.789 66.8052 126.408 66.8052C125.176 66.5316 124.073 65.7764 123.431 64.6841C122.781 63.4802 122.801 61.9349 123.49 60.7507Z" fill="#ade63e" fill-opacity="0.16"/>
  <path d="M17.017 68.6634C17.3651 68.6569 17.7131 68.6569 18.0612 68.6613C18.5208 68.8013 18.9827 68.9414 19.4402 69.0925C20.1319 69.5587 20.7338 70.1519 21.1935 70.8502C21.3664 71.3208 21.4977 71.8067 21.6619 72.2839C21.6116 73.026 21.4846 73.7636 21.2504 74.4728C20.6791 75.5366 19.6919 76.2918 18.5537 76.6683C17.3366 76.8325 16.0211 76.6902 15.0492 75.8759C14.3378 75.3681 13.9723 74.5494 13.6242 73.7789C13.517 72.864 13.5454 71.9337 13.8497 71.0581C14.4757 69.8148 15.649 68.9305 17.017 68.6634Z" fill="#ade63e" fill-opacity="0.16"/>
  <path d="M116.129 68.7857C116.915 68.5077 117.727 68.7441 118.511 68.9017C119.826 69.4971 120.868 70.7142 121.032 72.1764C121.319 73.9932 120.181 75.8888 118.447 76.4929C117.471 76.8716 116.389 76.7468 115.411 76.4447C114.345 75.8713 113.408 74.9431 113.139 73.7283C112.506 71.6226 113.988 69.2279 116.129 68.7857Z" fill="#ade63e" fill-opacity="0.16"/>
  <path d="M33.563 71.3663C34.2766 69.8888 35.6622 68.6937 37.363 68.6455C37.7811 68.8753 38.1007 69.2321 38.4377 69.5583C39.4249 70.5608 40.5019 71.4692 41.4606 72.498C41.4344 73.0321 41.395 73.5662 41.3337 74.1003C40.8631 74.9364 40.3224 75.8054 39.425 76.2367C37.5447 77.3224 34.8348 76.5781 33.8936 74.5884C33.3026 73.6165 33.4755 72.4411 33.563 71.3663Z" fill="#ade63e" fill-opacity="0.16"/>
  <path d="M97.5758 68.7383C97.9129 68.7842 98.25 68.8324 98.5893 68.8871C99.9092 69.4957 100.984 70.7127 101.133 72.1968C101.374 73.845 100.48 75.5918 98.968 76.3119C97.8976 76.8789 96.6214 76.8022 95.5007 76.4411C94.2727 75.7735 93.0535 74.517 93.233 73.0198C94.6317 71.5489 96.1158 70.1523 97.5758 68.7383Z" fill="#ade63e" fill-opacity="0.16"/>
  <path d="M133.028 73.6889C132.544 71.9312 133.459 70.0356 134.998 69.1338C134.998 71.5285 135.002 73.9253 134.998 76.32C134.107 75.6568 133.253 74.8206 133.028 73.6889Z" fill="#ade63e" fill-opacity="0.16"/>
  <path d="M0.153787 75.9483C0.112198 73.7769 0.08812 71.5989 0.171299 69.4297C1.18477 70.4541 1.98372 71.8922 1.66195 73.3741C1.51967 74.4007 0.891452 75.2588 0.153787 75.9483Z" fill="#ade63e" fill-opacity="0.16"/>
  <path d="M4.73717 79.873C5.99142 78.4371 8.33356 78.2247 9.87018 79.3192C10.4721 79.8445 11.1135 80.4049 11.3783 81.1863C11.9759 82.6573 11.6082 84.4828 10.413 85.5467C9.80013 86.2537 8.86984 86.4901 8.0096 86.7331C7.0027 86.7068 5.98486 86.4769 5.16182 85.8772C4.92542 85.6101 4.67369 85.3606 4.40665 85.1286C4.0017 84.5288 3.76529 83.8437 3.55078 83.1607C3.56829 81.9809 3.8244 80.6938 4.73717 79.873Z" fill="#ade63e" fill-opacity="0.16"/>
  <path d="M45.6483 78.9731C46.3137 78.7958 47.0251 78.5025 47.7124 78.6863C48.4982 79.2642 49.1637 79.9865 49.8597 80.6673C49.5204 82.5935 49.2118 84.5264 48.8463 86.4482C48.5048 86.5292 48.1655 86.619 47.8284 86.7109C47.5504 86.7087 47.2724 86.7021 46.9988 86.6978C46.6792 86.6168 46.3553 86.5445 46.0335 86.4832C45.0135 86.0564 44.197 85.2487 43.6739 84.2812C43.5841 83.9704 43.4944 83.6617 43.3893 83.3575C43.1047 81.5713 44.1291 79.8574 45.6483 78.9731Z" fill="#ade63e" fill-opacity="0.16"/>
  <path d="M87.1741 78.8771C87.3995 78.586 87.7848 78.6954 88.1022 78.667C89.4812 79.1201 90.7508 80.1708 91.0813 81.6352C91.5957 83.1805 90.8471 84.8354 89.687 85.8707C88.7085 86.5055 87.5046 86.9104 86.3423 86.5974C85.9921 84.623 85.6353 82.6508 85.3223 80.6698C85.9527 80.0854 86.5415 79.4594 87.1741 78.8771Z" fill="#ade63e" fill-opacity="0.16"/>
  <path d="M103.595 80.6411C104.335 79.5182 105.552 78.6207 106.944 78.6339C108.851 78.496 110.696 79.9822 111.029 81.8516C111.351 83.1934 110.865 84.7059 109.805 85.5968C109.03 86.4571 107.829 86.6869 106.726 86.7351C105.802 86.5008 104.832 86.2075 104.204 85.4436C102.91 84.2419 102.718 82.1361 103.595 80.6411Z" fill="#ade63e" fill-opacity="0.16"/>
  <path d="M125.977 78.7038C127.376 78.4565 128.961 78.7585 129.886 79.9187C129.95 79.9537 130.075 80.0237 130.138 80.0588C131.018 81.2933 131.311 82.9744 130.648 84.3731C129.926 85.8878 128.291 86.7744 126.634 86.7393C125.874 86.5358 125.112 86.3081 124.471 85.8375C123.596 85.0298 122.917 83.9485 122.959 82.7161C122.873 80.8709 124.281 79.2554 125.977 78.7038Z" fill="#ade63e" fill-opacity="0.16"/>
  <path d="M25.9369 78.9209C27.1889 78.459 28.6818 78.5203 29.7806 79.3258C30.376 79.8227 30.921 80.3962 31.2691 81.0989C31.3435 81.355 31.4245 81.6111 31.5121 81.865C31.6259 82.7405 31.5099 83.6205 31.1947 84.4435C30.7109 85.1243 30.1899 85.8291 29.426 86.2144C28.9488 86.4551 28.4235 86.5711 27.9179 86.7353C26.7183 86.6937 25.4181 86.4114 24.641 85.4132C24.5644 85.3651 24.409 85.2665 24.3324 85.2184C23.9428 84.5924 23.6735 83.9072 23.4722 83.2002C23.4744 82.8128 23.4765 82.4253 23.4809 82.0401C23.748 80.8581 24.4681 79.8709 25.4334 79.1595C25.5582 79.1004 25.8121 78.98 25.9369 78.9209Z" fill="#ade63e" fill-opacity="0.16"/>
  <path d="M16.8136 88.6437C18.5582 88.2431 20.329 89.2719 21.209 90.7626C21.395 91.3514 21.5855 91.949 21.6424 92.5706C21.6117 93.1945 21.4213 93.8008 21.2353 94.3962C20.5633 95.6351 19.2937 96.5413 17.8709 96.6223C16.2905 96.7755 14.6882 95.8781 13.9856 94.4597C13.4055 93.398 13.4799 92.1109 13.8389 90.9902C14.4387 89.8323 15.4894 88.8517 16.8136 88.6437Z" fill="#ade63e" fill-opacity="0.16"/>
  <path d="M36.518 88.6898C38.5602 88.1076 40.7097 89.5085 41.3796 91.4479C41.4649 92.4307 41.5175 93.4551 41.1366 94.3898C40.2369 96.1321 38.0809 97.0909 36.2028 96.4364C34.8916 96.0687 33.9898 94.9392 33.5279 93.7068C33.4601 92.9188 33.4622 92.1264 33.5629 91.3428C34.1321 90.1061 35.1324 88.9744 36.518 88.6898Z" fill="#ade63e" fill-opacity="0.16"/>
  <path d="M96.4573 88.6287C98.2456 88.2654 100.115 89.3423 100.855 90.9818C100.929 91.216 101.01 91.4502 101.096 91.6845C101.288 92.9234 101.08 94.2893 100.203 95.2371C99.0709 96.6248 96.9695 97.0276 95.3781 96.2308C93.6358 95.4472 92.6639 93.2758 93.279 91.459C93.6861 90.0077 94.9776 88.8826 96.4573 88.6287Z" fill="#ade63e" fill-opacity="0.16"/>
  <path d="M116.549 88.5936C117.852 88.4229 119.233 88.9526 120.084 89.9552C120.999 91.0036 121.308 92.5381 120.875 93.8602C120.373 95.4909 118.725 96.6926 117.011 96.6335C115.159 96.6598 113.413 95.2414 113.084 93.4136C112.561 91.1941 114.286 88.8235 116.549 88.5936Z" fill="#ade63e" fill-opacity="0.16"/>
  <path d="M0.149379 89.3643C0.276336 89.4825 0.405482 89.5985 0.532439 89.7167C1.42114 90.7258 1.9815 92.1354 1.61814 93.4772C1.44522 94.4272 0.836698 95.2065 0.153756 95.8544C0.101222 93.6917 0.114356 91.5269 0.149379 89.3643Z" fill="#ade63e" fill-opacity="0.16"/>
  <path d="M133.032 93.6126C132.539 91.8549 133.441 89.9287 134.997 89.0312C135 91.4259 135 93.8206 134.997 96.2153C134.102 95.5717 133.273 94.729 133.032 93.6126Z" fill="#ade63e" fill-opacity="0.16"/>
  <path d="M5.54511 99.0891C6.89129 98.277 8.74968 98.3339 9.99517 99.3146C10.5927 99.8377 11.1859 100.427 11.4267 101.208C11.7419 101.994 11.6566 102.861 11.5559 103.681C11.0021 105.174 9.68216 106.442 8.04047 106.562C5.5079 106.939 3.10009 104.369 3.65389 101.871C3.82462 100.707 4.59293 99.7348 5.54511 99.0891Z" fill="#ade63e" fill-opacity="0.16"/>
  <path d="M25.5999 98.9998C26.8826 98.3103 28.5637 98.3694 29.761 99.2121C30.3783 99.7112 30.919 100.313 31.2933 101.016C31.5384 101.854 31.6741 102.756 31.4312 103.612C31.0065 105.092 29.6975 106.333 28.1478 106.53C27.0468 106.764 25.9348 106.352 25.0067 105.779C24.9345 105.658 24.79 105.42 24.7178 105.299C24.6368 105.262 24.4792 105.188 24.3982 105.151C24.2318 104.903 24.0633 104.66 23.8947 104.417C23.8794 104.356 23.851 104.236 23.8356 104.174C23.7109 103.822 23.597 103.465 23.4766 103.113C23.4723 102.728 23.4745 102.344 23.4766 101.964C23.7634 100.738 24.5033 99.6302 25.5999 98.9998Z" fill="#ade63e" fill-opacity="0.16"/>
  <path d="M63.5426 101.02C64.2278 99.6845 65.5324 98.5419 67.1018 98.5353C68.3823 98.4237 69.5972 99.0497 70.418 100.006C70.5734 100.219 70.7267 100.431 70.8821 100.645C71.0397 101.094 71.1929 101.547 71.3549 101.998C71.3921 102.738 71.2411 103.463 71.0681 104.176C70.4312 105.174 69.5753 106.175 68.367 106.444C67.0033 106.836 65.4886 106.411 64.4664 105.444C63.5142 104.489 63.0895 103.115 63.304 101.786C63.3894 101.532 63.4682 101.276 63.5426 101.02Z" fill="#ade63e" fill-opacity="0.16"/>
  <path d="M103.151 101.67C103.575 99.8028 105.456 98.334 107.393 98.5398C109.702 98.6317 111.558 101.055 111.055 103.307C110.744 105.039 109.168 106.475 107.402 106.577C106.025 106.72 104.744 106.017 103.849 105.017C103.19 104.043 102.879 102.832 103.151 101.67Z" fill="#ade63e" fill-opacity="0.16"/>
  <path d="M123.204 101.158C124.007 98.8574 127.025 97.7564 129.087 99.1069C131.243 100.346 131.716 103.706 129.825 105.38C128.492 106.893 126.027 106.934 124.471 105.742C123.162 104.645 122.573 102.776 123.204 101.158Z" fill="#ade63e" fill-opacity="0.16"/>
  <path d="M43.6561 100.908C44.3631 99.7527 45.4269 98.772 46.7994 98.5312C46.3966 100.711 46.0573 102.905 45.6589 105.087C47.583 104.06 49.5158 103.051 51.4508 102.047C51.4442 102.469 51.4355 102.896 51.4245 103.321C51.2034 103.951 50.932 104.566 50.5796 105.135C50.5074 105.179 50.3651 105.269 50.2929 105.313C48.8766 107.002 45.9391 107.018 44.5294 105.308C44.4594 105.267 44.3193 105.181 44.2493 105.137C44.0347 104.776 43.829 104.411 43.6342 104.041C43.5576 103.782 43.4744 103.526 43.3868 103.275C43.3015 102.469 43.4613 101.683 43.6561 100.908Z" fill="#ade63e" fill-opacity="0.16"/>
  <path d="M88.4239 98.6426C89.757 99.2226 90.9302 100.37 91.1623 101.856C91.7489 104.434 89.155 107.083 86.559 106.527C84.9961 106.35 83.8031 105.087 83.2537 103.679C83.1793 103.047 83.1596 102.412 83.1727 101.777C85.2938 102.81 87.3404 103.992 89.4593 105.032C89.1747 102.893 88.7173 100.781 88.4239 98.6426Z" fill="#ade63e" fill-opacity="0.16"/>
  <path d="M16.5489 108.609C17.9564 108.208 19.5565 108.699 20.5415 109.771C21.3382 110.594 21.5922 111.746 21.6753 112.853C21.5615 113.23 21.4586 113.611 21.3667 113.994C20.9421 114.836 20.3576 115.642 19.4842 116.064C18.0242 116.855 16.0695 116.651 14.8591 115.495C14.0207 114.74 13.5107 113.624 13.561 112.49C13.4954 110.71 14.8328 109.029 16.5489 108.609Z" fill="#ade63e" fill-opacity="0.16"/>
  <path d="M33.7536 110.925C34.465 109.231 36.4197 108.145 38.2321 108.552C39.749 108.826 41.0405 110.067 41.3841 111.568C41.4804 112.531 41.5374 113.591 41.0011 114.445C40.0861 116.277 37.652 117.047 35.8133 116.196C34.7014 115.736 33.9681 114.712 33.5325 113.628C33.48 112.728 33.353 111.767 33.7536 110.925Z" fill="#ade63e" fill-opacity="0.16"/>
  <path d="M53.8389 110.487C54.7605 108.994 56.6276 108.099 58.3547 108.604C59.7096 108.902 60.699 110.016 61.2506 111.24C61.3557 112.028 61.3579 112.827 61.2878 113.621C60.896 114.545 60.3575 115.467 59.4469 115.966C57.5754 117.148 54.7889 116.434 53.8061 114.425C53.2326 113.519 53.3727 112.407 53.4384 111.393C53.5741 111.091 53.7054 110.787 53.8389 110.487Z" fill="#ade63e" fill-opacity="0.16"/>
  <path d="M73.5963 110.686C74.474 109.152 76.293 108.134 78.066 108.561C79.5195 108.808 80.5833 109.979 81.1677 111.271C81.2575 112.273 81.3823 113.359 80.8744 114.28C80.0733 116.018 77.9325 116.955 76.1092 116.375C75.0016 116.088 74.1501 115.257 73.581 114.3C73.1541 113.146 73.1673 111.838 73.5963 110.686Z" fill="#ade63e" fill-opacity="0.16"/>
  <path d="M95.7722 108.716C97.241 108.16 99.0249 108.576 100.076 109.749C101.074 110.758 101.393 112.315 101.01 113.663C100.588 115.125 99.2657 116.296 97.7488 116.495C96.1552 116.745 94.4238 115.957 93.6424 114.53C93.3447 114.033 93.2287 113.462 93.0711 112.912C93.0689 112.146 93.2527 111.395 93.4979 110.675C94.0429 109.819 94.7806 109.033 95.7722 108.716Z" fill="#ade63e" fill-opacity="0.16"/>
  <path d="M116.492 108.508C118.734 108.132 121.002 110.001 121.061 112.271C121.24 114.278 119.669 116.229 117.675 116.491C115.632 116.859 113.461 115.406 113.095 113.35C112.548 111.146 114.24 108.756 116.492 108.508Z" fill="#ade63e" fill-opacity="0.16"/>
  <path d="M6.37695 118.575C7.36197 118.38 8.42578 118.347 9.34731 118.809C10.6563 119.479 11.6676 120.843 11.6522 122.353C11.7289 123.277 11.3305 124.133 10.8905 124.916C9.19846 122.946 7.69249 120.814 6.37695 118.575Z" fill="#ade63e" fill-opacity="0.16"/>
  <path d="M25.5957 118.908C26.8915 118.203 28.5967 118.275 29.8006 119.144C30.4485 119.681 31.0811 120.307 31.3328 121.134C31.8669 122.566 31.4576 124.264 30.3544 125.317C29.3694 126.328 27.8393 126.72 26.4822 126.357C25.298 126.087 24.3961 125.146 23.8117 124.126C23.7023 123.752 23.5994 123.375 23.4834 123.005C23.4768 122.627 23.4746 122.25 23.4746 121.876C23.7504 120.646 24.5034 119.547 25.5957 118.908Z" fill="#ade63e" fill-opacity="0.16"/>
  <path d="M43.7133 120.749C44.5057 119.37 45.9723 118.273 47.6293 118.437C49.1593 118.448 50.3873 119.543 51.1337 120.788C51.2235 121.095 51.311 121.403 51.4183 121.707C51.4424 122.202 51.4446 122.699 51.4249 123.198C51.3351 123.448 51.2563 123.699 51.1819 123.955C50.9805 124.325 50.766 124.691 50.5471 125.052C50.4749 125.096 50.3282 125.183 50.256 125.227C48.8835 126.915 45.9373 126.915 44.5648 125.229C44.4926 125.183 44.3525 125.094 44.2824 125.05C44.0811 124.73 43.8819 124.413 43.6892 124.091C43.5929 123.791 43.4966 123.489 43.3916 123.194C43.374 122.706 43.374 122.22 43.3916 121.734C43.5076 121.408 43.6061 121.077 43.7133 120.749Z" fill="#ade63e" fill-opacity="0.16"/>
  <path d="M63.5183 120.941C64.2078 119.595 65.5146 118.461 67.0885 118.435C68.4062 118.308 69.6013 118.993 70.4638 119.934C70.8775 120.528 71.1358 121.206 71.3547 121.894C71.3919 122.629 71.2343 123.347 71.0701 124.061C70.8556 124.385 70.6411 124.709 70.4309 125.039C70.3609 125.083 70.2208 125.173 70.1508 125.216C68.7892 126.93 65.8298 126.902 64.4442 125.229C64.372 125.188 64.2297 125.103 64.1575 125.061C63.7876 124.498 63.5118 123.885 63.2885 123.255C63.2316 122.474 63.2797 121.688 63.5183 120.941Z" fill="#ade63e" fill-opacity="0.16"/>
  <path d="M86.0555 118.588C88.1569 117.903 90.5822 119.313 91.0835 121.44C91.8255 123.756 89.8774 126.398 87.4696 126.479C85.2653 126.696 83.129 124.759 83.1596 122.541C83.0699 120.766 84.3854 119.089 86.0555 118.588Z" fill="#ade63e" fill-opacity="0.16"/>
  <path d="M104.263 119.628C105.686 118.043 108.481 118.024 109.906 119.613C111.326 120.88 111.506 123.218 110.416 124.75C109.818 125.468 109.098 126.149 108.155 126.352C106.898 126.714 105.567 126.342 104.512 125.628C104.466 125.551 104.374 125.4 104.328 125.324C102.634 123.949 102.647 121.06 104.263 119.628Z" fill="#ade63e" fill-opacity="0.16"/>
  <path d="M125.134 118.875C126.229 118.288 127.542 118.339 128.685 118.752C127.325 121.051 125.765 123.231 124.005 125.24C123.304 124.36 122.84 123.255 122.974 122.112C123.046 120.74 123.959 119.525 125.134 118.875Z" fill="#ade63e" fill-opacity="0.16"/>
  <path d="M15.0581 129.181C16.0803 128.55 17.3214 128.161 18.5166 128.498C19.6986 128.734 20.6267 129.599 21.2287 130.608C21.4957 131.321 21.5986 132.077 21.684 132.832C21.5658 133.195 21.4476 133.558 21.3447 133.931C19.112 132.543 16.9865 130.967 15.0581 129.181Z" fill="#ade63e" fill-opacity="0.16"/>
  <path d="M33.5324 131.288C34.0731 129.85 35.2989 128.603 36.8771 128.423C38.6019 128.121 40.2896 129.13 41.128 130.61C41.5964 131.941 41.6423 133.561 40.7602 134.738C39.6592 136.393 37.2645 136.927 35.5396 135.964C34.605 135.478 33.9987 134.581 33.5609 133.652C33.4602 132.867 33.458 132.074 33.5324 131.288Z" fill="#ade63e" fill-opacity="0.16"/>
  <path d="M53.6901 130.61C54.557 129.071 56.3562 128.055 58.1315 128.456C59.5958 128.681 60.6772 129.855 61.2572 131.153C61.3557 131.945 61.3579 132.746 61.2835 133.543C60.8917 134.478 60.316 135.375 59.412 135.887C57.7265 136.923 55.3143 136.467 54.1476 134.858C53.1889 133.672 53.1911 131.989 53.6901 130.61Z" fill="#ade63e" fill-opacity="0.16"/>
  <path d="M73.5896 130.616C74.1938 129.61 75.1197 128.732 76.3061 128.495C78.0944 128.02 80.1016 128.981 80.8787 130.651C81.3712 131.571 81.2749 132.648 81.1567 133.646C80.7036 134.633 80.025 135.572 79.0181 136.045C77.232 136.94 74.8198 136.277 73.8151 134.532C73.3642 133.849 73.27 133.026 73.1453 132.238C73.2854 131.696 73.4211 131.153 73.5896 130.616Z" fill="#ade63e" fill-opacity="0.16"/>
  <path d="M95.8508 128.592C98.1207 127.734 100.842 129.399 101.124 131.801C101.494 133.852 100.005 136.001 97.9522 136.362C95.9647 136.818 93.7648 135.509 93.2635 133.526C92.6156 131.54 93.8589 129.196 95.8508 128.592Z" fill="#ade63e" fill-opacity="0.16"/>
  <path d="M113.205 131.157C113.741 129.378 115.632 128.174 117.471 128.404C118.346 128.471 119.123 128.918 119.826 129.413C117.874 131.262 115.639 132.784 113.391 134.244C113.021 133.261 112.826 132.169 113.205 131.157Z" fill="#ade63e" fill-opacity="0.16"/>
  <path d="M27.8457 138.273C28.5746 138.479 29.3561 138.647 29.9427 139.159C30.4133 139.578 30.8226 140.061 31.2363 140.536C30.0937 139.801 28.9555 139.059 27.8457 138.273Z" fill="#ade63e" fill-opacity="0.16"/>
  <path d="M44.5644 139.604C45.9259 137.903 48.8875 137.912 50.2578 139.6C50.33 139.643 50.4723 139.731 50.5423 139.772C50.7612 140.131 50.9757 140.497 51.1771 140.869C51.2537 141.121 51.3369 141.375 51.4245 141.626C51.442 142.121 51.442 142.616 51.4245 143.111C51.3128 143.408 51.2121 143.71 51.1115 144.012C50.9188 144.33 50.7218 144.645 50.5248 144.962C50.4548 145.006 50.3191 145.089 50.249 145.133C49.299 146.335 47.5479 146.65 46.1382 146.197C45.0525 145.873 44.2799 144.96 43.691 144.043C43.5969 143.723 43.505 143.406 43.3955 143.095C43.3758 142.607 43.3736 142.121 43.389 141.637C43.4984 141.329 43.6013 141.022 43.7042 140.714C43.8902 140.396 44.085 140.081 44.282 139.77C44.3521 139.729 44.4944 139.645 44.5644 139.604Z" fill="#ade63e" fill-opacity="0.16"/>
  <path d="M65.2674 138.882C66.4603 138.177 68.0232 138.153 69.2381 138.82C69.7087 139.079 70.0523 139.501 70.4682 139.834C70.8754 140.425 71.138 141.093 71.346 141.778C71.3438 142.159 71.3416 142.544 71.335 142.929C71.2168 143.299 71.114 143.675 71.0023 144.05C70.2647 145.378 68.9053 146.447 67.3249 146.396C65.6767 146.462 64.2429 145.322 63.5359 143.899C63.4637 143.634 63.3849 143.373 63.2995 143.117C63.2733 142.603 63.2733 142.091 63.2908 141.581C63.5841 140.467 64.2977 139.501 65.2674 138.882Z" fill="#ade63e" fill-opacity="0.16"/>
  <path d="M84.2541 139.643C85.3901 138.297 87.463 137.971 89.0128 138.757C89.5578 139.002 89.9256 139.492 90.3809 139.862C91.0091 140.801 91.4469 141.981 91.1492 143.113C90.8296 144.934 89.1069 146.418 87.2442 146.398C86.1541 146.409 85.0465 145.989 84.3416 145.142C84.2716 145.098 84.1337 145.015 84.0637 144.971C83.766 144.5 83.5077 144.008 83.2625 143.511C83.002 142.16 83.2078 140.624 84.2541 139.643Z" fill="#ade63e" fill-opacity="0.16"/>
  <path d="M105.353 138.722C105.966 138.42 106.656 138.363 107.323 138.284C105.962 139.219 104.589 140.136 103.197 141.027C103.696 140.092 104.372 139.182 105.353 138.722Z" fill="#ade63e" fill-opacity="0.16"/>
  <path d="M53.907 150.225C54.9336 148.397 57.4924 147.747 59.2983 148.778C60.2723 149.268 60.8852 150.218 61.2858 151.199C61.358 151.991 61.3558 152.788 61.2551 153.58C60.697 154.802 59.7142 155.925 58.3527 156.225C56.5468 156.748 54.5811 155.747 53.7209 154.121C53.6312 153.887 53.537 153.657 53.4407 153.429C53.3444 152.348 53.2547 151.164 53.907 150.225Z" fill="#ade63e" fill-opacity="0.16"/>
  <path d="M73.5918 150.513C74.4586 148.883 76.4199 147.913 78.2345 148.405C79.6529 148.712 80.6861 149.892 81.1873 151.203C81.2683 151.984 81.2552 152.772 81.1655 153.554C80.6357 154.683 79.7864 155.762 78.5453 156.139C76.8248 156.765 74.7432 156.007 73.8195 154.431C73.3642 153.751 73.2744 152.928 73.1475 152.142C73.2876 151.597 73.4255 151.05 73.5918 150.513Z" fill="#ade63e" fill-opacity="0.16"/>
  <path d="M64.4378 159.425C65.9197 157.886 68.7872 157.801 70.1618 159.519C70.2341 159.563 70.3785 159.65 70.4508 159.694C70.639 160.005 70.8229 160.32 71.0024 160.638C71.1184 160.959 71.2344 161.283 71.3635 161.605C71.2957 161.874 71.4205 162.266 71.1162 162.424C69.9539 163.24 68.7565 164.006 67.5745 164.794C66.1255 163.827 64.6567 162.89 63.2383 161.879C63.3346 161.498 63.4397 161.119 63.5316 160.738C63.7877 160.27 64.0876 159.825 64.4378 159.425Z" fill="#ade63e" fill-opacity="0.16"/>
  <path d="M64.5883 6.64159C65.6096 6.43246 66.6187 6.134 67.6501 6C68.5678 6.21522 69.5281 6.31673 70.4012 6.68016C70.7057 7.14105 70.8742 7.67097 71.061 8.18667C71.061 8.59274 71.0692 8.99881 71.0631 9.40488C70.9169 9.82516 70.7687 10.2434 70.6306 10.6657C70.1758 11.2728 69.6398 11.825 68.984 12.2149C68.6977 12.3164 68.4135 12.4179 68.1333 12.5275C67.6034 12.5681 67.0714 12.5681 66.5435 12.5336C66.1699 12.3874 65.8004 12.2433 65.4248 12.1052C64.9193 11.687 64.4584 11.2159 64.0361 10.7165C63.9041 10.3388 63.7579 9.96525 63.6117 9.5937C63.5853 9.09627 63.5813 8.59883 63.5975 8.10343C63.8493 7.58975 63.9082 6.7695 64.5883 6.64159Z" fill="#ade63e"/>
  <path d="M45.6577 10.8607C48.0231 10.3328 50.3823 9.75008 52.7659 9.31152C52.705 9.37243 52.5791 9.49425 52.5182 9.55719C52.4147 9.93687 52.2929 10.3145 52.1751 10.6901C51.7528 11.2099 51.2817 11.687 50.762 12.1073C50.3945 12.2433 50.029 12.3875 49.6656 12.5316C49.1337 12.5682 48.6017 12.5682 48.0718 12.5276C47.7896 12.422 47.5053 12.3286 47.2211 12.2332C46.6242 11.8657 46.143 11.3561 45.6577 10.8607Z" fill="#ade63e"/>
  <path d="M82.0149 9.17578C84.3559 9.726 86.7192 10.191 89.0561 10.7716C88.6236 11.2406 88.1749 11.6954 87.6856 12.1035C86.8491 12.4873 85.9375 12.672 85.0198 12.5319C84.7843 12.4507 84.5508 12.3756 84.3132 12.3086C83.4585 11.868 82.76 11.1493 82.2971 10.3087C82.2057 9.93107 82.1002 9.55545 82.0149 9.17578Z" fill="#ade63e"/>
  <path d="M38.06 14.6245C39.2133 14.1961 40.5127 14.2652 41.6111 14.8174C42.0557 15.1707 42.4618 15.5686 42.8151 16.0133C42.9491 16.2793 43.0892 16.5432 43.2354 16.8031C43.3552 17.6315 43.3572 18.4741 43.2394 19.3045C42.7582 20.3338 41.938 21.1663 40.9025 21.6434C40.5716 21.6861 40.2406 21.7145 39.9097 21.747C39.7168 21.7449 39.5239 21.7429 39.331 21.7409C39.0062 21.7185 38.6834 21.6657 38.3605 21.6373C37.457 21.1947 36.6794 20.5227 36.2063 19.6253C35.916 18.8172 35.8998 17.9543 35.9932 17.1076C36.1069 16.8315 36.2206 16.5554 36.3343 16.2793C36.7322 15.5626 37.3535 15.0225 38.06 14.6245Z" fill="#ade63e"/>
  <path d="M93.4557 14.6107C94.278 14.3123 95.1571 14.3143 96.018 14.4057C96.6007 14.6838 97.2159 14.9417 97.6727 15.4168C98.1478 15.8837 98.3996 16.5111 98.6676 17.108C98.7224 17.7273 98.7244 18.3506 98.6717 18.9699C98.3184 20.0216 97.6321 20.9433 96.6352 21.459C96.1033 21.6377 95.5429 21.7514 94.9947 21.8306C94.615 21.8834 94.2902 21.6073 93.9085 21.6479C93.6973 21.5768 93.4882 21.4976 93.2852 21.4103C92.3634 20.8439 91.5695 19.9789 91.3543 18.8886C90.8792 17.1852 91.9188 15.368 93.4557 14.6107Z" fill="#ade63e"/>
  <path d="M56.5299 14.6166C57.943 14.0968 59.6627 14.2876 60.7449 15.3962C61.7885 16.4012 62.0159 17.9788 61.6342 19.331C61.5245 19.5685 61.4129 19.8061 61.3073 20.0436C60.8058 20.7279 60.1358 21.2537 59.3846 21.6415C58.5379 21.7633 57.677 21.7694 56.8324 21.6415C55.7949 21.1664 54.9706 20.332 54.4975 19.2965C54.3737 18.3483 54.3209 17.3595 54.6681 16.4499C55.1026 15.6723 55.7482 15.0429 56.5299 14.6166Z" fill="#ade63e"/>
  <path d="M75.0407 14.6151C75.8305 14.2923 76.6934 14.3309 77.5258 14.3999C78.1167 14.6781 78.7501 14.9278 79.2151 15.4069C79.68 15.8699 79.9318 16.4911 80.2059 17.0759C80.3094 17.9753 80.2749 18.8991 79.9318 19.7478C79.5683 20.3183 79.1217 20.832 78.5735 21.232C78.3217 21.364 78.072 21.5 77.8263 21.6421C76.9837 21.7619 76.129 21.7721 75.2864 21.6462C74.2651 21.1609 73.4408 20.3447 72.9637 19.3194C72.8621 18.3205 72.6997 17.22 73.2317 16.3104C73.5261 15.6973 74.06 15.2526 74.5798 14.8344C74.6955 14.7796 74.925 14.6699 75.0407 14.6151Z" fill="#ade63e"/>
  <path d="M17.5291 17.1163C19.6569 16.6047 21.803 16.158 23.9368 15.6748C24.0201 15.7174 24.1845 15.8027 24.2658 15.8454C24.4221 16.156 24.5825 16.4646 24.7469 16.7712C24.8363 17.3417 24.9317 17.9102 24.9784 18.4868C24.7713 19.2523 24.4566 19.9893 23.9673 20.6187C23.4922 21.0105 22.9785 21.3496 22.4405 21.646C21.4842 21.7699 20.4853 21.8308 19.5655 21.4755C18.5341 20.9029 17.7159 19.9182 17.5149 18.7345C17.4438 18.1965 17.4926 17.6544 17.5291 17.1163Z" fill="#ade63e"/>
  <path d="M109.804 18.8806C109.481 17.7233 109.934 16.5315 110.58 15.5752C112.772 15.965 114.935 16.5092 117.107 16.9944C117.223 17.9101 117.251 18.8806 116.807 19.7191C116.472 20.4927 115.796 21.0185 115.109 21.4632C114.25 21.8022 113.317 21.7718 112.415 21.6845C112.139 21.5586 111.857 21.4388 111.581 21.319C110.74 20.7323 110.001 19.9181 109.804 18.8806Z" fill="#ade63e"/>
  <path d="M29.7986 23.5525C30.2006 23.5404 30.6026 23.5404 31.0046 23.5444C31.4188 23.6926 31.835 23.8327 32.2492 23.9809C32.5192 24.188 32.7791 24.4073 33.039 24.6286C33.3192 24.9393 33.5689 25.2743 33.8044 25.6215C33.906 25.9098 34.0095 26.196 34.1212 26.4823C34.1557 27.0082 34.1577 27.5361 34.1212 28.064C34.0156 28.3462 33.9181 28.6324 33.8227 28.9208C33.4329 29.5664 32.8847 30.0984 32.2939 30.5592C31.9629 30.6912 31.6381 30.8333 31.3152 30.9795C30.7914 31.0161 30.2676 31.0282 29.7438 31.0161C28.3773 30.6608 27.1307 29.6456 26.8059 28.2304C26.4912 27.3554 26.7389 26.4295 27.0515 25.5951C27.1165 25.4935 27.2424 25.2905 27.3053 25.191C27.4576 25.0002 27.6139 24.8114 27.7723 24.6246C28.1743 24.2936 28.6068 24.0012 29.0717 23.7637C29.3154 23.6987 29.559 23.6297 29.7986 23.5525Z" fill="#ade63e"/>
  <path d="M66.7121 23.5426C67.1202 23.5385 67.5283 23.5426 67.9364 23.5527C68.2165 23.6461 68.5008 23.7273 68.7871 23.8065C69.4307 24.1375 69.9545 24.639 70.456 25.1506C70.6814 25.6399 70.8743 26.1434 71.0631 26.649C71.0651 27.0551 71.0651 27.4632 71.059 27.8713C70.9819 28.0966 70.9088 28.324 70.8418 28.5514C70.7098 28.8377 70.5778 29.124 70.4459 29.4123C70.0499 29.8143 69.6439 30.2102 69.2053 30.5675C68.3282 30.9817 67.3658 31.1218 66.4055 30.9797C66.0867 30.8315 65.7659 30.6873 65.4431 30.5533C64.9172 30.1594 64.4584 29.6843 64.0442 29.1788C63.9061 28.7971 63.76 28.4215 63.6077 28.0459C63.5813 27.5322 63.5833 27.0165 63.6097 26.5028C63.762 26.1394 63.9061 25.7719 64.0503 25.4044C64.2635 25.1344 64.4828 24.8724 64.7081 24.6126C65.2563 24.0623 65.9852 23.774 66.7121 23.5426Z" fill="#ade63e"/>
  <path d="M11.2918 23.5482C11.7101 23.5381 12.1304 23.5381 12.5486 23.5401C13.7465 23.8081 14.7475 24.5898 15.3667 25.6375C15.4561 25.9156 15.5495 26.1897 15.6489 26.4638C15.7017 27.0039 15.6997 27.548 15.6571 28.0901C15.5129 28.4535 15.3728 28.821 15.2327 29.1865C14.8084 29.686 14.3455 30.155 13.8358 30.5692C13.4562 30.7052 13.0785 30.8493 12.7049 30.9996C12.2339 31.0199 11.7608 31.0239 11.2898 31.0158C9.70208 30.6483 8.45951 29.3185 8.20166 27.7084C8.20775 27.4282 8.21384 27.148 8.22196 26.8678C8.29709 26.5775 8.36409 26.2831 8.425 25.9887C8.66052 25.5075 8.95085 25.0548 9.28789 24.6385C9.86045 24.1188 10.5569 23.7736 11.2918 23.5482Z" fill="#ade63e"/>
  <path d="M46.2201 24.6307C46.7825 24.0886 47.5012 23.7719 48.2382 23.5465C48.6544 23.5343 49.0727 23.5465 49.4909 23.5445C50.1122 23.7516 50.7234 23.9952 51.2634 24.3729C51.9111 24.9962 52.3659 25.7758 52.6055 26.6407C52.7009 27.5036 52.504 28.3462 52.1649 29.134C51.9497 29.4 51.7324 29.6639 51.5091 29.9218C50.4147 31.0608 48.6666 31.3126 47.2393 30.7014C46.8901 30.4537 46.5449 30.202 46.2241 29.9218C46.0008 29.6619 45.7835 29.4 45.5744 29.1299C45.4262 28.7178 45.282 28.3036 45.1338 27.8914C45.1338 27.4732 45.1217 27.057 45.1338 26.6407C45.3572 25.9058 45.68 25.1911 46.2201 24.6307Z" fill="#ade63e"/>
  <path d="M85.18 23.5418C85.5983 23.5418 86.0185 23.5378 86.4388 23.5479C87.19 23.7753 87.8966 24.1326 88.4793 24.6646C89.0316 25.2879 89.326 26.0696 89.5493 26.8594C89.5493 27.7385 89.3138 28.5933 88.93 29.377C88.2783 30.1546 87.4438 30.7617 86.451 31.0135C85.982 31.0236 85.513 31.0196 85.048 30.9952C84.7577 30.8896 84.4633 30.8003 84.173 30.7049C83.438 30.2582 82.8126 29.641 82.3599 28.91C82.2685 28.6298 82.1792 28.3476 82.0776 28.0715C82.035 27.5396 82.033 27.0035 82.0837 26.4716C82.1792 26.1975 82.2726 25.9193 82.3619 25.6432C82.9852 24.5976 83.9801 23.8078 85.18 23.5418Z" fill="#ade63e"/>
  <path d="M102.401 23.9682C102.826 23.8322 103.248 23.686 103.672 23.5419C104.081 23.5398 104.491 23.5378 104.903 23.5459C105.49 23.7632 106.07 24.0048 106.604 24.3357C106.649 24.4047 106.738 24.5428 106.783 24.6118C108.332 25.9011 108.35 28.5162 106.895 29.8806C106.381 30.4755 105.644 30.7719 104.917 31.0135C104.444 31.0216 103.971 31.0216 103.5 31.0013C103.122 30.8551 102.745 30.711 102.367 30.5749C101.717 30.0065 100.982 29.438 100.714 28.5791C100.361 27.6777 100.469 26.6767 100.759 25.7752C101.151 25.0484 101.758 24.4718 102.401 23.9682Z" fill="#ade63e"/>
  <path d="M122.173 23.54C122.567 23.54 122.961 23.5421 123.359 23.5543C123.635 23.6578 123.919 23.7492 124.201 23.8446C124.496 24.0192 124.788 24.1979 125.082 24.3765C125.123 24.4415 125.202 24.5714 125.243 24.6364C126.816 25.9135 126.788 28.6098 125.281 29.9315C124.79 30.5021 124.083 30.7843 123.387 31.0117C122.916 31.0218 122.445 31.0198 121.978 30.9995C121.698 30.9 121.418 30.8147 121.137 30.7315C119.901 30.0249 118.874 28.7621 118.945 27.2677C118.884 25.7937 119.895 24.5532 121.111 23.8486C121.464 23.7492 121.82 23.6497 122.173 23.54Z" fill="#ade63e"/>
  <path d="M19.5821 33.0849C20.4836 32.7377 21.4642 32.7783 22.4063 32.9062C23.4296 33.3752 24.2823 34.1711 24.7513 35.2025C24.7919 35.4786 24.8325 35.7527 24.8711 36.0309C24.9097 36.2684 24.9462 36.508 24.9787 36.7496C24.8792 37.1049 24.8082 37.4684 24.727 37.8298C24.2904 38.8652 23.4215 39.6307 22.4266 40.1159C21.4764 40.2357 20.4896 40.2824 19.5801 39.9352C18.5872 39.4134 17.8928 38.5079 17.5254 37.4623C17.4746 36.8308 17.4766 36.1974 17.5233 35.568C17.8949 34.5203 18.5832 33.6026 19.5821 33.0849Z" fill="#ade63e"/>
  <path d="M38.0497 33.0788C38.9614 32.7417 39.9562 32.76 40.9003 32.9326C41.146 33.0625 41.3917 33.1904 41.6414 33.3143C42.3338 33.8077 42.8515 34.4899 43.2352 35.2431C43.357 36.0817 43.3591 36.9344 43.2332 37.7709C42.8556 38.5323 42.3338 39.2145 41.6394 39.7099C41.3937 39.8276 41.1541 39.9515 40.9146 40.0794C39.9664 40.2662 38.9675 40.2743 38.0518 39.9413C37.2437 39.4723 36.5087 38.8165 36.1798 37.9171C35.7717 36.9303 35.9077 35.7994 36.2549 34.8147C36.6955 34.0899 37.3127 33.497 38.0497 33.0788Z" fill="#ade63e"/>
  <path d="M75.3065 32.9059C76.2993 32.7719 77.3368 32.7374 78.2789 33.1394C78.9184 33.5536 79.491 34.0795 79.8666 34.7535C79.9762 35.0337 80.092 35.3159 80.2077 35.5961C80.3823 36.7636 80.2036 38.0183 79.4098 38.936C78.9976 39.4497 78.3926 39.7421 77.8606 40.1075C77.014 40.2151 76.1612 40.2395 75.3166 40.1116C74.2994 39.6345 73.4406 38.8447 72.9878 37.8051C72.7625 36.9463 72.7665 36.0733 72.9878 35.2144C73.4426 34.1769 74.2954 33.3912 75.3065 32.9059Z" fill="#ade63e"/>
  <path d="M56.8083 32.9464C57.6508 32.7515 58.5198 32.8124 59.3726 32.9017C60.1035 33.3179 60.808 33.8073 61.2973 34.5077C61.409 34.7514 61.5268 34.993 61.6466 35.2346C61.876 36.1767 61.8577 37.1817 61.5247 38.0974C61.0963 38.8831 60.4446 39.5186 59.6649 39.9511L59.4538 40.0018C58.6213 40.3084 57.7178 40.2069 56.857 40.1094C55.9372 39.6709 55.1474 38.9948 54.6581 38.0933C54.5444 37.669 54.4368 37.2446 54.384 36.8101C54.4023 36.2904 54.4389 35.7726 54.4977 35.259C54.8835 34.4976 55.3992 33.7991 56.1058 33.3078C56.3393 33.188 56.5748 33.0682 56.8083 32.9464Z" fill="#ade63e"/>
  <path d="M93.7827 32.9042C94.8791 32.7417 96.0344 32.7417 97.0252 33.3062C97.9551 33.9843 98.6576 35.032 98.7164 36.2035C98.8647 37.71 98.0038 39.2794 96.6049 39.8906C95.742 40.3555 94.7248 40.1971 93.7929 40.118C92.5868 39.5637 91.5189 38.5323 91.3159 37.1699C90.9078 35.3609 92.1544 33.5965 93.7827 32.9042Z" fill="#ade63e"/>
  <path d="M112.246 32.9043C113.195 32.7825 114.187 32.7337 115.095 33.0951C115.84 33.5682 116.557 34.1611 116.884 35.0098C117.505 36.4066 117.164 38.171 116.051 39.2227C115.607 39.6471 115.034 39.8948 114.486 40.1567C113.743 40.2176 112.996 40.2155 112.259 40.1181C111.065 39.5719 110.003 38.5629 109.78 37.2208C109.359 35.3955 110.588 33.5946 112.246 32.9043Z" fill="#ade63e"/>
  <path d="M128.248 35.7846C128.414 34.6679 129.22 33.8091 130.105 33.1797C130.118 35.4009 130.115 37.6221 130.107 39.8453C128.771 38.9946 127.874 37.3845 128.248 35.7846Z" fill="#ade63e"/>
  <path d="M5.04871 33.4707C6.01312 34.4229 6.75013 35.7934 6.42122 37.1801C6.28518 38.1202 5.66999 38.8673 5.04668 39.5434C4.98577 37.5212 4.98374 35.4929 5.04871 33.4707Z" fill="#ade63e"/>
  <path d="M8.40495 44.4709C8.91659 43.3197 9.89725 42.3046 11.1825 42.0914L11.1804 42.0041C11.6839 41.998 12.1854 41.996 12.689 42.0183C13.0666 42.1645 13.4483 42.3066 13.832 42.4426C14.3376 42.8588 14.8046 43.3238 15.2249 43.8293C15.2797 43.9491 15.3913 44.1907 15.4462 44.3126C15.7182 45.0272 15.7345 45.7967 15.6573 46.55C15.5091 46.9215 15.3609 47.2911 15.2208 47.6667C14.5487 48.5499 13.6473 49.2341 12.5468 49.4818C12.1448 49.4818 11.7428 49.4757 11.3408 49.4615C11.0545 49.3661 10.7662 49.2869 10.4759 49.2057C10.0617 48.958 9.66782 48.6798 9.28815 48.3834C8.30749 47.3439 7.9867 45.8292 8.40495 44.4709Z" fill="#ade63e"/>
  <path d="M27.2829 43.6176C27.9163 42.8623 28.7264 42.2817 29.6827 42.0116C30.1741 41.9954 30.6695 41.9974 31.1628 42.0198C31.4532 42.1355 31.7496 42.2309 32.044 42.3385C32.7749 42.7689 33.384 43.3862 33.8287 44.1069C33.918 44.3912 34.0195 44.6714 34.121 44.9556C34.1556 45.4795 34.1556 46.0053 34.1251 46.5312C33.9728 46.8946 33.8266 47.2621 33.6825 47.6296C33.4713 47.8915 33.25 48.1453 33.0267 48.397C32.7749 48.6184 32.5171 48.8315 32.2531 49.0366C31.8369 49.1808 31.4207 49.3229 31.0065 49.4711C30.5923 49.4792 30.1802 49.4752 29.768 49.4731C29.031 49.2437 28.3183 48.9188 27.76 48.3747C27.6077 48.192 27.4534 48.0113 27.3011 47.8306C27.2362 47.723 27.1083 47.5118 27.0433 47.4042C26.7814 46.6936 26.6007 45.9485 26.6656 45.185C26.7489 44.9455 26.826 44.7059 26.8991 44.4663C27.027 44.1821 27.1529 43.8978 27.2829 43.6176Z" fill="#ade63e"/>
  <path d="M47.0075 42.4421C47.6065 42.237 48.2034 41.9528 48.8531 41.9873C49.513 41.9528 50.1241 42.233 50.7352 42.4421C50.9971 42.6573 51.255 42.8766 51.5067 43.106C51.7341 43.3598 51.9534 43.6176 52.1686 43.8836C52.5077 44.6755 52.6925 45.5241 52.6072 46.3891C52.3534 47.3799 51.7626 48.2164 50.991 48.8722C50.4997 49.0955 49.9962 49.2884 49.4906 49.4772C49.0744 49.4813 48.6562 49.4772 48.2399 49.4731C46.9649 49.1605 45.8421 48.2976 45.3528 47.0591C45.2858 46.8215 45.2168 46.584 45.1416 46.3484C45.1295 45.9363 45.1254 45.5221 45.1295 45.1099C45.3569 44.3811 45.6594 43.6562 46.2116 43.1121C46.4715 42.8827 46.7375 42.6593 47.0075 42.4421Z" fill="#ade63e"/>
  <path d="M65.4533 42.434C65.9771 42.2554 66.505 42.0909 67.039 41.9346C66.0745 43.9162 65.1304 45.91 64.0889 47.853C64.0604 47.719 64.0016 47.451 63.9711 47.319C63.8554 47.114 63.7417 46.9089 63.63 46.7059C63.5793 46.0744 63.5671 45.441 63.6381 44.8116C63.7823 44.4908 63.9244 44.1679 64.0584 43.8431C64.4624 43.3172 64.9396 42.8503 65.4533 42.434Z" fill="#ade63e"/>
  <path d="M83.9011 42.4463C84.2828 42.3103 84.6625 42.1681 85.0381 42.0179C85.5314 41.9976 86.0248 41.9956 86.5182 42.0118C87.7547 42.3773 88.9079 43.2462 89.2998 44.5152C89.8276 45.8248 89.383 47.3536 88.449 48.3627C88.1506 48.6063 87.844 48.8378 87.5354 49.0693C87.1598 49.1951 86.7882 49.3352 86.4167 49.4692C86.0106 49.4733 85.6025 49.4814 85.1985 49.4733C84.7883 49.3291 84.3782 49.189 83.9701 49.0449C83.7732 48.9007 83.5783 48.7586 83.3854 48.6124C83.095 48.2937 82.7925 47.9871 82.5123 47.6582C82.3702 47.2927 82.2261 46.9273 82.0799 46.5638C81.9459 45.6278 82.0819 44.6878 82.49 43.8371C82.9225 43.3356 83.3894 42.8645 83.9011 42.4463Z" fill="#ade63e"/>
  <path d="M121.98 42.0198C122.437 41.9974 122.896 41.9954 123.355 42.0116C123.59 42.0949 123.83 42.17 124.073 42.2411C124.414 42.4238 124.749 42.6167 125.082 42.8177C125.125 42.8826 125.208 43.0146 125.249 43.0796C126.8 44.3709 126.82 47.1159 125.235 48.3869C125.196 48.4498 125.119 48.5757 125.078 48.6387C124.768 48.8356 124.459 49.0325 124.15 49.2275C123.497 49.3879 122.837 49.5279 122.163 49.4914C121.744 49.3432 121.324 49.2011 120.908 49.0569C120.707 48.9107 120.508 48.7666 120.313 48.6184C119.367 47.8123 118.788 46.5819 118.969 45.3251C119.048 43.9892 120.043 42.9456 121.133 42.2857C121.418 42.2025 121.7 42.1172 121.98 42.0198Z" fill="#ade63e"/>
  <path d="M68.2004 42.0713C68.5334 42.1992 68.8684 42.3312 69.2034 42.455C69.6481 42.8124 70.0562 43.2103 70.4582 43.6143C70.6835 44.1057 70.8764 44.6133 71.0652 45.1209C71.0652 45.5147 71.0632 45.9107 71.0531 46.3066C70.9515 46.6335 70.8683 46.9685 70.7891 47.3035C69.8917 45.5777 69.0349 43.8275 68.2004 42.0713Z" fill="#ade63e"/>
  <path d="M102.653 42.319C102.933 42.2215 103.216 42.1241 103.498 42.0205C103.969 42.0002 104.44 41.9962 104.913 42.0063C106.84 42.4286 108.338 44.4224 107.904 46.402C107.733 47.6669 106.754 48.6049 105.711 49.2303C105.039 49.3866 104.363 49.5267 103.67 49.4922C102.207 49.143 100.852 48.0364 100.56 46.5076C100.259 45.1493 100.802 43.7362 101.853 42.853C102.115 42.6682 102.379 42.4895 102.653 42.319Z" fill="#ade63e"/>
  <path d="M19.5637 51.5409C19.9799 51.4129 20.4043 51.3195 20.8367 51.2627C21.1027 51.2728 21.3707 51.281 21.6367 51.2871C21.9067 51.3135 22.1768 51.3459 22.4488 51.3805C23.7462 51.9489 24.6984 53.1184 24.9705 54.5112C24.9746 54.8158 24.9421 55.1203 24.94 55.4249C24.8649 55.7152 24.7857 56.0056 24.7228 56.302C24.3411 57.173 23.667 57.8674 22.861 58.3587C22.0143 58.6937 21.0986 58.7161 20.2033 58.6206C19.6084 58.3384 18.9769 58.0826 18.512 57.5994C18.0491 57.1324 17.7993 56.5152 17.5273 55.9304C17.4765 55.301 17.4704 54.6696 17.5232 54.0402C17.8806 52.9885 18.577 52.0748 19.5637 51.5409Z" fill="#ade63e"/>
  <path d="M75.2742 51.3924C75.7797 51.3274 76.2832 51.2462 76.7847 51.1406L76.7522 51.2746C77.1136 51.301 77.4771 51.3376 77.8385 51.3843C78.6689 51.8228 79.4912 52.3913 79.8851 53.2786C80.3439 54.0887 80.2729 55.0409 80.2119 55.9343C79.9277 56.5251 79.678 57.1585 79.1968 57.6235C78.7379 58.0925 78.1166 58.3402 77.5339 58.6143C77.1522 58.6387 76.7705 58.663 76.3888 58.6813C75.4082 56.7322 74.4417 54.777 73.4834 52.8157C73.6641 52.6065 73.8428 52.3954 74.0194 52.1842C74.4174 51.8898 74.8417 51.634 75.2742 51.3924Z" fill="#ade63e"/>
  <path d="M38.0376 51.5325C38.5797 51.3701 39.138 51.2869 39.6903 51.165C40.0964 51.2605 40.5085 51.3356 40.9227 51.4026C41.9622 51.8472 42.7581 52.6979 43.2353 53.7131C43.2779 54.0562 43.3023 54.3994 43.3266 54.7466C43.3713 54.8501 43.4606 55.0613 43.5053 55.1648L43.3368 55.1445C43.3002 55.51 43.2759 55.8775 43.2272 56.2429C42.6343 57.5342 41.4181 58.6367 39.94 58.6651C39.1421 58.7544 38.3726 58.523 37.66 58.186C37.2011 57.8286 36.7869 57.4185 36.4296 56.9617C35.8469 55.8693 35.79 54.5618 36.2042 53.4025C36.6265 52.6147 37.2701 51.9833 38.0376 51.5325Z" fill="#ade63e"/>
  <path d="M56.8306 51.3785C57.6752 51.2485 58.536 51.2485 59.3807 51.3805C60.1461 51.7561 60.7999 52.3063 61.3237 52.9763C61.3501 53.0758 61.3988 53.2728 61.4232 53.3722C60.5501 55.1346 59.6872 56.8989 58.7959 58.6511C57.9838 58.7222 57.1717 58.6329 56.4042 58.3649C55.6854 57.9101 55.0824 57.301 54.6642 56.5599C54.3231 55.6462 54.3718 54.6574 54.4997 53.7093C54.9769 52.6819 55.7971 51.8495 56.8306 51.3785Z" fill="#ade63e"/>
  <path d="M93.937 51.3397C94.8385 51.2564 95.7785 51.2016 96.6374 51.5488C97.6261 52.0726 98.3104 52.9903 98.6697 54.038C98.7936 55.0552 98.7347 56.1455 98.1357 57.0145C97.6708 57.8185 96.8241 58.2611 96.0039 58.6185C95.1491 58.7017 94.274 58.7078 93.4579 58.4093C92.0569 57.719 91.1798 56.247 91.2123 54.6897C91.4011 53.4025 92.1503 52.2472 93.2914 51.6077C93.5066 51.5204 93.7218 51.431 93.937 51.3397Z" fill="#ade63e"/>
  <path d="M109.818 54.091C110.115 52.7936 111.168 51.7175 112.441 51.3541C113.325 51.2099 114.255 51.2343 115.103 51.551C116.66 52.3611 117.568 54.2534 117.056 55.9629C116.756 57.2441 115.674 58.1557 114.488 58.6146C113.453 58.7201 112.328 58.7404 111.436 58.1131C110.131 57.2847 109.408 55.5975 109.818 54.091Z" fill="#ade63e"/>
  <path d="M128.24 55.666C127.886 54.0743 128.765 52.4683 130.109 51.6338C130.114 53.857 130.118 56.0802 130.107 58.3055C129.224 57.6558 128.408 56.7949 128.24 55.666Z" fill="#ade63e"/>
  <path d="M5.0569 51.8955C5.15232 52.0153 5.24572 52.1351 5.34114 52.2549C6.25276 53.197 6.75629 54.606 6.3624 55.8953C6.18983 56.7338 5.60915 57.3795 5.04065 57.9804C4.99599 55.9542 4.97162 53.9218 5.0569 51.8955Z" fill="#ade63e"/>
  <path d="M10.947 60.5245C11.5337 60.4534 12.1266 60.4351 12.7154 60.4859C12.9489 60.5651 13.1844 60.6422 13.4199 60.7133C14.2828 61.1579 14.9873 61.8807 15.4502 62.7294C15.8015 63.7365 15.771 64.8349 15.3832 65.8257C14.6097 67.1941 13.1052 68.0733 11.5175 67.9514C11.1764 67.8398 10.8312 67.7443 10.4881 67.6408C10.1896 67.4743 9.89525 67.2997 9.60085 67.1271C9.55415 67.0601 9.45872 66.9241 9.40999 66.8551C8.48822 66.1343 8.22428 64.9323 8.18164 63.8197C8.4131 63.0218 8.63441 62.1589 9.2902 61.5904C9.73485 61.0848 10.3521 60.8047 10.947 60.5245Z" fill="#ade63e"/>
  <path d="M28.4974 60.9292C28.8689 60.7891 29.2364 60.6368 29.6039 60.4886C30.1338 60.4541 30.6658 60.4541 31.1957 60.4825C31.5672 60.6328 31.9429 60.7769 32.3205 60.917C32.8139 61.3414 33.2788 61.7982 33.6991 62.2956C33.8351 62.6692 33.9752 63.0428 34.1255 63.4143C34.1661 64.0052 34.1559 64.598 34.093 65.1868C33.5935 66.5735 32.418 67.6354 30.9724 67.9521C30.2983 67.9724 29.6384 67.8364 28.9847 67.6963C28.5583 67.4385 28.1461 67.1603 27.7583 66.8476C27.4233 66.4334 27.131 65.9868 26.8792 65.5198C26.7553 64.8924 26.6356 64.261 26.6599 63.6194C26.8528 63.1037 27.0436 62.59 27.271 62.0885C27.6649 61.6865 28.0669 61.2926 28.4974 60.9292Z" fill="#ade63e"/>
  <path d="M48.0656 60.494C48.6077 60.4493 49.1518 60.4533 49.6959 60.4858C50.6888 60.7701 51.4644 61.4401 52.11 62.2197C49.8279 62.6217 47.5093 62.8248 45.2373 63.2877C45.4992 62.1954 46.3012 61.3568 47.2311 60.7762C47.5093 60.6848 47.7894 60.5934 48.0656 60.494Z" fill="#ade63e"/>
  <path d="M85.0238 60.4882C85.5497 60.4476 86.0775 60.4517 86.6054 60.4943C86.8917 60.606 87.182 60.7156 87.4744 60.8233C88.3596 61.3593 89.0479 62.1694 89.4195 63.1378C87.1353 62.8394 84.8512 62.5287 82.5813 62.1369C83.0889 61.6537 83.5599 61.1217 84.1731 60.7644C84.4573 60.6771 84.7395 60.5857 85.0238 60.4882Z" fill="#ade63e"/>
  <path d="M102.799 60.6931C103.585 60.421 104.424 60.4028 105.242 60.5266C106.446 60.9936 107.548 61.9377 107.839 63.2452C108.172 64.3416 107.853 65.5314 107.221 66.4593C106.982 66.6745 106.752 66.9019 106.541 67.1435C105.993 67.5252 105.366 67.7587 104.728 67.9414C104.375 67.9394 104.022 67.9394 103.67 67.9374C102.578 67.6795 101.593 67.044 100.992 66.0877C100.298 64.9182 100.32 63.363 101.045 62.2138C101.516 61.5946 102.105 61.0545 102.799 60.6931Z" fill="#ade63e"/>
  <path d="M119.438 62.3195C120.124 61.2678 121.265 60.4292 122.567 60.4455C123.625 60.3683 124.632 60.8576 125.375 61.5845C126.465 62.6971 126.725 64.498 126.025 65.8848C125.787 66.3781 125.348 66.7253 125.011 67.1456C124.461 67.5151 123.838 67.7466 123.208 67.9415C122.853 67.9415 122.498 67.9354 122.145 67.9354C121.001 67.6816 119.978 66.9811 119.383 65.968C118.78 64.8513 118.799 63.4179 119.438 62.3195Z" fill="#ade63e"/>
  <path d="M20.6783 69.6592C21.0011 69.6531 21.3239 69.6531 21.6467 69.6571C22.0731 69.7871 22.5015 69.917 22.9258 70.0571C23.5674 70.4896 24.1258 71.0398 24.5521 71.6875C24.7125 72.124 24.8344 72.5747 24.9866 73.0173C24.9399 73.7056 24.8222 74.3898 24.6049 75.0477C24.075 76.0344 23.1593 76.7349 22.1036 77.0841C20.9747 77.2364 19.7545 77.1044 18.853 76.3491C18.1931 75.8781 17.8541 75.1187 17.5312 74.4041C17.4317 73.5554 17.4581 72.6925 17.7404 71.8803C18.321 70.7271 19.4093 69.9069 20.6783 69.6592Z" fill="#ade63e"/>
  <path d="M112.61 69.7725C113.339 69.5147 114.092 69.7339 114.819 69.8801C116.039 70.4324 117.006 71.5612 117.158 72.9175C117.424 74.6027 116.368 76.361 114.76 76.9213C113.855 77.2726 112.852 77.1569 111.944 76.8767C110.955 76.3447 110.086 75.4839 109.837 74.357C109.25 72.4038 110.624 70.1826 112.61 69.7725Z" fill="#ade63e"/>
  <path d="M36.0255 72.1663C36.6874 70.7958 37.9726 69.6872 39.5502 69.6426C39.938 69.8558 40.2344 70.1867 40.5471 70.4892C41.4628 71.4191 42.4617 72.2617 43.351 73.216C43.3266 73.7114 43.2901 74.2068 43.2332 74.7022C42.7967 75.4778 42.2952 76.2838 41.4628 76.6838C39.7187 77.6908 37.2052 77.0005 36.3321 75.1549C35.7839 74.2535 35.9443 73.1632 36.0255 72.1663Z" fill="#ade63e"/>
  <path d="M95.4008 69.7285C95.7135 69.7712 96.0261 69.8158 96.3408 69.8666C97.5651 70.431 98.562 71.5599 98.7001 72.9365C98.9234 74.4653 98.095 76.0855 96.6921 76.7535C95.6992 77.2793 94.5155 77.2083 93.476 76.8733C92.337 76.254 91.2061 75.0886 91.3726 73.6999C92.67 72.3355 94.0465 71.0401 95.4008 69.7285Z" fill="#ade63e"/>
  <path d="M128.284 74.3208C127.836 72.6905 128.684 70.9322 130.112 70.0957C130.112 72.3169 130.116 74.5401 130.112 76.7613C129.285 76.1461 128.493 75.3705 128.284 74.3208Z" fill="#ade63e"/>
  <path d="M5.03677 76.4165C4.9982 74.4024 4.97586 72.3822 5.05301 70.3701C5.99306 71.3203 6.73413 72.6543 6.43567 74.0288C6.3037 74.981 5.721 75.7769 5.03677 76.4165Z" fill="#ade63e"/>
  <path d="M9.28794 80.0565C10.4513 78.7246 12.6238 78.5277 14.0491 79.5429C14.6074 80.0301 15.2023 80.5499 15.448 81.2747C16.0023 82.6391 15.6612 84.3324 14.5526 85.3192C13.9841 85.975 13.1212 86.1943 12.3233 86.4196C11.3893 86.3953 10.4452 86.1821 9.68183 85.6258C9.46255 85.3781 9.22906 85.1466 8.98136 84.9314C8.60575 84.3751 8.38647 83.7396 8.1875 83.1061C8.20374 82.0118 8.44129 80.8179 9.28794 80.0565Z" fill="#ade63e"/>
  <path d="M47.2351 79.222C47.8523 79.0575 48.5122 78.7855 49.1497 78.956C49.8786 79.492 50.4958 80.162 51.1414 80.7935C50.8267 82.5802 50.5405 84.373 50.2014 86.1556C49.8847 86.2307 49.57 86.314 49.2573 86.3992C48.9994 86.3972 48.7416 86.3911 48.4878 86.3871C48.1914 86.3119 47.8909 86.2449 47.5924 86.1881C46.6463 85.7922 45.889 85.043 45.4037 84.1456C45.3205 83.8573 45.2372 83.571 45.1398 83.2888C44.8758 81.632 45.826 80.0423 47.2351 79.222Z" fill="#ade63e"/>
  <path d="M85.7526 79.1329C85.9617 78.8629 86.319 78.9644 86.6134 78.938C87.8926 79.3583 89.0701 80.3328 89.3767 81.6911C89.8539 83.1245 89.1595 84.6595 88.0834 85.6198C87.1758 86.2086 86.0592 86.5842 84.9811 86.2939C84.6562 84.4625 84.3253 82.6332 84.0349 80.7957C84.6196 80.2536 85.1658 79.673 85.7526 79.1329Z" fill="#ade63e"/>
  <path d="M100.984 80.7695C101.67 79.7279 102.799 78.8955 104.091 78.9076C105.859 78.7797 107.571 80.1583 107.879 81.8922C108.178 83.1368 107.727 84.5398 106.744 85.3662C106.025 86.1641 104.911 86.3773 103.888 86.4219C103.031 86.2047 102.131 85.9326 101.549 85.224C100.349 84.1094 100.17 82.1562 100.984 80.7695Z" fill="#ade63e"/>
  <path d="M121.744 78.9724C123.042 78.743 124.512 79.0232 125.371 80.0993C125.429 80.1317 125.545 80.1967 125.604 80.2292C126.42 81.3743 126.692 82.9336 126.077 84.231C125.407 85.636 123.89 86.4583 122.354 86.4258C121.649 86.237 120.942 86.0258 120.348 85.5893C119.535 84.8401 118.906 83.8371 118.945 82.694C118.865 80.9825 120.171 79.4841 121.744 78.9724Z" fill="#ade63e"/>
  <path d="M28.9522 79.1734C30.1135 78.745 31.4982 78.8018 32.5174 79.549C33.0697 80.0099 33.5753 80.5418 33.8981 81.1936C33.9671 81.4311 34.0422 81.6687 34.1234 81.9042C34.229 82.7163 34.1214 83.5325 33.829 84.2959C33.3803 84.9274 32.8971 85.5811 32.1885 85.9385C31.7459 86.1618 31.2586 86.2694 30.7896 86.4217C29.677 86.3831 28.471 86.1212 27.7502 85.1954C27.6792 85.1507 27.535 85.0593 27.4639 85.0147C27.1025 84.434 26.8528 83.7985 26.666 83.1427C26.668 82.7833 26.6701 82.424 26.6741 82.0666C26.9218 80.9702 27.5898 80.0545 28.4852 79.3947C28.6009 79.3399 28.8364 79.2282 28.9522 79.1734Z" fill="#ade63e"/>
  <path d="M20.4895 88.1921C22.1077 87.8205 23.7502 88.7748 24.5664 90.1575C24.739 90.7036 24.9157 91.2579 24.9684 91.8345C24.94 92.4132 24.7634 92.9756 24.5908 93.5278C23.9675 94.677 22.7899 95.5175 21.4702 95.5927C20.0043 95.7348 18.5181 94.9024 17.8663 93.5867C17.3283 92.602 17.3973 91.4081 17.7303 90.3686C18.2866 89.2946 19.2612 88.385 20.4895 88.1921Z" fill="#ade63e"/>
  <path d="M38.7667 88.2349C40.661 87.6948 42.6548 88.9942 43.2761 90.7931C43.3553 91.7047 43.404 92.6549 43.0507 93.5219C42.2163 95.138 40.2164 96.0273 38.4744 95.4202C37.2582 95.0791 36.4217 94.0315 35.9933 92.8884C35.9304 92.1575 35.9324 91.4225 36.0258 90.6956C36.5537 89.5485 37.4815 88.4988 38.7667 88.2349Z" fill="#ade63e"/>
  <path d="M94.3633 88.1778C96.0221 87.8408 97.756 88.8397 98.4422 90.3604C98.5113 90.5777 98.5864 90.7949 98.6656 91.0122C98.8442 92.1613 98.6514 93.4283 97.8372 94.3074C96.7875 95.5946 94.8384 95.9682 93.3623 95.2292C91.7462 94.5023 90.8447 92.4882 91.4152 90.803C91.7929 89.4569 92.9908 88.4133 94.3633 88.1778Z" fill="#ade63e"/>
  <path d="M113 88.1456C114.208 87.9872 115.489 88.4785 116.279 89.4084C117.128 90.381 117.414 91.8042 117.012 93.0305C116.547 94.5432 115.018 95.6578 113.428 95.603C111.711 95.6273 110.09 94.3117 109.786 92.6164C109.301 90.5576 110.901 88.3587 113 88.1456Z" fill="#ade63e"/>
  <path d="M5.03241 88.8599C5.15017 88.9695 5.26996 89.0771 5.38772 89.1868C6.21203 90.1227 6.7318 91.4303 6.39476 92.6749C6.23437 93.556 5.66993 94.2788 5.03647 94.8798C4.98774 92.8738 4.99992 90.8658 5.03241 88.8599Z" fill="#ade63e"/>
  <path d="M128.288 92.8008C127.831 91.1704 128.668 89.3837 130.111 88.5513C130.113 90.7725 130.113 92.9937 130.111 95.2148C129.281 94.6179 128.512 93.8362 128.288 92.8008Z" fill="#ade63e"/>
  <path d="M10.0371 97.8808C11.2857 97.1275 13.0095 97.1803 14.1647 98.0899C14.719 98.5752 15.2692 99.1213 15.4926 99.8462C15.7849 100.575 15.7058 101.379 15.6124 102.14C15.0987 103.525 13.8744 104.701 12.3516 104.812C10.0025 105.162 7.76917 102.778 8.28285 100.461C8.44121 99.3812 9.15386 98.4797 10.0371 97.8808Z" fill="#ade63e"/>
  <path d="M28.6393 97.7976C29.829 97.158 31.3883 97.2128 32.4989 97.9945C33.0715 98.4574 33.573 99.0158 33.9202 99.6675C34.1476 100.445 34.2734 101.282 34.0481 102.075C33.6542 103.448 32.44 104.599 31.0026 104.782C29.9813 104.999 28.9499 104.617 28.089 104.086C28.022 103.974 27.888 103.753 27.821 103.641C27.7459 103.606 27.5997 103.537 27.5246 103.503C27.3703 103.273 27.214 103.048 27.0576 102.823C27.0434 102.766 27.017 102.654 27.0028 102.597C26.8871 102.27 26.7815 101.939 26.6698 101.613C26.6658 101.255 26.6678 100.9 26.6698 100.547C26.9358 99.4097 27.6221 98.3823 28.6393 97.7976Z" fill="#ade63e"/>
  <path d="M63.8332 99.6718C64.4687 98.4333 65.6787 97.3735 67.1345 97.3674C68.3222 97.2638 69.4491 97.8445 70.2105 98.7318C70.3546 98.9287 70.4967 99.1257 70.6409 99.3246C70.7871 99.7409 70.9292 100.161 71.0794 100.579C71.114 101.266 70.9739 101.938 70.8135 102.6C70.2226 103.525 69.4288 104.453 68.308 104.703C67.0431 105.066 65.6381 104.673 64.69 103.775C63.8068 102.89 63.4129 101.615 63.6119 100.382C63.691 100.147 63.7641 99.9094 63.8332 99.6718Z" fill="#ade63e"/>
  <path d="M100.572 100.275C100.966 98.5429 102.71 97.1805 104.507 97.3714C106.649 97.4567 108.371 99.7042 107.904 101.793C107.615 103.399 106.154 104.731 104.515 104.827C103.238 104.959 102.05 104.307 101.22 103.379C100.609 102.476 100.32 101.353 100.572 100.275Z" fill="#ade63e"/>
  <path d="M119.172 99.7993C119.917 97.6654 122.717 96.6442 124.63 97.8969C126.629 99.0461 127.068 102.163 125.314 103.716C124.077 105.119 121.791 105.157 120.348 104.051C119.133 103.034 118.587 101.3 119.172 99.7993Z" fill="#ade63e"/>
  <path d="M45.3873 99.5682C46.0431 98.4962 47.0298 97.5866 48.3029 97.3633C47.9293 99.3855 47.6146 101.42 47.2451 103.444C49.0297 102.492 50.8225 101.556 52.6173 100.624C52.6112 101.016 52.6031 101.412 52.593 101.806C52.3879 102.39 52.1361 102.961 51.8093 103.489C51.7423 103.529 51.6103 103.613 51.5433 103.653C50.2297 105.221 47.5049 105.235 46.1974 103.649C46.1324 103.611 46.0025 103.531 45.9375 103.491C45.7385 103.156 45.5477 102.817 45.367 102.474C45.2959 102.234 45.2188 101.997 45.1376 101.763C45.0584 101.016 45.2066 100.287 45.3873 99.5682Z" fill="#ade63e"/>
  <path d="M86.9119 97.4668C88.1484 98.0048 89.2366 99.0687 89.4518 100.447C89.996 102.839 87.59 105.296 85.182 104.78C83.7324 104.616 82.6258 103.444 82.1162 102.139C82.0472 101.552 82.0289 100.963 82.0411 100.374C84.0085 101.333 85.9069 102.429 87.8722 103.393C87.6083 101.41 87.184 99.4504 86.9119 97.4668Z" fill="#ade63e"/>
  <path d="M20.2438 106.711C21.5493 106.339 23.0335 106.794 23.9472 107.789C24.6862 108.552 24.9217 109.62 24.9989 110.648C24.8933 110.997 24.7979 111.35 24.7126 111.705C24.3187 112.487 23.7766 113.234 22.9665 113.626C21.6123 114.359 19.7992 114.17 18.6764 113.098C17.8988 112.398 17.4257 111.362 17.4724 110.311C17.4115 108.66 18.652 107.101 20.2438 106.711Z" fill="#ade63e"/>
  <path d="M36.2024 108.859C36.8622 107.287 38.6753 106.28 40.3564 106.658C41.7634 106.912 42.9613 108.063 43.2801 109.456C43.3694 110.349 43.4222 111.332 42.9248 112.124C42.0761 113.823 39.8184 114.538 38.1129 113.748C37.0815 113.322 36.4013 112.371 35.9973 111.366C35.9486 110.532 35.8308 109.641 36.2024 108.859Z" fill="#ade63e"/>
  <path d="M54.8326 108.453C55.6874 107.068 57.4193 106.238 59.0212 106.707C60.278 106.983 61.1957 108.016 61.7073 109.151C61.8048 109.882 61.8068 110.623 61.7419 111.36C61.3784 112.217 60.879 113.072 60.0343 113.535C58.2984 114.631 55.7138 113.969 54.8022 112.106C54.2702 111.265 54.4002 110.234 54.4611 109.294C54.5869 109.013 54.7088 108.731 54.8326 108.453Z" fill="#ade63e"/>
  <path d="M73.1584 108.637C73.9726 107.214 75.6598 106.27 77.3044 106.666C78.6525 106.895 79.6392 107.982 80.1813 109.179C80.2646 110.109 80.3803 111.116 79.9093 111.971C79.1662 113.583 77.1805 114.452 75.4892 113.914C74.4619 113.648 73.6721 112.877 73.1442 111.989C72.7483 110.919 72.7605 109.705 73.1584 108.637Z" fill="#ade63e"/>
  <path d="M93.7279 106.81C95.0902 106.294 96.7449 106.68 97.7195 107.768C98.6453 108.704 98.9418 110.148 98.5865 111.399C98.1946 112.755 96.9683 113.841 95.5613 114.026C94.0832 114.257 92.4772 113.527 91.7523 112.203C91.4762 111.742 91.3686 111.212 91.2224 110.702C91.2204 109.992 91.391 109.295 91.6183 108.627C92.1239 107.833 92.8081 107.105 93.7279 106.81Z" fill="#ade63e"/>
  <path d="M112.947 106.617C115.026 106.268 117.129 108.002 117.184 110.107C117.351 111.969 115.893 113.778 114.043 114.022C112.149 114.363 110.135 113.015 109.796 111.108C109.288 109.064 110.858 106.847 112.947 106.617Z" fill="#ade63e"/>
  <path d="M10.8086 115.955C11.7222 115.774 12.709 115.744 13.5638 116.172C14.7779 116.793 15.7159 118.058 15.7017 119.459C15.7728 120.316 15.4032 121.11 14.9951 121.837C13.4257 120.009 12.0288 118.032 10.8086 115.955Z" fill="#ade63e"/>
  <path d="M28.6354 116.263C29.8373 115.61 31.419 115.677 32.5356 116.483C33.1366 116.98 33.7234 117.561 33.9569 118.328C34.4523 119.656 34.0726 121.232 33.0493 122.208C32.1357 123.146 30.7165 123.51 29.4577 123.173C28.3592 122.923 27.5227 122.05 26.9806 121.104C26.8791 120.757 26.7837 120.407 26.6761 120.064C26.67 119.713 26.668 119.364 26.668 119.017C26.9238 117.875 27.6222 116.856 28.6354 116.263Z" fill="#ade63e"/>
  <path d="M45.4405 117.971C46.1755 116.692 47.5358 115.675 49.0728 115.827C50.492 115.837 51.631 116.852 52.3234 118.008C52.4066 118.292 52.4878 118.578 52.5873 118.86C52.6096 119.319 52.6117 119.78 52.5934 120.243C52.5102 120.475 52.4371 120.708 52.368 120.946C52.1812 121.289 51.9823 121.628 51.7792 121.963C51.7122 122.003 51.5762 122.085 51.5092 122.125C50.2362 123.691 47.5033 123.691 46.2303 122.127C46.1633 122.085 46.0334 122.001 45.9684 121.961C45.7816 121.664 45.5969 121.37 45.4182 121.072C45.3289 120.793 45.2395 120.513 45.1421 120.239C45.1258 119.786 45.1258 119.336 45.1421 118.885C45.2497 118.582 45.341 118.276 45.4405 117.971Z" fill="#ade63e"/>
  <path d="M63.8109 118.15C64.4505 116.901 65.6626 115.849 67.1224 115.825C68.3447 115.707 69.4532 116.343 70.2532 117.216C70.6369 117.766 70.8765 118.396 71.0795 119.033C71.114 119.715 70.9678 120.381 70.8156 121.043C70.6166 121.344 70.4176 121.644 70.2227 121.951C70.1577 121.991 70.0278 122.074 69.9628 122.115C68.7 123.705 65.9549 123.678 64.6697 122.127C64.6027 122.089 64.4708 122.01 64.4038 121.971C64.0606 121.449 63.8048 120.881 63.5977 120.296C63.5449 119.571 63.5896 118.842 63.8109 118.15Z" fill="#ade63e"/>
  <path d="M84.7151 115.967C86.6642 115.332 88.9138 116.639 89.3787 118.613C90.067 120.761 88.26 123.211 86.0267 123.287C83.9821 123.488 82.0005 121.691 82.0289 119.634C81.9457 117.987 83.1659 116.432 84.7151 115.967Z" fill="#ade63e"/>
  <path d="M101.603 116.931C102.923 115.461 105.516 115.443 106.838 116.917C108.155 118.093 108.322 120.261 107.311 121.682C106.756 122.348 106.089 122.98 105.213 123.169C104.048 123.504 102.814 123.158 101.835 122.497C101.792 122.426 101.707 122.285 101.664 122.214C100.093 120.939 100.105 118.259 101.603 116.931Z" fill="#ade63e"/>
  <path d="M120.963 116.233C121.978 115.689 123.196 115.735 124.256 116.119C122.995 118.251 121.547 120.273 119.915 122.137C119.265 121.321 118.835 120.296 118.959 119.236C119.026 117.963 119.872 116.836 120.963 116.233Z" fill="#ade63e"/>
  <path d="M18.8613 125.792C19.8095 125.207 20.9607 124.846 22.0693 125.159C23.1656 125.378 24.0265 126.18 24.5849 127.116C24.8326 127.778 24.928 128.478 25.0072 129.179C24.8975 129.516 24.7879 129.853 24.6925 130.198C22.6215 128.911 20.6501 127.449 18.8613 125.792Z" fill="#ade63e"/>
  <path d="M35.9974 127.747C36.4989 126.413 37.6359 125.256 39.0998 125.089C40.6997 124.809 42.2651 125.745 43.0427 127.118C43.4772 128.352 43.5198 129.854 42.7016 130.947C41.6803 132.482 39.4591 132.977 37.8592 132.084C36.9923 131.633 36.4299 130.801 36.0238 129.94C35.9304 129.211 35.9284 128.476 35.9974 127.747Z" fill="#ade63e"/>
  <path d="M54.6947 127.118C55.4987 125.69 57.1676 124.748 58.8142 125.12C60.1725 125.329 61.1755 126.417 61.7136 127.621C61.8049 128.356 61.807 129.099 61.7379 129.838C61.3745 130.705 60.8405 131.538 60.002 132.013C58.4386 132.973 56.2012 132.551 55.119 131.059C54.2297 129.958 54.2318 128.397 54.6947 127.118Z" fill="#ade63e"/>
  <path d="M73.1524 127.124C73.7128 126.19 74.5716 125.376 75.672 125.157C77.3308 124.716 79.1927 125.607 79.9134 127.156C80.3702 128.009 80.2809 129.008 80.1713 129.934C79.751 130.85 79.1216 131.721 78.1876 132.159C76.5309 132.99 74.2934 132.374 73.3615 130.756C72.9433 130.123 72.856 129.359 72.7402 128.628C72.8702 128.125 72.9961 127.621 73.1524 127.124Z" fill="#ade63e"/>
  <path d="M93.801 125.246C95.9065 124.45 98.4302 125.995 98.6921 128.222C99.0352 130.125 97.6546 132.118 95.7502 132.453C93.9066 132.876 91.8661 131.661 91.4012 129.822C90.8002 127.98 91.9534 125.806 93.801 125.246Z" fill="#ade63e"/>
  <path d="M109.898 127.625C110.395 125.974 112.149 124.858 113.855 125.071C114.667 125.134 115.388 125.548 116.039 126.007C114.228 127.723 112.155 129.134 110.07 130.488C109.727 129.576 109.546 128.563 109.898 127.625Z" fill="#ade63e"/>
  <path d="M30.7222 134.226C31.3983 134.417 32.1231 134.573 32.6672 135.048C33.1038 135.436 33.4834 135.885 33.8672 136.325C32.8073 135.643 31.7515 134.955 30.7222 134.226Z" fill="#ade63e"/>
  <path d="M46.23 135.46C47.4929 133.883 50.2399 133.891 51.5109 135.456C51.5779 135.497 51.7099 135.578 51.7748 135.617C51.9779 135.95 52.1769 136.289 52.3636 136.634C52.4347 136.867 52.5119 137.103 52.5931 137.336C52.6093 137.795 52.6093 138.254 52.5931 138.713C52.4895 138.989 52.3961 139.269 52.3027 139.55C52.1241 139.844 51.9413 140.136 51.7586 140.431C51.6936 140.471 51.5677 140.548 51.5028 140.589C50.6216 141.704 48.9973 141.996 47.6898 141.576C46.6828 141.275 45.966 140.429 45.4199 139.578C45.3326 139.282 45.2473 138.987 45.1458 138.699C45.1275 138.246 45.1255 137.795 45.1397 137.347C45.2412 137.06 45.3366 136.776 45.4321 136.49C45.6046 136.195 45.7853 135.903 45.9681 135.615C46.0331 135.576 46.165 135.499 46.23 135.46Z" fill="#ade63e"/>
  <path d="M65.4331 134.79C66.5396 134.137 67.9893 134.114 69.1161 134.734C69.5526 134.973 69.8714 135.365 70.2572 135.674C70.6348 136.222 70.8785 136.841 71.0713 137.477C71.0693 137.83 71.0673 138.187 71.0612 138.545C70.9516 138.888 70.8561 139.237 70.7526 139.584C70.0684 140.816 68.8075 141.807 67.3416 141.761C65.8128 141.822 64.4829 140.764 63.8271 139.444C63.7601 139.198 63.687 138.957 63.6078 138.719C63.5835 138.242 63.5835 137.767 63.5997 137.294C63.8718 136.26 64.5337 135.365 65.4331 134.79Z" fill="#ade63e"/>
  <path d="M83.0442 135.497C84.098 134.248 86.0207 133.946 87.4582 134.675C87.9638 134.902 88.3048 135.357 88.7272 135.7C89.3099 136.571 89.7159 137.666 89.4398 138.715C89.1434 140.404 87.5455 141.781 85.8177 141.763C84.8066 141.773 83.7792 141.383 83.1255 140.597C83.0605 140.557 82.9326 140.48 82.8676 140.439C82.5915 140.002 82.3519 139.546 82.1245 139.085C81.8829 137.832 82.0737 136.407 83.0442 135.497Z" fill="#ade63e"/>
  <path d="M102.615 134.642C103.183 134.362 103.823 134.309 104.442 134.236C103.179 135.103 101.906 135.954 100.615 136.78C101.078 135.913 101.705 135.069 102.615 134.642Z" fill="#ade63e"/>
  <path d="M54.8957 145.312C55.8479 143.616 58.2214 143.013 59.8964 143.969C60.7999 144.424 61.3684 145.305 61.7399 146.215C61.8069 146.95 61.8049 147.689 61.7115 148.424C61.1938 149.557 60.2821 150.599 59.0193 150.877C57.3442 151.362 55.521 150.434 54.7231 148.926C54.6398 148.708 54.5525 148.495 54.4632 148.284C54.3739 147.281 54.2906 146.183 54.8957 145.312Z" fill="#ade63e"/>
  <path d="M73.1543 145.58C73.9584 144.067 75.7775 143.168 77.4607 143.625C78.7764 143.909 79.7347 145.003 80.1996 146.219C80.2747 146.944 80.2626 147.675 80.1793 148.4C79.688 149.448 78.9002 150.449 77.749 150.798C76.1532 151.378 74.2223 150.676 73.3655 149.214C72.9432 148.583 72.8599 147.819 72.7422 147.09C72.8721 146.585 73 146.077 73.1543 145.58Z" fill="#ade63e"/>
  <path d="M64.6634 153.845C66.0379 152.418 68.6977 152.339 69.9727 153.932C70.0397 153.973 70.1737 154.054 70.2407 154.095C70.4154 154.383 70.5859 154.676 70.7524 154.97C70.86 155.268 70.9676 155.569 71.0874 155.867C71.0245 156.117 71.1402 156.481 70.858 156.627C69.7799 157.384 68.6693 158.095 67.5729 158.826C66.2288 157.928 64.8664 157.059 63.5508 156.121C63.6401 155.768 63.7376 155.417 63.8229 155.063C64.0604 154.629 64.3386 154.217 64.6634 153.845Z" fill="#ade63e"/>
</svg>