<svg width="40" height="40" viewBox="0 0 40 40" fill="none" xmlns="http://www.w3.org/2000/svg">
<path fill-rule="evenodd" clip-rule="evenodd" d="M0 9.00565C0 13.4612 3.70073 17.0738 8.265 17.0738C9.7709 17.0738 11.1817 16.6797 12.3985 15.994C9.9281 14.5997 8.265 11.9912 8.265 9.00565C8.265 6.02012 9.9281 3.41159 12.3985 2.01733C11.1837 1.33157 9.7709 0.937538 8.265 0.937538C3.70073 0.937538 0 4.55009 0 9.00565Z" fill="#DEF6FF" fill-opacity="0.8"/>
<path fill-rule="evenodd" clip-rule="evenodd" d="M30.7973 0.937538C35.3615 0.937538 39.0622 4.55009 39.0622 9.00565C39.0622 10.4757 38.6585 11.8529 37.956 13.0407C36.5278 10.6291 33.8556 9.00565 30.7973 9.00565C27.7389 9.00565 25.0667 10.6291 23.6384 13.0407C22.9359 11.8548 22.5322 10.4757 22.5322 9.00565C22.5322 4.55009 26.233 0.937538 30.7973 0.937538Z" fill="#DEF6FF" fill-opacity="0.8"/>
<path fill-rule="evenodd" clip-rule="evenodd" d="M39.0625 31.0013C39.0625 35.4568 35.3619 39.0694 30.7976 39.0694C29.2917 39.0694 27.8808 38.6753 26.6641 37.9896C29.1344 36.5953 30.7976 33.9868 30.7976 31.0013C30.7976 28.0157 29.1344 25.4072 26.6641 24.0129C27.8789 23.3272 29.2917 22.9331 30.7976 22.9331C35.3619 22.9331 39.0625 26.5457 39.0625 31.0013Z" fill="#DEF6FF" fill-opacity="0.8"/>
<path fill-rule="evenodd" clip-rule="evenodd" d="M8.265 39.0693C3.70073 39.0693 0 35.4568 0 31.0012C0 29.5312 0.403634 28.154 1.10613 26.9662C2.5344 29.3778 5.20663 31.0012 8.265 31.0012C11.3234 31.0012 13.9955 29.3778 15.4238 26.9662C16.1263 28.1521 16.53 29.5312 16.53 31.0012C16.53 35.4568 12.8293 39.0693 8.265 39.0693Z" fill="#DEF6FF" fill-opacity="0.8"/>
<path d="M19.537 14.1203C21.5131 13.0066 21.5124 9.39425 19.5355 6.05188C17.5587 2.70952 14.3542 0.902848 12.3782 2.01656C10.4022 3.13027 10.4029 6.74263 12.3797 10.085C14.3566 13.4274 17.561 15.234 19.537 14.1203Z" fill="#DEF6FF" fill-opacity="0.8"/>
<path d="M33.8003 20.0222C37.2243 18.0924 39.075 14.9644 37.9341 13.0354C36.7932 11.1065 33.0927 11.1071 29.6688 13.0369C26.2449 14.9666 24.3941 18.0948 25.535 20.0237C26.6759 21.9527 30.3764 21.952 33.8003 20.0222Z" fill="#DEF6FF" fill-opacity="0.8"/>
<path d="M26.644 37.9835C28.62 36.8698 28.6193 33.2574 26.6425 29.9151C24.6656 26.5727 21.4611 24.766 19.4851 25.8797C17.5091 26.9934 17.5098 30.6058 19.4867 33.9482C21.4635 37.2905 24.668 39.0972 26.644 37.9835Z" fill="#DEF6FF" fill-opacity="0.8"/>
<path fill-rule="evenodd" clip-rule="evenodd" d="M5.23943 19.9797C2.59052 21.4725 1.1079 24.1815 1.10596 26.9681C3.57827 28.3585 6.72205 28.4608 9.3729 26.9681C12.0218 25.4753 13.5044 22.7664 13.5064 19.9797C11.0341 18.5874 7.89028 18.487 5.23943 19.9797Z" fill="#DEF6FF" fill-opacity="0.8"/>
<path d="M19.5319 24.045C21.8179 24.045 23.6712 22.236 23.6712 20.0043C23.6712 17.7727 21.8179 15.9637 19.5319 15.9637C17.2458 15.9637 15.3926 17.7727 15.3926 20.0043C15.3926 22.236 17.2458 24.045 19.5319 24.045Z" fill="#DEF6FF" fill-opacity="0.8"/>
</svg>
