<svg width="64" height="64" viewBox="0 0 64 64" fill="none" xmlns="http://www.w3.org/2000/svg">
<path fill-rule="evenodd" clip-rule="evenodd" d="M38.3987 38.3987H51.1994L63.9968 51.1994V64H51.1994L38.3987 51.1994V38.3987Z" fill="#DEF6FF" fill-opacity="0.8"/>
<path fill-rule="evenodd" clip-rule="evenodd" d="M25.5982 38.3987H12.7975L0 51.1994V64H12.7975L25.5982 51.1994V38.3987Z" fill="#DEF6FF" fill-opacity="0.8"/>
<path fill-rule="evenodd" clip-rule="evenodd" d="M38.3987 25.6013H51.1994L63.9968 12.8006V0H51.1994L38.3987 12.8006V25.6013Z" fill="#DEF6FF" fill-opacity="0.8"/>
<path fill-rule="evenodd" clip-rule="evenodd" d="M25.5982 25.6013H12.7975L0 12.8006V0H12.7975L25.5982 12.8006V25.6013Z" fill="#DEF6FF" fill-opacity="0.8"/>
<path d="M64.0001 25.6012H51.1996V38.4018H64.0001V25.6012Z" fill="#DEF6FF" fill-opacity="0.8"/>
<path d="M38.3988 51.1993H25.5983V64H38.3988V51.1993Z" fill="#DEF6FF" fill-opacity="0.8"/>
<path d="M38.3988 0H25.5983V12.8006H38.3988V0Z" fill="#DEF6FF" fill-opacity="0.8"/>
<path d="M12.8007 25.6012H0V38.4018H12.8007V25.6012Z" fill="#DEF6FF" fill-opacity="0.8"/>
<path d="M38.3988 25.6012H25.5983V38.4018H38.3988V25.6012Z" fill="#DEF6FF" fill-opacity="0.8"/>
</svg>
