<svg xmlns="http://www.w3.org/2000/svg" width="138" height="151" viewBox="0 0 138 151" fill="none">
  <path d="M65.1929 2.44287C66.5606 1.59281 67.9682 0.807976 69.3632 0C70.4363 0.650168 71.541 1.25405 72.6225 1.89369C73.1969 2.31872 72.8918 3.1288 72.9444 3.73058C72.6477 4.80788 71.9471 5.73789 71.0086 6.33756C69.9692 6.93303 68.6478 7.00456 67.5495 6.53114C66.7247 6.20711 66.1734 5.47488 65.6242 4.8205C65.3444 4.05671 65.1319 3.26347 65.1929 2.44287Z" fill="#ade63e" fill-opacity="0.16"/>
  <path d="M57.5212 9.20343C59.1834 8.17452 61.5968 8.65426 62.691 10.287C63.5452 11.4191 63.4905 12.9824 63.0444 14.2638C62.4511 15.2149 61.5842 16.0628 60.4522 16.2964C58.7142 16.7761 56.7553 15.8145 56.0167 14.1838C55.558 13.2959 55.6611 12.2649 55.7811 11.3096C56.1851 10.4848 56.7048 9.67264 57.5212 9.20343Z" fill="#ade63e" fill-opacity="0.16"/>
  <path d="M74.8696 11.4673C75.3156 10.2764 76.2036 9.18648 77.4723 8.8414C79.2608 8.23121 81.346 9.15071 82.1603 10.8424C82.2423 11.0612 82.3286 11.278 82.4191 11.4947C82.4906 12.208 82.4822 12.9276 82.417 13.6409C81.8531 15.1663 80.4328 16.3993 78.7601 16.4141C77.0052 16.5024 75.4503 15.2421 74.8738 13.6346C74.8128 12.9128 74.8106 12.189 74.8696 11.4673Z" fill="#ade63e" fill-opacity="0.16"/>
  <path d="M94.28 14.4893C95.5215 15.0973 96.6808 15.8611 97.897 16.5176C97.2384 16.3577 96.5461 16.2841 95.9423 15.96C95.2795 15.6086 94.7913 15.0216 94.28 14.4893Z" fill="#ade63e" fill-opacity="0.16"/>
  <path d="M46.3843 20.5321C47.0197 19.3748 48.1222 18.3459 49.5046 18.2639C51.3226 17.9924 53.1574 19.2338 53.6813 20.9718C53.8959 21.5799 53.837 22.2385 53.797 22.8697C53.7213 23.0928 53.6518 23.3179 53.5845 23.5452C53.0795 24.5467 52.2421 25.4557 51.1458 25.7966C49.7719 26.2258 48.1243 25.8807 47.1796 24.7529C46.5505 24.2206 46.3232 23.4105 46.075 22.6593C46.075 22.2995 46.075 21.9397 46.0813 21.5799C46.1886 21.2327 46.2833 20.8814 46.3843 20.5321Z" fill="#ade63e" fill-opacity="0.16"/>
  <path d="M66.3416 19.4507C67.6524 17.8243 70.4698 17.8222 71.8101 19.415C71.8838 19.4634 72.0332 19.5602 72.1068 19.6064C72.4666 20.1493 72.738 20.7427 72.9506 21.3571C72.9632 21.8578 72.959 22.3565 72.9358 22.8552C72.8327 23.135 72.7422 23.4191 72.6539 23.7031C71.9259 24.9782 70.6234 26.0408 69.0874 25.9714C67.5598 26.0429 66.2385 24.9993 65.5336 23.7158C65.4284 23.3665 65.3253 23.0193 65.2117 22.6742C65.2032 22.2471 65.2074 21.82 65.2201 21.3928C65.3211 21.1109 65.4179 20.8268 65.5125 20.5428C65.6935 20.2293 65.8808 19.92 66.0701 19.6128C66.1375 19.5728 66.2721 19.4907 66.3416 19.4507Z" fill="#ade63e" fill-opacity="0.16"/>
  <path d="M85.4658 19.3664C86.8503 17.902 89.4846 17.8283 90.867 19.3286C91.2395 19.6778 91.5361 20.0945 91.7971 20.5342C91.8854 20.8877 91.978 21.2412 92.0832 21.5926C92.0853 21.9482 92.0853 22.3059 92.0811 22.6636C91.9633 23.0107 91.856 23.36 91.7466 23.7114C91.5698 23.9976 91.391 24.2816 91.2037 24.5594C90.3978 25.4557 89.2553 26.0806 88.0181 25.9691C86.5494 25.9649 85.3396 24.9255 84.641 23.7093C84.5526 23.421 84.4579 23.1349 84.3611 22.8508C84.3296 22.3543 84.3296 21.8556 84.3464 21.359C84.5652 20.6184 84.9187 19.9198 85.4658 19.3664Z" fill="#ade63e" fill-opacity="0.16"/>
  <path d="M103.45 22.0115C103.422 21.3172 103.717 20.6796 103.976 20.0547C106.221 21.3782 108.525 22.6091 110.721 24.0083C110.023 25.0793 108.887 25.9441 107.561 25.9672C105.394 26.165 103.338 24.1787 103.45 22.0115Z" fill="#ade63e" fill-opacity="0.16"/>
  <path d="M27.5356 24.2307C29.7955 22.8988 32.0574 21.5669 34.3508 20.2939C34.6833 21.205 34.8558 22.2087 34.5802 23.1576C34.0436 24.9966 32.0553 26.3222 30.1426 25.914C29.0464 25.7899 28.2468 24.9987 27.5356 24.2307Z" fill="#ade63e" fill-opacity="0.16"/>
  <path d="M37.2777 29.3589C38.1215 28.1953 39.6343 27.5914 41.0504 27.8439C42.3949 28.0501 43.5017 29.0159 44.0572 30.2342C44.3328 31.1789 44.4107 32.1952 43.9962 33.1147C43.4386 34.535 41.9846 35.526 40.4613 35.5555C39.142 35.5765 37.8459 34.8801 37.141 33.7628C36.2909 32.4498 36.3372 30.6129 37.2777 29.3589Z" fill="#ade63e" fill-opacity="0.16"/>
  <path d="M57.475 28.3637C58.8974 27.4673 60.871 27.6546 62.1229 28.7677C62.5816 29.1738 62.872 29.7208 63.2003 30.2279C63.3749 31.0801 63.3728 31.9554 63.2634 32.816C63.2024 32.9612 63.0782 33.2494 63.0172 33.3946C62.4512 34.3688 61.5506 35.1999 60.4228 35.4356C58.6449 35.9258 56.6481 34.8696 55.9579 33.1821C55.5708 32.3867 55.6949 31.4757 55.737 30.6256C56.1031 29.7377 56.6123 28.8518 57.475 28.3637Z" fill="#ade63e" fill-opacity="0.16"/>
  <path d="M77.2682 28.0438C79.0167 27.3473 81.2302 28.13 82.0655 29.8365C82.6315 30.7728 82.499 31.9174 82.3664 32.9526C81.7899 34.1688 80.7547 35.2566 79.3723 35.4755C77.5017 35.9068 75.6438 34.6485 74.9242 32.9526C74.7769 31.9616 74.7369 30.9264 75.1051 29.9774C75.608 29.1316 76.3087 28.3573 77.2682 28.0438Z" fill="#ade63e" fill-opacity="0.16"/>
  <path d="M95.4183 28.5649C96.8133 27.5065 98.9279 27.5339 100.262 28.689C100.891 29.173 101.232 29.9052 101.552 30.608C101.636 31.5843 101.703 32.6321 101.177 33.5053C100.382 35.0118 98.5113 35.8935 96.8533 35.4327C95.5214 35.1402 94.4946 34.0566 94.0296 32.8067C93.9875 32.3649 93.9243 31.9251 93.8423 31.4896C94.0106 30.3723 94.4609 29.2361 95.4183 28.5649Z" fill="#ade63e" fill-opacity="0.16"/>
  <path d="M20.9982 28.0036C21.6126 27.6185 22.3469 27.9131 22.9466 28.1719C24.6677 28.9294 25.6062 31.0756 24.9686 32.8493C24.3879 34.8419 22.0271 36.0623 20.0703 35.3532C17.8631 34.7178 16.7184 31.8983 17.8294 29.8973C18.8331 29.1882 19.9356 28.6201 20.9982 28.0036Z" fill="#ade63e" fill-opacity="0.16"/>
  <path d="M113 31.0941C113.347 29.0846 115.374 27.4203 117.433 27.8769C118.317 28.3335 119.207 28.8069 120.007 29.4024C120.609 30.063 120.783 31.0288 120.745 31.8999C120.699 33.6148 119.327 35.1697 117.644 35.4706C115.95 35.8641 114.189 34.8836 113.381 33.3938C113.12 32.6553 112.933 31.881 113 31.0941Z" fill="#ade63e" fill-opacity="0.16"/>
  <path d="M124.514 37.8658C125.375 37.3713 126.399 37.304 127.371 37.3419C125.831 38.274 124.278 39.1872 122.7 40.0541C123.068 39.164 123.685 38.3666 124.514 37.8658Z" fill="#ade63e" fill-opacity="0.16"/>
  <path d="M11.2415 37.2891C12.1694 37.3753 13.1583 37.47 13.9305 38.0444C14.5007 38.5031 14.9868 39.0691 15.3718 39.6898C13.9873 38.905 12.5881 38.1391 11.2415 37.2891Z" fill="#ade63e" fill-opacity="0.16"/>
  <path d="M28.4487 38.1617C29.2378 37.5621 30.2267 37.3348 31.203 37.3096C32.8126 37.5642 34.195 38.7214 34.6537 40.2974C34.8452 41.5472 34.6306 42.9591 33.648 43.8407C32.617 45.0821 30.7527 45.4335 29.2988 44.7939C28.0005 44.2342 27.1652 42.9528 26.9211 41.5872C26.9485 40.6088 27.1757 39.6157 27.7838 38.8266C28.0216 38.6225 28.2425 38.3974 28.4487 38.1617Z" fill="#ade63e" fill-opacity="0.16"/>
  <path d="M47.5856 38.1474C48.5577 37.4656 49.8328 37.1101 50.988 37.5035C52.9279 37.9685 54.1673 40.0726 53.8054 42.0105C53.4182 43.4182 52.3009 44.6659 50.8554 45.0089C49.5593 45.2992 48.0885 44.9394 47.2048 43.9126C46.5714 43.3761 46.3274 42.5618 46.0791 41.8043C46.0749 41.4445 46.0749 41.0847 46.0791 40.727C46.1822 40.3819 46.2727 40.0369 46.3695 39.6918C46.5462 39.3951 46.7271 39.1047 46.9207 38.8186C47.1543 38.6061 47.3731 38.3809 47.5856 38.1474Z" fill="#ade63e" fill-opacity="0.16"/>
  <path d="M66.3585 38.5452C67.6904 36.9629 70.3774 36.9755 71.7766 38.461C72.3952 38.9976 72.7129 39.7677 72.9528 40.5294C72.9612 41.0175 72.957 41.5078 72.9339 41.9959C72.8265 42.2779 72.7319 42.564 72.6351 42.8523C72.0838 43.7571 71.3074 44.624 70.2574 44.9269C69.3779 45.2131 68.4206 45.1289 67.5621 44.8175C67.4506 44.767 67.2296 44.6639 67.1202 44.6134C66.571 44.1674 66.0661 43.6666 65.641 43.1006C65.5022 42.6692 65.357 42.24 65.2097 41.8129C65.2034 41.371 65.2076 40.927 65.2202 40.4852C65.4453 39.8876 65.6915 39.2943 66.0429 38.7556C66.1208 38.703 66.2807 38.5978 66.3585 38.5452Z" fill="#ade63e" fill-opacity="0.16"/>
  <path d="M87.1786 37.5012C88.4958 37.1077 90.0865 37.4907 90.9597 38.5869C91.0291 38.629 91.168 38.7152 91.2374 38.7573C91.4542 39.1171 91.6646 39.4811 91.8666 39.8515C92.0244 40.4848 92.1275 41.1308 92.0917 41.7872C91.936 42.2207 91.7908 42.6562 91.6477 43.0939C91.229 43.6641 90.7177 44.1607 90.1812 44.6215C88.9103 45.2443 87.307 45.3095 86.1097 44.4889C85.529 44.0428 85.0282 43.4895 84.6558 42.8603C84.5569 42.5658 84.4601 42.2712 84.357 41.9808C84.3318 41.4885 84.3297 40.9961 84.3402 40.5037C84.7063 39.1171 85.7415 37.8357 87.1786 37.5012Z" fill="#ade63e" fill-opacity="0.16"/>
  <path d="M104.554 38.5411C105.844 37.1019 108.201 36.9778 109.707 38.154C109.918 38.3854 110.139 38.6085 110.376 38.8147C111.039 39.7342 111.428 40.9356 111.107 42.0571C110.747 43.8372 108.986 45.2427 107.157 45.0975C105.419 45.0786 103.953 43.6731 103.494 42.0571C103.317 40.8052 103.597 39.427 104.554 38.5411Z" fill="#ade63e" fill-opacity="0.16"/>
  <path d="M37.3514 48.3796C38.2688 47.1592 39.8847 46.7405 41.3429 46.9845C42.5338 47.3717 43.5585 48.2049 44.0529 49.3727C44.1329 49.7262 44.2129 50.0776 44.3054 50.4269C44.2991 50.713 44.2928 51.0013 44.2844 51.2895C44.1539 51.7188 44.0214 52.1501 43.8888 52.5794C43.2492 53.522 42.3381 54.4457 41.1493 54.5635C39.5922 53.7913 38.0794 52.8971 36.6255 51.9418C36.4466 50.7151 36.5245 49.3706 37.3514 48.3796Z" fill="#ade63e" fill-opacity="0.16"/>
  <path d="M57.6032 47.4186C58.468 46.8884 59.5053 46.8821 60.4816 46.9894C61.5736 47.3597 62.531 48.0772 63.0675 49.1124C63.562 50.5264 63.4989 52.2897 62.3774 53.3964C61.5968 54.3243 60.3701 54.6904 59.196 54.7136C57.7989 54.5011 56.568 53.6321 55.943 52.3612C55.6443 51.528 55.6527 50.6358 55.7326 49.7647C56.1156 48.8284 56.6584 47.8815 57.6032 47.4186Z" fill="#ade63e" fill-opacity="0.16"/>
  <path d="M75.0968 49.1248C75.7617 47.854 77.0851 46.9134 78.5475 46.9303C79.9109 46.8608 81.2113 47.6057 81.973 48.7166C82.5558 49.7434 82.5579 50.9491 82.3643 52.0832C81.7563 53.4593 80.5001 54.5177 78.9809 54.6944C78.8147 54.6944 78.4802 54.6923 78.3139 54.6923C76.8011 54.5198 75.5534 53.4698 74.9347 52.1064C74.7748 51.1153 74.7327 50.0759 75.0968 49.1248Z" fill="#ade63e" fill-opacity="0.16"/>
  <path d="M94.099 49.377C94.6166 48.2177 95.616 47.3676 96.8217 46.9846C97.8695 46.8584 98.9952 46.9257 99.8937 47.5401C100.729 48.0178 101.19 48.8952 101.554 49.7473C101.646 50.6395 101.651 51.5548 101.322 52.4027C100.115 53.2107 98.8185 53.8777 97.5707 54.6204C97.03 54.5847 96.5018 54.4753 95.9948 54.288C95.6139 54.0103 95.2478 53.7157 94.8817 53.4211C94.5366 52.9582 94.2631 52.4511 94.0253 51.9293C93.9874 51.498 93.9285 51.0687 93.8528 50.6437C93.9454 50.2229 94.0253 49.7999 94.099 49.377Z" fill="#ade63e" fill-opacity="0.16"/>
  <path d="M0.901898 47.833C2.62937 48.824 4.36315 49.813 6.06958 50.8398C5.95385 51.9865 5.49095 53.148 4.5399 53.8529C3.52572 54.6461 2.14542 54.8755 0.918731 54.5009C0.878753 52.279 0.910314 50.057 0.901898 47.833Z" fill="#ade63e" fill-opacity="0.16"/>
  <path d="M132.156 51.1002C134.016 50.0145 135.878 48.9288 137.753 47.8662C137.745 50.0082 137.768 52.1502 137.74 54.2921C136.758 54.7046 135.643 54.8539 134.641 54.4163C133.259 53.9092 132.255 52.5689 132.156 51.1002Z" fill="#ade63e" fill-opacity="0.16"/>
  <path d="M9.28663 57.3048C9.86316 56.8923 10.5302 56.6504 11.2035 56.4484C12.3881 56.4168 13.6695 56.7387 14.469 57.6709C15.7925 58.8702 15.9377 61.069 14.9277 62.5061C14.3786 63.171 13.7305 63.8275 12.8699 64.0547C12.1461 64.3156 11.3634 64.2252 10.6185 64.1305C9.2698 63.6129 8.08098 62.4619 7.89582 60.9785C7.60755 59.5919 8.26404 58.2158 9.28663 57.3048Z" fill="#ade63e" fill-opacity="0.16"/>
  <path d="M46.8955 57.9383C47.8886 56.8021 49.513 56.1245 50.9964 56.6274C52.0001 56.8399 52.747 57.5911 53.3425 58.3801C53.4666 58.6873 53.5992 58.9903 53.736 59.2933C53.898 60.1308 53.8685 60.9998 53.5824 61.8056C51.3352 60.5495 49.1069 59.2576 46.8955 57.9383Z" fill="#ade63e" fill-opacity="0.16"/>
  <path d="M66.3564 57.5834C67.1517 56.847 68.229 56.4051 69.3189 56.4619C69.9944 56.5335 70.6277 56.7944 71.2421 57.0721C72.0627 57.7475 72.6981 58.6228 72.9569 59.6665C72.9611 60.1609 72.9548 60.6554 72.938 61.1499C72.6266 62.2251 71.9196 63.0983 71.0275 63.7548C70.6614 63.8915 70.2973 64.0325 69.9354 64.1798C69.3652 64.2282 68.7908 64.2282 68.2227 64.1756C67.9408 64.0683 67.6609 63.9715 67.379 63.8768C67.0065 63.6285 66.6551 63.3529 66.3227 63.0562C66.0891 62.789 65.8661 62.5133 65.6515 62.2314C65.5084 61.8 65.359 61.3708 65.2096 60.9437C65.2054 60.5186 65.2075 60.0936 65.2159 59.6707C65.4369 58.8964 65.7967 58.1684 66.3564 57.5834Z" fill="#ade63e" fill-opacity="0.16"/>
  <path d="M87.7845 56.457C88.0749 56.4591 88.3674 56.4633 88.6598 56.4697C89.0154 56.5728 89.3731 56.6611 89.7329 56.7579C90.1643 56.9978 90.5767 57.2776 90.9238 57.6332C91.1069 57.7889 91.29 57.9467 91.4772 58.1045C89.2427 59.4827 86.9639 60.7936 84.6599 62.0518C84.5694 61.7404 84.4706 61.4311 84.3632 61.126C84.2202 60.1855 84.4158 59.2555 84.8009 58.397C85.1881 57.9278 85.611 57.4923 86.0465 57.0693C86.6062 56.8126 87.1933 56.6254 87.7845 56.457Z" fill="#ade63e" fill-opacity="0.16"/>
  <path d="M123.765 57.5959C124.558 56.7185 125.797 56.4176 126.94 56.4576C127.287 56.5691 127.64 56.6701 127.994 56.7753C128.284 56.9478 128.575 57.1267 128.861 57.3118C129.071 57.5433 129.292 57.76 129.528 57.9704C130.205 58.9362 130.563 60.2071 130.182 61.3601C129.719 63.3191 127.59 64.5752 125.635 64.1902C124.558 63.8977 123.653 63.1655 123.056 62.2333C122.222 60.7689 122.469 58.7174 123.765 57.5959Z" fill="#ade63e" fill-opacity="0.16"/>
  <path d="M0.93975 66.1463C1.80243 66.0832 2.71141 65.9527 3.53411 66.2936C5.19635 66.9059 6.2989 68.7533 5.98329 70.5081C5.81917 71.7706 4.94176 72.7931 3.88129 73.4328C2.94496 73.8178 1.91605 73.7505 0.929229 73.6621C0.889251 71.1583 0.86821 68.6481 0.93975 66.1463Z" fill="#ade63e" fill-opacity="0.16"/>
  <path d="M115.311 66.3364C116.144 66.0335 117.038 66.0335 117.913 66.1239C119.235 66.5574 120.264 67.5947 120.689 68.9203C121.063 70.7109 120.217 72.6298 118.57 73.4609C117.156 73.9386 115.384 73.8944 114.282 72.7645C113.318 71.9355 112.92 70.6225 112.994 69.3811C113.263 68.0702 114.107 66.934 115.311 66.3364Z" fill="#ade63e" fill-opacity="0.16"/>
  <path d="M20.2322 66.1257C21.0065 66.0563 21.7893 66.0395 22.5552 66.1994C23.7103 66.7317 24.7603 67.6744 25.0359 68.9642C25.5388 70.6432 24.6046 72.4212 23.1885 73.3386C22.1343 73.8183 20.9624 73.932 19.8514 73.5827C18.3028 72.9009 17.2213 71.2513 17.4254 69.5407C17.52 67.9353 18.7531 66.6286 20.2322 66.1257Z" fill="#ade63e" fill-opacity="0.16"/>
  <path d="M134.742 66.2059C135.497 66.0418 136.276 66.0481 137.044 66.1322C137.271 66.2311 137.5 66.3279 137.734 66.4205C137.765 68.7561 137.759 71.0916 137.738 73.4272C137.17 73.625 136.579 73.7428 135.992 73.8585C134.855 73.7091 133.698 73.2778 132.989 72.3288C131.842 70.9675 131.847 68.8045 133.019 67.4578C133.469 66.8918 134.104 66.5278 134.742 66.2059Z" fill="#ade63e" fill-opacity="0.16"/>
  <path d="M36.6485 68.5732C38.9314 69.7999 41.1681 71.1234 43.39 72.4595C42.7883 72.975 42.1402 73.52 41.3406 73.6736C40.4716 73.7725 39.5606 73.783 38.7316 73.4653C37.8015 72.9351 37.0104 72.1271 36.7074 71.0792C36.4339 70.2692 36.5812 69.4023 36.6485 68.5732Z" fill="#ade63e" fill-opacity="0.16"/>
  <path d="M94.9575 72.6759C97.1142 71.325 99.3509 70.1046 101.548 68.8232C101.636 69.7196 101.672 70.6475 101.327 71.4997C101.274 71.6049 101.167 71.8174 101.114 71.9226C100.628 72.6569 99.9253 73.1977 99.1531 73.6017C98.3157 73.7574 97.4593 73.7468 96.6156 73.669C96.0327 73.387 95.4772 73.0609 94.9575 72.6759Z" fill="#ade63e" fill-opacity="0.16"/>
  <path d="M10.16 75.8632C10.8522 75.6886 11.5571 75.5371 12.2767 75.5897C12.6996 75.7391 13.1246 75.8843 13.5497 76.0295C13.7601 76.1831 13.9705 76.3367 14.1788 76.4945C15.2203 77.3677 15.7905 78.7543 15.5359 80.1072C15.376 81.4033 14.3955 82.3965 13.3224 83.0403C13.0363 83.1266 12.7522 83.2171 12.4703 83.3202C11.2057 83.5138 9.86959 83.1434 8.96903 82.2113C7.98852 81.235 7.58243 79.7179 7.99694 78.3903C8.27258 77.2604 9.2089 76.4524 10.16 75.8632Z" fill="#ade63e" fill-opacity="0.16"/>
  <path d="M29.4525 75.8128C30.0963 75.6634 30.7507 75.5477 31.4156 75.5898C31.8448 75.7476 32.2783 75.8928 32.7159 76.0359C33.2862 76.4546 33.789 76.9617 34.2288 77.5172C34.2814 77.6266 34.3845 77.8454 34.435 77.9548C34.879 79.1584 34.8221 80.5997 34.0436 81.6538C33.5997 82.1925 33.0799 82.6743 32.4719 83.0257C32.1878 83.1162 31.9059 83.2151 31.626 83.3161C31.1294 83.3476 30.6308 83.3497 30.1342 83.3434C28.7876 83.0131 27.6598 82.0431 27.1422 80.7554C26.936 79.899 26.9107 79.0216 27.1485 78.1694C27.4409 77.5066 27.9017 76.9533 28.4004 76.4377C28.7455 76.221 29.0969 76.0127 29.4525 75.8128Z" fill="#ade63e" fill-opacity="0.16"/>
  <path d="M106.732 75.5946C107.548 75.5146 108.348 75.704 109.11 75.9881C109.44 76.2342 109.766 76.4888 110.094 76.7434C110.458 77.1685 110.757 77.6419 111.012 78.1406C111.247 79.0095 111.26 79.9059 111.014 80.7749C110.627 81.7175 109.909 82.4771 109.042 83.001C108.245 83.323 107.386 83.4219 106.536 83.3209C106.164 83.1715 105.794 83.0284 105.419 82.8937C104.864 82.4624 104.363 81.9616 103.921 81.4166C103.784 81.0463 103.643 80.6781 103.5 80.3141C103.452 79.7439 103.454 79.1695 103.502 78.5993C103.652 78.2395 103.795 77.8796 103.936 77.5198C104.371 76.9623 104.874 76.4531 105.451 76.0386C105.878 75.8934 106.307 75.7524 106.732 75.5946Z" fill="#ade63e" fill-opacity="0.16"/>
  <path d="M125.896 75.5899C126.605 75.5352 127.302 75.6783 127.984 75.8698C128.295 76.0633 128.608 76.2569 128.922 76.4526C128.964 76.5199 129.048 76.6546 129.092 76.724C130.285 77.6646 130.546 79.3647 130.147 80.7618C129.465 82.5208 127.556 83.6823 125.675 83.3183C125.393 83.2152 125.111 83.1226 124.83 83.0342C123.561 82.3041 122.492 80.9996 122.578 79.4615C122.502 78.0201 123.456 76.8124 124.581 76.0297C125.019 75.8866 125.459 75.7435 125.896 75.5899Z" fill="#ade63e" fill-opacity="0.16"/>
  <path d="M48.4567 75.8127C48.8502 75.7496 49.2626 75.7559 49.595 76.0105C50.99 76.8563 52.4545 77.5928 53.7948 78.5228C53.8285 79.1162 53.839 79.7116 53.7948 80.305C53.6475 80.669 53.5065 81.0351 53.3719 81.4054C52.9363 81.9609 52.4313 82.4617 51.8716 82.893C51.5013 83.0235 51.1352 83.1666 50.7733 83.3159C50.039 83.3728 49.2773 83.4064 48.5892 83.1034C47.8023 82.8488 47.2426 82.2239 46.6913 81.6432C46.4367 81.0919 46.2011 80.5259 46.0938 79.9262C45.9844 79.2571 46.2095 78.6027 46.3421 77.9547C46.6051 77.5297 46.8891 77.1172 47.2026 76.7259C47.6066 76.404 48.0317 76.1073 48.4567 75.8127Z" fill="#ade63e" fill-opacity="0.16"/>
  <path d="M89.432 75.8193C90.2694 76.0424 90.8964 76.6568 91.4477 77.2943C91.5024 77.3974 91.6139 77.6078 91.6707 77.7109C91.8096 78.0855 91.9401 78.4642 92.0789 78.8408C92.0831 79.2574 92.0852 79.6783 92.081 80.097C91.9085 80.5662 91.7423 81.0375 91.5613 81.5046C91.1405 82.0117 90.665 82.4746 90.1432 82.8786C89.7434 83.0238 89.3478 83.1732 88.9522 83.3289C88.4409 83.3499 87.9275 83.3478 87.4183 83.3226C87.0417 83.1732 86.6651 83.0259 86.2884 82.8891C85.7245 82.462 85.2238 81.9591 84.7924 81.4015C84.6556 81.0207 84.5105 80.644 84.3611 80.2695C84.3358 79.7877 84.3274 79.3037 84.3379 78.8219C85.9939 77.753 87.7487 76.8461 89.432 75.8193Z" fill="#ade63e" fill-opacity="0.16"/>
  <path d="M38.738 85.4836C39.6848 85.128 40.7179 85.1575 41.7027 85.3195C43.0156 85.9108 44.0508 87.0764 44.2781 88.5241C44.2928 88.7892 44.3054 89.0585 44.3202 89.3278C44.1308 90.8554 43.0977 92.1326 41.7048 92.7554C40.7179 92.9048 39.6848 92.9427 38.7338 92.5871C37.4734 91.9159 36.5244 90.5987 36.5476 89.1385C36.4445 87.6088 37.4082 86.178 38.738 85.4836Z" fill="#ade63e" fill-opacity="0.16"/>
  <path d="M77.2809 85.3468C78.2657 85.1449 79.3072 85.1259 80.2625 85.4689C81.1778 85.9507 81.8889 86.7271 82.3203 87.6635C82.5412 88.6419 82.5644 89.6876 82.2003 90.6366C82.1456 90.7481 82.0341 90.969 81.9794 91.0805C81.5291 91.7055 80.9442 92.2147 80.2751 92.5976C79.2209 92.9679 78.0574 92.9511 77.0011 92.606C76.7654 92.3998 76.3783 92.2567 76.4456 91.878C76.4309 89.9801 76.4309 88.0801 76.4456 86.1843C76.3636 85.6772 76.9737 85.593 77.2809 85.3468Z" fill="#ade63e" fill-opacity="0.16"/>
  <path d="M0.939689 85.2732C1.69717 85.2017 2.46096 85.1827 3.22054 85.2711C3.42674 85.3595 3.63505 85.4457 3.84546 85.5278C5.08898 86.1948 6.01058 87.4783 6.03162 88.9154C6.10316 90.3588 5.2531 91.7012 4.04535 92.4419C3.76761 92.5576 3.49197 92.6775 3.21843 92.8017C2.45885 92.8795 1.69506 92.869 0.93548 92.7954C0.882878 90.2894 0.872357 87.7792 0.939689 85.2732Z" fill="#ade63e" fill-opacity="0.16"/>
  <path d="M19.5948 85.4918C20.5416 85.1299 21.5684 85.1573 22.5553 85.3109C23.7883 85.8832 24.8719 86.9415 25.0907 88.3303C25.5094 90.1945 24.2533 92.0419 22.5616 92.7594C21.5727 92.9025 20.5395 92.9467 19.5906 92.5805C18.2713 91.8757 17.3287 90.4638 17.4107 88.9383C17.4044 87.476 18.3323 86.1672 19.5948 85.4918Z" fill="#ade63e" fill-opacity="0.16"/>
  <path d="M57.902 85.4836C58.8446 85.1259 59.8946 85.1196 60.8646 85.3742C61.0939 85.4794 61.3254 85.5846 61.5589 85.6898C61.8324 85.9297 62.2554 86.1527 62.2007 86.5862C62.2154 88.219 62.2196 89.8518 62.1986 91.4867C62.268 91.9201 61.8345 92.12 61.5694 92.3725C61.3275 92.4798 61.0897 92.5913 60.8519 92.707C59.9514 92.9195 58.9772 92.9553 58.0956 92.646L57.9083 92.6123C57.0835 92.1579 56.3996 91.4888 55.9557 90.6555C55.2676 88.9007 55.821 86.723 57.4706 85.7151C57.5779 85.6583 57.7947 85.5405 57.902 85.4836Z" fill="#ade63e" fill-opacity="0.16"/>
  <path d="M96.4262 85.3744C97.3962 85.1198 98.4524 85.124 99.3951 85.4901C99.5024 85.5469 99.7149 85.6605 99.8222 85.7194C101.609 86.803 102.109 89.2754 101.123 91.0639C100.674 91.6951 100.085 92.2022 99.4203 92.5914C98.4608 92.9407 97.4172 92.9218 96.4262 92.7345C95.3931 92.2506 94.5577 91.4279 94.0759 90.3926C93.9875 89.8456 93.9265 89.2943 93.8655 88.7451C93.9539 88.3895 94.0233 88.0297 94.0906 87.672C94.4609 86.8704 95.0396 86.1907 95.7592 85.6815C95.9801 85.5784 96.2031 85.4775 96.4262 85.3744Z" fill="#ade63e" fill-opacity="0.16"/>
  <path d="M115.578 85.3238C116.567 85.1533 117.606 85.1239 118.557 85.4879C119.291 85.936 120.011 86.4894 120.356 87.3058C120.821 88.1327 120.773 89.1027 120.689 90.0138C120.318 91.1079 119.588 92.0443 118.557 92.5871C117.602 92.9448 116.565 92.9048 115.571 92.7512C114.21 92.1221 113.154 90.8786 112.992 89.3594C112.99 89.1364 112.988 88.9155 112.988 88.6966C113.164 87.188 114.216 85.9382 115.578 85.3238Z" fill="#ade63e" fill-opacity="0.16"/>
  <path d="M134.742 85.3091C135.506 85.1913 136.282 85.1828 137.054 85.2607C137.277 85.3596 137.507 85.4585 137.738 85.5553C137.759 87.8887 137.763 90.2222 137.736 92.5556C136.785 92.9554 135.733 92.9028 134.736 92.7597C133.517 92.1811 132.427 91.1501 132.207 89.7656C131.773 87.8887 133.036 86.0266 134.742 85.3091Z" fill="#ade63e" fill-opacity="0.16"/>
  <path d="M28.0617 95.8797C28.6193 95.36 29.28 94.9392 30.048 94.8277L30.0417 94.7288C30.9633 94.6425 31.8765 94.7877 32.7265 95.1559C33.362 95.6567 33.9511 96.2248 34.3867 96.9128C34.7843 97.9438 34.8138 99.0885 34.4477 100.136C33.8228 101.315 32.7307 102.203 31.4157 102.482C30.9948 102.478 30.574 102.472 30.1532 102.459C29.8586 102.356 29.5619 102.266 29.2653 102.177C28.8465 101.925 28.4531 101.639 28.0743 101.331C27.6977 100.9 27.401 100.408 27.1464 99.8964C26.7256 98.5077 27.0412 96.9318 28.0617 95.8797Z" fill="#ade63e" fill-opacity="0.16"/>
  <path d="M10.9827 94.7311C11.4751 94.7206 11.9696 94.7206 12.4619 94.748C12.7481 94.8532 13.0385 94.9521 13.3309 95.0488C14.6839 95.7811 15.7317 97.214 15.5802 98.811C15.5739 100.275 14.5282 101.46 13.3288 102.167C12.5798 102.42 11.797 102.548 11.0059 102.466C10.7239 102.359 10.4378 102.264 10.1537 102.169C9.84021 101.988 9.53091 101.803 9.2216 101.616C9.18373 101.546 9.10588 101.41 9.0659 101.342C7.4247 100.031 7.4247 97.174 9.06169 95.8589C9.09957 95.7874 9.17742 95.6464 9.21529 95.5749C9.76657 95.2151 10.3662 94.9499 10.9827 94.7311Z" fill="#ade63e" fill-opacity="0.16"/>
  <path d="M49.2733 94.7289C49.7362 94.7205 50.2012 94.7247 50.6641 94.7394C51.0639 94.8888 51.4657 95.0361 51.8697 95.1771C52.4315 95.6021 52.9323 96.105 53.3678 96.6563C53.5046 97.0266 53.6456 97.3927 53.795 97.7588C53.835 98.3248 53.8329 98.8929 53.7971 99.461C53.4815 100.526 52.7619 101.395 51.8592 102.026C51.4258 102.173 50.9944 102.321 50.5652 102.474C50.1338 102.476 49.7067 102.474 49.2775 102.468C48.4022 102.226 47.5984 101.776 46.984 101.102C46.9188 101.01 46.7862 100.824 46.721 100.732C46.6579 100.635 46.5337 100.442 46.4706 100.345C46.035 99.3158 45.9404 98.1712 46.3549 97.1192C46.4748 96.8898 46.5905 96.6626 46.7063 96.4332C47.3564 95.5979 48.2401 94.9898 49.2733 94.7289Z" fill="#ade63e" fill-opacity="0.16"/>
  <path d="M87.5426 94.7291C87.9887 94.7228 88.4369 94.7228 88.8872 94.7312C90.4758 95.091 91.7361 96.3724 92.0791 97.9652C92.0854 98.3903 92.0833 98.8174 92.0791 99.2445C91.8266 100.28 91.2227 101.168 90.4084 101.843C89.9077 102.077 89.3921 102.279 88.8766 102.47C88.4411 102.476 88.0055 102.476 87.5742 102.47C87.1534 102.319 86.7326 102.171 86.3117 102.026C85.7352 101.605 85.2281 101.098 84.7947 100.532C84.6516 100.141 84.5043 99.7516 84.3528 99.3645C84.317 98.7711 84.3192 98.1756 84.4159 97.5907C84.5506 97.2898 84.6768 96.9868 84.7947 96.6796C85.4491 95.718 86.4022 94.9984 87.5426 94.7291Z" fill="#ade63e" fill-opacity="0.16"/>
  <path d="M105.911 94.998C106.572 94.6866 107.308 94.6992 108.022 94.7308C108.783 94.9685 109.533 95.2989 110.096 95.8817C110.256 96.0732 110.42 96.2646 110.587 96.4582C110.648 96.5634 110.772 96.778 110.833 96.8854C111.329 97.9879 111.321 99.2293 110.827 100.328C110.766 100.433 110.646 100.641 110.585 100.746C110.416 100.934 110.252 101.125 110.09 101.319C109.528 101.906 108.775 102.223 108.015 102.468C107.58 102.474 107.149 102.476 106.717 102.47C106.292 102.318 105.865 102.171 105.438 102.03C104.872 101.607 104.369 101.104 103.931 100.553C103.793 100.185 103.649 99.8185 103.502 99.4587C103.454 98.8906 103.454 98.3225 103.498 97.7565C103.647 97.3903 103.788 97.02 103.927 96.6497C104.489 95.9974 105.059 95.2715 105.911 94.998Z" fill="#ade63e" fill-opacity="0.16"/>
  <path d="M122.993 96.8266C123.571 95.8083 124.558 95.0676 125.679 94.7394C126.172 94.7246 126.668 94.7204 127.163 94.7331C127.925 94.9645 128.653 95.3138 129.225 95.8798C130.691 97.3379 130.687 99.9218 129.179 101.35C128.812 101.662 128.421 101.942 128.009 102.188C127.714 102.27 127.424 102.356 127.14 102.459C126.664 102.478 126.189 102.476 125.715 102.457C125.336 102.304 124.951 102.163 124.566 102.03C124.002 101.611 123.508 101.106 123.066 100.564C123.016 100.454 122.913 100.233 122.86 100.122C122.471 99.0633 122.46 97.8387 122.993 96.8266Z" fill="#ade63e" fill-opacity="0.16"/>
  <path d="M58.1651 104.477C58.7017 104.37 59.2487 104.336 59.7958 104.326C60.1472 104.364 60.4986 104.41 60.8521 104.46C61.3023 104.738 61.8305 104.936 62.1629 105.371C62.266 107.118 62.1945 108.877 62.2008 110.63C62.2408 111.048 61.8199 111.271 61.5611 111.522C60.2839 112.155 58.7353 112.18 57.4708 111.503C56.9847 111.128 56.5492 110.693 56.1767 110.209C55.5918 109.081 55.5287 107.743 55.9516 106.55C56.3303 105.887 56.8206 105.294 57.4476 104.852C57.6875 104.728 57.9273 104.603 58.1651 104.477Z" fill="#ade63e" fill-opacity="0.16"/>
  <path d="M38.9945 104.475C40.055 104.319 41.2438 104.159 42.2138 104.732C43.39 105.346 44.1286 106.566 44.3137 107.863C44.3053 108.136 44.2948 108.412 44.2843 108.69C44.0612 109.843 43.3837 110.857 42.4095 111.513C42.1738 111.614 41.9403 111.719 41.7067 111.829C40.945 112.054 40.1455 112.006 39.3649 111.945C38.7526 111.656 38.0982 111.393 37.6269 110.89C37.1408 110.413 36.8862 109.767 36.6043 109.161C36.5075 108.182 36.4906 107.135 37.023 106.266C37.4249 105.432 38.2202 104.917 38.9945 104.475Z" fill="#ade63e" fill-opacity="0.16"/>
  <path d="M77.2768 104.458C78.2699 104.311 79.3178 104.233 80.2751 104.597C80.9463 104.984 81.5355 105.504 81.99 106.135C82.091 106.358 82.1941 106.581 82.2993 106.807C82.5728 107.783 82.537 108.837 82.2067 109.797C81.7859 110.556 81.182 111.194 80.4392 111.644C79.3514 112.111 78.1184 112.101 77.0032 111.732C76.7823 111.532 76.3867 111.415 76.4478 111.046C76.4288 109.134 76.4309 107.221 76.4478 105.308C76.372 104.804 76.9822 104.711 77.2768 104.458Z" fill="#ade63e" fill-opacity="0.16"/>
  <path d="M96.4431 104.452C97.3394 104.313 98.261 104.277 99.1489 104.488C99.3783 104.61 99.6119 104.732 99.8475 104.85C100.334 105.214 100.756 105.658 101.125 106.139C101.602 107.067 101.693 108.115 101.558 109.138C101.44 109.409 101.329 109.681 101.219 109.958C100.721 110.947 99.7844 111.576 98.7702 111.951C97.9075 112.02 97.0154 112.052 96.1969 111.728C96.0854 111.673 95.8602 111.566 95.7487 111.511C95.0333 111.01 94.4863 110.327 94.0802 109.559C93.9097 108.654 93.9181 107.724 94.0633 106.817C94.5662 105.78 95.3952 104.938 96.4431 104.452Z" fill="#ade63e" fill-opacity="0.16"/>
  <path d="M0.931451 104.408C1.97719 104.313 3.07974 104.237 4.04553 104.732C4.91452 105.34 5.69725 106.171 5.91397 107.244C6.40844 109.028 5.3627 111.036 3.66258 111.73C2.80831 112.128 1.84253 111.987 0.93566 111.924C0.876745 109.42 0.883057 106.912 0.931451 104.408Z" fill="#ade63e" fill-opacity="0.16"/>
  <path d="M17.4486 108.736C17.1603 107.063 18.1198 105.375 19.6053 104.612C20.489 104.269 21.4464 104.311 22.3722 104.403C22.6394 104.525 22.9108 104.641 23.1823 104.761C24.1964 105.411 24.9897 106.444 25.1328 107.665C25.4168 109.481 24.1838 111.198 22.5489 111.888C21.7851 112.012 21.0066 112.016 20.2365 111.949C18.8184 111.465 17.6253 110.265 17.4486 108.736Z" fill="#ade63e" fill-opacity="0.16"/>
  <path d="M115.561 104.454C116.548 104.309 117.594 104.233 118.54 104.62C118.652 104.679 118.873 104.799 118.982 104.858C120.089 105.615 120.836 106.92 120.75 108.279C120.752 109.723 119.834 111.065 118.547 111.686C118.328 111.766 118.111 111.852 117.897 111.942C117.131 112.02 116.358 112.016 115.603 111.877C114.206 111.28 113.183 110.007 112.969 108.494C113.021 107.572 113.177 106.602 113.773 105.862C114.231 105.239 114.896 104.822 115.561 104.454Z" fill="#ade63e" fill-opacity="0.16"/>
  <path d="M133.646 105.1C134.767 104.149 136.417 104.157 137.736 104.645C137.761 106.981 137.763 109.317 137.736 111.652C137.502 111.745 137.271 111.842 137.044 111.94C136.278 112.022 135.508 112.01 134.748 111.892C133.66 111.36 132.64 110.514 132.31 109.302C131.798 107.802 132.396 106.051 133.646 105.1Z" fill="#ade63e" fill-opacity="0.16"/>
  <path d="M8.92894 115.012C9.84633 114.07 11.1951 113.672 12.487 113.883C12.7647 113.981 13.0467 114.074 13.3286 114.162C14.6121 114.89 15.6684 116.214 15.5842 117.758C15.6431 119.193 14.7005 120.399 13.5685 121.171C13.1329 121.308 12.7016 121.451 12.2703 121.6C11.9147 121.605 11.557 121.607 11.2014 121.611C10.5196 121.422 9.85054 121.178 9.27191 120.759C8.76482 120.191 8.18199 119.635 8.00945 118.861C7.58232 117.533 7.96737 116.012 8.92894 115.012Z" fill="#ade63e" fill-opacity="0.16"/>
  <path d="M29.1578 114.223C29.9153 113.813 30.7948 113.8 31.6302 113.889C31.9079 113.987 32.1899 114.078 32.4718 114.166C33.3576 114.734 34.2308 115.486 34.5359 116.531C34.841 117.421 34.719 118.393 34.4434 119.275C34.1383 119.814 33.7237 120.277 33.3092 120.735C32.739 121.141 32.0846 121.396 31.4198 121.606C31.0578 121.604 30.6959 121.604 30.3361 121.602C29.9932 121.495 29.646 121.4 29.303 121.303C28.9937 121.125 28.6865 120.944 28.3835 120.761C28.3351 120.687 28.2383 120.542 28.19 120.47C27.2263 119.738 26.9506 118.475 26.9275 117.329C27.1779 116.028 27.929 114.797 29.1578 114.223Z" fill="#ade63e" fill-opacity="0.16"/>
  <path d="M48.9029 113.941C49.5236 113.838 50.1548 113.834 50.7819 113.885C51.1438 114.03 51.512 114.171 51.8802 114.307C52.4294 114.747 52.9407 115.242 53.3762 115.797C53.5109 116.165 53.6498 116.534 53.7949 116.9C53.837 117.466 53.8328 118.034 53.7886 118.6C53.6371 118.955 53.492 119.317 53.3552 119.679C52.9828 120.151 52.5577 120.576 52.1264 120.992C51.6088 121.219 51.0785 121.417 50.5483 121.615C49.8939 121.642 49.2501 121.535 48.6125 121.396C48.1075 121.146 47.6362 120.839 47.2091 120.47C46.8956 120.081 46.6073 119.671 46.3422 119.248C46.1655 118.467 45.9235 117.647 46.1907 116.858C46.4095 115.707 47.2554 114.8 48.2359 114.219C48.4589 114.127 48.682 114.034 48.9029 113.941Z" fill="#ade63e" fill-opacity="0.16"/>
  <path d="M87.3657 113.887C87.9212 113.847 88.4788 113.845 89.0364 113.887C89.3225 113.998 89.6108 114.101 89.9012 114.209C90.6039 114.602 91.1615 115.193 91.6371 115.835C91.7801 116.26 91.9253 116.687 92.081 117.112C92.0852 117.535 92.0831 117.958 92.081 118.383C91.8348 119.149 91.5192 119.909 90.9301 120.477C90.7407 120.641 90.5492 120.803 90.3599 120.969C90.2589 121.028 90.0569 121.148 89.9559 121.207C89.1921 121.508 88.3883 121.685 87.5656 121.605C86.3095 121.272 85.1206 120.468 84.6304 119.225C84.2811 118.514 84.3 117.708 84.359 116.94C84.5084 116.563 84.6514 116.184 84.7882 115.804C85.2195 115.248 85.7182 114.745 86.2716 114.314C86.6377 114.177 87.0017 114.034 87.3657 113.887Z" fill="#ade63e" fill-opacity="0.16"/>
  <path d="M106.53 113.889C107.083 113.842 107.641 113.847 108.197 113.889C108.483 114.004 108.777 114.118 109.07 114.229C109.935 114.732 110.633 115.498 111.014 116.43C111.273 117.297 111.237 118.194 111.01 119.063C110.757 119.574 110.452 120.064 110.023 120.449C109.958 120.533 109.827 120.702 109.762 120.788C108.87 121.383 107.801 121.71 106.726 121.609C105.577 121.341 104.607 120.639 103.936 119.681C103.797 119.319 103.65 118.96 103.502 118.604C103.454 118.034 103.452 117.461 103.498 116.895C103.643 116.527 103.782 116.159 103.917 115.791C104.46 115.126 105.059 114.474 105.855 114.107C106.08 114.038 106.305 113.964 106.53 113.889Z" fill="#ade63e" fill-opacity="0.16"/>
  <path d="M124.993 114.084C126.397 113.596 128.089 113.83 129.132 114.947C130.708 116.334 130.75 119.143 129.088 120.479C129.044 120.546 128.958 120.685 128.913 120.754C128.606 120.938 128.299 121.121 127.99 121.302C127.645 121.4 127.3 121.495 126.961 121.602C126.597 121.605 126.235 121.605 125.873 121.605C124.85 121.354 123.914 120.815 123.285 119.957C122.378 118.743 122.344 116.973 123.14 115.694C123.632 115.033 124.257 114.463 124.993 114.084Z" fill="#ade63e" fill-opacity="0.16"/>
  <path d="M19.8473 123.623C20.752 123.374 21.7178 123.271 22.6078 123.648C24.4342 124.266 25.5852 126.41 25.0276 128.268C24.6888 129.663 23.4895 130.789 22.0818 131.054C20.6826 130.21 19.2392 129.438 17.8442 128.586C17.3181 128.348 17.4528 127.694 17.4086 127.227C17.3939 125.659 18.4417 124.252 19.8473 123.623Z" fill="#ade63e" fill-opacity="0.16"/>
  <path d="M39.8572 123.408C40.1981 123.389 40.5368 123.382 40.8798 123.387C41.309 123.519 41.7404 123.654 42.1717 123.788C43.329 124.487 44.1559 125.651 44.3137 127.01C44.3074 127.218 44.3011 127.428 44.2948 127.641C44.2064 127.99 44.1328 128.342 44.057 128.695C43.6088 129.619 42.9061 130.454 41.9298 130.841C41.1407 131.222 40.2423 131.14 39.3964 131.077C38.4411 130.705 37.4964 130.143 37.0251 129.19C36.497 128.337 36.5054 127.306 36.598 126.343C36.9893 125.154 37.8141 124.125 38.9861 123.635C39.2765 123.561 39.5668 123.487 39.8572 123.408Z" fill="#ade63e" fill-opacity="0.16"/>
  <path d="M78.1519 123.372C78.4844 123.38 78.8189 123.397 79.1493 123.452C79.3849 123.49 79.6206 123.528 79.8605 123.566C80.9883 123.984 81.8425 124.889 82.3559 125.962C82.52 126.949 82.5621 127.988 82.1981 128.94C81.6679 129.971 80.7294 130.692 79.6479 131.077C78.9915 131.132 78.3329 131.138 77.6785 131.086C77.2682 130.808 76.435 130.797 76.4476 130.179C76.4329 128.127 76.4181 126.074 76.4623 124.022C77.0094 123.766 77.5733 123.549 78.1519 123.372Z" fill="#ade63e" fill-opacity="0.16"/>
  <path d="M94.9237 124.666C95.5676 123.896 96.5375 123.551 97.4907 123.355C97.7579 123.377 98.0315 123.404 98.3008 123.44C98.5848 123.499 98.8752 123.56 99.1656 123.621C99.9504 123.993 100.624 124.561 101.118 125.279C101.173 125.39 101.282 125.613 101.337 125.725C101.661 126.545 101.638 127.437 101.556 128.302C101.272 128.91 101.013 129.558 100.523 130.036C100.039 130.53 99.3865 130.796 98.7679 131.078C97.8379 131.187 96.8868 131.155 96.0157 130.785C95.2625 130.345 94.6523 129.71 94.2167 128.957C93.7349 127.538 93.7917 125.769 94.9237 124.666Z" fill="#ade63e" fill-opacity="0.16"/>
  <path d="M114.974 123.915C115.489 123.608 116.085 123.504 116.657 123.347C117.206 123.425 117.755 123.519 118.305 123.616C119.46 124.136 120.306 125.141 120.697 126.339C120.75 126.983 120.75 127.629 120.684 128.27C120.594 128.455 120.508 128.641 120.423 128.828C119.209 129.558 117.985 130.273 116.75 130.97C116.299 131.267 115.792 130.959 115.338 130.852C115.228 130.799 115.012 130.694 114.904 130.644C114.101 130.082 113.392 129.312 113.156 128.336C112.621 126.677 113.478 124.759 114.974 123.915Z" fill="#ade63e" fill-opacity="0.16"/>
  <path d="M58.1335 123.622C58.4891 123.547 58.8447 123.469 59.1982 123.38C59.3518 123.382 59.659 123.382 59.8126 123.385C60.1114 123.452 60.4144 123.513 60.7195 123.572C61.275 123.875 62.2092 124.089 62.2029 124.868C62.2155 126.503 62.2197 128.138 62.1987 129.773C62.2281 130.191 61.8031 130.404 61.5422 130.652C60.6037 131.119 59.5517 131.218 58.5228 131.079C57.5191 130.703 56.587 130.088 56.0862 129.112C55.9726 128.841 55.859 128.569 55.7433 128.304C55.6507 127.433 55.6402 126.537 55.9453 125.703C56.4229 124.786 57.1867 124.043 58.1335 123.622Z" fill="#ade63e" fill-opacity="0.16"/>
  <path d="M27.8364 134.385C28.6276 133.484 29.7806 132.868 31.0052 132.973C32.3413 132.963 33.4881 133.838 34.2013 134.907C34.7716 135.847 34.8221 137.007 34.5738 138.057C34.3592 138.204 34.1487 138.008 33.9552 137.926C31.9142 136.748 29.8816 135.557 27.8364 134.385Z" fill="#ade63e" fill-opacity="0.16"/>
  <path d="M47.7414 133.665C48.966 132.767 50.7503 132.731 52.0211 133.558C52.543 133.945 52.9701 134.444 53.3846 134.942C53.5193 135.311 53.656 135.679 53.797 136.049C53.9948 137.335 53.6434 138.74 52.644 139.622C52.0569 140.289 51.1774 140.52 50.3589 140.758C49.2122 140.735 47.9539 140.459 47.2196 139.502C47.1438 139.449 46.9902 139.348 46.9145 139.298C46.702 138.936 46.4937 138.572 46.2938 138.208C46.1486 137.579 46.0413 136.941 46.0644 136.295C46.3316 135.262 46.8514 134.29 47.7414 133.665Z" fill="#ade63e" fill-opacity="0.16"/>
  <path d="M86.2695 133.434C87.1469 133.017 88.119 132.881 89.0806 133.026C89.4425 133.171 89.8044 133.314 90.1705 133.457C90.524 133.75 90.8544 134.072 91.2036 134.37C91.6203 134.932 91.8791 135.584 92.0853 136.249C92.0853 136.664 92.0832 137.08 92.0726 137.497C91.9695 137.794 91.8749 138.095 91.7802 138.395C91.6034 138.694 91.4267 138.993 91.2478 139.29C91.1679 139.355 91.008 139.481 90.928 139.544C89.5751 141.106 86.9155 141.093 85.5078 139.614C84.5252 138.732 84.1738 137.339 84.3611 136.062C84.4663 135.776 84.5652 135.49 84.6641 135.204C85.0533 134.497 85.6551 133.945 86.2695 133.434Z" fill="#ade63e" fill-opacity="0.16"/>
  <path d="M105.369 133.491C106.509 132.83 107.999 132.775 109.158 133.421C109.69 133.695 110.071 134.17 110.503 134.572C108.277 135.891 106.036 137.19 103.782 138.465C103.692 138.216 103.599 137.97 103.504 137.726C103.458 137.169 103.454 136.609 103.485 136.053C103.767 134.991 104.474 134.105 105.369 133.491Z" fill="#ade63e" fill-opacity="0.16"/>
  <path d="M56.0547 144.68C56.9027 142.898 59.2172 141.993 61.0267 142.833C61.5149 143.075 62.2555 143.361 62.2029 144.022C62.2135 145.65 62.2219 147.279 62.1987 148.91C62.2282 149.385 61.7316 149.612 61.3823 149.812C60.0147 150.568 58.2051 150.387 57.01 149.379C56.3809 148.891 56.0547 148.144 55.737 147.441C55.6739 146.515 55.5771 145.52 56.0547 144.68Z" fill="#ade63e" fill-opacity="0.16"/>
  <path d="M76.456 143.166C77.4029 142.652 78.5243 142.305 79.589 142.648C80.8725 142.93 81.8152 143.971 82.3664 145.114C82.499 146.151 82.6316 147.296 82.0634 148.237C81.4301 149.533 79.9699 150.33 78.5412 150.273C77.8195 150.286 77.1567 149.972 76.496 149.726C76.3739 147.544 76.4497 145.352 76.456 143.166Z" fill="#ade63e" fill-opacity="0.16"/>
  <path d="M65.4138 6.32981C66.7083 5.52521 68.0407 4.78235 69.3611 4.01758C70.3768 4.63298 71.4224 5.20456 72.4461 5.81001C72.9898 6.21231 72.701 6.97907 72.7508 7.54866C72.47 8.56836 71.8068 9.44864 70.9185 10.0162C69.9347 10.5799 68.684 10.6476 67.6443 10.1995C66.8636 9.89276 66.3418 9.19969 65.822 8.58031C65.5572 7.85736 65.356 7.10653 65.4138 6.32981Z" fill="#ade63e"/>
  <path d="M58.1524 12.7292C59.7257 11.7553 62.0101 12.2094 63.0457 13.7548C63.8543 14.8263 63.8025 16.3061 63.3803 17.5189C62.8187 18.4191 61.9981 19.2217 60.9267 19.4428C59.2816 19.8969 57.4275 18.9867 56.7284 17.4433C56.2942 16.6028 56.3918 15.6269 56.5053 14.7227C56.8877 13.942 57.3797 13.1733 58.1524 12.7292Z" fill="#ade63e"/>
  <path d="M74.5731 14.8715C74.9953 13.7442 75.8357 12.7126 77.0367 12.386C78.7295 11.8084 80.7032 12.6787 81.4739 14.28C81.5516 14.4871 81.6333 14.6922 81.7189 14.8974C81.7866 15.5725 81.7786 16.2536 81.7169 16.9288C81.1832 18.3727 79.8388 19.5398 78.2555 19.5537C76.5945 19.6374 75.1228 18.4444 74.5771 16.9228C74.5193 16.2397 74.5173 15.5546 74.5731 14.8715Z" fill="#ade63e"/>
  <path d="M92.9456 17.7314C94.1206 18.307 95.218 19.03 96.3691 19.6513C95.7457 19.5 95.0905 19.4303 94.5189 19.1236C93.8916 18.791 93.4295 18.2353 92.9456 17.7314Z" fill="#ade63e"/>
  <path d="M47.6109 23.4518C48.2123 22.3564 49.2559 21.3825 50.5644 21.3048C52.2851 21.0479 54.0218 22.223 54.5177 23.868C54.7208 24.4436 54.6651 25.0669 54.6272 25.6644C54.5556 25.8755 54.4898 26.0886 54.4261 26.3037C53.9481 27.2517 53.1555 28.1121 52.1178 28.4347C50.8173 28.841 49.2579 28.5144 48.3637 27.4469C47.7682 26.943 47.5531 26.1763 47.3181 25.4653C47.3181 25.1247 47.3181 24.7841 47.3241 24.4436C47.4257 24.115 47.5153 23.7824 47.6109 23.4518Z" fill="#ade63e"/>
  <path d="M66.5011 22.4282C67.7419 20.8887 70.4086 20.8867 71.6773 22.3943C71.747 22.4401 71.8884 22.5318 71.9581 22.5756C72.2986 23.0894 72.5555 23.651 72.7567 24.2326C72.7686 24.7066 72.7647 25.1786 72.7428 25.6506C72.6452 25.9155 72.5595 26.1843 72.4759 26.4532C71.7868 27.6601 70.554 28.6659 69.1001 28.6001C67.6542 28.6678 66.4035 27.68 65.7363 26.4651C65.6368 26.1345 65.5392 25.8059 65.4316 25.4793C65.4237 25.075 65.4276 24.6707 65.4396 24.2664C65.5352 23.9996 65.6268 23.7307 65.7164 23.4618C65.8877 23.1651 66.065 22.8723 66.2442 22.5815C66.3079 22.5437 66.4354 22.466 66.5011 22.4282Z" fill="#ade63e"/>
  <path d="M84.6026 22.3479C85.9131 20.9618 88.4065 20.8921 89.715 22.3121C90.0675 22.6427 90.3483 23.037 90.5953 23.4533C90.6789 23.7879 90.7666 24.1225 90.8662 24.455C90.8681 24.7916 90.8681 25.1302 90.8642 25.4688C90.7526 25.7974 90.6511 26.128 90.5475 26.4606C90.3802 26.7314 90.2109 27.0003 90.0337 27.2632C89.2709 28.1116 88.1895 28.7031 87.0184 28.5975C85.6283 28.5936 84.4831 27.6097 83.8219 26.4586C83.7383 26.1857 83.6486 25.9149 83.557 25.646C83.5271 25.176 83.5271 24.704 83.5431 24.234C83.7502 23.5329 84.0848 22.8717 84.6026 22.3479Z" fill="#ade63e"/>
  <path d="M101.625 24.8512C101.599 24.194 101.878 23.5905 102.123 22.999C104.248 24.2517 106.429 25.4168 108.508 26.7412C107.847 27.7549 106.771 28.5735 105.517 28.5954C103.465 28.7826 101.519 26.9025 101.625 24.8512Z" fill="#ade63e"/>
  <path d="M29.7703 26.9528C31.9092 25.6921 34.0502 24.4315 36.221 23.2266C36.5357 24.0889 36.699 25.0389 36.4381 25.9371C35.9302 27.6778 34.0482 28.9325 32.2378 28.5461C31.2002 28.4286 30.4434 27.6798 29.7703 26.9528Z" fill="#ade63e"/>
  <path d="M38.9913 31.8061C39.7899 30.7047 41.2218 30.1332 42.5622 30.3721C43.8348 30.5673 44.8824 31.4815 45.4082 32.6346C45.6691 33.5288 45.7427 34.4907 45.3504 35.3611C44.8226 36.7054 43.4464 37.6434 42.0045 37.6713C40.7558 37.6912 39.529 37.032 38.8618 35.9745C38.0572 34.7317 38.101 32.9931 38.9913 31.8061Z" fill="#ade63e"/>
  <path d="M58.1087 30.8646C59.455 30.0162 61.3231 30.1934 62.5081 31.247C62.9423 31.6313 63.2171 32.1491 63.5278 32.6291C63.6931 33.4357 63.6911 34.2642 63.5876 35.0788C63.5298 35.2162 63.4123 35.489 63.3546 35.6265C62.8188 36.5486 61.9664 37.3352 60.8989 37.5583C59.216 38.0223 57.326 37.0226 56.6728 35.4253C56.3063 34.6725 56.4238 33.8101 56.4637 33.0055C56.8102 32.1651 57.2922 31.3266 58.1087 30.8646Z" fill="#ade63e"/>
  <path d="M76.8434 30.5614C78.4984 29.9022 80.5936 30.6431 81.3842 32.2583C81.92 33.1445 81.7945 34.228 81.669 35.2078C81.1233 36.359 80.1435 37.3886 78.835 37.5957C77.0645 38.004 75.3059 36.813 74.6248 35.2078C74.4854 34.2698 74.4475 33.2899 74.7961 32.3917C75.2721 31.5911 75.9352 30.8582 76.8434 30.5614Z" fill="#ade63e"/>
  <path d="M94.023 31.055C95.3434 30.0532 97.3449 30.0791 98.6076 31.1725C99.2031 31.6306 99.5257 32.3236 99.8284 32.9888C99.9081 33.9129 99.9718 34.9047 99.4739 35.7312C98.7211 37.1572 96.9506 37.9917 95.3812 37.5555C94.1205 37.2787 93.1486 36.253 92.7085 35.07C92.6687 34.6518 92.6089 34.2356 92.5312 33.8233C92.6906 32.7658 93.1168 31.6903 94.023 31.055Z" fill="#ade63e"/>
  <path d="M23.5823 30.524C24.1639 30.1595 24.8589 30.4383 25.4265 30.6833C27.0557 31.4003 27.9439 33.4317 27.3405 35.1106C26.7908 36.9966 24.5562 38.1517 22.704 37.4806C20.6149 36.8791 19.5314 34.2104 20.583 32.3164C21.533 31.6452 22.5766 31.1075 23.5823 30.524Z" fill="#ade63e"/>
  <path d="M110.665 33.4492C110.993 31.5472 112.911 29.9719 114.861 30.4041C115.697 30.8362 116.54 31.2843 117.297 31.848C117.866 32.4733 118.032 33.3875 117.996 34.212C117.952 35.8351 116.653 37.3069 115.06 37.5917C113.457 37.9641 111.79 37.0361 111.025 35.626C110.778 34.927 110.601 34.1941 110.665 33.4492Z" fill="#ade63e"/>
  <path d="M121.563 39.8578C122.377 39.3898 123.347 39.3261 124.267 39.3619C122.809 40.2442 121.34 41.1085 119.846 41.9291C120.194 41.0866 120.778 40.3318 121.563 39.8578Z" fill="#ade63e"/>
  <path d="M14.3474 39.3125C15.2257 39.3942 16.1617 39.4838 16.8927 40.0275C17.4324 40.4616 17.8924 40.9974 18.2569 41.5849C16.9464 40.842 15.622 40.1171 14.3474 39.3125Z" fill="#ade63e"/>
  <path d="M30.6346 40.1386C31.3815 39.571 32.3175 39.3559 33.2416 39.332C34.7652 39.573 36.0736 40.6684 36.5078 42.1601C36.689 43.3431 36.4859 44.6794 35.5558 45.5139C34.58 46.689 32.8154 47.0216 31.4392 46.4161C30.2104 45.8863 29.4197 44.6735 29.1887 43.3809C29.2146 42.4548 29.4297 41.5148 30.0053 40.768C30.2303 40.5748 30.4394 40.3617 30.6346 40.1386Z" fill="#ade63e"/>
  <path d="M48.7481 40.1247C49.6682 39.4794 50.8751 39.1429 51.9685 39.5153C53.8047 39.9554 54.9777 41.947 54.6352 43.7813C54.2687 45.1136 53.2112 46.2946 51.843 46.6193C50.6162 46.8941 49.224 46.5536 48.3876 45.5817C47.7881 45.0738 47.5571 44.3031 47.3221 43.5861C47.3181 43.2455 47.3181 42.905 47.3221 42.5664C47.4197 42.2398 47.5053 41.9131 47.5969 41.5865C47.7642 41.3057 47.9355 41.0309 48.1187 40.76C48.3398 40.5589 48.5469 40.3458 48.7481 40.1247Z" fill="#ade63e"/>
  <path d="M66.5172 40.501C67.7778 39.0033 70.3211 39.0152 71.6455 40.4213C72.231 40.9291 72.5318 41.6581 72.7588 42.379C72.7668 42.8411 72.7628 43.3051 72.7409 43.7672C72.6393 44.034 72.5497 44.3049 72.4581 44.5777C71.9363 45.4341 71.2014 46.2547 70.2076 46.5414C69.3751 46.8123 68.4689 46.7326 67.6563 46.4379C67.5508 46.3901 67.3417 46.2925 67.2381 46.2447C66.7183 45.8225 66.2403 45.3485 65.838 44.8127C65.7066 44.4045 65.5692 43.9982 65.4297 43.5939C65.4238 43.1757 65.4278 42.7554 65.4397 42.3372C65.6528 41.7716 65.8858 41.21 66.2184 40.7001C66.2921 40.6503 66.4435 40.5507 66.5172 40.501Z" fill="#ade63e"/>
  <path d="M86.2238 39.5136C87.4705 39.1412 88.9762 39.5037 89.8027 40.5413C89.8684 40.5811 89.9998 40.6628 90.0656 40.7026C90.2707 41.0432 90.4699 41.3877 90.6611 41.7382C90.8104 42.3377 90.908 42.9491 90.8742 43.5705C90.7268 43.9808 90.5894 44.393 90.4539 44.8073C90.0576 45.347 89.5736 45.817 89.0658 46.2532C87.8629 46.8427 86.3453 46.9044 85.2121 46.1277C84.6624 45.7055 84.1884 45.1817 83.8359 44.5862C83.7423 44.3074 83.6507 44.0286 83.5531 43.7537C83.5292 43.2877 83.5272 42.8217 83.5371 42.3556C83.8837 41.0432 84.8635 39.8303 86.2238 39.5136Z" fill="#ade63e"/>
  <path d="M102.671 40.4974C103.891 39.1351 106.122 39.0176 107.548 40.1309C107.747 40.35 107.956 40.5611 108.181 40.7563C108.809 41.6266 109.177 42.7638 108.872 43.8253C108.532 45.5102 106.865 46.8406 105.134 46.7032C103.489 46.6852 102.101 45.3549 101.667 43.8253C101.499 42.6403 101.764 41.3358 102.671 40.4974Z" fill="#ade63e"/>
  <path d="M39.061 49.8102C39.9293 48.6551 41.4589 48.2587 42.8391 48.4898C43.9663 48.8562 44.9362 49.6449 45.4042 50.7502C45.4799 51.0848 45.5556 51.4174 45.6432 51.748C45.6372 52.0189 45.6313 52.2917 45.6233 52.5646C45.4998 52.9708 45.3743 53.3791 45.2489 53.7854C44.6434 54.6776 43.7811 55.5519 42.6558 55.6635C41.1821 54.9326 39.7501 54.0861 38.3739 53.182C38.2046 52.0209 38.2783 50.7482 39.061 49.8102Z" fill="#ade63e"/>
  <path d="M58.2301 48.8996C59.0486 48.3977 60.0305 48.3917 60.9546 48.4933C61.9882 48.8438 62.8944 49.523 63.4023 50.5028C63.8703 51.8412 63.8105 53.5101 62.749 54.5577C62.0101 55.436 60.849 55.7825 59.7377 55.8044C58.4153 55.6033 57.2502 54.7808 56.6587 53.5778C56.3759 52.7892 56.3839 51.9447 56.4596 51.1202C56.822 50.234 57.3359 49.3377 58.2301 48.8996Z" fill="#ade63e"/>
  <path d="M74.7881 50.5151C75.4174 49.3121 76.6701 48.4219 78.0543 48.4378C79.3448 48.3721 80.5756 49.0771 81.2966 50.1287C81.8483 51.1006 81.8503 52.2418 81.667 53.3152C81.0915 54.6177 79.9025 55.6195 78.4645 55.7868C78.3072 55.7868 77.9906 55.7848 77.8332 55.7848C76.4013 55.6215 75.2203 54.6277 74.6347 53.3371C74.4834 52.3991 74.4435 51.4153 74.7881 50.5151Z" fill="#ade63e"/>
  <path d="M92.7743 50.7541C93.2642 49.6567 94.2102 48.8521 95.3514 48.4896C96.3432 48.3701 97.4087 48.4339 98.2591 49.0154C99.0498 49.4675 99.4859 50.298 99.8305 51.1046C99.9181 51.949 99.9221 52.8154 99.6114 53.618C98.4682 54.3827 97.2414 55.0141 96.0604 55.7171C95.5486 55.6832 95.0487 55.5797 94.5687 55.4024C94.2082 55.1395 93.8617 54.8607 93.5151 54.5819C93.1885 54.1437 92.9296 53.6638 92.7046 53.1699C92.6687 52.7616 92.613 52.3553 92.5413 51.953C92.6289 51.5547 92.7046 51.1544 92.7743 50.7541Z" fill="#ade63e"/>
  <path d="M4.56087 49.292C6.19596 50.23 7.83703 51.1661 9.45221 52.138C9.34267 53.2234 8.90452 54.3227 8.00432 54.9899C7.04438 55.7408 5.7379 55.9578 4.5768 55.6033C4.53896 53.5002 4.56883 51.3971 4.56087 49.292Z" fill="#ade63e"/>
  <path d="M128.796 52.3853C130.557 51.3576 132.319 50.33 134.094 49.3242C134.086 51.3517 134.108 53.3791 134.082 55.4065C133.152 55.7969 132.096 55.9383 131.148 55.524C129.84 55.0441 128.89 53.7754 128.796 52.3853Z" fill="#ade63e"/>
  <path d="M12.4972 58.2588C13.0429 57.8685 13.6742 57.6395 14.3115 57.4483C15.4328 57.4184 16.6457 57.7231 17.4025 58.6054C18.6552 59.7406 18.7926 61.8218 17.8366 63.1821C17.3168 63.8114 16.7034 64.4328 15.8889 64.6479C15.2038 64.8948 14.4629 64.8092 13.7579 64.7196C12.4813 64.2296 11.356 63.1402 11.1807 61.7362C10.9079 60.4237 11.5293 59.1212 12.4972 58.2588Z" fill="#ade63e"/>
  <path d="M48.095 58.8582C49.035 57.7827 50.5725 57.1415 51.9766 57.6174C52.9266 57.8186 53.6336 58.5296 54.1972 59.2764C54.3147 59.5672 54.4402 59.854 54.5696 60.1408C54.723 60.9334 54.6951 61.756 54.4242 62.5187C52.2972 61.3298 50.1881 60.1069 48.095 58.8582Z" fill="#ade63e"/>
  <path d="M66.5151 58.5212C67.268 57.8242 68.2877 57.4059 69.3193 57.4597C69.9586 57.5274 70.5581 57.7744 71.1396 58.0373C71.9163 58.6766 72.5178 59.5051 72.7628 60.4929C72.7667 60.9609 72.7608 61.4289 72.7448 61.897C72.4501 62.9147 71.7809 63.7412 70.9365 64.3626C70.5899 64.492 70.2454 64.6254 69.9028 64.7649C69.3631 64.8107 68.8194 64.8107 68.2817 64.7609C68.0148 64.6593 67.7499 64.5677 67.4831 64.4781C67.1305 64.2431 66.7979 63.9822 66.4833 63.7013C66.2622 63.4484 66.0511 63.1875 65.848 62.9206C65.7125 62.5124 65.5711 62.1061 65.4297 61.7018C65.4257 61.2995 65.4277 60.8972 65.4357 60.4969C65.6448 59.764 65.9854 59.0749 66.5151 58.5212Z" fill="#ade63e"/>
  <path d="M86.7976 57.4561C87.0724 57.458 87.3492 57.462 87.626 57.468C87.9626 57.5656 88.3012 57.6492 88.6418 57.7409C89.05 57.9679 89.4404 58.2328 89.769 58.5694C89.9423 58.7167 90.1155 58.8661 90.2928 59.0155C88.1777 60.32 86.0208 61.5607 83.84 62.7517C83.7544 62.4569 83.6608 62.1642 83.5592 61.8754C83.4238 60.9852 83.609 60.1049 83.9735 59.2923C84.3399 58.8482 84.7402 58.4359 85.1525 58.0356C85.6823 57.7926 86.2379 57.6154 86.7976 57.4561Z" fill="#ade63e"/>
  <path d="M120.854 58.5329C121.605 57.7024 122.778 57.4176 123.859 57.4554C124.188 57.561 124.522 57.6566 124.857 57.7562C125.132 57.9195 125.407 58.0888 125.677 58.264C125.877 58.4831 126.086 58.6882 126.309 58.8874C126.95 59.8015 127.289 61.0044 126.928 62.0958C126.49 63.95 124.474 65.139 122.624 64.7745C121.605 64.4977 120.748 63.8046 120.183 62.9223C119.394 61.5362 119.627 59.5944 120.854 58.5329Z" fill="#ade63e"/>
  <path d="M4.59665 66.6275C5.4132 66.5677 6.27357 66.4442 7.05228 66.7669C8.62564 67.3464 9.66923 69.095 9.37049 70.756C9.21515 71.951 8.38465 72.9189 7.38089 73.5243C6.49464 73.8888 5.52075 73.8251 4.58669 73.7414C4.54885 71.3714 4.52894 68.9955 4.59665 66.6275Z" fill="#ade63e"/>
  <path d="M112.852 66.8066C113.64 66.5199 114.487 66.5199 115.315 66.6055C116.566 67.0158 117.54 67.9976 117.942 69.2523C118.297 70.9472 117.496 72.7635 115.936 73.5502C114.598 74.0023 112.921 73.9604 111.878 72.8909C110.965 72.1063 110.589 70.8635 110.659 69.6885C110.914 68.4477 111.712 67.3723 112.852 66.8066Z" fill="#ade63e"/>
  <path d="M22.8574 66.6074C23.5903 66.5417 24.3312 66.5257 25.0561 66.6771C26.1495 67.181 27.1433 68.0732 27.4042 69.2941C27.8802 70.8833 26.996 72.5662 25.6556 73.4346C24.6578 73.8887 23.5485 73.9962 22.497 73.6656C21.0311 73.0203 20.0075 71.4589 20.2007 69.8397C20.2903 68.3202 21.4573 67.0834 22.8574 66.6074Z" fill="#ade63e"/>
  <path d="M131.244 66.6832C131.959 66.5279 132.696 66.5339 133.423 66.6135C133.638 66.7071 133.855 66.7987 134.076 66.8864C134.106 69.097 134.1 71.3077 134.08 73.5184C133.542 73.7056 132.982 73.8171 132.427 73.9266C131.351 73.7852 130.256 73.377 129.585 72.4787C128.499 71.1902 128.503 69.1428 129.613 67.8682C130.039 67.3325 130.64 66.9879 131.244 66.6832Z" fill="#ade63e"/>
  <path d="M38.3958 68.9229C40.5567 70.0839 42.6737 71.3367 44.7769 72.6013C44.2073 73.0893 43.5939 73.6051 42.8371 73.7505C42.0145 73.8441 41.1522 73.854 40.3675 73.5533C39.4872 73.0514 38.7384 72.2866 38.4516 71.2948C38.1927 70.5281 38.3321 69.7075 38.3958 68.9229Z" fill="#ade63e"/>
  <path d="M93.5869 72.8068C95.6283 71.5282 97.7454 70.373 99.8246 69.1602C99.9082 70.0086 99.9421 70.8869 99.6155 71.6935C99.5657 71.793 99.4641 71.9942 99.4143 72.0938C98.9542 72.7888 98.2891 73.3007 97.5581 73.6831C96.7655 73.8304 95.9549 73.8205 95.1563 73.7468C94.6046 73.4799 94.0788 73.1712 93.5869 72.8068Z" fill="#ade63e"/>
  <path d="M13.3238 75.8246C13.979 75.6593 14.6462 75.5159 15.3273 75.5657C15.7276 75.7071 16.1299 75.8445 16.5322 75.9819C16.7314 76.1273 16.9305 76.2727 17.1277 76.4221C18.1135 77.2486 18.6532 78.561 18.4123 79.8416C18.2609 81.0684 17.3328 82.0085 16.3171 82.6179C16.0463 82.6996 15.7774 82.7852 15.5105 82.8828C14.3136 83.066 13.0489 82.7155 12.1965 81.8332C11.2684 80.9091 10.8841 79.4732 11.2764 78.2165C11.5373 77.147 12.4236 76.3822 13.3238 75.8246Z" fill="#ade63e"/>
  <path d="M31.5846 75.776C32.194 75.6346 32.8134 75.5251 33.4427 75.5649C33.849 75.7143 34.2593 75.8517 34.6735 75.9871C35.2133 76.3835 35.6893 76.8634 36.1055 77.3892C36.1553 77.4928 36.2529 77.6999 36.3007 77.8035C36.7209 78.9426 36.6671 80.3069 35.9302 81.3047C35.51 81.8145 35.0181 82.2706 34.4425 82.6032C34.1737 82.6888 33.9068 82.7824 33.6419 82.878C33.1719 82.9079 32.6999 82.9099 32.2299 82.9039C30.9553 82.5912 29.8878 81.6731 29.3978 80.4543C29.2027 79.6437 29.1788 78.8132 29.4038 78.0066C29.6806 77.3792 30.1168 76.8555 30.5888 76.3675C30.9154 76.1624 31.248 75.9652 31.5846 75.776Z" fill="#ade63e"/>
  <path d="M104.732 75.5692C105.504 75.4935 106.261 75.6728 106.982 75.9416C107.295 76.1746 107.603 76.4156 107.914 76.6566C108.259 77.0589 108.542 77.507 108.783 77.979C109.006 78.8015 109.018 79.65 108.785 80.4725C108.418 81.3647 107.739 82.0837 106.918 82.5796C106.164 82.8843 105.351 82.9779 104.546 82.8823C104.194 82.7409 103.843 82.6055 103.489 82.478C102.963 82.0697 102.489 81.5957 102.071 81.0799C101.941 80.7294 101.808 80.3809 101.673 80.0363C101.627 79.4966 101.629 78.9529 101.675 78.4132C101.816 78.0726 101.951 77.7321 102.085 77.3915C102.497 76.8637 102.973 76.3818 103.519 75.9894C103.923 75.852 104.329 75.7186 104.732 75.5692Z" fill="#ade63e"/>
  <path d="M122.871 75.5649C123.542 75.5131 124.202 75.6485 124.847 75.8297C125.142 76.013 125.438 76.1962 125.735 76.3814C125.775 76.4451 125.855 76.5726 125.896 76.6383C127.026 77.5286 127.273 79.1378 126.894 80.4602C126.249 82.1252 124.443 83.2245 122.662 82.88C122.395 82.7824 122.128 82.6947 121.861 82.6111C120.661 81.92 119.649 80.6852 119.73 79.2294C119.659 77.8651 120.561 76.722 121.626 75.9811C122.041 75.8457 122.457 75.7102 122.871 75.5649Z" fill="#ade63e"/>
  <path d="M49.5727 75.7767C49.9451 75.717 50.3355 75.723 50.6501 75.9639C51.9705 76.7646 53.3567 77.4616 54.6253 78.3419C54.6572 78.9035 54.6672 79.4672 54.6253 80.0288C54.4859 80.3733 54.3525 80.7199 54.225 81.0704C53.8128 81.5962 53.3348 82.0702 52.805 82.4784C52.4545 82.6019 52.108 82.7373 51.7654 82.8787C51.0703 82.9325 50.3494 82.9644 49.6981 82.6776C48.9533 82.4366 48.4235 81.8451 47.9017 81.2954C47.6607 80.7736 47.4377 80.2379 47.3361 79.6703C47.2326 79.037 47.4457 78.4176 47.5711 77.8042C47.8201 77.4019 48.0889 77.0115 48.3857 76.6411C48.7681 76.3364 49.1704 76.0556 49.5727 75.7767Z" fill="#ade63e"/>
  <path d="M88.3568 75.7822C89.1495 75.9933 89.743 76.5749 90.2648 77.1783C90.3166 77.2759 90.4221 77.4751 90.4759 77.5727C90.6073 77.9272 90.7308 78.2857 90.8622 78.6422C90.8662 79.0365 90.8682 79.4348 90.8642 79.8311C90.7009 80.2753 90.5436 80.7214 90.3723 81.1635C89.974 81.6435 89.5239 82.0816 89.03 82.464C88.6516 82.6014 88.2772 82.7428 87.9028 82.8902C87.4188 82.9101 86.9328 82.9081 86.4509 82.8842C86.0944 82.7428 85.7379 82.6034 85.3814 82.474C84.8477 82.0697 84.3737 81.5937 83.9654 81.0659C83.8359 80.7054 83.6985 80.3489 83.5571 79.9944C83.5332 79.5384 83.5252 79.0803 83.5352 78.6242C85.1026 77.6125 86.7636 76.7541 88.3568 75.7822Z" fill="#ade63e"/>
  <path d="M40.3736 84.9296C41.2698 84.593 42.2477 84.6209 43.1798 84.7743C44.4225 85.3339 45.4024 86.4372 45.6175 87.8075C45.6314 88.0584 45.6434 88.3133 45.6573 88.5682C45.478 90.0141 44.5002 91.223 43.1817 91.8125C42.2477 91.9539 41.2698 91.9898 40.3696 91.6532C39.1767 91.0179 38.2785 89.7712 38.3004 88.389C38.2028 86.9411 39.1149 85.5868 40.3736 84.9296Z" fill="#ade63e"/>
  <path d="M76.8556 84.8005C77.7876 84.6093 78.7735 84.5914 79.6776 84.916C80.544 85.3721 81.2171 86.107 81.6254 86.9933C81.8345 87.9193 81.8564 88.9092 81.5119 89.8074C81.4601 89.9129 81.3546 90.122 81.3028 90.2276C80.8766 90.8191 80.3229 91.3011 79.6896 91.6635C78.6918 92.014 77.5905 91.9981 76.5907 91.6715C76.3676 91.4763 76.0012 91.3409 76.0649 90.9824C76.051 89.186 76.051 87.3876 76.0649 85.5932C75.9872 85.1132 76.5648 85.0335 76.8556 84.8005Z" fill="#ade63e"/>
  <path d="M4.59659 84.7309C5.31357 84.6631 6.03651 84.6452 6.75547 84.7289C6.95065 84.8125 7.14782 84.8942 7.34698 84.9718C8.52401 85.6032 9.39632 86.818 9.41624 88.1783C9.48395 89.5445 8.67935 90.8152 7.53618 91.5162C7.27329 91.6257 7.01239 91.7393 6.75348 91.8568C6.03452 91.9304 5.31157 91.9205 4.59261 91.8508C4.54282 89.4788 4.53286 87.1028 4.59659 84.7309Z" fill="#ade63e"/>
  <path d="M22.2541 84.9378C23.1503 84.5953 24.1222 84.6212 25.0563 84.7665C26.2233 85.3083 27.249 86.31 27.4561 87.6245C27.8525 89.389 26.6635 91.1376 25.0622 91.8168C24.1262 91.9522 23.1483 91.994 22.2501 91.6475C21.0014 90.9803 20.1092 89.6439 20.1868 88.2C20.1809 86.8159 21.0591 85.5771 22.2541 84.9378Z" fill="#ade63e"/>
  <path d="M58.5129 84.9298C59.4051 84.5912 60.3989 84.5852 61.3171 84.8262C61.5341 84.9258 61.7532 85.0253 61.9743 85.1249C62.2332 85.352 62.6335 85.5631 62.5817 85.9733C62.5957 87.5188 62.5996 89.0643 62.5797 90.6118C62.6454 91.022 62.2352 91.2112 61.9842 91.4502C61.7552 91.5518 61.5302 91.6573 61.3051 91.7669C60.4527 91.968 59.5306 92.0019 58.6961 91.7091L58.5189 91.6773C57.7382 91.2471 57.0909 90.6137 56.6707 89.8251C56.0194 88.1641 56.5432 86.1028 58.1046 85.1488C58.2062 85.0951 58.4113 84.9835 58.5129 84.9298Z" fill="#ade63e"/>
  <path d="M94.977 84.8263C95.8951 84.5853 96.8949 84.5893 97.7871 84.9358C97.8887 84.9896 98.0898 85.0972 98.1914 85.1529C99.8823 86.1786 100.356 88.5187 99.4222 90.2116C98.998 90.809 98.4404 91.289 97.811 91.6575C96.9028 91.9881 95.915 91.9701 94.977 91.7929C93.9991 91.3348 93.2085 90.5561 92.7524 89.5762C92.6687 89.0584 92.611 88.5366 92.5532 88.0168C92.6369 87.6803 92.7026 87.3397 92.7663 87.0011C93.1168 86.2423 93.6645 85.599 94.3457 85.1171C94.5548 85.0195 94.7659 84.9239 94.977 84.8263Z" fill="#ade63e"/>
  <path d="M113.104 84.7787C114.041 84.6174 115.024 84.5895 115.925 84.934C116.62 85.3582 117.301 85.882 117.627 86.6547C118.068 87.4374 118.022 88.3556 117.942 89.2179C117.592 90.2536 116.9 91.1398 115.925 91.6536C115.02 91.9922 114.039 91.9544 113.098 91.809C111.81 91.2135 110.81 90.0365 110.657 88.5985C110.655 88.3874 110.653 88.1783 110.653 87.9712C110.82 86.5432 111.816 85.3602 113.104 84.7787Z" fill="#ade63e"/>
  <path d="M131.244 84.7647C131.967 84.6532 132.702 84.6452 133.433 84.7189C133.644 84.8125 133.861 84.9061 134.08 84.9978C134.1 87.2064 134.104 89.4151 134.078 91.6238C133.178 92.0022 132.182 91.9524 131.238 91.8169C130.085 91.2693 129.053 90.2934 128.844 88.9829C128.434 87.2064 129.629 85.4439 131.244 84.7647Z" fill="#ade63e"/>
  <path d="M30.2682 94.7705C30.796 94.2786 31.4214 93.8802 32.1483 93.7747L32.1423 93.6811C33.0146 93.5994 33.879 93.7368 34.6836 94.0854C35.285 94.5594 35.8427 95.0971 36.2549 95.7484C36.6313 96.7242 36.6592 97.8077 36.3127 98.7995C35.7212 99.9148 34.6876 100.755 33.4428 101.02C33.0445 101.016 32.6462 101.01 32.2479 100.998C31.969 100.901 31.6882 100.815 31.4074 100.731C31.0111 100.492 30.6387 100.221 30.2802 99.9307C29.9237 99.5224 29.6429 99.0564 29.4019 98.5724C29.0036 97.258 29.3023 95.7663 30.2682 94.7705Z" fill="#ade63e"/>
  <path d="M14.1025 93.6829C14.5685 93.673 15.0365 93.673 15.5026 93.6989C15.7734 93.7984 16.0483 93.892 16.3251 93.9837C17.6057 94.6767 18.5975 96.033 18.4541 97.5446C18.4481 98.9308 17.4583 100.052 16.3231 100.721C15.6141 100.96 14.8732 101.082 14.1244 101.004C13.8575 100.902 13.5867 100.813 13.3178 100.723C13.021 100.552 12.7283 100.377 12.4355 100.199C12.3997 100.134 12.326 100.004 12.2881 99.9405C10.7347 98.6997 10.7347 95.9952 12.2842 94.7504C12.32 94.6827 12.3937 94.5493 12.4295 94.4816C12.9513 94.141 13.5189 93.89 14.1025 93.6829Z" fill="#ade63e"/>
  <path d="M50.3454 93.6808C50.7836 93.6729 51.2237 93.6768 51.6619 93.6908C52.0403 93.8322 52.4207 93.9716 52.803 94.105C53.3348 94.5073 53.8088 94.9833 54.2211 95.5051C54.3505 95.8556 54.4839 96.2022 54.6253 96.5487C54.6632 97.0844 54.6612 97.6222 54.6273 98.1599C54.3286 99.1676 53.6475 99.9902 52.7931 100.588C52.3828 100.727 51.9745 100.866 51.5683 101.012C51.16 101.014 50.7557 101.012 50.3494 101.006C49.5209 100.777 48.7601 100.351 48.1786 99.7133C48.1168 99.6257 47.9914 99.4504 47.9296 99.3628C47.8699 99.2712 47.7524 99.088 47.6926 98.9964C47.2804 98.0225 47.1907 96.9391 47.5831 95.9433C47.6966 95.7262 47.8061 95.5111 47.9157 95.294C48.5311 94.5033 49.3676 93.9278 50.3454 93.6808Z" fill="#ade63e"/>
  <path d="M86.5684 93.681C86.9907 93.675 87.4149 93.675 87.8411 93.683C89.3447 94.0236 90.5377 95.2364 90.8623 96.7441C90.8683 97.1464 90.8663 97.5507 90.8623 97.955C90.6233 98.9348 90.0517 99.7753 89.281 100.415C88.807 100.636 88.319 100.827 87.8311 101.008C87.4188 101.014 87.0066 101.014 86.5983 101.008C86.2 100.865 85.8017 100.725 85.4034 100.588C84.8577 100.19 84.3777 99.7096 83.9674 99.1738C83.832 98.8034 83.6926 98.4349 83.5492 98.0685C83.5153 97.5069 83.5173 96.9432 83.6089 96.3896C83.7364 96.1048 83.8559 95.818 83.9674 95.5272C84.5868 94.6171 85.489 93.9359 86.5684 93.681Z" fill="#ade63e"/>
  <path d="M103.955 93.936C104.58 93.6412 105.277 93.6532 105.952 93.6831C106.673 93.9081 107.382 94.2208 107.916 94.7725C108.068 94.9537 108.223 95.1349 108.38 95.3181C108.438 95.4177 108.555 95.6209 108.613 95.7224C109.083 96.766 109.075 97.9411 108.607 98.9807C108.549 99.0803 108.436 99.2774 108.378 99.377C108.219 99.5543 108.064 99.7355 107.91 99.9187C107.378 100.474 106.665 100.775 105.946 101.006C105.534 101.012 105.126 101.014 104.718 101.008C104.315 100.865 103.911 100.725 103.507 100.592C102.971 100.192 102.495 99.7156 102.081 99.1938C101.949 98.8453 101.814 98.4987 101.675 98.1582C101.629 97.6204 101.629 97.0827 101.671 96.547C101.812 96.2004 101.945 95.8499 102.077 95.4994C102.609 94.882 103.148 94.1949 103.955 93.936Z" fill="#ade63e"/>
  <path d="M120.123 95.6664C120.67 94.7025 121.604 94.0015 122.666 93.6908C123.132 93.6768 123.602 93.6729 124.07 93.6848C124.791 93.9039 125.48 94.2345 126.022 94.7702C127.41 96.1504 127.406 98.5961 125.978 99.9484C125.631 100.243 125.261 100.508 124.871 100.741C124.592 100.819 124.317 100.9 124.048 100.998C123.598 101.016 123.148 101.014 122.7 100.996C122.341 100.851 121.977 100.717 121.612 100.592C121.079 100.195 120.611 99.7173 120.192 99.2035C120.145 99.0999 120.047 98.8908 119.997 98.7853C119.629 97.7835 119.619 96.6244 120.123 95.6664Z" fill="#ade63e"/>
  <path d="M58.7619 102.908C59.2697 102.806 59.7875 102.775 60.3054 102.765C60.6379 102.8 60.9705 102.844 61.3051 102.892C61.7313 103.155 62.2312 103.342 62.5459 103.754C62.6435 105.407 62.5758 107.072 62.5817 108.731C62.6196 109.128 62.2213 109.339 61.9763 109.576C60.7674 110.175 59.3016 110.199 58.1046 109.558C57.6446 109.203 57.2323 108.791 56.8798 108.333C56.3262 107.266 56.2664 105.999 56.6667 104.87C57.0252 104.242 57.4892 103.681 58.0827 103.263C58.3098 103.145 58.5368 103.028 58.7619 102.908Z" fill="#ade63e"/>
  <path d="M40.6166 102.906C41.6203 102.758 42.7456 102.607 43.6637 103.149C44.777 103.73 45.476 104.885 45.6513 106.112C45.6433 106.371 45.6334 106.632 45.6234 106.895C45.4123 107.986 44.771 108.946 43.8489 109.568C43.6259 109.663 43.4048 109.763 43.1837 109.866C42.4628 110.079 41.706 110.034 40.9671 109.976C40.3875 109.703 39.7681 109.454 39.322 108.978C38.862 108.526 38.621 107.915 38.3541 107.341C38.2625 106.415 38.2466 105.423 38.7504 104.601C39.1308 103.812 39.8837 103.324 40.6166 102.906Z" fill="#ade63e"/>
  <path d="M76.8516 102.89C77.7916 102.75 78.7834 102.677 79.6896 103.021C80.3249 103.388 80.8826 103.88 81.3128 104.477C81.4083 104.688 81.5059 104.899 81.6055 105.112C81.8644 106.037 81.8306 107.034 81.5179 107.943C81.1196 108.661 80.548 109.265 79.845 109.691C78.8153 110.133 77.6482 110.123 76.5927 109.775C76.3836 109.586 76.0092 109.474 76.0669 109.126C76.049 107.315 76.051 105.505 76.0669 103.694C75.9952 103.216 76.5728 103.129 76.8516 102.89Z" fill="#ade63e"/>
  <path d="M94.9928 102.884C95.8412 102.752 96.7135 102.719 97.554 102.918C97.7711 103.033 97.9921 103.149 98.2152 103.26C98.6752 103.605 99.0756 104.025 99.4241 104.481C99.8762 105.359 99.9618 106.351 99.8343 107.319C99.7228 107.576 99.6173 107.833 99.5137 108.096C99.0417 109.032 98.1554 109.627 97.1955 109.982C96.3789 110.048 95.5345 110.078 94.7598 109.771C94.6542 109.719 94.4411 109.617 94.3356 109.566C93.6584 109.092 93.1406 108.444 92.7562 107.717C92.5949 106.861 92.6029 105.981 92.7403 105.122C93.2163 104.141 94.001 103.344 94.9928 102.884Z" fill="#ade63e"/>
  <path d="M4.58859 102.842C5.57841 102.753 6.622 102.681 7.53614 103.149C8.35867 103.724 9.09954 104.511 9.30467 105.527C9.7727 107.216 8.78288 109.116 7.17367 109.773C6.36509 110.149 5.45095 110.016 4.59257 109.956C4.53681 107.586 4.54278 105.212 4.58859 102.842Z" fill="#ade63e"/>
  <path d="M20.2227 106.939C19.9499 105.355 20.858 103.758 22.2641 103.035C23.1005 102.71 24.0067 102.75 24.883 102.838C25.136 102.953 25.3929 103.063 25.6498 103.176C26.6097 103.792 27.3606 104.77 27.496 105.925C27.7648 107.644 26.5978 109.269 25.0503 109.922C24.3274 110.039 23.5905 110.043 22.8616 109.98C21.5192 109.522 20.39 108.386 20.2227 106.939Z" fill="#ade63e"/>
  <path d="M113.088 102.886C114.022 102.749 115.012 102.677 115.909 103.043C116.014 103.099 116.223 103.213 116.327 103.268C117.374 103.985 118.081 105.22 118 106.507C118.002 107.873 117.133 109.144 115.914 109.731C115.707 109.807 115.502 109.889 115.299 109.974C114.574 110.048 113.843 110.044 113.128 109.912C111.806 109.347 110.838 108.142 110.635 106.71C110.685 105.838 110.832 104.92 111.396 104.218C111.83 103.629 112.459 103.235 113.088 102.886Z" fill="#ade63e"/>
  <path d="M130.206 103.497C131.268 102.597 132.829 102.605 134.078 103.067C134.102 105.278 134.104 107.488 134.078 109.699C133.857 109.787 133.638 109.878 133.422 109.972C132.698 110.05 131.969 110.038 131.25 109.926C130.22 109.422 129.254 108.622 128.941 107.474C128.457 106.054 129.023 104.397 130.206 103.497Z" fill="#ade63e"/>
  <path d="M12.1586 112.88C13.0269 111.988 14.3035 111.611 15.5264 111.81C15.7893 111.904 16.0561 111.992 16.323 112.075C17.5379 112.764 18.5377 114.017 18.458 115.479C18.5138 116.837 17.6215 117.978 16.5501 118.709C16.1378 118.839 15.7295 118.974 15.3213 119.115C14.9847 119.119 14.6461 119.121 14.3095 119.125C13.6642 118.946 13.0309 118.715 12.4832 118.319C12.0033 117.781 11.4516 117.255 11.2883 116.522C10.884 115.266 11.2485 113.826 12.1586 112.88Z" fill="#ade63e"/>
  <path d="M31.3059 112.133C32.0229 111.745 32.8554 111.733 33.646 111.816C33.9089 111.91 34.1758 111.996 34.4427 112.079C35.2811 112.617 36.1076 113.328 36.3964 114.318C36.6852 115.16 36.5697 116.08 36.3088 116.915C36.02 117.425 35.6277 117.863 35.2353 118.297C34.6956 118.681 34.0762 118.922 33.4469 119.121C33.1043 119.119 32.7618 119.119 32.4212 119.117C32.0966 119.016 31.768 118.926 31.4433 118.835C31.1506 118.665 30.8598 118.494 30.573 118.321C30.5272 118.251 30.4356 118.114 30.3898 118.046C29.4776 117.353 29.2167 116.158 29.1948 115.073C29.4318 113.842 30.1428 112.677 31.3059 112.133Z" fill="#ade63e"/>
  <path d="M49.9949 111.866C50.5824 111.768 51.1799 111.764 51.7734 111.812C52.116 111.949 52.4645 112.083 52.813 112.212C53.3328 112.629 53.8168 113.097 54.229 113.622C54.3565 113.971 54.4879 114.319 54.6254 114.666C54.6652 115.202 54.6612 115.739 54.6194 116.275C54.476 116.612 54.3386 116.954 54.2091 117.297C53.8566 117.743 53.4543 118.145 53.046 118.54C52.5561 118.755 52.0542 118.942 51.5523 119.129C50.933 119.155 50.3235 119.053 49.7201 118.922C49.2421 118.685 48.796 118.394 48.3917 118.046C48.0949 117.677 47.8221 117.289 47.5712 116.889C47.4039 116.15 47.1748 115.373 47.4278 114.626C47.6349 113.537 48.4355 112.678 49.3636 112.129C49.5747 112.041 49.7858 111.953 49.9949 111.866Z" fill="#ade63e"/>
  <path d="M86.4011 111.814C86.9269 111.776 87.4547 111.774 87.9825 111.814C88.2533 111.92 88.5262 112.017 88.801 112.119C89.4662 112.491 89.994 113.051 90.4441 113.659C90.5795 114.061 90.7169 114.465 90.8643 114.867C90.8683 115.268 90.8663 115.668 90.8643 116.07C90.6313 116.795 90.3325 117.514 89.7749 118.052C89.5957 118.207 89.4144 118.361 89.2352 118.518C89.1396 118.574 88.9484 118.687 88.8528 118.743C88.1298 119.028 87.3691 119.195 86.5903 119.119C85.4014 118.805 84.2761 118.044 83.8121 116.867C83.4815 116.194 83.4994 115.431 83.5552 114.704C83.6966 114.348 83.832 113.989 83.9614 113.629C84.3697 113.103 84.8417 112.627 85.3655 112.219C85.7121 112.089 86.0566 111.954 86.4011 111.814Z" fill="#ade63e"/>
  <path d="M104.54 111.816C105.064 111.772 105.592 111.776 106.118 111.816C106.389 111.926 106.667 112.033 106.944 112.139C107.763 112.615 108.424 113.34 108.785 114.222C109.029 115.042 108.996 115.891 108.781 116.713C108.542 117.197 108.253 117.661 107.846 118.026C107.785 118.105 107.661 118.265 107.6 118.346C106.755 118.91 105.743 119.219 104.726 119.123C103.638 118.87 102.72 118.205 102.085 117.299C101.953 116.956 101.814 116.616 101.675 116.279C101.629 115.739 101.627 115.198 101.671 114.662C101.808 114.314 101.939 113.965 102.067 113.616C102.581 112.987 103.148 112.37 103.901 112.023C104.114 111.957 104.327 111.888 104.54 111.816Z" fill="#ade63e"/>
  <path d="M122.017 112.001C123.345 111.539 124.946 111.76 125.934 112.818C127.426 114.13 127.466 116.789 125.892 118.054C125.851 118.117 125.769 118.249 125.727 118.315C125.436 118.488 125.146 118.661 124.853 118.832C124.526 118.926 124.2 119.016 123.879 119.117C123.534 119.119 123.192 119.119 122.849 119.119C121.881 118.882 120.995 118.372 120.4 117.56C119.541 116.411 119.509 114.736 120.262 113.525C120.728 112.899 121.32 112.36 122.017 112.001Z" fill="#ade63e"/>
  <path d="M22.493 121.029C23.3493 120.794 24.2635 120.696 25.1059 121.053C26.8346 121.639 27.924 123.668 27.3963 125.426C27.0756 126.747 25.9404 127.812 24.608 128.063C23.2836 127.265 21.9174 126.534 20.597 125.727C20.0991 125.502 20.2265 124.883 20.1847 124.441C20.1708 122.957 21.1626 121.625 22.493 121.029Z" fill="#ade63e"/>
  <path d="M41.433 120.826C41.7557 120.808 42.0763 120.802 42.4009 120.806C42.8072 120.932 43.2155 121.059 43.6238 121.187C44.7191 121.848 45.5018 122.949 45.6512 124.236C45.6452 124.433 45.6393 124.632 45.6333 124.833C45.5496 125.164 45.4799 125.497 45.4082 125.831C44.984 126.705 44.3188 127.496 43.3947 127.863C42.6479 128.223 41.7975 128.145 40.9969 128.086C40.0927 127.733 39.1985 127.201 38.7523 126.299C38.2525 125.493 38.2604 124.517 38.348 123.605C38.7185 122.479 39.4992 121.505 40.6085 121.041C40.8833 120.972 41.1582 120.902 41.433 120.826Z" fill="#ade63e"/>
  <path d="M77.6799 120.792C77.9945 120.8 78.3112 120.816 78.6239 120.868C78.8469 120.904 79.07 120.94 79.297 120.976C80.3645 121.372 81.1731 122.228 81.6591 123.244C81.8144 124.178 81.8542 125.162 81.5097 126.062C81.0078 127.038 80.1196 127.721 79.0959 128.086C78.4745 128.137 77.8511 128.143 77.2318 128.094C76.8434 127.831 76.0547 127.821 76.0667 127.235C76.0527 125.293 76.0388 123.35 76.0806 121.408C76.5984 121.165 77.1322 120.96 77.6799 120.792Z" fill="#ade63e"/>
  <path d="M93.5549 122.017C94.1643 121.288 95.0824 120.962 95.9846 120.776C96.2376 120.796 96.4965 120.822 96.7514 120.856C97.0203 120.912 97.2951 120.97 97.5699 121.027C98.3128 121.38 98.9501 121.918 99.4181 122.597C99.4699 122.702 99.5735 122.913 99.6253 123.019C99.932 123.796 99.9101 124.64 99.8324 125.459C99.5635 126.034 99.3186 126.648 98.8545 127.1C98.3964 127.568 97.7791 127.819 97.1935 128.086C96.3132 128.189 95.413 128.159 94.5885 127.809C93.8755 127.392 93.298 126.791 92.8857 126.078C92.4296 124.736 92.4834 123.061 93.5549 122.017Z" fill="#ade63e"/>
  <path d="M112.533 121.306C113.021 121.016 113.584 120.918 114.126 120.769C114.646 120.842 115.166 120.932 115.686 121.023C116.779 121.515 117.58 122.467 117.95 123.601C118 124.21 118 124.821 117.938 125.429C117.852 125.604 117.771 125.779 117.691 125.957C116.542 126.648 115.383 127.325 114.214 127.984C113.788 128.265 113.308 127.974 112.877 127.873C112.774 127.823 112.569 127.723 112.467 127.675C111.706 127.144 111.035 126.415 110.812 125.491C110.306 123.921 111.117 122.105 112.533 121.306Z" fill="#ade63e"/>
  <path d="M58.7319 121.029C59.0685 120.958 59.4051 120.884 59.7396 120.8C59.885 120.802 60.1758 120.802 60.3212 120.804C60.604 120.868 60.8908 120.926 61.1796 120.982C61.7053 121.268 62.5896 121.471 62.5836 122.208C62.5956 123.756 62.5996 125.303 62.5796 126.851C62.6075 127.247 62.2052 127.448 61.9583 127.683C61.07 128.125 60.0742 128.219 59.1003 128.088C58.1504 127.731 57.2681 127.149 56.7941 126.225C56.6865 125.968 56.579 125.712 56.4695 125.461C56.3818 124.636 56.3719 123.788 56.6606 122.999C57.1127 122.131 57.8357 121.428 58.7319 121.029Z" fill="#ade63e"/>
  <path d="M30.0552 131.216C30.804 130.364 31.8954 129.78 33.0545 129.88C34.3192 129.87 35.4046 130.698 36.0797 131.71C36.6195 132.6 36.6673 133.698 36.4322 134.691C36.2291 134.831 36.0299 134.646 35.8467 134.568C33.9149 133.453 31.991 132.325 30.0552 131.216Z" fill="#ade63e"/>
  <path d="M48.8954 130.535C50.0546 129.685 51.7434 129.651 52.9463 130.434C53.4403 130.8 53.8445 131.272 54.2369 131.744C54.3643 132.093 54.4938 132.441 54.6272 132.792C54.8145 134.009 54.4819 135.339 53.5359 136.174C52.9802 136.805 52.1477 137.024 51.373 137.249C50.2876 137.227 49.0966 136.966 48.4015 136.06C48.3298 136.01 48.1844 135.915 48.1128 135.867C47.9116 135.524 47.7144 135.18 47.5252 134.835C47.3878 134.24 47.2862 133.636 47.3082 133.025C47.5611 132.047 48.053 131.127 48.8954 130.535Z" fill="#ade63e"/>
  <path d="M85.3636 130.316C86.1941 129.922 87.1142 129.792 88.0244 129.93C88.3669 130.067 88.7095 130.202 89.056 130.338C89.3906 130.615 89.7033 130.919 90.0339 131.202C90.4282 131.734 90.6732 132.351 90.8684 132.981C90.8684 133.373 90.8664 133.767 90.8564 134.162C90.7588 134.443 90.6692 134.727 90.5796 135.012C90.4123 135.295 90.245 135.578 90.0757 135.859C90 135.92 89.8487 136.04 89.773 136.1C88.4924 137.577 85.975 137.565 84.6427 136.165C83.7126 135.331 83.38 134.012 83.5572 132.803C83.6568 132.533 83.7504 132.262 83.844 131.991C84.2125 131.322 84.7821 130.8 85.3636 130.316Z" fill="#ade63e"/>
  <path d="M103.441 130.37C104.521 129.744 105.931 129.693 107.028 130.304C107.532 130.563 107.892 131.013 108.301 131.393C106.194 132.642 104.072 133.871 101.94 135.078C101.854 134.843 101.766 134.61 101.677 134.379C101.633 133.851 101.629 133.321 101.659 132.796C101.926 131.79 102.595 130.951 103.441 130.37Z" fill="#ade63e"/>
  <path d="M56.7644 140.961C57.567 139.274 59.7578 138.418 61.4705 139.213C61.9326 139.442 62.6336 139.712 62.5838 140.338C62.5938 141.879 62.6017 143.421 62.5798 144.964C62.6077 145.414 62.1377 145.629 61.8071 145.819C60.5126 146.534 58.7998 146.362 57.6686 145.408C57.0731 144.946 56.7644 144.239 56.4637 143.574C56.4039 142.698 56.3123 141.756 56.7644 140.961Z" fill="#ade63e"/>
  <path d="M76.0748 139.527C76.971 139.041 78.0325 138.713 79.0403 139.037C80.2552 139.304 81.1474 140.29 81.6692 141.371C81.7947 142.353 81.9201 143.437 81.3824 144.327C80.7829 145.554 79.4008 146.308 78.0485 146.255C77.3654 146.267 76.738 145.97 76.1127 145.737C75.9971 143.672 76.0688 141.596 76.0748 139.527Z" fill="#ade63e"/>
</svg>