<svg xmlns="http://www.w3.org/2000/svg" width="213" height="47" viewBox="0 0 213 47" fill="none"><g clip-path="url(#clip0_1_2108)"><mask id="mask0_1_2108" style="mask-type: luminance;" maskUnits="userSpaceOnUse" x="-5" y="0" width="218" height="48"><path d="M212.922 0H-5V47.2165H212.922V0Z" fill="white"></path></mask><g mask="url(#mask0_1_2108)"><path d="M193.93 38.3187V13.2417H197.762V28.0788L204.554 21.0783H209.081L202.985 27.6784L209.97 38.3187H205.39L200.199 30.1687L197.762 32.6416V38.3187H193.93Z" fill="#FBD000"></path><path d="M172.502 38.3185V21.0781H176.333V23.2722C177.052 22.3087 177.89 21.618 178.841 21.2C179.793 20.7705 180.781 20.5557 181.801 20.5557C183.381 20.5557 184.687 20.8691 185.72 21.496C186.754 22.1229 187.52 22.9299 188.019 23.9168C188.53 24.9036 188.784 25.9193 188.784 26.9642V38.3185H184.954V28.1484C184.954 26.9177 184.582 25.9309 183.839 25.188C183.107 24.4449 182.086 24.0735 180.773 24.0735C179.914 24.0735 179.148 24.2649 178.476 24.6481C177.813 25.0312 177.29 25.5653 176.907 26.2502C176.525 26.9235 176.333 27.713 176.333 28.6186V38.3185H172.502Z" fill="#FBD000"></path><path d="M158.074 38.8408C156.878 38.8408 155.827 38.6202 154.922 38.1791C154.016 37.7263 153.308 37.0936 152.797 36.281C152.298 35.4567 152.048 34.4871 152.048 33.3726C152.048 32.4323 152.286 31.5847 152.762 30.8302C153.238 30.0638 153.976 29.4311 154.974 28.9319C155.984 28.4327 157.278 28.1018 158.858 27.9393C160.436 27.7651 162.334 27.7884 164.552 28.009L164.622 30.656C163.043 30.4354 161.684 30.3426 160.547 30.3773C159.409 30.4121 158.474 30.5572 157.743 30.8127C157.023 31.0565 156.489 31.3873 156.141 31.8054C155.804 32.2116 155.636 32.6818 155.636 33.2159C155.636 34.0518 155.932 34.6961 156.524 35.1489C157.128 35.6018 157.952 35.8281 158.997 35.8281C159.891 35.8281 160.692 35.6655 161.4 35.3405C162.108 35.0154 162.665 34.5568 163.072 33.9648C163.49 33.3726 163.699 32.676 163.699 31.8749V27.2949C163.699 26.5288 163.536 25.867 163.211 25.3097C162.886 24.7409 162.393 24.2996 161.731 23.9861C161.069 23.6727 160.245 23.516 159.258 23.516C158.352 23.516 157.458 23.6553 156.576 23.934C155.694 24.201 154.852 24.6247 154.051 25.2052L152.971 22.3841C154.051 21.6527 155.177 21.1361 156.35 20.8341C157.522 20.5323 158.648 20.3813 159.728 20.3813C161.33 20.3813 162.7 20.6369 163.838 21.1477C164.987 21.6469 165.87 22.4073 166.485 23.429C167.1 24.4391 167.408 25.7161 167.408 27.2601V38.3184H163.96V36.281C163.379 37.1053 162.573 37.738 161.539 38.1791C160.506 38.6202 159.351 38.8408 158.074 38.8408Z" fill="#FBD000"></path><path d="M131.716 38.3184V13.938H140.092C142.426 13.938 144.312 14.4604 145.752 15.5053C147.192 16.5386 147.911 18.0652 147.911 20.0853C147.911 20.8631 147.726 21.6005 147.354 22.2969C146.994 22.9819 146.524 23.5857 145.943 24.108C145.363 24.6305 144.759 25.0137 144.132 25.2574C145.456 25.6638 146.559 26.4067 147.441 27.4865C148.335 28.5662 148.782 29.8955 148.782 31.4745C148.782 32.8095 148.445 33.9937 147.772 35.027C147.099 36.0487 146.141 36.8556 144.899 37.4476C143.656 38.0282 142.182 38.3184 140.475 38.3184H131.716ZM135.617 35.2535H139.814C141.485 35.2535 142.728 34.9284 143.54 34.2783C144.353 33.6165 144.759 32.6239 144.759 31.3004C144.759 29.9885 144.347 28.99 143.523 28.305C142.71 27.62 141.451 27.2775 139.744 27.2775H135.617V35.2535ZM135.617 24.3519H139.483C140.423 24.3519 141.236 24.201 141.921 23.8992C142.606 23.5973 143.14 23.1619 143.523 22.5931C143.906 22.0241 144.098 21.3391 144.098 20.5381C144.098 19.4003 143.691 18.5296 142.879 17.9259C142.077 17.3106 140.928 17.0029 139.43 17.0029H135.617V24.3519Z" fill="#FBD000"></path><path d="M116.782 38.8408C115.587 38.8408 114.536 38.6202 113.63 38.1791C112.725 37.7263 112.017 37.0936 111.506 36.281C111.007 35.4567 110.757 34.4871 110.757 33.3726C110.757 32.4323 110.995 31.5847 111.471 30.8302C111.947 30.0638 112.684 29.4311 113.683 28.9319C114.693 28.4327 115.987 28.1018 117.566 27.9393C119.145 27.7651 121.043 27.7884 123.261 28.009L123.33 30.656C121.751 30.4354 120.393 30.3426 119.255 30.3773C118.118 30.4121 117.183 30.5572 116.452 30.8127C115.732 31.0565 115.198 31.3873 114.849 31.8054C114.513 32.2116 114.344 32.6818 114.344 33.2159C114.344 34.0518 114.64 34.6961 115.233 35.1489C115.836 35.6018 116.661 35.8281 117.706 35.8281C118.599 35.8281 119.4 35.6655 120.109 35.3405C120.817 35.0154 121.374 34.5568 121.781 33.9648C122.198 33.3726 122.407 32.676 122.407 31.8749V27.2949C122.407 26.5288 122.245 25.867 121.92 25.3097C121.595 24.7409 121.101 24.2996 120.44 23.9861C119.778 23.6727 118.954 23.516 117.967 23.516C117.061 23.516 116.167 23.6553 115.285 23.934C114.403 24.201 113.561 24.6247 112.76 25.2052L111.68 22.3841C112.76 21.6527 113.886 21.1361 115.059 20.8341C116.231 20.5323 117.357 20.3813 118.437 20.3813C120.039 20.3813 121.409 20.6369 122.547 21.1477C123.696 21.6469 124.578 22.4073 125.194 23.429C125.809 24.4391 126.117 25.7161 126.117 27.2601V38.3184H122.669V36.281C122.088 37.1053 121.281 37.738 120.248 38.1791C119.215 38.6202 118.059 38.8408 116.782 38.8408Z" fill="#FBD000"></path><path d="M98.1143 38.3185L91.6709 21.0781H95.8679L100.64 35.0272H100.065L104.749 21.0781H108.824L102.503 38.3185H98.1143Z" fill="#FBD000"></path><path d="M80.8007 38.841C79.0012 38.841 77.3931 38.4288 75.9768 37.6045C74.5721 36.7685 73.469 35.6599 72.668 34.2784C71.8669 32.8852 71.4663 31.3584 71.4663 29.6982C71.4663 28.4677 71.6928 27.3067 72.1455 26.2155C72.6099 25.1124 73.26 24.1372 74.0959 23.2897C74.9434 22.4423 75.9361 21.7748 77.0738 21.2872C78.2116 20.7996 79.4597 20.5557 80.8181 20.5557C82.6176 20.5557 84.2197 20.9735 85.6244 21.8094C87.0409 22.6337 88.1495 23.7426 88.9506 25.1357C89.7516 26.5173 90.1522 28.038 90.1522 29.6982C90.1522 30.9173 89.92 32.0783 89.4556 33.1812C89.0029 34.2841 88.3586 35.2594 87.5226 36.1068C86.6867 36.9543 85.6999 37.6219 84.5622 38.1095C83.4244 38.5971 82.1705 38.841 80.8007 38.841ZM80.8007 35.445C81.8687 35.445 82.8148 35.2129 83.6391 34.7486C84.475 34.2726 85.131 33.605 85.6069 32.7459C86.0829 31.8867 86.321 30.8708 86.321 29.6982C86.321 28.5256 86.0829 27.5099 85.6069 26.6508C85.131 25.78 84.475 25.1124 83.6391 24.6481C82.8148 24.1837 81.8687 23.9514 80.8007 23.9514C79.7325 23.9514 78.7805 24.1837 77.9446 24.6481C77.1203 25.1124 76.4702 25.78 75.9942 26.6508C75.5298 27.5099 75.2976 28.5256 75.2976 29.6982C75.2976 30.8708 75.5356 31.8867 76.0116 32.7459C76.4876 33.605 77.1377 34.2726 77.962 34.7486C78.7979 35.2129 79.7441 35.445 80.8007 35.445Z" fill="#FBD000"></path><path d="M47.2617 38.3184V13.938H50.9886L63.3006 31.6487V13.938H67.097V38.3184H63.3702L51.0755 20.3988V38.3184H47.2617Z" fill="#FBD000"></path><mask id="mask1_1_2108" style="mask-type: alpha;" maskUnits="userSpaceOnUse" x="-43" y="7" width="124" height="36"><path d="M47.4302 42.7458C41.4544 42.7458 35.4774 42.7037 29.5027 42.7609C25.8185 42.796 23.0723 40.4388 22.264 37.8902C21.8868 36.7034 21.7653 35.4231 21.6215 34.1757C20.9605 28.4474 16.9796 23.3464 10.5587 22.5147C9.84736 22.4224 9.12197 22.4119 8.40244 22.4095C-3.686 22.3768 -15.7744 22.3523 -27.8629 22.3267C-28.4485 22.3251 -28.742 22.0392 -28.7437 21.4692C-28.7437 17.0119 -28.7437 12.5545 -28.7437 8.09592C-28.7437 7.53292 -28.466 7.25064 -27.9108 7.24908C-15.667 7.23271 -3.42318 7.22454 8.82062 7.19534C11.7758 7.18833 13.8936 8.55848 15.3747 11.0243C16.2018 12.4003 16.4693 13.9457 16.7017 15.5132C17.2997 19.5255 18.9211 22.9866 22.3283 25.4021C24.4249 26.888 26.7984 27.5234 29.353 27.5269C41.6553 27.5421 53.9576 27.5572 66.2596 27.5725C66.8593 27.5725 67.1595 27.8715 67.1602 28.4696C67.1602 32.927 67.1602 37.3844 67.1602 41.8429C67.1602 42.6476 67.1578 42.6512 66.3484 42.6512C60.0419 42.6512 53.7344 42.6512 47.4279 42.6512V42.7458H47.4302Z" fill="white"></path><path d="M-15.9111 42.6537C-24.4544 42.6537 -32.999 42.6537 -41.5423 42.6537C-42.4078 42.6537 -42.4102 42.649 -42.4102 41.7822C-42.4102 37.3062 -42.4102 32.8301 -42.4102 28.3529C-42.4102 27.5807 -42.402 27.5738 -41.6276 27.5726C-24.7348 27.5562 -7.8409 27.5375 9.05185 27.5259C13.1751 27.5235 16.5159 30.9484 16.5929 35.0787C16.6548 38.3376 14.3503 41.8768 10.4115 42.6384C9.8625 42.7447 9.28896 42.7588 8.72712 42.7588C0.51437 42.7657 -7.69838 42.7634 -15.9123 42.7634V42.6524L-15.9111 42.6537Z" fill="white"></path><path d="M54.3731 22.3816C46.0822 22.3816 37.7912 22.3126 29.5013 22.4143C26.0287 22.4564 22.3223 19.9928 21.7721 15.817C21.2126 11.5722 24.0568 8.08901 27.8158 7.32509C28.2502 7.23632 28.7024 7.20361 29.1462 7.20361C46.0973 7.21413 63.0484 7.23165 79.9997 7.248C80.8267 7.248 80.8289 7.2515 80.8289 8.09837C80.8289 12.5546 80.8289 17.012 80.8289 21.4682C80.8289 22.3197 80.8267 22.3231 79.9459 22.3231C71.4214 22.3231 62.8979 22.3231 54.3731 22.3231V22.3816Z" fill="white"></path></mask><g mask="url(#mask1_1_2108)"><path d="M0.691124 43.4058L37.7192 43.4058L37.7192 6.49442L0.691124 6.49442L0.691124 43.4058Z" fill="#FBD000"></path></g></g></g><defs><clipPath id="clip0_1_2108"><rect width="213" height="47" fill="white"></rect></clipPath></defs></svg>